<svg width="246" height="274" fill="none" xmlns="http://www.w3.org/2000/svg"><path fill-rule="evenodd" clip-rule="evenodd" d="M182.648 94.816c3.298.072 32.013-7.205 37.358 10.355 4.084 13.426 1.499 17.421-5.626 49.52-2.069 9.302-5.658 18.052-8.894 26.95-2.149 5.91-4.009 11.931-6.425 17.737-1.74 4.163-2.829 8.716-5.891 12.18-2.483 2.811-5.245 5.326-9.18 6.276-3.576.862-7.015 2.258-10.525 3.387-24.837 7.957-16.532 2.314-23.209 17.42-2.202 4.987-5.913 7.667-11.11 8.731a86.477 86.477 0 01-13.193 1.643C62.062 252.076 4.466 204.72 7.017 196.285c.54-1.775.97-3.586 1.557-5.344 1.748-5.256 14.206-37.483 14.282-37.807 1.51-6.544 4.943-12.226 7.208-18.412 3.765-10.281 9.946-19.285 33.817-87.924 1.607-4.631-4.055-19.608 17.793-23.878 21.351-4.173 31.86-17.17 44.147.284 3.497 4.966 7.369 16.088 15.836 14.99 7.329-.95 11.001-1.1 15.043-.012 22.794 6.135 8.939 9.906 21.909 16.53 4.7 2.399 8.642 5.64 11.339 10.163 7.291 12.223-3.086 13.007-5.408 23.696-.435 2-1.18 3.935-1.892 6.245zm-129.02 12.835l.07-.042c-1.1-.455-1.185-1.58-1.624-2.473-.88-1.792-1.702-3.624-3.056-5.392-1.662 2.183-2.127 4.173-.775 6.445.2.338 2.62 5.348 2.981 5.302 2.637-.316 4.517 8.899 9.63 14.564.201.22.183.367-.067.453-.987.202-1.11-1.562-2.585-.87.846 2.232 2.817 4.178 2.228 6.826-1.479-.994-1.778-2.673-2.325-4.167-1.564-4.25-3.15-8.47-5.526-12.368-2.468-4.058-5.103-9.939-6.169-10.065-2.324 5.623-2.835 4.474.916 10.004.89 1.307.998 3.43 3.329 3.377.14-.004.349.47.426.752 1.17 4.125 3.798 7.482 5.795 11.175.745 1.372 1.75 2.153 3.125 2.691.141-.581.252-1.057.366-1.528 1.263 1.921 2.494 3.873 4.618 5.051-3.013-.527-4.981-3.103-8.078-3.672 1.123 3.832 2.578 7.205 6.673 8.915-1.232.321-1.914-1.066-2.214-.609-.741 1.135-.987.824-1.524-.064-1.233-2.041-3.488-2.681-5.348-3.93.267 1.015 1.149 1.815 1.134 2.6-.054 3.024 1.601 4.792 4.181 6.056-.76.438-1.411-.53-1.844.199-.331.548.772 1.288-.18 1.915-1.031-1.506-1.268-3.511-2.91-4.604-.3-.199-.253-.465-.224-.782.244-2.348-.043-2.67-10.88-21.182-.64-1.099-1.124-2.363-2.313-3.107-2.784 4.478-1.98 5.831 6.369 20.275.418-3.319-2.14-5.241-1.561-7.889 1.894 3.433 3.195 7.15 4.102 10.86.898 3.675 2.697 5.957 6.012 7.505 1.39.649 3.157 1.09 3.766 2.876l.063-.031c-2.346-1.278-4.467-3.026-7.353-3.661-.145 1.938 1.21 3.239 1.258 4.874.04 1.247.755 1.939 1.861 2.543 1.05.573 2.651.703 2.772 2.405l.008.002c-1.96-1.924-4.898-2.242-6.89-4.184.379-.57.968.023 1.396-.265-.537-3.162-3.783-8.838-6.541-11.176 1.93 4.004 1.849 8.521 5.226 11.526-.675-.088-1.165-.101-.965.891.372 1.88 1.358 3.612 1.291 5.57-1.107-.942-1.303-2.333-1.62-3.599-.973-3.899-3.803-6.598-5.898-10.19l-.763 1.884c-.673-.282-.744-.946-.897-1.518-.915-3.396-2.416-10.075-6.675-14.769-1.85 2.794-1.891 5.243-.017 7.997.867 1.283 6.432 10.274 6.23 11.814-1.35 1.123 1.247 4.489 2.393 5.158.382.222 1.007-.159.937-.813-.107-1.037-.636-1.885-1.364-2.614l.041.088c.548-1.927-1.25-3.545-.715-5.464 1.826 2.33 2.037 5.266 2.883 7.946.712 2.26 2.051 3.661 4.193 4.497.687.268.91-.122 1.23-.497.861 1.431 2.106 2.286 3.612 3.073 1.575.825 3.4 1.255 4.806 2.398-4.136-.931-7.64-3.396-11.75-4.814 1.097 4.196 2.58 7.647 6.769 8.986.116.037.148.345.222.528l.087-.04c-3.245-1.43-6.419-2.975-9.103-5.38.9-.204 1.582.958 2.644.418-.357-3.71-3.585-5.009-5.768-7.176.105 2.78 1.121 5.085 3.202 6.883-.74.175-.915.467-.593 1.274.538 1.335 1.91 2.411 1.52 4.136-1.118-.24-.9-1.436-1.632-1.852-1.462-3.348-3.203-6.587-3.97-10.21-.664-3.138-1.935-6.001-3.646-8.735-.83-1.331-2.488-2.773-.81-4.685.136-.16-.152-.762-.337-1.11-.963-1.782-1.958-3.544-3.134-5.665-4.693 8.704-1.118 6.933-1.694 9.39-.737-.022-.696-1.301-1.612-1.026-1.43 2.358-1.412 4.541.413 6.725.59.705 1.479 1.481 1.149 2.667l.076-.043c-1.906-.403-1.648-2.772-3.38-3.59-1.216 2.407-2.818 4.669-1.922 7.652-4.496 2.592-.69 7.063 2.534 12.51 1.049-.123 1.599-1.014 2.499-.727 2.946 7.427 3.102 8.555 5.928 8.037-.336-2.293-1.451-4.178-2.866-5.97-1.405-1.782-7.912-12.043-8.144-13.972 2.056 1.619 2.446 4.826 5.374 5.612.678 2.854.844-.704 1.256-.209.864.75.88 1.751 1.128 2.603 1.19 4.115 3.127 7.797 5.792 11.167 2.333 2.953 4.125 6.418 8.244 7.465-2.88.166-4.753-2.18-7.35-2.671-.301 1.24.976 1.752.795 2.768-1.562 1.291-2.076-.347-2.91-1.07-.86-.748-1.279-1.959-2.89-2.943.873 2.032 1.066 3.74 2.592 4.448 2.343 1.095 4.365 2.697 6.687 3.836 3.575 1.759 7.122 3.584 10.675 5.4-6.077-1.927-11.709-4.781-16.681-8.057-1.263.399-.022 1.547-1.348 1.808-.533-2.022-1.83-3.567-3.314-4.978.45-.034 1.327.158.962-.618-1.002-2.127-.752-5.048-3.708-6.023-.376-.125-.567-.817-.836-1.251-1.89-3.062-3.966-6.014-5.626-9.219-.28-.544-.646-1.049-1.009-1.544-.484-.658-1.213-.664-1.461.017-2.758 7.445 2.151 7.777 6.418 15.22.256.445.368 1.269 1.26.789-.508-2.021-2.08-3.666-2.054-5.879 1.19 1.894 2.163 3.888 3.128 5.885.502 1.034.988 2.082 2.381 2.12-.94-.097-1.409.15-.984 1.198 1.31 3.21 3.368 5.86 6.035 8.029.506.413.947.716.966 1.395l.054-.03c-.81-.898-1.974-.755-2.88-1.186-.68.921.705 1.606-.119 2.471-1.113-1.005-1.079-2.697-2.09-3.641-.998-.936-2.262-1.588-3.385-2.349.578-1.18 1.659.477 2.237-1.05-2.096-2.259-4.641-4.383-6.643-6.986-.038-.049-.198-.011-.299-.013-.681-4.066-3.667-6.797-5.549-10.352-2.177 2.734-2.051 5.049-.2 7.461 1.416 1.848 2.492 3.969 3.996 5.732 1.56 1.829 1.472 3.295 4.51 3.691.695.544.849 1.406 1.107 2.141 1.432 4.065 4.476 6.712 8.004 8.765 2.803 1.632 5.578 3.382 8.65 4.53.562.211 1.219.342 1.267 1.134l.083-.041c-4.96-1.216-8.975-4.566-13.659-6.343-.536.995.782 1.746-.193 2.503-.214-.233-.452-.432-.615-.682-1.203-1.841-1.528-4.317-3.88-5.351-.196-.085-.306-.504-.35-.783-.395-2.591-.39-2.592-3.164-2.828 1.741 3.299 3.408 6.468 5.098 9.622.34.637.868 1.135 1.51 1.503 2.42 1.394 10.266 5.7 10.699 6.742l.075-.039c-2.943-1.028-5.429-2.938-8.228-4.248-.707-.333-1.305-.524-1.938.255 28.195 16.034 56.322 19.818 64.36 22.427-.396.055-.817.221-1.188.144-43.042-8.81-65.132-21.98-63.9-21.599-.888-.275-1.257-1.328-1.475-2.88-.053-.375-.29-.793-.572-1.051-.45-.407-1.052-.648-1.51-1.054-.843-.753-2.807-.866-1.651-2.87.127-.226-.716-1.513-1.045-1.287-1.638 1.117-1.561-.503-2.076-1.14-.54-.674-.775-1.598-1.988-2.374.24.976.283 1.58.53 2.085.947 1.943 2.05 3.817 2.92 5.792.64 1.447 1.488 2.686 2.639 3.746 20.73 19.125 72.318 27.027 72.318 27.027-24.89-3.381-48.826-9.652-70.282-23.333-1.147 2.466 30.216 19.723 60.694 24.017-9.017-.014-31.69-5.419-53.011-17.391-2.069-1.162-4.157-3.006-6.298-3.1-2.221-.097-3.465-1.243-5.043-2.146-.822-.47-1.452-1.297-2.575-1.493.962 6.565 79.217 42.077 98.64 31.997-11.024-1.22-16.902-1.453-14.205-2.73.514-.243 1.005-.026 1.507.051 11.14 1.695 10.892 2.364 15.347-.997-1.656.024-2.476.674-3.414.962-.586.18-1.123.569-1.766.472-.493-.076-1.101-.175-.983-.879.073-.422.565-.797.905-.676.907.314 1.635.309 2.58-.647-12.177-.859-11.503-.609-13.068-1.804 2.883.058 6.065 1.453 8.254.21 2.355-1.337 5.659-.805 7.334-3.751-4.971-.442-9.9-.285-14.725-1.191.868-2.523 13.28 2.362 12.614-1.167-1.081-.882-2.537.921-3.595-.615 1.974-.999 4.297-.282 6.396-1.933-14.31-.898-13.603-.554-15.068-1.953 2.828 1.048 5.552.181 8.18.767.365.082 1.078.005 1.15-.179.723-1.897 2.748-1.465 4.027-2.336.841-.576 2.07-.648 2.704-1.957-4.28-.704-8.432-.236-12.411-1.242 2.049-.393 4.077-.161 6.109-.083 1.01.039 2.129.21 2.893-.707.505-.605 1.649-.627 1.277-2.081-.38-1.498-1.291-.93-2.086-1.083-2.215-.422-4.58.154-7.2-1.011 7.118-.919 11.207 2.475 16.062-2.682-1.176-.628-2.211-.561-3.326-.19-1.131.373-1.83 1.318-2.79 1.905-.235.143-.396.119-.5-.095-.328-.953 1.42-.938.855-2.127-2.904-.618-6.084-.051-9.004-1.267 2.35-.097 4.689.007 7.017.172.631.045 1.51.259 1.753-.223.894-1.758 2.778-1.321 4.102-2.074.583-.334 1.447-.293 1.544-1.267-1.048-.652-2.099-.688-3.214-.143-.541.263-1.281.696-1.726.309-1.442-1.239-3.148-.611-4.719-.872-.886-.147-1.779-.247-2.668-.37 3.361-.548 6.613-.019 9.86-.549 4.258 1.454 5.673.562 8.415-3.432-2.448-.132-2.826-.029-4.744 1.335-1.165.82-2.145 1.947-3.68 2.119.233-.431.463-.864.695-1.297-1.182-.279-.685-1.866-1.92-2.315-.886-.324-1.933.316-3.014-.714 2.104.076 3.845.026 5.549.227 3.751.446 6.107-1.469 8.101-4.352-3.682-2.109-4.927 3.168-7.117 1.822l.046.087c.652-.685 1.789-.954 1.997-2.142-2.914-.708-5.909.41-8.591-1.019l.046.105c4.062.139 7.281-1.451 9.77-4.714-.904-.605-1.937-.707-2.695-.31-1.5.778-2.745.89-4.346.112-.99-.479-2.431.071-3.76-.867 11.127-.249 6.287-.266 11.728-4.555-4.586-.711-9.214.545-13.688-.737 4.114.034 8.191-.532 12.295-.425 3.159.084 6.041-2.072 7.172-5.395-2.346.765-4.12 2.746-6.623 2.889.126-.903 1.505-.843 1.29-1.732-1.486-1.078-2.656.453-3.899.096-2.018-.584-4.07-.332-6.098-.516-1.21-.11-2.569.341-3.986-.676 8.09-1.09 11.153 2.328 15.219-4.119-4.255-.88-8.377-.411-12.387-1.335.384-.621.809-.617 1.214-.557 2.755.387 5.538.332 8.298.575 4.453.39 6.958-2.531 10.286-5.28-8.109-.137-5.858 2.893-10.782 4.465 1.391-1.951 3.309-2.571 4.346-4.471-2.184-.093-4.042.302-5.949-.1-1.954-.412-4.03-.241-6.054-.323 1.013-.954 2.136-.692 3.206-.708 1.648-.029 3.3.067 4.949.095.612.009 1.334.173 1.767-.337 1.453-1.698 3.617-2.703 4.792-4.893-3.944-.831-7.977-.194-11.762-1.491.817-.139 1.64-.171 2.435-.047 7.332 1.135 7.972-2.288 9.952-3.306 1.839.62 2.39.423 4.003-1.46-1.735-.443-2.532 1.61-4.098 1.48.186-.359.62-.853.51-1.048-.284-.498-.893-.227-1.367-.194-.173.009-.337.187-.505.288l-.004.029-.256-1.282c2.533.483 4.64-.268 6.394-2.142.466-.498.883-1.18 1.767-1.021.006 1.189-1.601 1.253-1.692 2.606.99.205 2.059.356 2.862-.327.812-.679 2.374-1.403 1.815-2.548-.81-1.663-1.717.163-3.124.344-1.989-2.245-5.325 2.295-7.883 2.061.385-1.031 1.843-1.198 2.27-2.994-3.188 1.223-6.012.79-8.836.21l.029.075c.217-.413.591-.508 1.01-.464 3.095.317 5.995.016 8.265-2.457.079-.084.376.032.583.048-.112.875-1.161 1.101-1.432 2.19 3.037.126 3.782-2.585 5.738-3.898-2.042-1.276-2.411 1.43-4.451 1.787 1.421-3.645-1.951-1.058-2.601-2.607 1.445-1.601 3.516-2.565 4.759-4.509-1.567-.585-3.011.386-4.475-.51 7.484-2.185 2.073 3.675 12.33-7.369.534-.576.136-.871-.448-1.026 1.697-.542 2.978-1.99 4.822-2.213-.455 1.104-2.011 1.391-2.144 2.811 1.388-.197 1.982-1.421 2.992-2.045.449-.277.692-.739.16-1.224 1.547-.993 3.135-1.887 4.992-2.159-1.987 2.097-4.123 4.011-6.497 5.669-.47.325-.742.929-1.101 1.41-2.478.954-4.179 3.04-6.395 4.38-.623.378-.319 1.072-.293 1.65-2.874.573-4.616 2.779-6.851 4.445 2.116 1.465 6.818-2.146 7.379-3.799.042-.124-.39-.404-.571-.627 3.169-1.02 5.298-3.165 6.683-6.129.484.6 1.131-.607 1.605.146-.636 1.286-2.267 1.942-2.495 3.565 2.246.519 2.862-2.886 4.457-2.987 2.966-.187 4.538-2.565 6.809-3.799 2.465-1.345 3.163-3.463 3.388-6.356-2.015.859-3.766 1.597-5.515 2.339 2.552-3.569 6.805-1.862 7.309-8.208-3.827.867-9.655 6.49-15.232 9.441-.996.525-1.886 1.243-2.821 1.876-.598.408-1.244.789-1.064 1.687-.646.3-1.266.669-1.935.89-.987.327.305 1.469-.594 1.659-2.441.525-4.06 2.369-6.061 3.596-.346.213-.748.31-.972-.354 1.005-.708 2.298-1.178 2.985-2.529-3.778-.658-7.549.456-11.098-.916 8.902-.39 8.591 1.771 14.56-5.328-3.732.183-7.328-.274-10.956-.33 9.96-1.643 5.134 1.929 12.639-4.599-4.93-.272-9.4.659-13.713-.702 4.398.111 8.788.025 13.174-.25.844-.05 2.184-.047 2.116-.753-.203-1.976 1.27-2.004 2.347-2.459 1.037-.44 1.574-1.283 2.16-2.126-.133-1.345 1.999-.546 1.831-2.041-1.399.021-1.981.696-1.835 2.054-3.597-2.36-6.385 2.714-9.032 3.483.559-1.388 2.206-1.778 2.791-3.478-3.952-.102-7.763.132-11.777-.457 2.967-1.92 13.264 2.916 17.207-4.558-1.905-.342-2.855 1.437-4.43 1.464l.039.067c-.291-.617 1.55-1.404-.149-1.913 3.115-.469 5.042-2.494 6.657-5-1.655.4-3.047 1.663-4.871 1.169-.142-1.781-3.178-.038-4.832-1.335 3.46-.58 7.335.313 9.281-3.641-2.576-.879-3.576 2.192-5.896 2.175.017-.939 1.476-.901 1.228-1.979-1.461-.838-2.662.467-3.746-.952 5.053-.301 8.053.442 9.182-4.552-2.328-.084-3.285 2.464-5.667 2.785.832-1.345-.658-1.739-1.017-2.846 3.959.632 6.409-1.425 8.882-4.52-2.619.373-4.325 2.123-6.58 1.88l.04.077c-.052-.683.375-1.39-.088-2.054 1.129 1.004 3.166-.04 1.594-.745 3.097-.375 5.198-2.228 7.394-4.78-3.346.369-5.534 2.05-7.746 3.631-.947.677-.093.898.462 1.105-.357.68-1.348.137-1.675.871-.517-.259-1.033-.515-1.472-.736.769-.994 1.958-1.522 2.34-2.928.389-1.438 2.606-.615 3.256-2.33-3.589.216-7.009-.134-11.012-.625 4.142-1.007 8.243 1.172 11.377-1.973-.925.082-2.185.55-2.667-.097-1.201-1.6-1.886-1.124-8.557-1.472 5.175-1.114 10.549-.088 15.548-2.174-1.079-.462-2.174-.222-3.217.005-2.995.653-1.732-1.47-5.204-.977-.803.114-1.568.13-2.546-.553 2.693-.256 5.101-.488 7.513-.718-10.426-3.272-33.792-2.566-58.748-17.5-1.68-1.005-3.466-1.835-5.251-2.643-1.123-.51-2.899.045-3.226 1.007-.43 1.277.465 1.206 5.24 4.146 3.351 2.062-.645 1.81 4.005 3.588 6.547 2.508 13.08 5.073 19.721 7.296 7.911 2.645 16.031 4.59 24.235 6.137l-.05-.06c-.33 1.573-20.022-3.977-23.322-5.012a215.553 215.553 0 01-4.991-1.62c-1.56-.525-3.167-.96-4.639-1.676-1.496-.73-3.073-1.167-4.613-1.746-1.542-.575-3.119-1.064-4.625-1.723-1.602-.697-3.061-1.955-4.709-2.223-1.95-.32-.87-2.601-2.52-2.962-2.11-.457-4.173-3.495-6.989-2.403-1.007.388-1.943-.19-2.695-1.047-1.57-1.784-3.648-2.786-5.863-3.738-.17 1.808.856 2.542 2.035 3.315 1.567 1.033 3.644 1.466 4.426 3.494l.043-.024c-1.554-.752-3.108-1.513-4.68-2.277-.314 1.097 1.045 1.466.564 2.536-2.427-.712-1.505-4.823-4.686-4.821.05 3.76.64 4.593 3.374 6.462 16.71 11.432 41.175 16.845 52.381 20.282-5.323-1.659-22.714-4.132-45.285-14.951-2.269-1.087-4.88-1.731-6.503-3.967-.239-.326-.834-.703-1.35-.205-.852.825-1.25.135-1.655-.487-.221-.342-.404-.714-.588-1.083-.297-.585-.782-1.174-1.396-.918-.761.313-.743 1.12-.535 1.88.502 1.856 1.302 3.404 3.278 4.163 1.082.415 2.353.808 2.61 2.264l.085-.038a2696.99 2696.99 0 00-3.662-1.847c-.828.333.073 1.336-1.047 1.535-.8-1.248-.81-3.197-2.646-3.815-.588.535-1.315 1.064-1.12 1.99.256 1.21.706 2.373 1.833 3.08 7.057 4.417 7.341 4.045 6.99 5.258l.01-.005c-1.898-1.642-4.047-2.806-6.378-3.618-.813 1.38 1.097 1.985.648 3.359-.831-.373-1.138-.962-1.44-1.592-.791-1.661-1.66-3.29-2.403-4.97-.326-.74-.717-.896-1.408-.616-.555.224-1.357.33-1.02 1.17.867 2.165 1.308 4.688 3.186 6.181 7.674 6.105 18.553 8.127 19.044 11.045l.009-.012c-.266-.672-.91-.881-1.485-.958-2.805-.388-3.778-1.17-16.742-8.197-.514 1.042.65 1.94-.013 3.29-1.566-3.37-3.437-6.165-4.417-9.412-.348-1.156-.687-2.812-1.673-3.147-2.197-.737-2.669-2.672-3.767-4.192-1.513-2.095-2.112-4.827-4.34-6.508-2.349 3.484-.648 5.047 1.887 8.594.416.581 1.062 1.639 1.372 1.56 2.601-.647 2.317 1.515 2.85 2.794 1.877 4.515 3.91 8.915 7.873 12.07.236.19.181.366-.115.403-1.406-.092-2.104-1.8-3.832-1.81.898 1.934.775 4.121 2.74 5.451 5.115 3.46 10.32 6.745 16.12 8.97.752.292 1.66.379 1.776 1.44l.066-.025c-1.441-.162-2.768-.565-4.062-1.296-2.754-1.558-10.39-5.245-11.021-6.04-1.447-1.824-4.263-1.456-5.388-3.772-.336-.687-1.606-.502-2.484.08.75 2.772 1.833 5.119 4.544 6.33.44.195.959.429.99 1.052l.082-.054c-4.562-1.454-4.626-1.41-6.605-4.465-.83-1.286-1.77-1.787-3.251-1.411.604 3.557 1.818 6.628 5.523 8.115.635.256 1.538.675 1.664 1.646l.092-.046c-1.098-.322-2.057-.901-2.977-1.564-.356-.254-.764-.264-1.138.002-.399.283-.37.65-.213 1.067.65 1.715 1.163 3.436 3.177 4.245.739.297 1.71.743 2.08 1.699l.094-.063c-1.177-.079-1.962-1.073-3.03-1.358-.628.688.576 1.316-.013 1.973-.95-1.057-2.66-4.227-2.908-5.154-.737-2.76-2.329-4.952-4.871-7.294.667 2.118.906 3.703 1.632 5.019 1.92 3.472 2.06 8.08 6.456 10.018-1.003.712-1.564-.653-2.385-.233-.624.771.964 1.483.086 2.464-1.342-1.84-1.578-4.272-3.762-5.284-.12-.054-.22-.443-.148-.562 1.082-1.684-.266-2.976-.842-4.252-2.174-4.811-5.69-10.384-5.074-11.279.859.592.905 1.828 2.317 2.603-1.28-4.368-3.888-7.293-6.352-10.59-1.4 3.067-1.49 3.149-.198 5.194 1.642 2.602 2.657 5.563 4.706 7.942.642.747.792 1.893 1.291 2.78a18.26 18.26 0 001.886 2.766c1.036 1.236-1.674.474-.84 1.753.593.911.666 2.145 1.067 3.202 1.054 2.775 1.837 5.744 4.908 7.159.101.046-.022.574-.04.879l.031-.035c-.447-.637-.998-1.001-1.872-.728-.291 1.549 1.439 2.634 1.06 4.854-1.423-3.111-2.433-5.757-3.8-8.201-1.387-2.486-2.834-4.986-4.964-7.573.096 1.626.752 2.444 1.153 3.373.683 1.574 1.553 3.062 1.786 4.839.407 3.074.99 6.118 4.26 7.655.175.08.169.549.25.838l.066-.024c-.467-.405-.937-.784-1.571-.277-.01 1.051 1.078 1.914.68 3.037-2.102-.965-2.342-3.626-4.537-4.508-.03.72-.047 1.225-.067 1.727l.08-.034c-1.022-.912-1.762-2.104-2.566-3.161-1.228-1.613-2.725-3.278-2.64-5.581.978.275.682 1.688 1.992 1.995-.447-1.496-.819-2.808-2.162-3.599l.091.061c.336-.763-.108-1.317-.544-1.83-.586-.692-.713.118-1.016.358zm110.707-15.968c-.461-.075-.801.174-1.071.478-.223.257-.774.557-.194.945.4.27.76.027 1.045-.32.295-.361.241-.763.167-1.174 1.444.647 2.14-.79 3.201-1.192 1.455-.547 1.656-1.703 1.012-3.147-1.24 1.732-3.195 2.6-4.16 4.41zM66.081 51.25c.038.83-1.183 1.38-.675 2.217 1.051 1.737 1.634 3.782 3.271 5.176-.115-2.755-2.583-4.645-2.596-7.401 1.64 1.178 1.703 3.54 3.388 4.869 1.458-4.406.965-5.936-2.438-7.996-.79.901-.645 2.085-.95 3.136zm70.006 191.178c-.962-.012-1.867.116-2.869 1.064 1.515.236 2.297-.19 2.812-1.186 3.788-1.084 6.789-3.687 10.272-5.358 1.206-.578 1.389-1.816 1.331-3.146-4.546 1.629-10.379 5.043-12.79 7.445.326.485 1.231.358 1.244 1.181zm1.786-20.928c-2.423.234-3.938 1.584-5.033 3.964 2.811-1.086 3.706-1.847 4.98-4.082 2.437-.186 4.267-2.177 6.735-2.279-1.408 1.615-3.866 1.914-4.968 3.847-.463.815-2.021 1.391-1.204 2.506.609.833 1.43-.248 2.132-.571.168-.081.521-.148.557-.085 1.055 1.791 2.055.191 2.948-.132 1.948-.703 3.529-2.089 5.276-3.169 2.392-1.481 2.707-2.198 2.099-5.182-2.299.481-5.25 3.477-6.982 2.864 3.746-3.505 9.344-3.607 8.245-8.212-.376.003-10.594 5.357-10.928 5.524-1.894.942-3.904 2.315-3.857 5.007zm9.945-52.473c-.021.723-.578.931-1.094 1.28-1.407.95-2.957 1.814-3.705 3.696 3.539-.44 5.027-2.073 4.787-4.991.424.273.783.527 1.377.257 1.773-.8 3.58-1.511 5.376-2.256-4.838 2.568-7.59 7.218-11.259 10.957 3.993-1.42 6.279-5.168 10-6.981.235.75-.458 1.162-.448 1.758-2.152 2.409-5.052 3.527-7.666 6.708-1.233 1.504-3.584 2.692-3.835 4.275-.435 2.699-3.261 1.889-4.029 3.699-.239.547-1.226.688-1.209 1.847 3.593-1.183 6.671-2.897 8.935-5.802.976-1.25 2.052-2.588 3.458-2.93 2.8-.682 4.855-2.563 7.246-3.879 2.669-1.465 5.545-2.969 4.958-7.061-.739.087-1.496.592-2.282.292 2.195-1.425 3.97-3.065 3.189-6.282a35.273 35.273 0 01-6.641 3.248c5.879-3.946 8.363-4.422 8.389-10.027-6.364 3.912-6.707 4.42-8.412 4.652.788-1.886 10.918-5.063 9.192-8.857-2.078.472-3.417 2.199-5.281 2.972 1.466-3.923 7.204-2.542 6.905-9.425-1.486.392-2.454 1.936-4.15 1.831 2.357-3.285 5.199-1.239 5.95-8.524-1.403.063-2.1 1.297-3.321 1.237.109-1.003.981-1.249 1.673-1.637 2.371-1.332 3.313-3.386 3.174-6.463-5.896 3.919-12.095 6.982-16.058 13.078.903.139 1.413-.255 1.96-.519l9.379-4.543c-1.341 1.824-3.49 2.481-5.302 3.594a23.54 23.54 0 00-5.996 5.234c-.319.396-1.042.802-.577 1.561.516.846 1.138.423 1.851.297 1.643-.284 2.748-1.894 4.527-1.739-.155 1.08-1.097 1.388-1.833 1.922-4.108 2.97-8.184 5.978-11.321 10.247 1.669.454 2.729-.595 3.424-1.555 1.767-2.452 4.58-3.382 6.834-5.103.235-.179.861-.555.872.168.006.457-.544 1.061.459.697.556-.201.997-.743 1.68-.439-.562.943-1.546 1.393-2.461 1.751-4.687 1.839-8.117 5.255-11.411 8.855-.491.536-1.392.83-1.384 1.793 2.876.456 4.506-1.026 5.857-3.133.925-1.451 2.034-2.753 4.042-2.537-1 .907-2.19 1.667-2.59 3.177 1.272-.092 1.742-1.62 3.436-1.3-2.251 1.894-4.198 3.728-6.665 4.9zm-1.019 15.839c-2.516.987-4.508 2.647-6.304 4.722 1.932.813 3.224.232 4.252-1.317.542-.817 1.112-1.684 2.361-1.862-.168 1.455-2.029 2.029-1.856 3.814 1.251-.809 2.267-1.474 3.296-2.129 1.954-1.241 1.956-1.239 3.261-1.289-1.153.871-2.549 1.491-3.683 3.372 10.762-5.764 10.243-4.587 10.671-9.547.027-.332-.706-.143-1.089-.165.705-1.606 2.866-2.701 1.687-5.135-1.469.9-9.97 5.529-12.596 9.536zm14.461-81.169c.23.107.466.214.698.32.509.008 1.092.185 1.507-.002 4.576-2.062 9.122-4.181 13.679-6.275 1.575-.724 1.628-1.46 4.447-11.56.169-.595.791-1.256.075-1.918-1.852.786-2.726 2.233-2.937 4.091-.197 1.754-.806 3.396-1.282 5.072-.984 3.446-3.863 6.044-8.501 4.147-.54-.22-.984-.189-1.454.076-1.553.874-8.731 4.225-7.883 5.86.391.756 1.096.086 1.651.189zm5.34 10.848c-.711 1.655-2.036 2.695-3.546 3.572a101.383 101.383 0 00-4.209 2.567c-1.179.769-2.312 1.613-2.913 3.041 1.028.346 1.977.072 2.392-.485 1.387-1.856 7.2-5.453 8.04-4.221-.372.809-1.161 1.064-1.849 1.48-3.24 1.967-6.435 4-8.935 6.923-1.119 1.307-2.419 2.412-3.733 3.53-1.651 1.405-3.664 2.464-5.14 4.28 1.212.518 2.039.182 2.729-.49 2.557-2.481 5.473-4.608 7.668-7.445.799-1.029 1.785-1.873 2.895-2.158 4.346-1.128 16.023-5.57 14.405-13.799-6.405 3.17-6.631 3.585-7.867 3.242 7.933-4.504 9.602-4.149 10.019-10.571-4.411 2.187-8.613 4.07-12.608 6.321-2.546 1.436-4.704 3.504-6.872 6.19 4.185-.532 6.22-4.349 10.246-5.12-1.409 1.877-3.701 2.116-4.682 4.323 1.693.079 2.71-1.01 3.96-1.18zm35.567 54.137c.954-2.646 6.884-9.265 7.251-11.704-1.95.577-2.171 2.651-4.077 3.353 1.995-3.716 5.609-6.154 5.862-10.766-1.303.995-2.049 2.033-2.812 3.089-.495.686-.728 1.739-1.879 1.748l.045.073c1.311-3.666 4.687-6.054 6.053-9.712-5.184 4.859-5.944 8.118-8.96 9.376 2.603-3.724 10.044-10.934 9.692-14.979l-9.681 11.02c.345-4.022 12.466-11.767 11.076-17.496-1.338 1.613-7.156 7.634-9.229 7.885 2.061-1.687 3.822-3.674 5.601-5.595 3.932-4.239 6.354-7.751 5.757-12.771-2.035 2.397-3.81 5.026-6.374 6.934l.042.071c1.181-4.584 9.609-7.914 7.208-15.658-3.131 3.759-5.003 8.075-8.517 11.606-.095-.758-.209-1.036-.128-1.125 3.398-3.514 5.625-7.808 8.007-11.996.579-1.02.832-2.092-.211-3.393-2.573 2.944-3.901 6.849-7.282 9.222-.132-.879.376-1.155.703-1.513 2.024-2.222 3.564-4.779 5.056-7.353.953-1.633 1.671-3.371.061-5.083-1.791.445-1.871 3.99-3.667 4.212l.045.067c.351-3.023 4.397-5.117 1.833-7.038-.97-.726-1.461.66-3.139 2.849-1.508 1.971-2.681 4.223-4.773 5.91-.172-1.204.636-1.702 1.15-2.268 1.837-2.012 2.906-4.492 4.357-6.735.367-.57.613-1.093-.083-1.58-.653-.46-1.309-.655-1.891.095-.186.242-.274.56-.464.802a1007.88 1007.88 0 01-6.402 8.311c-.313.398-.615 1.109-1.516.493 2.777-3.199 5.315-6.458 7.05-10.302-3.986-1.408-3.213-1.196-6.867 4.086-1.131 1.631-2.156 3.371-4.076 4.303 2.14-2.958 4.394-5.823 5.961-9.136-2.398-1.14-2.541-1.172-3.83.616-3.771 5.225-3.747 6.918-6.303 7.799 2.404-3.176 4.365-6.004 5.712-9.298-4.147-2.249-4.128 4.566-10.6 8.548 1.962-2.941 4.656-5.343 6.305-8.736-5.332-1.277-5.704 6.316-10.83 8.92 1.803-2.566 3.769-5.001 5.415-8.044-8.799-.03-10.246 15.626-11.24 18.872.475.102.582.162.668.138 15.428-4.677 22.136.923 22.7 2.889 1.205 4.192.044 8.079-3.967 26.612-4.523 20.872-8.224 23.831-7.633 29.331.03.276-.022.722-.201.83-2.389 1.48-1.266 3.337-.584 5.138.205.551.608 1.067.098 1.698-1.215.087-1.081-1.342-1.873-1.71-2.096 2.653.405 5.134.536 7.913-1.976-.65-1.273-2.678-2.4-3.603-2.611 3.283.493 6.32.39 9.7-2.09-1.495-1.152-4.225-3.164-5.573-1.945 3.654 1.288 6.681 1.048 10.266-2.322-2.183-1.624-5.221-3.264-7.991-2.147 3.963 1.092 6.862 1.194 10.658-2.322-2.634-2.126-5.62-3.375-8.005-1.956 1.326-2.033 1.345-1.707 2.863.486 2.205.83 4.451 1.841 6.526.271.552.875 1.23.189 1.957-1.623-.787-1.334-1.221-3.117-9.181-4.703 1.921-4.152 1.112-1.536 11.034-.226.056-.452.113-.675.173-.896-2.351-1.627-4.754-1.994-7.283-.097-.705.144-1.858-1.203-1.658-1.171.171-1.084 1.077-.916 1.915.178.874 1.612 6.674 1.496 7.437-3.022-2.815-1.345-8.334-3.61-8.262-1.245.043-1.185.957-1.14 1.773.172 3.084.297 6.177 1.094 9.185.155.577.5 1.192-.445 1.448-1.691-1.033-.457-11.2-2.403-11.18-.93.008-1.551.533-1.478 1.579.156 2.153-.322 4.337.254 6.468.238.883.177 1.692-.176 2.909-1.098-1.442-.883-1.745-1.103-8.733-.058-1.66-1.367-1.067-1.394-.105-.053 2.26-.564 4.49-.366 6.771.051.564.444 1.403-.544 1.841-1.02-1.342-.628-2.959-1.24-4.416-.839 5.188-1.674 10.374-2.578 15.953 5.47-1.699 25.888-8.122 25.886-8.124 8.304-2.224 11.65-9.957 14.791-17.912-1.144-.244-1.151 1.508-2.274 1.048l.04.069c.762-2.955 5.196-5.146 4.466-9.001-2.81 3.055-4.728 6.541-8.155 8.577l.042.072c-.004-.669.315-1.202.801-1.602 1.719-1.417 11.315-10.915 11.659-19.37-2.845 3.324-4.73 7.385-8.193 10.317-.275-.815.121-1.178.481-1.534 2.354-2.341 4.091-5.14 5.916-7.875 3.96-5.943 3.475-2.468 5.291-9.262-3.32 2.709-4.236 6.923-5.94 6.149l.047.081c8.118-11.449 7.415-9.318 7.765-13.635-4.405 6.056-4.261 6.314-5.502 6.651l.046.067zM135.985 45.617c2.606-.508 4.35-2.442 6.657-3.835-5.023-.851-2.049-.511-13.809 5.28-.52.257-1.086.713-1.666.055 3.005-1.736 6.528-2.594 9.185-5.241-3.088-1.905-5.522 2.543-11.587 3.2l.045.09c.85-1.288 2.209-1.77 3.563-2.287 1.166-.444 2.218-1.07 3.05-2.001-2.41.08-4.44 1.111-6.575 1.817-2.018.665-3.985 1.758-6.424 1.357.572-.774 1.204-.756 1.779-.902 1.288-.327 10.193-3.069 9.395-4.19-.484-.69-1.438-.364-2.233-.064-3.078 1.171-6.393 1.562-9.433 2.865-.414.18-1.006.362-1.492-.456 1.519-.608 2.993-1.17 4.553-1.592 1.876-.507 3.717-1.16 5.541-1.847 1.954-.738.528-2.714-.776-2.322-1.772.528-3.533 1.097-5.322 1.573-1.037.28-2.061.974-3.529.223 7.926-2.535 9.125-2.458 8.743-3.777-.447-1.546-1.684-.17-2.578-.08-2.103.212-3.97 1.53-6.643 1.487 1.371-1.04 2.544-1.278 3.651-1.656 1.362-.471 2.749-.877 4.125-1.31 1.436-.449.827-3.299-1.024-2.346-2.861 1.487-4.161 2.2-5.606 1.502.187-.514.447-.684.763-.694 1.85-.052 3.23-1.265 4.835-1.924 1.555-.639.494-2.316-.708-1.724-1.412.697-3.295 1.393-3.291-.177.751-.234 1.527-.45 2.28-.727 1.7-.623 1.242-1.87-.313-1.718-1.056.106-2.145.458-3.262-.055.889-1.218 2.557-.332 3.312-1.497.052-.818-.354-1.406-.856-1.94-10.23-10.905-21.899.223-24.23.555-2.688.385-16.345 3.442-20.383 4.949-4.95 1.84-.717 4.147-4.039 5.148-1.049-.863.685-1.486.003-2.241-3.535 1.764-5.972 7.727-4.425 11.243 4.123 9.347 7.03 10.547 5.242 14.555-.627 1.41-1.168 2.858-1.727 4.298-.995 2.591-2.046 5.17-1.931 8.037.037.943-.016 1.941.933 2.454.953.514 1.771-.246 2.56-.61.74-.348 1.247-1.03 1.504-1.876.417-1.377 1-2.694 1.12-4.168.23-2.843.91-5.605 1.696-8.343 2.32-8.135 12.775-3.594 13.177 1.041.104 1.18-.426 2.475.452 3.532.76-.087 1.007-.75 1.484-1.093.948-.674.796-2.7 2.522-2.27 12.778 3.187 20.155 13.351 54.626 18.503 14.072 2.106 23.255 3.264 22.103 11.771-.332 2.427-.523 4.873-.752 7.314-.104 1.14-.248 2.403 1.185 2.825 1.311.385 2.476-.16 3.304-1.182 1.532-1.882 2.495-4.191 2.177-6.487-.575-4.106 6.056-8.836 8.26-10.256 6.051-3.896 6.385-13.759-.715-17.65a258.935 258.935 0 01-4.293-2.407c-4.709-2.704-9.2-5.492-10.28-11.513-.253-1.408-1.256-2.89-3.23-2.729-.447.04-.721-.01-.912-.512-.543-1.402-1.567-1.35-2.72-.784-2.799 1.379-.844-1.797-3.028-.21-1.517 1.113-2.997 3.056-3.585 1.445.669-1.144 3.149-1.175 3.026-2.857-1.261-.303-2.548-.832-3.861-.256-.814.358-1.351.056-2.108-.13-1.49-.362-3.128.743-4.402.66-1.6-.105-3.163-.412-4.767-.026-.521.126-.871.502-1.288.801-1.585 1.145-3.221 2.21-4.841 3.312-.723.49-1.445.845-2.208.066l.001.004zm23.222 154.06c3.975-.633 10.521-3.314 13.072-4.813.885-.521 1.664-1.173 2.464-1.826 6.576-5.342 8.278-14.781 10.482-20.959 1.9-5.345 17.033-51.992 10.92-54.373-7.402-2.876-19.442-.607-20.026 3.711-.413 3.084-1.58 5.971-2.299 8.974-.303 1.254-14.151 57.994-14.613 69.286zm-101.53-61.424c-3.258-7.272-3.225-8.051-8.775-17.297-1.63-2.717-2.374-5.996-5.013-8.506-3.467 8.766.782 6.007 5.04 16.613.152.38.294.975 1.11.925.186-1.959-2.023-3.597-.735-6.172 2.807 11.772 5.055 13.453 8.372 14.437zM30.45 212.021c.154-1.746-.77-2.68-1.518-3.618-1.743-2.177-3.234-4.539-5.081-6.655-2.848-3.26-6.234-12.108-8.035-11.618-.897.248-.856 1.318-1.186 2.036-.457 1.002.197 1.774.655 2.563 1.466 2.546 3.382 4.784 5.008 7.205 2.672 3.973 5.812 7.362 10.157 10.087zm8.629-86.236c-1.812 2.587-2.745 4.905-.97 7.783 8.243 13.366 7.984 14.819 9.661 15.632-.684-3.813-3.3-7.968-3.378-10.831-.068-2.599-1.541-3.317-1.736-4.773-.375-2.826-1.753-5.166-3.577-7.811zm13.588-20.94c.882-.69.878-1.78 1.016-1.412.651 1.712 2.51 2.421 2.966 4.398.684 2.953 2.556 5.452 4.465 7.834-1.695-8.132-5.473-15.286-9.843-22.366-3.156 4.561-.704 6.626 1.396 11.546zm84.941 105.962c1.876-.284 2.668-.964 3.555-1.466 1.432-.809 2.866-1.273 4.607-1.507 2.073-.282 3.887-2.161 5.924-3.118 2.658-1.255 3.454-3.354 3.446-6.383-12.547 8.366-5.665.3-17.532 12.474zM72.051 88.374c-1.911-7.17-8.01-18.067-11.769-21.12-.392 1.27-1.43 2.447-.63 3.807 1.233 2.091 2.04 4.433 3.584 6.352.986-.488-.251-1.445.638-1.956 1.558 1.866 2.101 4.226 3.089 6.377 1.121 2.448 1.882 5.25 5.088 6.54zm75.126 107.914c2.809-.977 4.983-2.715 7.396-3.985 2.489-1.309 3.45-3.314 3.056-6.267-3.684 2.041-7.335 3.936-10.845 6.057-1.594.962-2.655 2.552-3.576 4.708 2.119-.626 3.108-2.033 4.43-2.938.24-.159.492-.359.768-.029-.073.871-1.308 1.022-1.229 2.454zm3.347 25.559c-4.387 3.348-10.757 5.563-12.768 7.265-.361.3-.382.789.18.871.857.128.785.153.443 1.015-.472 1.198-1.954 1.151-2.633 2.483 4.692-1.622 8.615-3.825 12.535-6.069 2.181-1.245 2.64-2.865 2.243-5.565zM177.87 98.903c-8.447 3.146-13.571 6.282-17.736 11.951 3.095-1.35 5.685-2.977 8.161-4.795.672-.493 1.571-1.413 2.084-1.152 1.96.987 3.002-.767 4.474-1.149 2.627-.675 3.007-2.53 3.017-4.855zm-21.619 93.9c-1.147-.067-9.342 4.941-11.661 6.335-.951.569-1.817 1.336-2.15 2.582 1.195.007 1.658-1.562 2.888-.948-.233.987-1.688 1.092-1.751 2.554 11.802-4.689 12.927-7.507 12.674-10.523zM19.75 178.647c-3.946 7.25 2.925 10.362 6.244 15.21.552.807.709 2.148 2.33 2.315-1.346-3.52-4.042-6.282-3.903-10.107.006-.189-4.566-7.262-4.671-7.418zm120.452 35.33c2.639-.153 4.957.432 6.989-1.16 6.077-4.755 7.077-2.615 6.269-7.971-4.164 3.327-9.99 3.919-13.258 9.131zM56.656 100.648c1.175-1.271-.714-2.435.508-3.364 1.308 1.55 1.424 3.789 3.108 5.116-.837-5.547-4.081-9.939-6.701-14.876-1.833 2.786-2.081 3.192-1.426 4.511 1.4 2.84 2.625 5.782 4.511 8.613zm92.59 127.779c-.24.008-.458-.041-.62.033-3.427 1.593-6.566 3.777-10.187 4.983-.463.154-.962.405-.88 1.07.163 1.307-.983 2.176-1.187 3.386 2.129-.58 10.525-4.963 11.868-6.234.927-.875 1.58-1.875 1.006-3.238zM68.343 90.319c-.171-3.692-6.388-14.39-9.71-17.402-1.773 2.562-.82 3.327 2.92 9.548.33.553.475 1.436 1.483 1.222-.014-1.28-1.552-2.217-.72-3.92 2.151 3.367 3.323 7.026 6.027 10.552zm-3.335-35.63c-2.848 4.54-2.206 7.953 2.051 11.363.198-1.573.417-3.074.916-4.516.21-.606.12-1.166-.204-1.747-.896-1.585-1.737-3.194-2.763-5.1zM17.67 184.861c-2.903 3.408.023 4.464 6.012 14.593.222.379.473.965 1.12.704-.752-1.799-1.429-3.618-2.267-5.364-.512-1.069.252-2.219-.468-3.256-1.486-2.155-2.885-4.368-4.397-6.677zm2.664 19.756c-1.784-3.531-4.117-6.632-6.433-10.058-1.306 2.188-1.145 3.889.052 5.7 1.532 2.315 2.902 4.717 6.38 4.358zM57.14 77.644c-1.179 1.11-1.553 2.386-.963 3.482 1.567 2.892 2.955 5.944 5.66 8.174-.389-1.944-1.497-3.74-.897-5.79.065-.22-.208-.565-.371-.817-1.036-1.64-1.793-3.466-3.429-5.049zm29.527-18.257c.016-3.915-.775-5.26-3.207-6.057-1.156-.378-1.71.301-2.235 1.081-.486.713-.385 1.424.357 1.832 1.658.916 2.88 2.553 5.085 3.144zm36.74 166.615c5.164 1.418 8.387.045 9.994-4.04-4.006-.385-6.047 4.106-9.994 4.04zm11.124-8.382c-4.201-1.114-5.504-.613-7.884 2.952 3.352.959 5.98.063 7.884-2.952zm-1.268-21.487c3.815.032 6.324-2.107 8.844-5.031-4.387-.33-6.296 2.955-8.844 5.031zm3.294 47.292c5.074.397 8.256-1.22 8.837-4.883-3.057 1.793-5.859 3.505-8.837 4.883zm.437-64.132c3.508.705 4.87-1.907 7.133-4.015-3.913-.601-5.167 2.319-7.133 4.015zm-5.325 31.762c3.215 1.249 4.608.497 6.994-3.561-3.307-.454-4.661 2.154-6.994 3.561zm-6.308 20.276c4.329.558 5.556-.079 7.489-3.73-2.943.287-5.26 1.578-7.489 3.73zm.133 9.748c3.853 1.018 5.529-1.324 7.793-3.426-3.626-.802-5.142 1.884-7.793 3.426zm6.146-25.289c4.415 1.106 5.914.321 7.404-3.417-2.712.318-4.634 2.056-7.404 3.417zm23.844-89.784c-2.376.354-4.81.62-6.127 3.024 3.08 1.032 4.409-1.397 6.127-3.024zm-14.986 35.257c2.401 1.119 3.264 1.235 6.182-2.832-1.683 1.775-4.741.437-6.182 2.832zm-1.898 35.09c2.369.269 3.932-.466 4.843-2.164.154-.284.223-.603-.056-.794-.216-.142-.622-.27-.797-.166-1.415.861-2.893 1.666-3.99 3.124zm29.18-100.269c.161-.915.191-1.787-.484-2.679-1.676.522-3.239 1.204-4.687 2.92 3.163-.985 3.163-.985 5.171-.24zm-34.933 134.142c2.215-.273 3.579-1.803 5.409-3.369-3.066-.274-3.897 2.055-5.409 3.369zm19.736-83.566c-1.88.241-2.9 1.556-3.852 2.959 1.757-.345 3.06-1.305 3.852-2.959zm-22.887 87.109c-1.943.175-3.777.644-5.437 2.589 2.556-.011 3.913-1.457 5.437-2.589zm31.898-146.48c1.741-.275 3.286-.839 4.166-2.897-1.801.728-3.217 1.472-4.166 2.898zm3.506.403c1.834-.112 2.602-1.483 3.758-2.208.487-.3-.253-1.554-.765-.838-.799 1.112-2.579 1.204-2.993 3.046zm-29.45 147.242c-1.084.336-2.689-.371-3.25 1.522 1.391-.191 2.66-.048 3.25-1.522zm1.7-16.083c-.035-.126-.039-.237-.099-.316-.027-.041-.168-.056-.212-.023-.855.682-2.304.707-2.703 2.39 1.69-.085 2.3-1.154 3.014-2.051zm45.729-119.983c-1.837.17-1.876 1.073-1.464 2.488.854-.665 1.241-1.363 1.464-2.487zm-39.283 66.675c-1.251.51-2.55 1.047-3.165 2.419 1.513-.162 2.354-1.239 3.165-2.419zM40.161 180.63c-.112 1.642.497 2.71 2.626 2.969-1.088-1.229-1.86-2.101-2.626-2.969zm-1.954-33.834c-.123 1.756.542 2.511 1.955 3.413-.3-1.584-.82-2.427-1.955-3.413zm100.068 59.94c1.829.048 2.564-.58 2.745-2.057-1.174.254-1.92.849-2.745 2.057zm-89.9-64.24c.43 1.283.58 2.198 1.756 2.566-.08-1.081-.437-1.826-1.756-2.566zm90.694 59.287c1.511-.078 2.14-.552 2.708-1.55-1.252-.145-1.704.646-2.708 1.55zm-101.15-19.27c.7 1.266 1.075 2.12 2.266 2.541-.297-1.197-.716-1.941-2.265-2.541zm113.994-38.202c-1.172.54-2.186.495-2.402 1.962 1.191-.182 1.861-.588 2.402-1.962zM61.844 84.885c-.565.947-.044 1.5.807 2.155.262-1.03-.3-1.569-.807-2.155z" fill="#fff"/><path fill-rule="evenodd" clip-rule="evenodd" d="M152.872 172.754c2.229-.244 3.467-2.407 5.576-2.876-1.41 1.861-4.668 3.822-6.487 3.899l.911-1.023zM29.578 189.731c-.42-1.036-.787-2.099-1.278-3.098-.378-.766-.634-1.489-.264-2.317 1.149 1.697 1.796 3.614 2.44 5.533l-.898-.118zm131.678-86.014c1.016-1.368 2.206-2.511 4.46-3.505-1.255 1.935-2.691 2.707-3.762 3.826l-.698-.321zm-106.183 5.32c.343.544.416 1.131.249 1.749-.824-.923-1.886-1.726-1.65-3.198l-.07.042c.777.216.936 1.09 1.561 1.47l-.09-.063zm-10.491 45.521c.32.583-.205 1.276-.54.74-.37-.595-.828-1.163-.622-1.941.398.428.802.857 1.205 1.287a1.326 1.326 0 01-.043-.086zM32.587 148.4c2.118 1.209 2.563 3.613 3.854 5.411.633.882.76 2.108 2.1 2.461.78.207.748 1.14 1.018 1.79 1.26 3.028 2.327 6.142 4.144 8.92.694 1.06 1.4 2.027 2.618 2.5-.275.745-1.07.844-2.223 1.328 7.401 4.481 14.253 8.869 21.957 11.742-5.476-1.258-10.408-3.665-14.977-6.852-2.474-1.726-2.459-1.747-5.263-2.18-.196 1.224 1.216 2.165.526 3.696-.546-1.005-1.139-1.813-1.434-2.721-.26-.808-.678-1.508-1.124-2.179-.447-.67-1.092-1.216-1.696-1.764-1.026-.94.937-1.101.457-2.056-.878-1.744-1.288-3.74-2.3-5.382-.461-.745-7.827-13.917-7.657-14.714z" fill="#fff"/><path fill-rule="evenodd" clip-rule="evenodd" d="M32.596 156.908c.584.078.882.538 1.12.968 2.108 3.815 4.713 7.327 6.458 11.377.986 2.284 2.743 4.234 4.187 6.383-1.21.529-1.185-1.076-2.06-.923-.303 1.341 1.434 2.932 2.705 3.599 4.465 2.331 8.527 5.373 13.118 7.509 1.664.773 3.41 1.34 5.054 2.152-7.13-1.234-12.595-6.039-19.128-9.08.17 2.233 1.76 3.776 1.697 5.839-2.18-3.206-2.786-7.45-6.682-9.337.696-.941 1.012.165 1.711-.186-.459-5.597-3.817-7.241-7.93-16.892-.205-.478-.46-.923-.173-1.451l-.077.042zm97.796-57.092c-.357 1.369-24.154-4.14-35.177-8.837-.188-.08-.408-.083-.614-.117 0 0-.01.011-.009.012 2.04-.428 3.322.919 16.295 4.572 6.436 1.813 13.003 3.091 19.549 4.429l-.044-.06zm-37.552 1.39c1.354.001 29.29 8.733 30.151 9.162-1.263-.326-24.014-5.708-30.066-9.191-.02.005-.085.029-.085.029zm25.614-11.603c-1.643 1.844-29.83-8.484-30.205-11.14l-.078.025c9.54 5.252 19.791 8.586 30.323 11.152l-.04-.037zm-58.081 29.814c1.436 3.187 3.955 5.286 6.99 6.918-1.771.09-2.733-1.641-4.373-1.743-.552.765.465 1.49-.133 2.913-.849-3.085-2.944-5.145-2.404-8.121l-.08.033z" fill="#fff"/><path fill-rule="evenodd" clip-rule="evenodd" d="M118.496 89.644c5.684 1.195 11.368 2.39 17.059 3.59-5.774-.845-11.69-1.08-17.087-3.62-.013-.009.028.03.028.03zm-32.349 24.504c-10.047-5.295-11.241-5.702-12.131-7.45-.004 0-.098.063-.102.064 2.326.793 4.21 2.385 6.366 3.501 1.615.837 3.032 2.064 4.844 2.52.736.186.863.773 1.009 1.364l.014.001zm67.183-3.506c-.142.987-1.133 1.304-1.61 2.032.23.698 1.01.46 1.43.842-2.645.694-5.272.406-7.957-.112 3.189.357 5.74-.987 8.137-2.762zm-11.866 46.435c-3.632-.917-6.418.567-10.311-.835 3.423.432 6.999-1.217 10.304.852.003.012.007-.017.007-.017zM88.333 64.9c2.808-.369 5.978 3.11 10.387 4.325-3.822-.545-7.106-2.347-10.32-4.354a.336.336 0 00-.067.03zM69.13 176.835c-2.99-.586-5.88-1.415-8.58-3.293 3.219.57 5.683 2.472 8.58 3.293zm78.98-87.571c-3.356-.064-6.599-.726-9.761-1.83 3.306.45 6.632.79 9.805 1.932l-.044-.102zm-79.489 45.072c-2.334-.924-4.475-2.189-6.796-3.769 1.629.064 2.92-.247 3.724 1.439.537 1.123 2.376 1.058 2.981 2.372l.091-.042zm-27.769 61.767c2.973.785 5.88 1.688 7.872 4.273l.073-.028c-2.616-1.429-5.231-2.861-7.867-4.282a.6.6 0 00-.078.037zm67.165 34.45c-3.043.222-5.94-.491-8.813-1.357 2.987.127 5.929.555 8.813 1.357zM72.894 101.36c2.179.431 3.686 2.029 5.44 3.194-1.867-.935-3.834-1.703-5.34-3.241-.006 0-.1.047-.1.047zm15.234-20.335l4.835 2.622c-1.874-.361-3.6-.997-4.775-2.63l-.06.008zM55.413 190.9c-1.335-.302-.084.294-4.717-2.124 2.206-.089 3.123 1.762 4.717 2.124zM89.27 76.8c-1.553-1.37-3.619-1.87-5.266-3.092-.01.006-.097.043-.106.048 2.178.313 4.245.83 5.325 3.066l.046-.022zm48.22 70.323c-1.443.759-2.949.242-4.461.193 1.442-.607 2.914-.662 4.461-.193zm-69.594-32.68c2.057-.5 3.386.844 5.278 2.067-2.333-.102-3.503-1.764-5.226-2.109-.02.007-.052.042-.052.042zm.634 19.935c1.664.208 2.95 1.207 4.246 2.187-1.45-.598-2.898-1.205-4.145-2.231-.008.002-.1.044-.1.044zm6.95-36.848c1.332.25 2.374 1 3.574 2.145-1.666-.344-2.84-.85-3.487-2.196l-.087.052zm54.955 2.347c1.611.082 3.109.578 4.573 1.198-1.625-.075-3.229-.24-4.609-1.25l.036.052zm4.552 41.47c1.36.107 2.172-.203 2.948.116.411.377-.546 1.168-2.948-.116zm20.612-44.58c-.34 1.34-1.375 1.52-3.065 1.787 1.105-1.28 1.883-1.893 3.105-1.712l-.04-.075zM60.66 192.981c-1.17-.118-1.98-.355-2.664-.963l2.664.963zm-11.935 7.396c1.632.386 3.543.153 4.5 2.03l.066-.014c-1.336-1.017-3.044-1.226-4.478-2.05a4.61 4.61 0 00-.088.034zm77.008-89.907l3.042.934a8.194 8.194 0 01-.044.244l-2.995-.92c-.002-.083-.001-.17-.003-.258z" fill="#fff"/><path fill-rule="evenodd" clip-rule="evenodd" d="M112.333 231.232c-1.603.509-2.993-.375-4.468-.675 1.594-.471 2.98.433 4.468.675zm31.724-122.808c.891-.023 1.783-.048 3.004-.079-1.07.899-1.939.761-3.004.079zm.116-4.272c1.408-.2 2.4-.589 3.432.205-1.008.09-1.906.217-3.432-.205zm8.921 11.272c-.312 1.295-1.377 1.505-2.437 1.706.655-.802 1.306-1.614 2.478-1.634l-.041-.072zm-26.898 81.138c-.883.748-1.866.539-3.02.332 1.084-.794 2.075-.474 3.063-.227l-.043-.105zm14.538-83.17c.757-.298 1.598-.676 2.482-.123-.771.499-1.592.302-2.482.123zm.621-11.548c.922-.008 1.631.311 2.758.893-1.184-.388-2.008-.315-2.758-.893zm-3.812-8.32l1.945.596c-.479-.072-1.214-.186-1.955-.302.001-.098.01-.197.01-.294zm-66.611 59.911l1.463.448-.01.022-1.459-.448a.057.057 0 00.006-.022zm75.978-71.113c.9.041 1.83-.05 2.696.546-1.071.303-1.844-.424-2.739-.598l.043.052zM45.047 210.764c.93.05 1.744.434 3.016 1.021-1.456.01-2.277-.298-2.938-1.062a4.22 4.22 0 00-.078.041zm4.469-4.341c1.087-.221 1.952.34 3.1.881-1.347.217-2.217-.204-3.007-.928-.01.007-.093.047-.093.047zm15.159-38.08c-.747.295-1.28-.199-1.895-.451.774-.402 1.316.041 1.895.451zm24.549-91.521c1.322.146 2.814-.06 3.369 1.644l.046-.01c-.878-1.01-2.268-1.005-3.349-1.662-.02.007-.066.028-.066.028zM53.226 202.408a5.19 5.19 0 013.046.953c-1.091.033-2.028-.45-2.964-.973l-.082.02zm5.512-43.557c1.126-.104 2.213-.026 3.23.828-1.285.295-2.112-.761-3.202-.83-.02.003-.028.002-.028.002zm-2.854 12.448l2.81.862c-1.093.21-2.01-.053-2.715-.905a9.94 9.94 0 00-.095.043zm21.541-32.118c.567-.064 1.012.16 1.399.532-.464-.179-1.036-.068-1.399-.532zm-4.973 25.765c-.466-.145-.93-.285-1.393-.428.473.112.949.22 1.424.329l-.031.099zm.908-16.534c.709-.23 1.037.125 1.385.425-.412-.127-.824-.254-1.385-.425zm15.745-43.093c.428.747 1.447.5 1.983 1.167-.948.054-1.61-.248-1.911-1.161-.014.002-.072-.006-.072-.006zm.892-9.98l-1.772-.654c.936-.19 1.359.215 1.772.654zm-11.321 30.653c.778-.219 1.32.223 1.96.586-.765.049-1.402-.078-1.96-.586zm9.571-47.527c-.803.004-1.521-.283-2.304-.647.992-.41 1.538.325 2.216.678a.877.877 0 01.088-.031zM72.26 122.068c.562.388 1.125.781 1.9 1.316-1.006-.226-1.992-.074-1.841-1.355l-.06.039zm15.928-41.051c-1.386.022-2.535-.768-3.824-1.108a.044.044 0 00-.019.005c1.46-.326 2.588.45 3.767 1.113l.076-.01zm-11.609 63.055c.815.145.593.104.895.399-.733-.122-.5-.05-.895-.399zm-10.777-24.609c1.083.214 2.56-.203 2.615 1.641a.253.253 0 00.017-.033c-.505-1.062-1.752-.995-2.548-1.639a2.59 2.59 0 01-.084.031zm17.988 2.211c-.422.104-.218.23-1.2-.22.52-.218.584-.066 1.2.22z" fill="#fff"/><path fill-rule="evenodd" clip-rule="evenodd" d="M72.319 122.029c-1.485.468-2.527-.801-3.867-.967-.018.009-.028.035-.035.042 1.45-.388 2.612.349 3.821.972a.743.743 0 00.08-.047zm-12.185 30.692c.853-.19 1.584.15 2.376.56-.995.489-1.562-.339-2.294-.598a1.889 1.889 0 00-.082.038zm25.999-38.573c.906-.143 1.771-.074 2.787.635-1.41.338-1.634-.744-2.787-.635zm10.482-28.617c-.53.159-1.233-.048-1.237-.382-.001-.497.877.02 1.237.382zm-20.519 27.963c-.354-.647-1.381-.393-1.652-1.26.776.164 1.72 0 1.61 1.246a1 1 0 00.042.014zm56.652 86.144c.172 1.097-.328 1.607-1.611 1.736.282-1.032 1.211-1.095 1.662-1.634a1.597 1.597 0 00-.051-.102zM79.87 114.654c.26.683 1.152.607 1.598 1.25-.938-.057-1.745-.091-1.551-1.267l-.047.017zm5.521-10.609l-2.066-1.425c1.293.42 2.176.206 2.057 1.422l.01.003zm-19.054 58.332c.472-.087.925.025 1.313.379-.517.221-.88-.167-1.313-.379zm26.256-83.911c.833-.003 1.608.213 2.439.565-.977.376-1.584-.431-2.371-.58-.02.006-.068.015-.068.015zM66.58 150.797c-.507.034-.97.023-1.283-.455.526-.105.922.086 1.282.455zm1.354-5.767c.13.154.3.353.461.554-.504-.037-1.135-.058-1.055-.559.004-.025.333-.001.594.005z" fill="#fff"/><path fill-rule="evenodd" clip-rule="evenodd" d="M85.382 104.042c1.322.161 2.519.687 3.705 1.279.018-.001.077.006.09.005-1.25-.423-2.513-.852-3.782-1.279a.05.05 0 00-.013-.005zm-5.465 10.596c-1.445.225-2.517-.803-3.807-1.145-.016.001-.051-.011-.058-.013 1.321.179 2.553.672 3.8 1.182l.065-.024zm54.858 37.373c-.773.689-1.429.038-2.471-.056 1.152-.762 1.814-.221 2.5.132l-.029-.076zm13.379-62.643c.77-.838 1.361-.026 1.985.368l-2.03-.47.045.102zm13.298-14.481c-.324-.82.28-1.115.79-1.444.855-.558 1.682-1.197 2.604-1.617.685-.313.934-1.788 1.844-1.022.396.335.274 1.212 1.265.95.342-.09.513.434.303.613-.869.74-1.412 2.411-3.042 1.292-.567-.389-.904.013-1.362.152-.852.26-1.326 1.36-2.402 1.076zM91.083 40.494c1.303 1.738.338 1.742 1.4 9.386.262 1.894-1.402 1.835-1.41.27-.014-3.22.003-6.438.01-9.656zM76.27 42.373c-1.163-2.269-.632-8.157 1.126-10.874-.152 4.116-1.01 7.46-1.126 10.874zm12.452 7.737c-1.359-1.736-1.343-6.816-.081-10.667.012 3.554-.009 7.111.081 10.666zm-2.908-12.58c.232 3.65.773 7.298.013 10.952-.925-3.647-.472-7.3-.013-10.951zm9.051 15.988c-.652-3.367-.563-6.738-.44-10.356.91 1.833 1.305 8.547.44 10.356zm7.347 2.878c-1.481-2.64-.812-5.554-1.047-8.357.216-.029.436-.06.655-.093l1.194 8.249c-.268.067-.535.135-.802.2zm-23.181-12.52c-.71-3.785.605-6.76.42-10.205 1.037 1.865.832 6.174-.42 10.205zm62.351 27.362l7.313-4.37c.118.188.236.378.349.569-2.188 1.836-4.442 3.577-7.289 4.389-.127-.195-.25-.39-.373-.588zm37.44-2.462c2.007-1.544 4.517-1.734 6.692-2.758.642-.298.97.852.638.965-2.389.808-4.65 2.207-7.33 1.793zM82.936 45.647c-.766-3.342-.298-6.66.218-9.975.539 3.336.177 6.656-.218 9.975zm-10.233-6.759c-.906-3.045.723-5.042 1.264-7.24.165-.672 1.426-.102 1.063.584-.991 1.898-.902 4.157-2.327 6.656zm109.516 25.284c.435-.245.86-.509 1.311-.725 1.417-.682 2.237.78.689 1.409-1.519.616-2.941 1.743-4.753 1 .005-.981.752-1.23 1.24-1.68a331.48 331.48 0 011.513-.004zm-6.675 10.186l9.501-1.485c-1.967 2.236-6.917 2.327-9.501 1.485zm-76.46-29.423c.465 2.618-.297 5.274.708 7.81.442 1.13-1.335 1.283-1.358.25-.064-2.707-.421-5.44.65-8.06zm58.699 28.007c1.824-1.262 3.641-2.531 5.479-3.77.364-.246.792-.223 1.008.25.129.287.087.627-.228.785-2.022 1.02-3.761 2.577-5.916 3.329a75.253 75.253 0 00-.343-.594zm-15.256-6.252c-1.892 2.258-3.402 3.05-6.486 3.405.985-.836 5.441-3.174 6.486-3.404zm35.983 4.815c2.8-.05 7.047-2.817 7.718-1.153-2.473 1.124-4.991 1.776-7.718 1.153zm-23.703-3.782c-1.686 2.4-4.316 3.162-7.14 4.36 1.291-1.455 4.495-3.457 7.14-4.36zm-49.023-11.381c-.827-2.094-.622-4.164-.145-6.235.464 2.077 1.283 4.14.145 6.235zm46.988-13.626c-2.409 1.67-4.819 3.343-7.671 5.318 1.144-1.882 4.497-4.307 7.671-5.318z" fill="#fff"/><path fill-rule="evenodd" clip-rule="evenodd" d="M182.218 64.172c-6.191-.01-1.241-2.761.238-2.552.732.934.139 1.732-.238 2.552zm-1.181 12.8c-2.329 1.53-4.881.942-8.062.702 2.995-1.316 5.611.047 8.062-.702zm-28.899-4.706c2.793-.931 4.874-2.562 7.329-3.885-1.208 2.389-4.777 4.346-7.329 3.885zm-19.085-4.894c1.418-.846 2.785-1.785 4.654-2.052-1.537 1.908-2.629 2.43-4.654 2.052zm-24.222-14.903c.012 1.556 1.493 3.091.184 5.071-.921-1.876-.925-3.446-.184-5.071zm3.199 2.841c.705.62.069 1.337.154 1.994.127 1.032-1.535.558-1.268-.096.275-.674-.111-1.76 1.114-1.897zm39.109-9.83c1.139-.645 1.908-1.084 2.798-1.587-.619 1.933-.619 1.933-2.798 1.587zm-22.155 20.227c.899-.566 1.709-1.492 2.932-.728-1.258.96-1.257.958-2.932.728zm-4.574-2.131c1.017-1.025 1.865-1.26 3.014-.228-1.019.543-1.879.636-3.014.228zm.321-18.486c-.813 1.29-1.971 1.796-3.53 1.364 1.146-.527 2.127-1.477 3.575-1.273.001-.002-.045-.09-.045-.09zm-8.918 11.903c.413.86-.486 1.414-1.248 1.16-.644-.208-.011-1.275 1.248-1.16zm20.144-11.363c.033 1.067-.242 1.876-1.556 1.888.01-1.102 1.552-.849 1.554-1.882l.002-.007zm2.515 2.464c.257-.446.652-.698 1.172-.678.097.005.284.323.251.37-.281.393-.584.808-1.148.741-.105-.011-.179-.27-.275-.433zm30.888 25.679c-.812-.122-.314-1.279.601-1.035.621.167.676 1.223-.601 1.035zm24.085 125.214c.108 1.575-.359 1.748-8.472 11.069l-.52-.442c3.011-3.515 6.024-7.034 9.033-10.552 0-.004-.041-.075-.041-.075zm8.71-30.354c.216 1.307-5.798 7.354-6.712 8.255 1.81-3.082 4.037-5.83 6.76-8.18a1.507 1.507 0 01-.048-.075zm-2.311 6.902c.575 1.883-3.154 5.022-4.756 5.849 1.602-1.913 3.21-3.828 4.811-5.754a2.181 2.181 0 00-.055-.095zm11.932-67.373c-.781 2.561-2.498 4.512-4.21 6.459 1.359-2.169 2.035-4.795 4.258-6.391-.003-.001-.048-.068-.048-.068zm-5.237 46.267c-.563 2.479-2.708 3.662-4.446 5.18 1.101-2.035 2.688-3.66 4.493-5.103a61.034 61.034 0 00-.047-.077zm3.971-25.259c-.185 1.301-1.447 1.757-2.052 2.725.248-1.25.723-2.326 2.095-2.654l-.043-.071zm-20.714 69.464c-.402 1.247-1.551 1.845-2.462 2.64.55-1.109.979-2.327 2.501-2.568l-.039-.072zm8.414-34.667c-.092-1.325.814-1.431 1.344-2.235.05 1.233-.775 1.463-1.344 2.235zm4.137.339c.097-1.078.799-1.662 2.062-2.627-.528 1.561-.997 2.333-2.107 2.554l.045.073z" fill="#fff"/><path fill-rule="evenodd" clip-rule="evenodd" d="M202.304 164.232c-.258 1.051-.701 1.908-1.989 1.871l.049.079c.366-.941.792-1.813 1.984-1.877l-.044-.073z" fill="#fff"/><path fill-rule="evenodd" clip-rule="evenodd" d="M200.315 166.103c.14 1.162-.742 1.667-1.819 2.619.416-1.383 1.021-2.043 1.87-2.541a1.73 1.73 0 01-.051-.078zm-9.363 25.546c-.066-1.372.654-1.768 1.467-2.375.026 1.183-.765 1.546-1.467 2.375zm1.478-6.614c-.253-1.193.778-1.199 1.088-2.066.349 1.385-.462 1.563-1.088 2.066zm-87.947 48.901c.576-.551 1.031-.131 1.598-.058-.693.913-1.068-.119-1.598.058zm54.269-84.266c.471-1.094 1.464-1.268 2.482-1.411-.485 1.077-1.407 1.376-2.482 1.411zm-8.84 35.105c2.102-2.445 4.975-3.495 7.939-4.386-2.37 1.967-5.352 2.823-7.939 4.386z" fill="#fff"/></svg>