<svg width="319" height="429" fill="none" xmlns="http://www.w3.org/2000/svg"><path fill-rule="evenodd" clip-rule="evenodd" d="M211.458 328.285c3.217-1.999 8.013-4.657 7.06-8.284-12.296 11.005-34.759 20.748-55.362 24.283-.478-.68-.789.396-.716.943 14.318-.622 35.87-8.74 49.018-16.942z" fill="#fff"/><path fill-rule="evenodd" clip-rule="evenodd" d="M216.165 316.449c.352.698-.871 3.085.957 1.897 3.526-4.016 7.987-7.605 7.739-12.866-3.937 1.373-3.876 7.334-7.316 10.185-.982-1.503 1.728-1.789-.009-3.541-17.466 14.704-35.381 22.946-57.022 28.079 13.212 1.954 40.922-12.716 55.651-23.754zm-19.833 25.386c-9.173 4.094-19.504 5.315-27.944 8.099-.304.288-.33.682.012 1.183a124.06 124.06 0 0043.312-15.241c8.695-5.044 17.218-10.427 18.641-18.346-3.588.951-3.793 4.913-6.381 7.359-6.428 6.283-17.876 12.553-27.64 16.946z" fill="#fff"/><path fill-rule="evenodd" clip-rule="evenodd" d="M226.148 329.202c-7.161 7.729-20.045 13.734-30.976 18.533a51.01 51.01 0 01-22.032 3.377c-.573.289-1.039.702-.48 1.409 5.392-1.117 12.742.933 20.374-1.939 14.161-5.345 30.78-14.731 36.431-23.047 1.297-1.886 3.122-4.239 2.829-6.157-3.789-.204-3.944 5.461-6.146 7.824zm-108.251-160.56c-3.321 3.622-7.01 7.137-10.628 10.66 4.038-.997 10.08-4.213 10.628-10.66zm-4.203 22.242a34.429 34.429 0 009.219-9.975c-4.867-.426-5.932 7.313-9.933 8.561l.714 1.414zm.399-30.989c-3.254 1.883-8.389 8.458-8.507 11.39 2.75-2.258 8.789-6.819 8.507-11.39z" fill="#fff"/><path fill-rule="evenodd" clip-rule="evenodd" d="M197.749 244.629c-4.098-8.127-6.964-18.535-11.935-27.189-5.53-9.629-17.837-22.001-24.204-25.712-10.287-6.049-26.354-1.541-32.709-10.8-1.343-1.951-.771-2.687-1.216-4.73-.883-.948-2.655.886-2.985-1.462-2.901-10.21-12.082-18.61-16.445-31.407-.588-1.746-.065-4.052-.717-6.147-1.44-4.55-5.545-8.276-6.202-12.299-2.877 1.738-5.974-1.149-9.49.035-5.121 1.744-16.102 11.258-17.478 13.521-2.007 1.368-6.4-2.528-5.687 1.692-2.88 4.14 6.833 10.029 6.434 15.121 1.72.358 3.392.91 4.987 1.645 9.067 12.81 13.005 24.407 20.714 36.352 1.574 7.579-1.303 12.481-3.98 18.001-1.572 3.214-3.746 5.944-4.95 8.995-4.572 11.97-2.14 27.623 5.325 42.338 27.046 53.321 50.455 93.817 75.029 142.905a27.432 27.432 0 018.298 7.049c14.804 3.374 34.177-.372 50.212-9.846 3.828-2.261 8.588-4.676 12.307-7.375 8.458-6.137 18.518-20.327 16.77-29.142-.728-3.539-3.014-5.711-4.514-8.951-16.987-36.094-38.215-73.199-57.564-112.594zm-97.714-116.13c2.149 4.261 4.114 7.312 5.48 10.866-1.339-.292-.61.307-1.901.956-.802-4.444-5.463-8.025-3.597-11.858l.018.036zm-3.315-.69c.085 1.326-2.293 1.871-2.604 3.082-1.967-.291 1.988-1.942.71-3.319-4.015-.518-3.845 5.747-8.042 7.588 1.15-3.024 5.337-11.569 9.918-7.387l.018.036zm4.286 10.861c.201 1.38 2.973 3.622.963 4.273-.724-2.239-2.505-3.588-.981-4.309l.018.036zm-1.64 7.31c-2.484-5.282-3.182-7.557-5.736-12.533 3.086 2.644 7 8.8 5.735 12.533zm-.957 1.67c-.69.683-2.658-.414-2.367 1.189-.933-3.009-4.944-8.959-5.002-13.485 3.472 2.16 4.279 8.351 7.37 12.296zm-3.783 1.901c-5.136 3.188-5.955-10.695-9.754-11.096-.005-1.748 2.11-.275 3.317-1.668 3.597 5.171 2.992 10.524 6.437 12.764zm-13.312-12.27c1.043-2.387 1.89-4.899 4.964-6.647a9.75 9.75 0 01-4.964 6.647zm8.112 14.884c-2.62-2.834-8.626-8.949-5.73-13.725 2.187 5.184 6.214 10.228 5.73 13.725zm-8.543-18.145a8.155 8.155 0 01-3.32 4.024 4.666 4.666 0 013.293-4.078l.027.054zm-10.887 7.828c3.383-.691 6.294.045 9.944-1.453a75.454 75.454 0 006.668 12.065c-9.062 5.43-13.228-4.436-16.639-10.666l.027.054zm23.967 105.157c3.678-.817 6.689.429 10.172.205-.935-3.727-7.025-1.63-10.269-2.535-1.045-1.405-.787-2.365-1.186-3.556 3.672.017 7.185.877 10.901.445-3.595-4.498-13.043.879-10.92-7.526 2.925-.528 4.773 2.246 8.277-.032-1.976-3.651-8.034.336-8.53-3.992 3.23-.457 7.492 1.754 9.955-.269-2.38-3.292-6.913.198-9.496-2.34.765-2.629 5.147-2.049 6.876-.495a2.626 2.626 0 00.703-2.126c-2.034-1.894-5.596-1.069-6.873-1.863 1.346-3.302 5.514.684 7.103-2.404-1.11-2.202-3.324-1.067-5.227-.918.014-4.652 5.216.138 6.869-2.869-1.084-2.149-3.459-.663-4.738-2.354 1.767-.462 1.055-1.741 1.654-2.604a4.625 4.625 0 004.261-.952c-.534-1.595-1.477-1.906-2.857-.943 2.322-4.309 2.676-9.356 4.199-13.959-6.619-10.406-15.475-27.968-21.434-40.142 5.442.63 9.67-3.11 15.615-5.493-.89 2.692-5.24 4.317-5.897 7.116 5.846-2.939 10.329-8.222 13.713-11.628a19.124 19.124 0 01-3.288 7.556 19.174 19.174 0 01-6.165 5.476c4.844 1.851 8.925-6.057 10.874-9.012 2.735 5.111-5.844 9.894-9.441 14.216 4.33.92 9.955-7.001 12.54-10.432-.551 5.46-5.927 9.329-10.386 13.5 4.817 1.618 9.014-6.55 11.824-9.489a20.036 20.036 0 013.563 5.906c-3.705 4.107-5.811 8.845-10.864 12.552.288.349.71.249.953.733 4.529-1.94 8.033-7.606 10.868-11.387a11.891 11.891 0 002.618 5.192c-3.312 3.37-3.929 7.629-9.695 10.191 3.996 3.467 6.434-4.311 10.655-7.129 1.713 2.505-2.081 3.852-3.298 5.226-1.889 2.049-3.813 4.34-5.208 6.164 3.406 1.138 6.682-5.603 10.176-8.078l3.81 7.555c-1.624.39-.983 1.527-2.616 1.899.427-1.382 1.423-1.636-.233-2.823a36.962 36.962 0 01-10.505 9.387c3.11 1.264 7.156-3.193 9.468-4.759-.532 2.511-4.901 3.652-5.199 6.181 4.649-.362 6.579-6.965 10.411-7.612-.334 5.666-6.105 9.554-10.124 14.065 5.671-1.235 11.251-9.111 13.706-14.003 2.559 3.202 6.418 2.877 9.762 4.069 1.171 1.431-1.396 1.689-.944 2.853 1.783 1.887 2.548-.563 3.801-1.911 1.912-.085-.139 1.731-.002 2.358.52.242.938.66 1.179 1.18 2.575-.778 1.64-4.191 4.749-3.554.463 2.123-1.23 3.535-2.141 5.205 3.815 2.84 2.853-4.015 6.459-5.02 3.148 2.008-1.111 3.768-.449 6.151 3.503.886 2.599-4.74 4.97-4.272 2.235 2.916-2.235 6.487-2.819 9.698 2.483 1.803 4.477-4.495 4.009-4.977a15.522 15.522 0 002.363-2.355c.391 1.621 1.77.255 2.142 1.885-2.094 2.265-1.739 7.203-5.033 7.848 4.142 4.067 4.073-4.627 7.804-5.695 2.924 5.262-2.878 7.662-4.241 11.601 3.585.958 4.873-7.139 8.76-7.365-.596 5.191-6.018 8.792-7.315 13.752 4.826-1.573 5.203-8.001 9.935-10.918-1.026 5.453-4.649 10.034-8.731 14.464 5.791-.105 7.501-8.258 11.334-11.621.788 2.409 2.172 2.97 3.102 4.948-6.193.645-7.327 9.271-11.806 13.048.405.313.837.634 1.411.48-9.556 11.536-27.881 17.763-46.365 24.474-9.606 3.504-21.807 6.72-27.483-.391 3.394 0 9.57 3.156 11.616-.498-4.511-1.592-11.732.624-13.382-5.278zm86.852-28.87c-4.029 4-5.539 6.532-10.152 10.444 1.774-4.684 6.396-8.399 8.97-12.789 1.085-.478-.014 1.488 1.182 2.345zm-32.049 136.388c-.508-1.674-1.434-2.039-2.137-3.077 4.592-1.859 11.662-.23 14.425-4.289-5.59-1.858-12.681 4.894-16.564.046 3.993-4.072 11.013-.891 14.908-4.532-4.319-.32-12.642-.377-15.399 2.4a14.861 14.861 0 01-3.328-5.441c3.751-.673 9.485 1.516 11.835-2.381-3.993.504-9.598-.403-12.317.267-1.365-.256-1.831-3.23-3.099-3.783 4.568-.837 12.248.8 15.165-2.865-5.386-.009-10.768.32-16.112.986l-1.689-3.348c3.011-2.007 11.359.551 13.959-4.054-5.426-1.088-13.184 5.056-16.82-1.621 4.663-1.806 11.78.496 14.436-3.105a49.825 49.825 0 00-15.384 1.225l-2.627-5.209c3.635-.19 10.99.4 12.307-3.808-4.22-.123-12.305 4.704-15.395-2.315 3.939-1.104 10.112.976 12.311-2.642-4.023-.222-10.075-.546-13.268.745-2.068-1.205-1.838-2.622-3.093-4.976 3.465-.081 8.618-.382 11.601-2.846-3.65-1.801-9.385 2.114-13.746-.204-1.343-1.771-.493-2.804-1.664-4.504 4.315-1.16 7.544 1.054 12.554-2.159-1.477-1.637-3.236-1.246-4.515.496-1.386-1.323-6.125-.781-9.231-.7l-2.14-4.243c4.273-.442 11.291 1.976 12.311-2.643-4.957-.515-11.392 3.483-14.694-2.083 4.674-1.25 11.532 1.698 14.672-2.64-4.598-.203-9.47.833-13.746-.204-1.022.513-1.308 1.151-.703 2.126-2.453-.63-1.832-3.141-3.569-4.714 4.866-.202 9.16.961 14.684-1.457-4.423-2.264-10.415-.285-15.632-.423.03-2.259-1.372-2.721-2.148-4.26 4.74-.139 10.742 1.601 15.168-1.701-4.986-.972-10.442-.249-15.881.286.695-1.785-2.328-3.946-1.899-4.969 4.131.705 10.293 1.558 14.44-1.94-4.712.461-12.213-1.132-15.168 1.7l-1.652-3.276a37.76 37.76 0 0011.105-.264c-1.707-3.384-10.297.53-12.297-2.099 2.598-1.89 6.195.251 9.956-.27a79.5 79.5 0 0014.193-3.589c23.104-8.382 46.789-17.393 59.853-36.593 2.491 4.941-6.88 11.94-8.003 18.227 4.967-2.497 6.356-9.68 10.87-13.744.873 7.123-6.621 11.473-7.554 18.001a35.952 35.952 0 009.173-13.587c1.824.363.635 2.419 2.154 3.069a123.163 123.163 0 00-9.215 14.708c4.124-2.073 7.538-7.739 9.457-11.867 9.875 9.734-1.877 15.933-2.545 24.37 3.345-1.256 5.447-10.413 8.969-12.789 3.864 7.662-6.515 13.822-9.181 20.614 3.73-1.74 8.486-9.067 11.562-13.531 2.314 12.301-14.659 23.212-25.018 30.348a47.545 47.545 0 0016.649-10.024 47.46 47.46 0 0011.236-15.841l2.221 4.404a2.55 2.55 0 00-1.66.229c-1.628 11.926-15.505 22.738-24.805 29.657 13.139-5.146 24.471-17.349 26.459-28.694 2.067.577.864 3.673 2.868 4.483-3.756 2.09-5.31 8.189-7.553 12.077 4.018-1.437 5.017-7.257 8.501-10.197-.311 1.345.307.608.957 1.897-4.711 13.835-17.93 25.462-34.044 32.507 16.556-2.825 30.868-18.613 35.239-28.934 2.006 1.617 1.598 3.169 3.346 5.432-1.041.344-1.734-.318-2.614-.459-1.263 4.45-5.347 7.939-5.414 12.797a228.486 228.486 0 01-25.772 20.652c10.377-3.489 22.082-14.152 31.212-23.992-1.509-3.528 1.358-5.597 2.338-8.289 1.878.47.691 3.243 2.633 4.017a1.486 1.486 0 00-1.152.078 1.49 1.49 0 00-.749.878c-.659 5.021-4.464 8.976-4.701 14.211-10.66 11.843-28.609 20.462-41.396 26.127 18.088-3.932 33.158-15.007 43.775-26.134-.343-.68-.677-1.342-1.188-1.198 2.611-3.736 3.749-7.943 6.602-11.599 4.662 7.239-5.959 13.722-5.647 19.422-10.895 11.199-37.09 24.994-53.688 28.76 4.716 1.063 11.245-1.367 16.088-3.352a151.735 151.735 0 0041.129-25.409c.651-1.561-1.469-1.887-.961-3.063a25.215 25.215 0 005.668-8.773c1.141.123 1.613 2.264 2.621 2.834-3.632 4.833-5.341 10.314-8.271 15.378 4.279-1.231 6.098-8.989 9.453-13.032l5.715 11.332c-5.466.795-7.004 9.422-9.64 13.821 4.41-2.351 6.241-8.972 9.426-13.041 2.387 2.907 4.864 5.678 5.717 8.975 2.65 10.292-19.715 26.022-38.056 32.75-8.834 3.252-20.506 6.313-29.357 10.022-4.924-1.564-10.74 2.235-14.011-1.933 1.411-2.774 9.117 1.543 12.07-1.916-4.879-1.699-12.7 1.066-15.38-3.489 5.151-1.153 11.244 1.08 15.394-1.208-4.854-2.093-10.436-1.351-15.893-1.032zm102.635.021l1.426 2.829c-3.823 3.874-5.552 8.423-9.222 12.332 4.866-.067 6.739-7.673 9.935-10.918-.436 1.229 1.216 1.386 1.67 3.312-3.809 2.341-6.629 8.292-9.923 12.101.289.349.701.232.945.715 2.984-2.061 6.444-7.323 8.741-10.924 4.057 6.084-5.338 11.121-7.073 16.593 4.737-1.214 6.166-6.892 9.219-9.975-4.678 15.816-22.533 29.526-42.777 36.313-12.773 4.177-25.055 7.545-34.59.804 4.22.123 11.515 2.066 14.672-2.64-5.458.23-14.203 3.257-19.181-1.578 3.011-1.918 9.869 1.165 13.504-2.637-4.949-.587-10.449.54-15.397.042l-1.67-3.311c4.076.06 10.868 1.673 13.721-2.163-4.892.507-9.463 0-14.434.748l-1.436-2.846c4.55.324 9.121-.165 13.499-1.445-.808-3.117-3.449-.51-5.441-.227a32.704 32.704 0 00-9.077-.172c-.721-1.029-1.656-1.411-2.155-3.068 4.074-.836 9.097.656 12.777-2.877-4.549-2.067-11.946 4.389-15.16-1.849 3.956-1.069 9.006.387 12.32-2.625-4.349-1.18-9.757.887-14.212.03l-1.67-3.312c4.764-.891 9.022-.249 14.436-3.105-1.678-3.016-5.206.373-7.342.728-3.104.529-5.908-.485-8.286.014l-2.14-4.242a31.86 31.86 0 0016.092-2.187c-1.006-3.287-4.149-.159-6.383.268-3.782-.903-8.82 1.988-11.622-1.877 26.639-2.574 68.202-17.004 80.921-40.676 1.214 4.102-5.416 9.005-7.549 13.287 3.941-.029 6.408-6.991 9.929-9.726 1.937 5.489-5.095 8.036-5.423 12.779a4.458 4.458 0 00-2.589 1.907c3.753.044 7.437-8.473 11.114-9.738 1.187.75-.334 2.412.948 1.88-2.947 2.536-4.798 8.313-8.973 11.624 4.615-.076 7.292-5.91 9.93-9.726 3.091 7.422-5.697 10.987-6.839 17.058 3.999-2.01 6.568-7.789 9.701-11.383 2.173 6.761-4.478 10.598-6.833 15.866 4.538-1.653 7.063-7.388 9.216-11.14a12.034 12.034 0 011.905 3.777c-4.363 3.427-4.61 8.197-8.982 11.606 5.6-.796 6.783-7.943 9.704-10.353l.054.107z" fill="#fff"/><path fill-rule="evenodd" clip-rule="evenodd" d="M190.828 237.989c-2.641 2.831-4.446 9.281-7.541 13.26 4.609-2.003 9.446-9.124 7.541-13.26zM148.468 52.99c2.345-2.838 5.687-5.214 6.821-7.288 2.26-4.075.628-10.032-1.135-14.33-3.767-2.077-8.519-6.017-13.937-4.595-10.524 2.754-17.652 12.598-22.215 18.347-2.282 8.845-5.654 19.987-5.673 29.354a58.431 58.431 0 004.924 20.728c1.799 4.459 1.949 10.24 6.671 13.229-.992-11.148-2.627-18.27 1.479-26.706 3.339-6.75 8.621-12.277 14.072-18.136 2.981-3.227 5.853-6.757 8.993-10.602zm-27.713 45.997c-.35-.205-2.521-2.771-1.567-1.994-4.111-18.893-6.24-45.49 9.126-59.812 5.05-4.783 17.476-11.029 22.967-2.726 2.082 3.15 1.055 4.99 1.989 8.403-11.765 17.986-36.918 31.931-32.515 56.13z" fill="#fff"/><path fill-rule="evenodd" clip-rule="evenodd" d="M161.113 70.399c.251-.127.682.105.225.447-6.878-.268-18.411 7.258-21.856 11.525-1.59-.435-3.994.504-3.135 2.698 4.492.839 7.179-1.185 11.491-.256 4.312.93 7.484 4.9 11.284 5.93 5.597 1.517 12.227-.492 17.238-6.421 2.955-9.205-7.581-17.261-15.247-13.923zm12.05 10.525c-1.171 11.54-19.526 3.577-24.76.284-1.443 1.062-2.387.571-3.526.673 6.054-8.541 29.621-14.845 28.196-.912l.09-.045zM91.861 46.102c-2.874-10.156-12.7-15.113-23.668-10.744-3.225 2.518-3.478 5.316-5.506 8.826-1.31 13.494 5.06 31.34 16.419 41.474 5.139 4.575 11.587 8.671 16.814 9.23-2.204-1.472-4.247-3.475-6.851-3.736-11.991-8.312-28.271-32.173-21.363-50.03 8.194-7.686 18.235-2.927 21.012 7.66 3.556 13.472-1.116 34.827 7.65 45.881 1.345-.676 2.393 1.67 3.097-.456-9.368-11.09-3.242-32.592-7.604-48.105z" fill="#fff"/></svg>