<svg width="376" height="334" fill="none" xmlns="http://www.w3.org/2000/svg"><path fill-rule="evenodd" clip-rule="evenodd" d="M228.67 178.128c-.495-1.808-.932-4.76-1.355-7.694a2.041 2.041 0 012.878-1.108c-2.942 2.566 1.794 4.815-.099 8.246-.713-.51-1.06.016-1.424.556zm5.463-12.32a8.24 8.24 0 00.132 7.754c-.597.638-1.254.985-1.916 1.505-.167-2.967-3.175-9.108 1.784-9.259zm42.724-73.767c3.188.93 4.901 5.358 5.047 8.764-2.877-.894-4.178-5.73-5.047-8.764zM265.768 74.11c-1.302-2.187-.067-7.241 1.013-9.02 3.337 2.194.408 7.96-1.013 9.02zm-24.749-12.713c1.533-1.205 2.386-.552 3.661 1.066a1.928 1.928 0 01-3.661-1.066z" fill="#fff"/><path fill-rule="evenodd" clip-rule="evenodd" d="M230.812 65.84c-1.997-2.318-5.996-1.343-9.432-4.163a6.658 6.658 0 017.136-2.792c.716-1.633-.568-2.51.762-4.401.842.352 1.667.718 2.491 1.084a7.321 7.321 0 011.752-3.968c1.93 1.553 2.627 1.006 4.267 2.478-.892 2.447-.433 1.776-1.273 4.182 13.66-6.397 37.691 2.686 43.147 16.621 14.801-13.18 28.53-29.151 42.638-44.069.51.93 1.127 1.796 1.838 2.583-13.394 13.568-27.981 32.495-42.691 48.223-.334 1.08 2.155 1.123 2.04 2.087 1.381 19.643 7.565 43.625-4.062 66.986-2.931 5.908-5.856 13.755-9.394 17.211-.897.902-.355.73-1.222.06-4.388 14.151-18.384 30.642-32.151 37.94l-1.1 2.47c-19.47 10.371-43.088 11.329-66.623 5.63-15.501 15.871-26.354 28.512-42.109 46.779a3.512 3.512 0 01-2.272-1.594c-1.256-.055-1.21 3.26-2.541 3.039-1.844-1.874.1-6.528-4.418-6.104-3.854 5.845 6.274 10.391 8.857 6.868 1.785.26-.057 1.932 1.328 2.365 2.804-1.668 1.731-3.923 2.359-6.67 2.607.767 2.139 2.713 4.298 3.663-.941 3.923-3.199 4.458-5.329 5.371-13.859 17.201-32.144 33.513-45.43 51.727-6.615 5.565-17.19 4.89-18.73-4.686a44.603 44.603 0 019.964-15.773c9.98-11.279 23.177-23.846 32.618-34.843a146.937 146.937 0 019.9-11.667c.065 2.766 3.075 1.753 4.806 3.913 12.903-13.548 28.426-30.929 39.73-44.178-14.507-7.667-22.555-17.876-20.224-31.988-4.055-2.137-8.807-.937-11.307-2.605.45-.861-.159-1.311.374-2.209-.148-1.405 2.933-1.827 4.504-2.16-.165-.997-2.321-5.555 1.272-4.182.522-1.987-1.524-2.971-.009-5.344a4.129 4.129 0 013.03 2.519c1.246.007 1.413-2.716 2.856-2.245 3.461 1.956 1.81 5.873 4.061 8.3 2.579-.308 4.348-2.965 6.306-4.955 11.178-5.967 28.925-.452 43.047 4.758 9.498-6.704 17.265-20.468 24.259-26.697.383-.301 1.374-.01 1.004.45 1.467-1.716 5.65-7.933 9.604-12.364 4.412-4.96 10.076-8.51 9.066-13.799-2.916-15.65-16.683-30.179-11.101-48.79a11.367 11.367 0 002.104-5.06zM77.536 302.53c-5.83 6.131-12.614 11.518-6.966 17.107 18.16-16.327 32.848-36.77 49.239-53.623-2.619.256-3.133-2.185-5.024-3.403-11.576 13.013-24.681 26.662-37.25 39.919zm22.32-11.513c-1.393.701-5.155 5.375-4.137 5.307 1.06-1.875 4.26-3.685 4.124-5.325l.013.018zm15.391-13.363c-3.072 3.26-8.078 7.645-9.403 11.868 2.7-4.375 7.992-7.717 9.389-11.885l.014.017zm-7.512-10.995c1.603-.472.372-.996-.51-.219-1.591 4.066-4.575 4.468-6.416 7.858 2.399-.392 4.521-4.285 6.84-7.713l.086.074zm14.344 3.88c-.736 1.142-4.436 4.106-2.961 4.045.511-1.641 3.578-2.474 2.847-4.153l.114.108zm-.169-3.613c-.788 1.577-3.851 2.773-3.207 4.52.667-1.623 3.73-2.819 3.086-4.566l.121.046zm40.634-50.296c-10.033 11.32-22.406 22.283-30.45 35.196 9.538-12.341 21.959-23.172 30.329-35.242l.121.046zm3.566-2.633c-1.415-1.366-3.177 1.623-2.309 2.546.817-.36 1.168-2.241 2.153-2.565l.156.019zm59.863-44.227c-2 3.797 2.796 7.125-.242 9.963-2.338-2.106-1.067-5.611-2.345-8.127-4.822 2.972 2.482 8.695-2.245 10.213-.682-2.618-1.131-5.335-1.848-7.926-.94 1.133-2.454.717-3.313 2.096.237 2.176.266 4.369.087 6.551l-2.491-1.085c2.018-1.304-1.045-3.544.851-6.076-2.053.008-4.483-.928-5.803 1.011a4.428 4.428 0 01.109 3.717c-1.854-1.923-1.523 1.647-3.157.397-2.399-.932-.445-3.678-2.656-4.729-4.566 3.87-8.422 10.787-10.809 14.916-2.965.246-8.778-.65-8.008-4.719 4.288-2.075 7.158-7.738 10.904-11.217-16.452-7.378-40.932-13.883-50.632 4.837a10.563 10.563 0 001.333 13.035c2.047.306 3.67-.462 5.814.218-.823 2.534-2.639 2.413-4.782 1.449.261 4.696 5.504.97 8.105 1.799-.233.492.146.758.045 1.203-1.36 2.139-4.023.909-5.991 1.526 2.434 3.945 7.888 1.631 10.733.015-.434.989 1.014 1.287.122 2.41-1.945 1.755-4.772 1.103-6.949 2.279 3.378 1.851 8.647-.233 11.548-3.245 2.614 3.889-5.095 5.919-7.976 5.986 3.801 3.604 8.426.561 12.192.615 1.792-.733 2.369-4.509 4.969-3.144-2.091 5.22-6.272 5.069-9.924 6.305 6.925 4.276 11.534-3.261 18.091-3.317-2.267 3.387-5.69 3.768-8.469 5.754 7.98 4.038 11.35-4.891 16.249-5.868-.584 4.768-5.38 5.27-8.092 7.626 5.805 1.889 8.054-5.456 12.831-6.196-.277 3.907-3.886 4.518-5.926 6.797 6.089 1.496 9.663-3.453 13.779-6.998 1.907 3.6-3.157 5.298-5.474 7.119 5.644 2.042 10.411-2.324 12.077-7.153 3.513 2.309.134 2.711-.852 6.077 4.814 1.061 5.472-8.553 9.492-9.431.306 3.788-3.493 5.195-3.226 8.647a8.498 8.498 0 014.362-.442c4.049-2.844 1.867-7.58 5.379-9.494 1.115 2.165-1.18 5.659-1.291 8.309 5.949-.648 4.775-7.076 6.524-10.76.492 3.021 2.582 5.744.129 7.785 5.535.044 6.049-8.894 7.997-11.326 1.267 2.215 1.275 3.335-.716 5.604 6.611-.238 2.88-11.698 6.503-13.221.882 2.658-.881 6.325.904 8.696 4.622-4.871-1.149-11.011 3.434-14.5 1.044 3.292-.197 7.478 1.242 10.628 3.747-3.621.572-11.405 3.495-13.28 2.683 2.116-.738 6.579 1.397 8.929 5.111-4.467-.609-9.718 2.272-13.221 1.831.927.3 3.172 1.679 4.314 1.497-2.754-2.406-6.953 1.077-7.831a18.03 18.03 0 001.788 6.706c5.161-3.295-1.354-12.202 1.524-15.28 2.25 2.569 1.31 6.35 3.116 9.07 3.632-5.304-.58-10.218.434-15.803 3.461 1.815 1.328 5.8 3.564 8.099 4.89-6.321-3.729-10.025 1.414-12.518a12.791 12.791 0 002.223 5.717c1.488-5.591-4.064-10.129-.914-14.041 3.094 2.386.648 6.476 3.378 9.795 4.396-7.877 2.122-13.159-.152-18.441 1.529-.78 1.012-.148 2.907.109a10.55 10.55 0 002.56 7.649c-.436-5.6-3.578-12.341-3.245-16.856 3.882 3.315 2.605 8.6 4.504 12.656.935-2.679-.095-4.629 1.57-7.599-4.267-2.872-4.95-9.32-4.504-12.656 3.109 2.514 2.142 8.766 5.113 10.065 2.795-9.266-4.498-12.182-3.907-20.701 2.653 1.576 1.913 4.467 3.705 6.382 1.743-4.946-3.568-10.574.789-13.885-1.823-5.89-1.493-12.628-5.226-17.721-2.025 4.408-4.041 3.175-4.512 7.516-1.75 1.573-8.277.45-8.674-3.238a29.833 29.833 0 0012.328-11.772c-1.911-1.315-1.5 3.178-3.573 1.372a6.172 6.172 0 00-1.123-8.187 15.676 15.676 0 01-3.018 6.906c-.649-.25-.986.324-1.733-.159a51.168 51.168 0 003.243-8.66 101.865 101.865 0 00-9.058-6.373c-1.098 1.792.116 5.908-.346 8.721-.635-.233-.958.36-1.702-.155-.134-2.71-.791-7.264.52-9.252-2.616-.17-3.305-1.938-5.399-1.194 1.35 1.39-.016 3.844.503 5.576-1.465.11-.889-.484-2.747-.657 1.417-2.354-.013-3.595-.009-5.344-1.407-.782-2.026.437-3.432-.345-1.103 2.5 2.725 4.815.795 6.304a6.478 6.478 0 01-2.994-6.66 36.9 36.9 0 00-10.494 2.754c-.188 4.485-3.227 4.423-4.517 6.366a21.602 21.602 0 00-2.418 5.45c-4.258 15.71 9.065 32.645 11.552 47.787 1.358.65 1.37-.373 1.994.883-1.382 6.155 1.785 10.567 3.897 15.357-.414.691-1.38-.07-2.195-.387-2.298 3.777 3.316 4.492 1.831 7.94-1.684-.311-1.596-1.309-2.752-1.809-2.279 3.622 3.332 4.226 2.049 7.431-1.361.563-1.877-.665-2.984-1.317-.739 2.891 2.31 4.325 2.282 6.938-3.153-.028-3.368-1.803-4.312-3.681-.593 2.325-2.072 2.418-2.696 4.739a9.655 9.655 0 004.444 4.957c-.467 1.268-.92 2.412-2.09 2.037-1.563-1.589-2.282-3.503-3.664-5.148-2.986 5.444.985 11.984-1.715 14.642a22.269 22.269 0 01-1.041-11.125 22.944 22.944 0 01-9.417 7.485l.028.035zm-84.34 6.738c.899-2.903 1.995-4.948.364-7.553-1.522 1.647-3.422 3.675-3.13 5.727-.721 1.411-4.812-.415-3.792 1.881 1.935-.337 4.404.398 6.443-.021l.115-.034zm77.772-26.841c-7.047 8.129-15.186 16.806-22.817 26.127-2.975 3.634-8.573 8.878-7.243 12.283 9.287-12.087 21.422-25.679 29.946-38.376l.114-.034zm22.622-20.256c-11.116 14.848-26.288 28.488-36.806 44.274 20.194 2.212 42.901-23.124 36.692-44.24l.114-.034zm-14.305 10.875c-1.421 2.92-7.106 5.585-5.949 8.055 1.525-2.86 5.688-4.808 5.835-8.021l.114-.034zm4.833-5.572a30.32 30.32 0 00-4.617 5.093c2.036-.53 5.015-3.8 4.502-5.059l.115-.034zm42.513-49.379c6.09-6.588 11.813-12.747 15.704-17.974-7.801 7.567-14.011 14.11-21.051 22.177 2.167.494 3.713-2.411 5.347-4.203zM234.211 55.48c-1.441 3.076-2.997 3.679-3.773 5.95-1.781-1.078-3.193-1.152-4.147-.036 2.55 1.123 3.595.696 5.475 2.4-.574-3.125 4.129-5.891 2.445-8.314zm61.224 7.991c-1.504-.62-3.831 2.082-3.252 3.317a42.25 42.25 0 003.252-3.317z" fill="#fff"/></svg>