<svg width="669" height="646" fill="none" xmlns="http://www.w3.org/2000/svg"><mask id="path-1-inside-1" fill="#fff"><path fill-rule="evenodd" clip-rule="evenodd" d="M0 600.516c17.983 6.593 32.025 23.82 36.897 45.484h595.206c4.873-21.664 18.914-38.891 36.897-45.484V40.909C652.303 34.788 639.003 19.497 633.287 0H35.714C29.997 19.497 16.697 34.788 0 40.909v559.607z"/></mask><path fill-rule="evenodd" clip-rule="evenodd" d="M0 600.516c17.983 6.593 32.025 23.82 36.897 45.484h595.206c4.873-21.664 18.914-38.891 36.897-45.484V40.909C652.303 34.788 639.003 19.497 633.287 0H35.714C29.997 19.497 16.697 34.788 0 40.909v559.607z" fill="#fff" fill-opacity=".01"/><path d="M0 600.516h-2v1.397l1.312.481.688-1.878zM36.897 646l-1.951.439.35 1.561h1.6v-2zm595.206 0v2h1.601l.351-1.561-1.952-.439zM669 600.516l.688 1.878 1.312-.481v-1.397h-2zm0-559.607h2v-1.397l-1.312-.48-.688 1.877zM633.287 0l1.919-.563L634.785-2h-1.498v2zM35.714 0v-2h-1.498l-.422 1.437 1.92.563zM0 40.909l-.688-1.878-1.312.481v1.397h2zm-.688 561.485c17.24 6.32 30.884 22.927 35.634 44.045l3.902-.878c-4.995-22.21-19.434-40.058-38.16-46.923l-1.376 3.756zM632.103 644H36.897v4h595.206v-4zm36.209-45.362c-18.726 6.866-33.165 24.713-38.16 46.923l3.903.878c4.749-21.118 18.394-37.725 35.633-44.045l-1.376-3.756zM667 40.908v559.608h4V40.909h-4zM631.368.564c5.864 20.001 19.556 35.85 36.944 42.224l1.376-3.756c-16.006-5.868-28.914-20.601-34.482-39.594L631.368.563zM334.5 2h298.787v-4H334.5v4zM35.714 2H334.5v-4H35.714v4zM.688 42.787C18.076 36.412 31.768 20.565 37.633.563L33.794-.563C28.226 18.43 15.32 33.163-.688 39.031l1.376 3.756zM2 600.516V40.909h-4v559.607h4z" fill="#FAB44A" mask="url(#path-1-inside-1)"/></svg>