<svg width="231" height="61" fill="none" xmlns="http://www.w3.org/2000/svg"><path d="M80.009 31.188c-.615 0-1.108-.176-1.48-.528-.373-.352-.56-.825-.56-1.419V16.47c0-.594.187-1.067.56-1.419.372-.352.865-.528 1.48-.528.635 0 1.14.176 1.513.528.372.352.559.825.559 1.419v4.653h7.039V16.47c0-.594.186-1.067.56-1.419.372-.352.865-.528 1.48-.528.635 0 1.14.176 1.512.528.373.352.56.825.56 1.419l.032 12.606c0 .638-.197 1.155-.592 1.551-.372.374-.866.561-1.48.561-.636 0-1.14-.187-1.513-.561-.373-.396-.559-.913-.559-1.551v-4.752h-7.04v4.917c0 .594-.186 1.067-.558 1.419-.373.352-.878.528-1.513.528zm24.402-16.731c2.237 0 3.892.561 4.967 1.683 1.096 1.1 1.644 2.783 1.644 5.049v8.052c0 .594-.175 1.067-.526 1.419-.351.33-.833.495-1.447.495-.571 0-1.042-.176-1.415-.528-.351-.352-.526-.814-.526-1.386v-.726a4.28 4.28 0 01-1.776 2.013c-.789.484-1.71.726-2.763.726-1.075 0-2.051-.22-2.928-.66-.877-.44-1.568-1.045-2.072-1.815a4.595 4.595 0 01-.756-2.574c0-1.188.296-2.123.888-2.805.614-.682 1.6-1.177 2.96-1.485 1.36-.308 3.235-.462 5.625-.462h.822v-.759c0-1.078-.23-1.859-.691-2.343-.46-.506-1.206-.759-2.236-.759-.636 0-1.283.099-1.941.297a22.55 22.55 0 00-2.335.792c-.57.286-.987.429-1.25.429-.395 0-.724-.143-.987-.429-.242-.286-.362-.66-.362-1.122 0-.374.088-.693.263-.957.197-.286.515-.55.954-.792.767-.418 1.678-.748 2.73-.99a14.342 14.342 0 013.158-.363zm-1.02 13.827c1.097 0 1.985-.363 2.665-1.089.701-.748 1.052-1.705 1.052-2.871v-.693h-.592c-1.469 0-2.61.066-3.421.198-.811.132-1.392.363-1.743.693-.351.33-.526.781-.526 1.353 0 .704.241 1.287.723 1.749.504.44 1.119.66 1.842.66zm21.053-13.827c1.382 0 2.609.352 3.684 1.056 1.096.704 1.941 1.705 2.533 3.003.614 1.276.921 2.75.921 4.422 0 1.672-.307 3.135-.921 4.389-.592 1.254-1.426 2.222-2.5 2.904-1.075.682-2.314 1.023-3.717 1.023-1.14 0-2.16-.242-3.059-.726a5.083 5.083 0 01-2.072-2.013v6.732c0 .572-.187 1.023-.559 1.353-.373.33-.867.495-1.481.495-.614 0-1.118-.176-1.513-.528-.373-.352-.559-.814-.559-1.386V16.47c0-.594.175-1.067.526-1.419.373-.352.867-.528 1.481-.528.613 0 1.107.176 1.48.528.372.352.559.825.559 1.419v.825a4.975 4.975 0 012.072-2.079c.921-.506 1.963-.759 3.125-.759zm-1.085 13.596c1.293 0 2.302-.44 3.026-1.32.723-.902 1.085-2.167 1.085-3.795 0-1.672-.362-2.97-1.085-3.894-.724-.924-1.733-1.386-3.026-1.386-1.316 0-2.336.451-3.059 1.353-.702.902-1.053 2.189-1.053 3.861 0 1.65.351 2.926 1.053 3.828.723.902 1.743 1.353 3.059 1.353zm18.932 3.201c-1.644 0-3.092-.34-4.342-1.023-1.228-.682-2.181-1.661-2.861-2.937-.68-1.276-1.02-2.761-1.02-4.455s.34-3.168 1.02-4.422c.68-1.276 1.633-2.255 2.861-2.937 1.25-.682 2.698-1.023 4.342-1.023 1.645 0 3.081.341 4.309 1.023a6.842 6.842 0 012.862 2.937c.68 1.254 1.02 2.728 1.02 4.422 0 1.694-.34 3.179-1.02 4.455a6.842 6.842 0 01-2.862 2.937c-1.228.682-2.664 1.023-4.309 1.023zm-.033-3.201c1.338 0 2.358-.44 3.059-1.32.702-.88 1.053-2.178 1.053-3.894 0-1.694-.351-2.981-1.053-3.861-.701-.902-1.71-1.353-3.026-1.353-1.316 0-2.335.451-3.059 1.353-.701.88-1.052 2.167-1.052 3.861 0 1.716.351 3.014 1.052 3.894.702.88 1.711 1.32 3.026 1.32zm11.684 7.326c-.57 0-1.031-.176-1.382-.528-.329-.33-.493-.803-.493-1.419v-3.465c-.022-.638.142-1.144.493-1.518.351-.374.812-.561 1.382-.561h.362c.636-1.144 1.074-2.431 1.315-3.861.264-1.43.395-3.124.395-5.082v-2.013c-.022-.638.143-1.144.494-1.518.35-.374.833-.561 1.447-.561h8.124c.636-.022 1.14.143 1.513.495s.56.836.56 1.452v11.088h.526c.636-.022 1.14.143 1.513.495s.559.836.559 1.452v3.597c0 .616-.175 1.089-.526 1.419-.329.352-.779.528-1.349.528-.592 0-1.052-.176-1.381-.528-.329-.33-.494-.803-.494-1.419V30.99h-11.15v2.442c0 .616-.176 1.089-.527 1.419-.329.352-.789.528-1.381.528zm10.131-17.424h-4.506v.99c0 2.09-.165 3.905-.494 5.445-.307 1.54-.745 2.706-1.316 3.498h6.316v-9.933zm11.435 13.233c-.615 0-1.108-.176-1.481-.528-.372-.352-.559-.825-.559-1.419V16.47c0-.594.187-1.067.559-1.419.373-.352.866-.528 1.481-.528.635 0 1.14.176 1.513.528.372.352.559.825.559 1.419v4.653h7.039V16.47c0-.594.186-1.067.559-1.419.373-.352.866-.528 1.48-.528.636 0 1.141.176 1.513.528.373.352.559.825.559 1.419l.033 12.606c0 .638-.197 1.155-.592 1.551-.372.374-.866.561-1.48.561-.636 0-1.14-.187-1.513-.561-.373-.396-.559-.913-.559-1.551v-4.752h-7.039v4.917c0 .594-.187 1.067-.559 1.419-.373.352-.878.528-1.513.528zm19.402-.198c-.636.022-1.14-.143-1.513-.495s-.559-.836-.559-1.452V16.47c0-.594.186-1.067.559-1.419.373-.352.866-.528 1.48-.528.636 0 1.14.176 1.513.528.373.352.559.825.559 1.419v3.729h2.402c1.973 0 3.508.407 4.605 1.221 1.096.792 1.644 2.123 1.644 3.993 0 1.188-.307 2.211-.921 3.069-.592.836-1.381 1.463-2.368 1.881a7.773 7.773 0 01-3.125.627h-4.276zm14.802.198c-.636 0-1.14-.176-1.513-.528-.373-.352-.559-.825-.559-1.419V16.47c0-.594.186-1.067.559-1.419.373-.352.877-.528 1.513-.528.614 0 1.107.176 1.48.528.373.352.559.825.559 1.419v12.771c0 .594-.186 1.067-.559 1.419-.373.352-.866.528-1.48.528zm-11.381-3.036c.877 0 1.633-.209 2.27-.627.635-.418.953-1.089.953-2.013 0-.99-.296-1.65-.888-1.98-.57-.33-1.348-.495-2.335-.495h-1.447v5.115h1.447zm30.335-1.584c.372 0 .668.143.888.429.241.286.361.671.361 1.155 0 .682-.405 1.254-1.217 1.716a11.5 11.5 0 01-2.532 1.023 10.86 10.86 0 01-2.698.363c-2.587 0-4.637-.748-6.151-2.244-1.513-1.496-2.269-3.542-2.269-6.138 0-1.65.329-3.113.987-4.389.658-1.276 1.579-2.266 2.763-2.97 1.206-.704 2.565-1.056 4.078-1.056 1.448 0 2.708.319 3.783.957 1.074.638 1.908 1.54 2.5 2.706.592 1.166.888 2.541.888 4.125 0 .946-.417 1.419-1.25 1.419h-9.703c.131 1.518.559 2.64 1.283 3.366.723.704 1.776 1.056 3.157 1.056.702 0 1.316-.088 1.842-.264a17.502 17.502 0 001.842-.726c.658-.352 1.14-.528 1.448-.528zm-5.691-9.207c-1.118 0-2.018.352-2.697 1.056-.658.704-1.053 1.716-1.184 3.036h7.434c-.045-1.342-.373-2.354-.987-3.036-.614-.704-1.47-1.056-2.566-1.056zM80.009 54.948c-.615 0-1.108-.176-1.48-.528-.373-.352-.56-.825-.56-1.419V40.692c-.022-.638.143-1.144.494-1.518.35-.374.833-.56 1.447-.56h11.02c.635-.023 1.14.142 1.512.494.373.352.56.836.56 1.452v12.441c0 .594-.187 1.067-.56 1.42-.372.351-.866.527-1.48.527-.636 0-1.14-.176-1.513-.528-.373-.352-.56-.825-.56-1.419V41.715h-6.808v11.286c0 .594-.187 1.067-.56 1.42-.372.351-.877.527-1.512.527zm26.414-16.73c1.382 0 2.61.351 3.684 1.055 1.097.704 1.941 1.705 2.533 3.003.614 1.276.921 2.75.921 4.422 0 1.672-.307 3.135-.921 4.39-.592 1.253-1.425 2.221-2.5 2.903-1.074.682-2.313 1.023-3.717 1.023-1.14 0-2.159-.242-3.059-.726a5.089 5.089 0 01-2.072-2.013v6.732c0 .572-.186 1.023-.559 1.353-.373.33-.866.495-1.48.495s-1.119-.176-1.513-.528c-.373-.352-.56-.814-.56-1.386v-18.71c0-.595.176-1.068.527-1.42.373-.352.866-.528 1.48-.528s1.107.176 1.48.528c.373.352.559.825.559 1.42v.824a4.987 4.987 0 012.072-2.079c.921-.506 1.963-.759 3.125-.759zm-1.085 13.595c1.294 0 2.302-.44 3.026-1.32.724-.902 1.085-2.167 1.085-3.795 0-1.672-.361-2.97-1.085-3.894-.724-.924-1.732-1.386-3.026-1.386-1.316 0-2.336.451-3.059 1.353-.702.902-1.053 2.19-1.053 3.861 0 1.65.351 2.926 1.053 3.828.723.902 1.743 1.353 3.059 1.353zm18.933 3.201c-1.645 0-3.092-.34-4.342-1.023-1.228-.682-2.182-1.66-2.862-2.937-.68-1.276-1.02-2.76-1.02-4.455 0-1.694.34-3.168 1.02-4.422.68-1.276 1.634-2.255 2.862-2.937 1.25-.682 2.697-1.023 4.342-1.023 1.644 0 3.081.341 4.309 1.023a6.834 6.834 0 012.861 2.937c.68 1.254 1.02 2.728 1.02 4.422 0 1.694-.34 3.18-1.02 4.455a6.834 6.834 0 01-2.861 2.937c-1.228.682-2.665 1.023-4.309 1.023zm-.033-3.2c1.338 0 2.357-.44 3.059-1.32.702-.88 1.052-2.179 1.052-3.895 0-1.694-.35-2.98-1.052-3.86-.702-.903-1.711-1.354-3.026-1.354-1.316 0-2.336.451-3.059 1.353-.702.88-1.053 2.167-1.053 3.861 0 1.716.351 3.014 1.053 3.894.701.88 1.71 1.32 3.026 1.32zm13.558 3.134c-.614 0-1.107-.176-1.48-.528-.373-.352-.559-.825-.559-1.419V40.692c-.022-.638.142-1.144.493-1.518.351-.374.834-.56 1.448-.56h8.124c.482 0 .866.142 1.152.428.306.286.46.66.46 1.122 0 .462-.154.836-.46 1.122-.286.286-.67.43-1.152.43h-5.953V53c0 .594-.187 1.067-.56 1.42-.373.351-.877.527-1.513.527zm14.037 0c-.613 0-1.107-.176-1.48-.528-.372-.352-.559-.825-.559-1.419v-12.77c0-.595.187-1.068.559-1.42.373-.352.867-.528 1.48-.528.637 0 1.141.176 1.514.528.373.352.559.825.559 1.42v4.652h7.039V40.23c0-.594.186-1.067.559-1.419.373-.352.866-.528 1.48-.528.636 0 1.141.176 1.513.528.373.352.559.825.559 1.42l.033 12.605c0 .638-.197 1.155-.592 1.551-.372.374-.866.561-1.48.561-.636 0-1.14-.187-1.513-.56-.373-.397-.559-.914-.559-1.552v-4.752h-7.039v4.917c0 .594-.186 1.067-.559 1.42-.373.351-.877.527-1.514.527zm24.765.066c-1.645 0-3.092-.34-4.342-1.023-1.228-.682-2.182-1.66-2.862-2.937-.68-1.276-1.02-2.76-1.02-4.455 0-1.694.34-3.168 1.02-4.422.68-1.276 1.634-2.255 2.862-2.937 1.25-.682 2.697-1.023 4.342-1.023 1.644 0 3.081.341 4.309 1.023a6.84 6.84 0 012.861 2.937c.68 1.254 1.02 2.728 1.02 4.422 0 1.694-.34 3.18-1.02 4.455a6.84 6.84 0 01-2.861 2.937c-1.228.682-2.665 1.023-4.309 1.023zm-.033-3.2c1.337 0 2.357-.44 3.059-1.32.701-.88 1.052-2.179 1.052-3.895 0-1.694-.351-2.98-1.052-3.86-.702-.903-1.711-1.354-3.026-1.354-1.316 0-2.336.451-3.059 1.353-.702.88-1.053 2.167-1.053 3.861 0 1.716.351 3.014 1.053 3.894.701.88 1.71 1.32 3.026 1.32zm17.242 3.2c-2.193 0-4.09-.429-5.69-1.287-.373-.198-.658-.44-.855-.726a1.545 1.545 0 01-.297-.89c0-.375.143-.694.428-.958.285-.286.647-.429 1.086-.429.284 0 .613.066.986.198.68.33 1.327.572 1.941.726a9.72 9.72 0 002.039.198c.987 0 1.82-.165 2.5-.495.702-.33 1.053-.869 1.053-1.617 0-.572-.198-1-.592-1.287-.373-.308-1.042-.462-2.007-.462h-2.138c-.46 0-.833-.132-1.118-.396-.263-.286-.395-.649-.395-1.089 0-.44.132-.792.395-1.056.285-.286.658-.429 1.118-.429h1.974c.855 0 1.48-.154 1.875-.462.394-.33.592-.77.592-1.32 0-.616-.275-1.078-.823-1.386-.548-.308-1.282-.462-2.203-.462-.746 0-1.415.077-2.007.231a8.674 8.674 0 00-1.809.66c-.329.132-.625.198-.888.198-.439 0-.812-.143-1.118-.429a1.396 1.396 0 01-.428-1.023c0-.308.099-.594.296-.858.197-.264.493-.484.888-.66 1.711-.858 3.673-1.287 5.888-1.287 2.083 0 3.684.396 4.802 1.188 1.14.792 1.711 1.86 1.711 3.201 0 .836-.263 1.595-.79 2.277-.504.682-1.206 1.166-2.105 1.452 2.149.55 3.224 1.782 3.224 3.696 0 .99-.329 1.87-.987 2.64-.658.748-1.568 1.331-2.73 1.75-1.141.395-2.413.593-3.816.593zm12.892-.264c-.636.022-1.14-.143-1.513-.495s-.559-.836-.559-1.452V40.23c0-.594.186-1.067.559-1.419.373-.352.866-.528 1.48-.528.636 0 1.14.176 1.513.528.373.352.559.825.559 1.42v3.728h2.402c1.973 0 3.508.407 4.605 1.221 1.096.792 1.644 2.123 1.644 3.993 0 1.188-.307 2.211-.921 3.07-.592.835-1.381 1.462-2.368 1.88a7.776 7.776 0 01-3.125.627h-4.276zm14.802.198c-.636 0-1.141-.176-1.513-.528-.373-.352-.559-.825-.559-1.419v-12.77c0-.595.186-1.068.559-1.42.372-.352.877-.528 1.513-.528.614 0 1.107.176 1.48.528.373.352.559.825.559 1.42V53c0 .594-.186 1.067-.559 1.42-.373.351-.866.527-1.48.527zm-11.381-3.036c.877 0 1.633-.209 2.269-.627.636-.418.954-1.089.954-2.013 0-.99-.296-1.65-.888-1.98-.57-.33-1.348-.495-2.335-.495h-1.447v5.115h1.447zM24.403 20.536a2.807 2.807 0 012.368-3.183l2.18 15.054a1.4 1.4 0 11-2.77.404l-1.778-12.275zm29.051 21.542a2.8 2.8 0 013.173 2.375l-8.08 1.179a1.4 1.4 0 01-1.586-1.188 1.403 1.403 0 011.184-1.591l5.31-.775z" fill="#fff"/><path fill-rule="evenodd" clip-rule="evenodd" d="M48.559 45.708l1.5-.219 6.302-.919 1.04-.151c2.77-.404 4.663-2.95 4.271-5.66-.13-.904-.529-1.697-1.055-2.4 1.77-.968 2.893-2.977 2.58-5.13a5.02 5.02 0 00-1.402-2.847c1.254-1.105 1.933-2.765 1.681-4.502a5.018 5.018 0 00-1.402-2.847c1.255-1.105 1.933-2.765 1.681-4.502-.392-2.71-2.93-4.61-5.7-4.206l-6.996 1.02-.346.05-6.856 1c.611-5.055-.002-8.797-1.987-11.274C40.177.948 38.018.66 37.442.585L37.4.58c-.436-.079-1.792-.165-2.967 1-1.243 1.175-1.653 3.22-1.242 6.07.5 3.45-3.799 7.6-6.864 9.899l.461 3.18c2.63-1.822 10.111-7.498 9.253-13.424-.363-2.501.15-3.356.397-3.605.246-.249.672-.24.672-.24a.239.239 0 01.109.02c.037.012.074.024.109.02 0 0 1.356.085 2.478 1.482 1.122 1.398 2.277 4.493 1.086 10.91a1.36 1.36 0 00.388 1.22c.328.308.773.456 1.19.395l8.725-1.273.347-.05 6.994-1.02c1.247-.182 2.357.65 2.529 1.83.17 1.182-.658 2.296-1.904 2.478l-1.316.192-3.463.505-1.316.191a1.405 1.405 0 00.403 2.78l1.316-.192 3.462-.505c1.247-.182 2.357.65 2.529 1.83.17 1.182-.658 2.296-1.905 2.478l-1.316.192-2.839.414-1.316.192a1.405 1.405 0 00.403 2.78l1.316-.193 2.84-.414c1.246-.182 2.356.65 2.527 1.83.172 1.182-.657 2.296-1.904 2.478l-2.562.373-.9.132-1.316.192a1.405 1.405 0 00.403 2.78l1.315-.193.9-.132c1.247-.181 2.358.65 2.529 1.831.17 1.181-.658 2.296-1.904 2.477l-1.04.152-6.301.919-1.57.229.422 2.918zM8.117 22.02v-.004l3.896 26.9v-.007L8.116 22.02z" fill="#fff"/><path d="M40.258 36.319a2.807 2.807 0 01-2.368 3.183l-2.18-15.054a1.4 1.4 0 112.77-.404l1.778 12.275zM11.206 14.777a2.8 2.8 0 01-3.173-2.375l8.08-1.179a1.4 1.4 0 011.587 1.188 1.403 1.403 0 01-1.184 1.591l-5.31.775z" fill="#fff"/><path fill-rule="evenodd" clip-rule="evenodd" d="M16.102 11.147l-1.5.219-6.303.919-1.039.151c-2.77.404-4.664 2.95-4.271 5.66.13.904.528 1.697 1.055 2.401-1.77.968-2.893 2.976-2.581 5.13a5.02 5.02 0 001.402 2.846c-1.254 1.105-1.933 2.765-1.681 4.502a5.02 5.02 0 001.402 2.847C1.332 36.927.653 38.587.905 40.324c.393 2.71 2.93 4.61 5.701 4.206l6.995-1.02.346-.05 6.857-1c-.611 5.055.001 8.797 1.987 11.275 1.693 2.173 3.851 2.458 4.428 2.535l.042.006c.435.078 1.791.164 2.966-1 1.245-1.176 1.655-3.222 1.242-6.07-.5-3.45 3.799-7.6 6.864-9.9l-.46-3.18c-2.63 1.822-10.112 7.498-9.253 13.424.362 2.501-.15 3.357-.397 3.605-.247.25-.672.24-.672.24a.245.245 0 01-.11-.02.25.25 0 00-.108-.019s-1.356-.086-2.478-1.483c-1.122-1.398-2.278-4.493-1.086-10.91a1.364 1.364 0 00-.389-1.22 1.46 1.46 0 00-1.188-.395l-8.727 1.273-.346.05-6.995 1.02c-1.246.182-2.357-.65-2.528-1.83-.171-1.182.657-2.296 1.904-2.478l1.316-.191 3.463-.506 1.316-.191a1.405 1.405 0 00-.403-2.78l-1.316.192-3.463.505c-1.246.182-2.357-.65-2.528-1.83-.171-1.182.658-2.296 1.904-2.478l1.316-.191 2.84-.415 1.315-.191a1.405 1.405 0 00-.403-2.78l-1.315.192-2.84.414c-1.246.182-2.357-.65-2.528-1.83-.171-1.182.658-2.296 1.904-2.478l2.563-.373.9-.132 1.316-.191a1.404 1.404 0 00-.403-2.78l-1.316.192-.9.131c-1.247.182-2.357-.65-2.528-1.83-.171-1.181.657-2.296 1.904-2.477l1.039-.152 6.302-.919 1.57-.229-.423-2.918z" fill="#fff"/></svg>