<svg width="248" height="256" fill="none" xmlns="http://www.w3.org/2000/svg"><path fill-rule="evenodd" clip-rule="evenodd" d="M184.36 109.812c2.693.97 28.317 2.899 27.873 18.837-.342 12.186-3.568 14.763-18.277 39.237-4.265 7.091-9.629 13.309-14.743 19.745-3.397 4.275-6.586 8.722-10.174 12.837-2.578 2.949-4.729 6.399-8.202 8.407-2.817 1.631-5.782 2.94-9.281 2.637-3.179-.276-6.392-.076-9.59-.114-22.622-.299-14.236-2.656-23.891 7.945-3.186 3.5-6.977 4.684-11.545 4.126a74.83 74.83 0 01-11.304-2.287c-53.394-15.107-87.714-70.005-83.29-76.249.933-1.313 1.785-2.687 2.752-3.972 2.887-3.847 22.016-26.955 22.169-27.201 3.046-4.974 7.435-8.707 11.003-13.177 5.93-7.43 13.496-13.141 52.05-63.092 2.598-3.371 2.069-17.27 21.215-14.759 18.712 2.453 30.938-5.353 36.233 12.414 1.508 5.056 1.627 15.286 8.894 16.718 6.289 1.239 9.351 2.128 12.376 4.14 17.057 11.343 4.622 10.626 13.464 19.66 3.205 3.273 5.553 7.03 6.525 11.5 2.628 12.08-6.123 9.863-10.979 18.026-.909 1.527-2.056 2.916-3.278 4.622zM74.702 84.786l.07-.015c-.779-.678-.54-1.628-.654-2.485-.23-1.72-.4-3.455-1.027-5.285-1.969 1.34-2.9 2.85-2.414 5.095.07.333.681 5.129.99 5.19 2.257.468 1.263 8.576 3.907 14.653.105.237.049.353-.18.355-.868-.106-.483-1.593-1.886-1.43.08 2.072 1.165 4.219-.05 6.237-.942-1.227-.725-2.692-.763-4.074-.115-3.932-.256-7.845-1.136-11.712-.912-4.023-1.459-9.594-2.3-9.992-3.461 3.99-3.565 2.903-2.004 8.492.371 1.323-.125 3.102 1.807 3.701.116.035.157.483.144.737-.175 3.72 1.06 7.211 1.686 10.803.234 1.336.845 2.257 1.828 3.079.276-.439.498-.801.722-1.158.51 1.931.984 3.879 2.407 5.435-2.333-1.265-3.243-3.93-5.633-5.253-.133 3.466.135 6.646 3.031 9.184-1.101-.075-1.28-1.406-1.652-1.112-.923.73-1.04.406-1.236-.474-.452-2.02-2.13-3.17-3.316-4.712-.06.909.445 1.812.216 2.455-.878 2.475-.004 4.389 1.77 6.141-.745.151-1.015-.826-1.572-.344-.423.359.28 1.273-.676 1.527-.432-1.525-.075-3.242-1.124-4.595-.192-.247-.08-.453.03-.706.85-1.867.702-2.211-3.109-20.45-.223-1.08-.273-2.256-1.047-3.197-3.524 2.92-3.235 4.257-.35 18.458 1.26-2.619-.315-4.907.891-6.929.612 3.35.657 6.771.38 10.077-.273 3.275.577 5.651 2.877 7.841.965.918 2.297 1.768 2.305 3.407l.06-.008c-1.577-1.699-2.84-3.724-5.039-5.044-.653 1.557.103 3.002-.308 4.362-.31 1.038.086 1.806.83 2.608.705.762 1.986 1.311 1.617 2.746l.006.004c-1.082-2.125-3.411-3.198-4.513-5.347.468-.366.79.286 1.22.166.43-2.752-.676-8.323-2.3-11.01.484 3.83-.827 7.529 1.122 10.936-.531-.259-.93-.405-1.04.467-.211 1.652.122 3.35-.472 4.945-.652-1.082-.429-2.281-.341-3.412.274-3.48-1.31-6.484-2.043-10.021l-1.146 1.342c-.476-.418-.352-.985-.32-1.498.183-3.05.79-8.966-1.419-14.007-2.292 1.791-3.001 3.796-2.218 6.583.36 1.296 2.458 10.237 1.868 11.45-1.42.552-.212 4.041.546 4.908.253.289.872.147.995-.411.198-.884-.004-1.728-.402-2.529l.01.083c.982-1.436-.05-3.264.918-4.697.86 2.423.224 4.899.181 7.341-.037 2.057.678 3.58 2.21 4.86.49.411.782.151 1.148-.07.314 1.416 1.102 2.464 2.124 3.528 1.068 1.114 2.45 1.972 3.292 3.302-3.146-1.908-5.349-4.906-8.337-7.208-.255 3.759.014 7.011 3.09 9.269.085.063.027.325.037.496l.083-.009c-2.275-2.073-4.46-4.221-6.004-6.943.796.081 1.037 1.226 2.059 1.074.729-3.154-1.568-5.115-2.767-7.502-.68 2.319-.479 4.498.736 6.553-.656-.06-.88.132-.838.886.074 1.248.907 2.513.111 3.826-.854-.506-.345-1.431-.833-1.976-.28-3.161-.819-6.31-.451-9.505.319-2.768.063-5.477-.59-8.201-.317-1.326-1.283-2.971.625-4.083.155-.094.084-.67.028-1.007-.301-1.734-.634-3.459-1.017-5.531-6.258 5.875-2.83 5.402-3.981 7.267-.6-.221-.214-1.263-1.043-1.29-1.826 1.548-2.413 3.351-1.514 5.653.291.744.808 1.628.21 2.514l.075-.014c-1.458-.858-.592-2.738-1.79-3.889-1.665 1.647-3.606 3.068-3.69 5.772-4.414.894-2.515 5.628-1.365 11.003.896.188 1.594-.394 2.256.091.376 6.931.193 7.903 2.66 8.256.356-1.981-.042-3.842-.711-5.708-.665-1.856-3.188-12.103-2.848-13.756 1.245 1.901.682 4.65 2.873 6.105-.229 2.538.888-.347 1.092.175.503.856.24 1.685.21 2.455-.157 3.718.422 7.285 1.685 10.796 1.106 3.077 1.625 6.425 4.724 8.424-2.415-.658-3.309-3.108-5.309-4.228-.59.938.32 1.712-.11 2.499-1.64.632-1.611-.858-2.098-1.684-.502-.854-.512-1.967-1.566-3.222.158 1.915-.154 3.375.906 4.38 1.625 1.548 2.847 3.425 4.443 5.004 2.456 2.435 4.87 4.917 7.292 7.393-4.467-3.264-8.313-7.168-11.5-11.239-1.149-.019-.444 1.268-1.607 1.118.119-1.813-.521-3.444-1.354-5.015.379.096 1.048.496.962-.244-.238-2.028.773-4.365-1.39-5.984-.275-.207-.241-.83-.342-1.261-.712-3.043-1.605-6.047-2.087-9.146-.08-.525-.243-1.042-.404-1.55-.217-.676-.815-.882-1.207-.389-4.32 5.372-.374 6.999 1.084 14.307.088.437-.047 1.147.819.997.14-1.804-.701-3.593-.07-5.408.458 1.888.708 3.799.952 5.71.128.99.238 1.988 1.374 2.403-.746-.339-1.2-.265-1.14.715.192 3.006 1.155 5.757 2.75 8.279.303.48.582.851.41 1.416l.053-.01c-.419-.963-1.415-1.166-2.041-1.772-.813.571.137 1.517-.779 2.003-.64-1.135-.145-2.519-.716-3.576-.563-1.046-1.423-1.932-2.137-2.869.801-.812 1.233.851 2.13-.247-1.102-2.439-2.61-4.891-3.539-7.587-.017-.052-.16-.064-.242-.094.56-3.537-1.143-6.61-1.71-10.058-2.544 1.651-3.08 3.593-2.222 6.09.656 1.914.956 3.957 1.707 5.824.779 1.937.302 3.121 2.693 4.286.421.639.31 1.391.32 2.068.058 3.744 1.831 6.764 4.167 9.428 1.856 2.118 3.656 4.325 5.866 6.118.404.329.908.618.73 1.284l.08-.011c-3.745-2.37-6.124-6.237-9.487-8.994-.715.672.162 1.654-.848 2.009-.113-.251-.254-.48-.319-.731-.481-1.849-.066-3.977-1.717-5.479-.137-.124-.111-.499-.07-.741.389-2.243.392-2.243-1.824-3.203.523 3.198 1.02 6.269 1.541 9.333.105.618.401 1.175.828 1.655 1.605 1.815 6.872 7.527 6.941 8.505l.073-.011c-2.137-1.659-3.656-3.918-5.597-5.77-.49-.469-.928-.791-1.664-.325 18.77 20.987 40.862 31.865 46.755 36.231-.341-.064-.733-.043-1.017-.209-32.974-19.132-47.513-36.076-46.605-35.422-.655-.471-.668-1.44-.42-2.779a1.644 1.644 0 00-.18-1.023c-.257-.46-.687-.825-.952-1.285-.486-.853-2.07-1.488-.566-2.82.167-.151-.172-1.444-.505-1.348-1.655.468-1.146-.845-1.393-1.512-.258-.704-.197-1.53-.981-2.504-.071.87-.203 1.379-.138 1.863.243 1.862.633 3.71.805 5.577.127 1.369.483 2.623 1.137 3.814 11.78 21.473 52.033 42.215 52.033 42.215-19.54-9.652-37.5-21.422-51.376-38.611-1.623 1.715 19.416 24.583 43.3 36.529-7.411-2.499-24.57-13.207-38.807-28.951-1.381-1.528-2.591-3.623-4.326-4.291-1.8-.693-2.508-1.98-3.556-3.159-.547-.614-.837-1.469-1.707-1.94-1.018 5.673 53.56 56.515 72.313 53.571-8.731-4.047-13.502-5.86-10.932-6.167.49-.059.834.255 1.226.457 8.695 4.47 8.307 4.953 12.898 3.413-1.369-.437-2.222-.128-3.073-.149-.532-.014-1.08.159-1.583-.099-.385-.198-.857-.448-.566-.995.176-.327.684-.501.93-.308.66.51 1.26.707 2.3.18-9.778-4.068-9.293-3.675-10.25-5.092 2.355.843 4.587 2.87 6.73 2.45 2.306-.451 4.877.899 7.067-1.066-3.967-1.735-8.065-2.966-11.783-5.043 1.409-1.839 10.271 5.609 10.696 2.519-.646-1.025-2.34.059-2.787-1.498 1.9-.279 3.612.953 5.794.172-11.523-4.688-11.037-4.21-11.856-5.766 2.038 1.643 4.517 1.681 6.517 2.889.277.168.886.301.996.169 1.117-1.363 2.663-.448 3.955-.813.851-.242 1.881.038 2.763-.866-3.325-1.76-6.87-2.521-9.865-4.447 1.794.242 3.398.992 5.048 1.617.82.311 1.692.761 2.574.216.582-.359 1.529-.061 1.624-1.361.1-1.34-.805-1.123-1.417-1.468-1.706-.959-3.81-1.137-5.644-2.82 6.108 1.207 8.536 5.131 13.95 2.223-.794-.842-1.663-1.072-2.682-1.075-1.034-.004-1.87.581-2.821.8-.232.053-.358-.012-.384-.216-.008-.876 1.426-.381 1.289-1.516-2.218-1.31-4.99-1.721-7.057-3.528 1.96.568 3.855 1.299 5.725 2.078.506.21 1.17.63 1.503.299 1.22-1.201 2.649-.321 3.946-.576.571-.114 1.27.158 1.618-.618-.682-.826-1.536-1.146-2.604-1.004-.517.067-1.245.219-1.505-.222-.844-1.419-2.42-1.372-3.641-2.021-.688-.365-1.395-.694-2.092-1.04 2.915.475 5.444 1.809 8.261 2.268 3.102 2.372 4.512 2.029 7.868-.505-1.977-.784-2.317-.804-4.27-.209-1.184.353-2.302 1.012-3.612.73.311-.291.62-.584.93-.877-.895-.555-.049-1.726-.941-2.436-.64-.511-1.677-.273-2.283-1.42 1.71.643 3.156 1.082 4.502 1.718 2.962 1.402 5.428.475 7.862-1.35-2.446-2.753-4.925 1.25-6.355-.463l.014.085c.725-.384 1.734-.293 2.233-1.213-2.202-1.388-4.973-1.293-6.786-3.211l.009.1c3.303 1.235 6.389.814 9.336-1.187-.577-.748-1.399-1.117-2.132-.999-1.448.227-2.503-.025-3.605-1.107-.682-.668-2.019-.613-2.854-1.752 9.221 2.865 5.244 1.516 10.902-.515-3.576-1.852-7.729-2.094-11.055-4.385 3.374 1.164 6.883 1.822 10.23 3.043 2.574.94 5.539-.04 7.386-2.465-2.141-.017-4.146 1.125-6.244.552.352-.709 1.47-.279 1.538-1.07-.925-1.299-2.309-.36-3.233-.998-1.499-1.037-3.256-1.395-4.874-2.107-.965-.425-2.207-.428-3.092-1.657 6.955 1.335 8.532 4.995 13.653.807-3.257-1.899-6.776-2.65-9.82-4.518.486-.405.835-.284 1.152-.123 2.159 1.078 4.463 1.801 6.667 2.763 3.554 1.55 6.42-.165 9.915-1.511-6.631-2.351-5.615.766-10.099.703 1.682-1.224 3.431-1.205 4.807-2.484-1.77-.679-3.408-.866-4.865-1.724-1.494-.878-3.249-1.31-4.89-1.936 1.095-.506 1.946.019 2.831.301 1.364.431 2.696.966 4.045 1.444.5.176 1.049.511 1.546.21 1.663-.998 3.72-1.229 5.29-2.709-3.015-1.772-6.508-2.361-9.263-4.473.71.111 1.396.312 2.015.633 5.718 2.959 7.188.315 9.097.023 1.342 1.018 1.85 1.008 3.695-.098-1.305-.844-2.526.627-3.778.088.251-.244.745-.531.707-.722-.095-.489-.671-.433-1.07-.537-.145-.04-.328.061-.494.098l-.012.022.143-1.126c1.95 1.097 3.89 1.059 5.849 0 .521-.281 1.052-.728 1.735-.354-.323.981-1.662.591-2.109 1.68.757.442 1.594.861 2.443.521.855-.336 2.34-.501 2.195-1.598-.208-1.594-1.457-.34-2.664-.579-1.018-2.398-5.013.421-7.052-.478.601-.742 1.847-.478 2.693-1.839-2.959.128-5.163-1.008-7.326-2.265l.003.069c.292-.28.627-.255.959-.103 2.458 1.115 4.927 1.667 7.475.256.088-.047.301.131.466.201-.333.689-1.258.586-1.781 1.408 2.463.943 3.823-1.085 5.794-1.627-1.328-1.615-2.378.513-4.154.244 2.174-2.61-1.313-1.41-1.42-2.865 1.629-.92 3.598-1.143 5.157-2.401-1.128-.914-2.584-.513-3.54-1.655 6.757.266.692 3.599 12.172-2.668.598-.326.352-.679-.085-.969 1.545.022 2.998-.817 4.575-.492-.678.784-2.037.591-2.538 1.724 1.196.221 2.022-.623 3.025-.859.445-.104.773-.418.469-.964 1.546-.391 3.099-.689 4.701-.401-2.212 1.179-4.497 2.166-6.906 2.877-.477.138-.866.561-1.294.857-2.302.103-4.276 1.352-6.468 1.844-.617.139-.558.795-.696 1.278-2.522-.321-4.562 1.016-6.86 1.772 1.337 1.79 6.199.112 7.117-1.094.068-.09-.21-.441-.297-.674 2.888.034 5.23-1.145 7.186-3.205.232.628 1.097-.187 1.28.564-.878.884-2.4.974-3.035 2.248 1.704 1.047 3.149-1.588 4.49-1.231 2.49.664 4.438-.861 6.647-1.25 2.398-.428 3.556-1.98 4.538-4.301-1.894.151-3.537.276-5.181.405 3.083-2.236 6.111.344 8.274-4.744-3.386-.342-9.729 2.681-15.13 3.573-.964.158-1.894.504-2.837.768-.605.171-1.241.306-1.341 1.095-.613.07-1.226.202-1.837.2-.901-.003-.154 1.293-.946 1.202-2.152-.241-3.992.831-5.976 1.289-.343.081-.7.05-.702-.559 1.023-.305 2.215-.336 3.153-1.259-2.926-1.585-6.335-1.708-8.876-3.817 7.429 2.135 6.578 3.829 13.444-.372-3.12-.878-5.951-2.247-8.92-3.294 8.645 1.395 3.691 3.005 11.663-.301-3.98-1.585-7.913-2.051-11.085-4.362a130.062 130.062 0 0010.904 3.429c.709.192 1.81.564 1.948-.036.378-1.684 1.597-1.301 2.609-1.378.974-.077 1.647-.623 2.362-1.156.262-1.144 1.795.103 2.068-1.176-1.156-.368-1.821.028-2.075 1.186-2.308-2.936-5.999.474-8.389.377.842-.989 2.305-.856 3.255-2.095-3.223-1.174-6.422-2.033-9.561-3.626 2.969-.763 10.106 6.062 15.409.994-1.472-.808-2.744.395-4.047-.017l.013.067c-.069-.59 1.662-.73.405-1.618 2.692.474 4.835-.663 6.854-2.281-1.472-.127-2.965.528-4.329-.381.375-1.507-2.603-.908-3.606-2.433 3.006.477 5.946 2.281 8.637-.439-1.877-1.434-3.546.819-5.449.165.273-.768 1.462-.335 1.556-1.291-.971-1.093-2.319-.35-2.819-1.818 4.239 1.146 6.502 2.586 8.806-1.216-1.891-.711-3.38 1.123-5.428.73 1.055-.877-.062-1.614-.053-2.624 3.083 1.613 5.665.595 8.552-1.272-2.257-.416-4.143.555-5.93-.267l.012.074c.145-.577.691-1.041.494-1.717.651 1.139 2.614.842 1.516-.173 2.651.545 4.889-.401 7.399-1.897-2.854-.62-5.117.161-7.372.854-.966.296-.324.713.076 1.037-.482.461-1.147-.259-1.618.255-.354-.356-.708-.709-1.008-1.012.906-.607 2.03-.714 2.731-1.767.717-1.077 2.314.213 3.321-1.02-3.012-.812-5.728-2.045-8.885-3.553 3.684.313 6.456 3.239 9.901 1.514-.783-.188-1.949-.151-2.167-.816-.547-1.649-1.242-1.446-6.632-3.573 4.563.51 8.701 2.837 13.388 2.499-.761-.68-1.728-.783-2.648-.884-2.644-.289-1.02-1.689-4.011-2.24-.692-.128-1.326-.326-1.942-1.159 2.286.533 4.331 1.006 6.378 1.482-7.674-5.572-27.087-11.437-43.498-30.625-1.104-1.29-2.344-2.466-3.59-3.625-.783-.73-2.397-.763-2.931-.06-.706.933.05 1.121 3.167 4.86 2.188 2.623-1.029 1.313 2.305 4.061 4.694 3.872 9.361 7.787 14.21 11.45 5.778 4.362 11.92 8.204 18.242 11.743l-.025-.064c-.705 1.204-15.372-8.8-17.8-10.563-1.231-.89-2.449-1.79-3.659-2.712-1.139-.862-2.341-1.664-3.353-2.66-1.03-1.014-2.207-1.809-3.313-2.71-1.111-.9-2.273-1.737-3.33-2.696-1.125-1.016-1.979-2.455-3.26-3.13-1.516-.802.001-2.383-1.256-3.136-1.61-.958-2.47-4.03-5.087-3.907-.935.042-1.546-.693-1.928-1.606-.8-1.903-2.232-3.302-3.792-4.696-.638 1.442.004 2.329.76 3.291 1.004 1.283 2.593 2.213 2.677 4.1l.043-.009c-1.071-1.047-2.14-2.103-3.221-3.166-.562.816.454 1.496-.236 2.245-1.8-1.257.091-4.389-2.526-5.265-.995 3.112-.739 3.96.994 6.254 10.593 14.027 29.224 25.235 37.493 31.159-3.92-2.835-17.543-9.671-33.126-24.81-1.566-1.522-3.536-2.773-4.255-5.062-.106-.335-.492-.809-1.054-.542-.928.445-1.065-.233-1.227-.857-.087-.343-.135-.7-.185-1.054-.083-.564-.32-1.184-.895-1.142-.712.048-.92.718-.958 1.402-.099 1.666.132 3.162 1.548 4.333.776.64 1.713 1.314 1.523 2.584l.08-.007c-.859-.87-1.718-1.74-2.503-2.532-.773.046-.308 1.12-1.284.976-.314-1.25.215-2.858-1.125-3.873-.631.278-1.374.513-1.468 1.33-.124 1.068-.075 2.15.657 3.044 4.587 5.584 4.924 5.356 4.301 6.258l.008-.001c-1.107-1.876-2.554-3.428-4.247-4.74-1.05.913.354 1.937-.393 2.945-.581-.536-.671-1.106-.746-1.708-.193-1.586-.459-3.168-.607-4.756-.064-.7-.342-.936-.988-.896-.518.031-1.207-.103-1.162.682.117 2.022-.216 4.222.918 5.97 4.628 7.146 13.019 11.813 12.619 14.352l.01-.007c-.033-.627-.504-.977-.956-1.2-2.201-1.093-2.785-2.005-11.512-11.37-.71.717.001 1.777-.917 2.706-.36-3.208-1.128-6.026-1.039-8.972.032-1.048.21-2.505-.509-3.053-1.603-1.213-1.458-2.937-1.942-4.492-.668-2.143-.407-4.559-1.777-6.559-2.892 2.223-1.924 3.979-.816 7.6.182.594.422 1.643.698 1.663 2.318.186 1.489 1.888 1.575 3.089.299 4.236.758 8.421 3.148 12.114.141.222.048.351-.206.3-1.13-.464-1.234-2.063-2.653-2.547.206 1.84-.498 3.607.752 5.245 3.253 4.261 6.629 8.403 10.786 11.837.538.447 1.26.769 1.064 1.675l.061-.003a9.037 9.037 0 01-2.984-2.187c-1.835-2.044-7.1-7.188-7.4-8.016-.687-1.902-3.105-2.376-3.392-4.594-.087-.659-1.183-.857-2.066-.62-.145 2.49.098 4.723 1.994 6.469.307.281.67.617.524 1.14l.082-.023c-3.351-2.457-3.415-2.438-4.202-5.5-.327-1.288-.962-1.96-2.285-2.06-.483 3.097-.33 5.962 2.307 8.209.45.386 1.078.98.914 1.815l.089-.013c-.815-.567-1.444-1.31-2.018-2.11-.223-.307-.555-.427-.936-.312-.406.123-.484.433-.47.82.063 1.593.01 3.151 1.443 4.374.526.448 1.202 1.084 1.242 1.973l.095-.026c-.946-.39-1.317-1.425-2.117-1.955-.707.394.11 1.243-.555 1.622-.49-1.132-1.023-4.216-.97-5.048.154-2.477-.552-4.721-1.998-7.352-.034 1.929-.275 3.3-.04 4.584.622 3.39-.532 7.224 2.549 10.033-1.022.31-1.107-.968-1.898-.85-.725.464.384 1.488-.608 2.054-.597-1.886-.12-3.954-1.638-5.39-.083-.078-.06-.426.033-.504 1.354-1.089.602-2.525.48-3.735-.462-4.563-1.82-10.123-1.065-10.69.543.725.24 1.755 1.188 2.783.15-3.951-1.187-7.08-2.305-10.475-1.997 2.14-2.093 2.182-1.595 4.223.634 2.596.652 5.316 1.682 7.84.322.793.13 1.778.296 2.647.182.95.435 1.9.788 2.799.512 1.303-1.508-.072-1.174 1.211.237.915-.043 1.951-.005 2.933.102 2.575-.072 5.238 2.064 7.25.07.066-.176.467-.275.713l.035-.02c-.192-.648-.546-1.1-1.34-1.116-.665 1.195.458 2.567-.465 4.29-.313-2.955-.415-5.413-.865-7.803-.456-2.43-.957-4.888-1.996-7.607-.37 1.365-.055 2.22.018 3.096.129 1.485.434 2.95.136 4.478-.513 2.645-.872 5.313 1.394 7.482.121.113-.013.498-.026.759l.061-.002c-.272-.462-.554-.904-1.216-.662-.298.864.36 1.875-.277 2.69-1.464-1.375-.927-3.633-2.49-4.965-.222.585-.376.996-.53 1.404l.074-.007c-.588-1.032-.868-2.218-1.24-3.31-.564-1.668-1.336-3.453-.632-5.326.729.496.096 1.579 1.09 2.193.043-1.356.1-2.54-.787-3.562l.058.076c.486-.536.274-1.115.057-1.657-.292-.732-.62-.1-.935.014zm95.459 17.393c-.358-.189-.707-.078-1.013.098-.254.15-.789.246-.42.725.256.333.618.232.948.025.343-.216.409-.562.462-.921 1.009.932 1.978-.061 2.961-.098 1.347-.05 1.831-.947 1.7-2.314-1.498 1.085-3.345 1.26-4.638 2.485zm-69.669-60.414c-.198.694-1.354.81-1.167 1.64.386 1.72.302 3.566 1.264 5.166.665-2.3-.844-4.54-.095-6.813 1.024 1.423.425 3.385 1.444 4.945 2.414-3.227 2.43-4.622.199-7.258-.898.524-1.105 1.54-1.645 2.32zm4.885 176.788c-.788-.275-1.568-.42-2.653.084 1.181.613 1.942.478 2.64-.2 3.414.152 6.6-1.164 9.926-1.58 1.151-.143 1.642-1.112 1.961-2.224-4.187.088-9.927 1.291-12.571 2.604.134.489.913.634.697 1.316zm7.238-16.746c-2.058-.475-3.676.219-5.233 1.877 2.612-.119 3.558-.499 5.222-1.988 2.055.519 4.109-.617 6.167-.02-1.603.942-3.707.51-5.146 1.799-.606.543-2.046.588-1.681 1.731.271.854 1.244.191 1.91.118.161-.02.47.023.482.084.375 1.766 1.637.725 2.461.705 1.796-.042 3.479-.747 5.213-1.155 2.376-.56 2.832-1.063 3.155-3.689-2.024-.238-5.276 1.416-6.532.433 4.047-1.854 8.679-.394 9.045-4.49-.31-.101-10.19 1.49-10.511 1.535-1.818.254-3.85.83-4.552 3.06zm22.642-40.478c-.216.59-.732.608-1.252.753-1.419.395-2.932.678-4.066 2.022 3.032.614 4.706-.32 5.313-2.79.273.341.498.65 1.062.592 1.678-.17 3.361-.258 5.043-.376-4.687.781-8.232 3.852-12.28 5.919 3.676-.068 6.588-2.524 10.148-2.991-.013.683-.696.83-.853 1.324-2.434 1.392-5.127 1.512-8.153 3.411-1.43.898-3.691 1.228-4.333 2.463-1.103 2.103-3.203.656-4.333 1.935-.348.385-1.199.228-1.504 1.188 3.281.017 6.286-.546 8.948-2.314 1.147-.76 2.401-1.565 3.652-1.459 2.491.21 4.7-.772 7.029-1.196 2.599-.47 5.379-.916 6.024-4.448-.632-.133-1.393.075-1.957-.389 2.198-.568 4.11-1.429 4.354-4.295a30.482 30.482 0 01-6.358.843c5.924-1.628 8.098-1.335 9.664-5.945-6.312 1.467-6.734 1.791-8.2 1.511 1.168-1.335 10.375-1.158 10.001-4.759-1.839-.184-3.416.869-5.162.991 2.286-2.827 6.625-.106 8.277-5.858-1.331-.087-2.553.917-3.919.363 2.844-2.055 4.618.414 7.244-5.38-1.171-.335-2.085.49-3.073.103.366-.796 1.151-.758 1.827-.887 2.318-.443 3.659-1.875 4.393-4.447-5.93 1.601-11.873 2.413-16.813 6.341.705.364 1.232.18 1.756.114l8.966-1.155c-1.606 1.132-3.555 1.081-5.352 1.498a20.412 20.412 0 00-6.374 2.656c-.372.239-1.078.374-.905 1.127.191.839.82.663 1.441.756 1.429.219 2.782-.803 4.202-.183-.425.846-1.284.84-2.037 1.077-4.197 1.313-8.379 2.666-12.136 5.316 1.247.835 2.408.264 3.245-.336 2.129-1.532 4.699-1.522 7.028-2.317.242-.083.861-.22.67.379-.121.377-.739.724.186.7.512-.012 1.025-.337 1.502.102-.722.622-1.655.721-2.506.763-4.363.222-8.125 2.09-11.827 4.145-.551.307-1.373.3-1.632 1.096 2.239 1.169 3.989.398 5.681-.965 1.16-.939 2.432-1.706 4.024-.974-1.073.471-2.262.769-3.006 1.902 1.071.276 1.879-.854 3.184-.123-2.374.939-4.48 1.913-6.833 2.197zm-5.204 12.766c-2.34.119-4.437.936-6.486 2.15 1.365 1.203 2.588 1.081 3.86.088.671-.523 1.379-1.08 2.455-.882-.539 1.153-2.228 1.112-2.578 2.63 1.252-.322 2.272-.589 3.298-.844 1.95-.484 1.951-.482 3.038-.163-1.188.4-2.508.525-3.959 1.762 10.44-1.779 9.689-.953 11.408-4.92.114-.266-.541-.313-.85-.437 1.023-1.127 3.102-1.433 2.803-3.763-1.456.335-9.724 1.803-12.989 4.379zm34.267-62.869l.486.456c.417.148.848.454 1.241.415 4.332-.436 8.655-.928 12.98-1.395 1.495-.161 1.741-.753 6.844-8.295.303-.443.997-.816.59-1.559-1.739.137-2.857 1.087-3.543 2.56-.646 1.39-1.598 2.574-2.452 3.824-1.76 2.566-4.844 3.912-8.136 1.07-.383-.33-.757-.427-1.216-.339-1.519.292-8.346 1.071-8.099 2.652.113.73.877.374 1.305.611zm1.402 10.409c-1.04 1.167-2.417 1.658-3.9 1.964-1.394.29-2.791.595-4.17.953-1.181.308-2.346.691-3.234 1.701.75.569 1.606.605 2.101.261 1.652-1.146 7.425-2.506 7.777-1.259-.53.564-1.249.556-1.929.709-3.207.726-6.395 1.519-9.257 3.237-1.281.769-2.655 1.32-4.044 1.878-1.745.702-3.693 1.018-5.407 2.107.854.762 1.627.713 2.38.349 2.787-1.338 5.771-2.285 8.358-4.016.941-.627 1.985-1.05 2.976-.979 3.886.27 14.715-.167 15.652-7.392-6.142.844-6.442 1.124-7.364.5 7.766-1.521 9.041-.768 11.154-5.942-4.231.583-8.206.975-12.113 1.727-2.489.48-4.834 1.589-7.357 3.203 3.588.716 6.314-1.866 9.838-1.391-1.677 1.158-3.627.722-5.042 2.269 1.37.533 2.507-.084 3.581.121zm14.333 54.406c1.514-1.916 8.215-5.732 9.19-7.64-1.763-.063-2.517 1.584-4.278 1.637 2.665-2.51 6.31-3.521 7.79-7.251-1.347.461-2.247 1.11-3.165 1.769-.596.429-1.078 1.232-2.028.922l.017.072c2.089-2.658 5.524-3.693 7.656-6.329-5.603 2.571-7.126 5.046-9.954 5.25 3.167-2.349 11.275-6.234 12.101-9.664l-11.001 6.406c1.393-3.217 13.497-6.252 13.933-11.355-1.545.959-7.99 4.313-9.765 3.949 2.161-.821 4.157-1.973 6.15-3.064 4.402-2.406 7.362-4.631 8.255-8.931-2.335 1.413-4.519 3.088-7.154 3.953l.015.07c2.235-3.45 10.085-3.867 10.244-10.909-3.611 2.233-6.34 5.271-10.204 7.211.131-.651.114-.912.205-.962 3.764-1.958 6.779-4.88 9.892-7.673.757-.68 1.261-1.493.762-2.853-2.928 1.715-5.096 4.566-8.531 5.587.133-.76.628-.848.995-1.052 2.277-1.272 4.248-2.953 6.186-4.662 1.233-1.082 2.303-2.315 1.451-4.17-1.596-.127-2.64 2.771-4.178 2.458l.019.068c1.122-2.394 5.027-3.002 3.447-5.292-.598-.866-1.383.141-3.367 1.48-1.783 1.208-3.369 2.739-5.555 3.552.191-1.039.993-1.227 1.571-1.551 2.066-1.15 3.629-2.898 5.441-4.346.459-.367.805-.73.367-1.324-.41-.559-.897-.9-1.581-.443-.221.148-.381.386-.603.532a874.085 874.085 0 01-7.557 5.08c-.367.241-.812.743-1.383-.012 3.166-1.87 6.152-3.853 8.639-6.541-2.891-2.26-2.313-1.872-6.775 1.471-1.38 1.031-2.702 2.182-4.538 2.42 2.575-1.846 5.219-3.584 7.421-5.881-1.659-1.6-1.767-1.667-3.32-.549-4.542 3.263-4.989 4.665-7.334 4.685 2.853-1.953 5.245-3.741 7.261-6.083-2.791-2.996-4.654 2.622-11.075 4.116 2.425-1.881 5.302-3.116 7.594-5.456-4.034-2.523-6.433 3.628-11.366 4.359 2.189-1.616 4.478-3.079 6.671-5.131-7.229-2.453-12.735 10.044-14.447 12.443.362.215.434.294.511.298 13.979.404 17.953 6.868 17.875 8.643-.164 3.786-2.191 6.667-10.598 20.826-9.473 15.944-13.333 17.36-14.363 22.054-.051.235-.217.588-.394.628-2.373.559-1.961 2.399-1.896 4.071.016.51.205 1.046-.388 1.425-1.023-.264-.519-1.404-1.069-1.925-2.455 1.607-1.082 4.341-1.74 6.666-1.447-1.081-.309-2.557-.982-3.63-3.052 1.983-1.336 5.342-2.352 8.097-1.307-1.808.217-3.798-1.067-5.463-2.606 2.473-.782 5.858-1.967 8.745-1.308-2.439.104-4.749-.482-7.482-2.859 2.671-.994 5.953-1.955 9.107-1.185-2.81-.201-5.215-.571-7.524-1.974.552-2.042.546-2.192 1.887-.209 1.951-.544 3.896-.285 5.883.071.53.381 1.255-.384 1.665-1.117-1.097-.761-1.375-.033-8.423-4.398.285-3.722-.23-4.305 8.665a41.74 41.74 0 00-.603-.044c-.089-2.183-.027-4.365.368-6.549.115-.608.631-1.49-.532-1.698-1.011-.182-1.189.589-1.282 1.325-.094.769-.514 5.942-.82 6.538-1.709-3.152 1.191-7.235-.692-7.801-1.035-.307-1.238.462-1.426 1.146-.709 2.588-1.458 5.17-1.632 7.867-.031.519.083 1.12-.764 1.07-1.107-1.317 2.71-9.351 1.105-9.871-.768-.25-1.423.011-1.651.892-.466 1.817-1.461 3.484-1.575 5.398-.047.793-.32 1.442-.946 2.348-.506-1.491-.245-1.681 1.5-7.498.41-1.383-.831-1.256-1.118-.471-.666 1.847-1.701 3.543-2.167 5.476-.114.479-.022 1.279-.955 1.367-.469-1.387.299-2.611.197-3.98-2.119 4.042-4.236 8.083-6.517 12.43 4.967.109 23.531.452 23.531.449 7.442.46 12.326-4.987 17.102-10.672-.874-.517-1.363.924-2.159.235l.014.069c1.441-2.224 5.692-2.806 6.154-6.182-3.153 1.741-5.692 4.083-9.071 4.814l.014.071c.181-.552.59-.903 1.101-1.099 1.804-.692 12.314-5.869 14.928-12.738-3.256 1.953-5.926 4.779-9.583 6.238-.001-.747.425-.937.819-1.131 2.581-1.278 4.782-3.105 7.036-4.854 4.896-3.803 3.539-1.074 6.905-6.169-3.477 1.315-5.392 4.533-6.581 3.425l.017.08c9.833-7.19 8.667-5.629 10.145-9.089-5.292 3.773-5.245 4.026-6.358 3.961l.019.068zM159.541 56.412c2.283.302 4.25-.81 6.532-1.322-3.897-2.087-1.544-.986-12.814.539-.498.069-1.089.288-1.385-.414 2.95-.6 6.085-.336 9-1.783-2.016-2.42-5.243.572-10.413-.56l.012.085c1.055-.825 2.305-.848 3.561-.9 1.082-.044 2.12-.27 3.061-.807-2.005-.6-3.959-.31-5.909-.318-1.844-.009-3.762.35-5.658-.654.684-.48 1.199-.29 1.712-.252 1.149.086 9.229.285 8.882-.86-.208-.702-1.082-.695-1.819-.668-2.854.116-5.688-.478-8.548-.243-.39.033-.927.02-1.101-.787 1.416-.081 2.783-.138 4.183-.055 1.683.1 3.377.07 5.067.007 1.81-.069 1.182-2.09.001-2.127-1.603-.053-3.208-.07-4.81-.172-.931-.055-1.964.234-2.965-.79 7.219.098 8.183.493 8.233-.7.058-1.395-1.339-.604-2.099-.776-1.788-.406-3.687.165-5.873-.608 1.414-.48 2.444-.35 3.458-.357 1.251-.012 2.504.036 3.755.06 1.305.026 1.589-2.49-.196-2.216-2.763.436-4.029.665-5.024-.31.295-.37.556-.44.818-.36 1.536.467 3.005-.151 4.507-.25 1.455-.098 1.044-1.772-.107-1.617-1.354.184-3.094.238-2.658-1.053.682.014 1.38.05 2.075.03 1.571-.044 1.538-1.198.217-1.502-.899-.203-1.891-.214-2.669-.945 1.068-.758 2.195.432 3.138-.32.268-.659.096-1.256-.17-1.834-5.408-11.804-18.073-5.858-20.082-6.227-2.317-.425-14.392-1.676-18.129-1.548-4.579.15-1.733 3.218-4.741 3.126-.625-1 .973-1.035.62-1.845-3.394.478-7.042 4.717-6.738 8.04.814 8.837 2.875 10.627.299 13.435-.904.989-1.748 2.032-2.605 3.063-1.533 1.86-3.108 3.695-3.804 6.088-.229.787-.548 1.595.091 2.278.642.687 1.525.287 2.274.205.705-.082 1.31-.505 1.755-1.13.722-1.02 1.564-1.944 2.069-3.125.973-2.279 2.294-4.365 3.695-6.404 4.15-6.061 11.498.565 10.551 4.493-.24 1.001-1.033 1.92-.602 3.034.649.138 1.035-.34 1.522-.49.965-.294 1.399-2.005 2.7-1.174 9.632 6.15 12.898 16.558 39.831 30.312 10.993 5.618 18.227 9.105 14.935 15.795-.942 1.907-1.774 3.869-2.635 5.817-.4.91-.866 1.91.196 2.653.972.679 2.081.552 3.044-.061 1.778-1.128 3.207-2.764 3.578-4.743.659-3.54 7.417-5.607 9.621-6.168 6.051-1.54 9.044-9.572 4.277-14.737a225.033 225.033 0 01-2.867-3.166c-3.129-3.527-6.054-7.063-5.283-12.32.18-1.23-.236-2.728-1.905-3.139-.378-.09-.589-.208-.608-.674-.061-1.304-.917-1.544-2.021-1.396-2.683.363-.199-1.712-2.433-1.008-1.555.498-3.308 1.69-3.347.201.866-.758 2.914-.1 3.276-1.519-.953-.597-1.866-1.388-3.104-1.276-.769.07-1.128-.327-1.699-.689-1.126-.71-2.778-.25-3.802-.671-1.287-.527-2.488-1.211-3.914-1.336-.463-.04-.855.173-1.28.304-1.619.506-3.259.933-4.895 1.393-.73.204-1.422.297-1.834-.555v.003zm-23.364 133.306c3.444.576 9.567.173 12.078-.357.872-.185 1.692-.508 2.53-.825 6.882-2.586 10.883-9.891 14.398-14.372 3.037-3.878 28.341-38.125 23.97-41.773-5.297-4.411-15.825-5.865-17.495-2.469-1.19 2.426-2.946 4.482-4.365 6.758-.594.949-27.624 43.864-31.116 53.038zM69.598 111.11c-.675-6.889-.433-7.522-2.45-16.669-.591-2.687-.299-5.594-1.778-8.389-5.267 6.264-1.012 5.163-.433 15.075.02.354-.028.884.657 1.068.694-1.563-.672-3.52 1.097-5.287-.936 10.471.45 12.476 2.907 14.202zm-42.727 53.25c.608-1.396.106-2.42-.251-3.399-.834-2.274-1.409-4.631-2.345-6.884-1.444-3.471-1.79-11.693-3.406-11.786-.807-.044-1.067.85-1.537 1.35-.652.699-.327 1.515-.168 2.292.504 2.501 1.463 4.873 2.133 7.316 1.103 4.01 2.752 7.668 5.574 11.111zm30.867-68.652c-2.203 1.632-3.61 3.284-2.943 6.144 3.096 13.284 2.483 14.409 3.638 15.542.488-3.33-.52-7.474.207-9.854.66-2.16-.354-3.157-.113-4.41.47-2.431-.018-4.74-.79-7.421zM74.686 82.21c.916-.325 1.213-1.224 1.225-.883.064 1.59 1.396 2.687 1.227 4.441-.251 2.62.6 5.196 1.514 7.685.847-7.166-.29-14.102-1.931-21.139-3.854 2.887-2.406 5.264-2.035 9.896zm40.658 110.717c1.621.283 2.46-.059 3.328-.227 1.401-.271 2.708-.258 4.204.03 1.783.339 3.793-.708 5.733-.934 2.532-.301 3.765-1.81 4.593-4.307-12.625 3.429-4.742-1.316-17.858 5.438zM95.169 73.991c.405-6.433-1.608-17.092-3.858-20.644-.673.938-1.851 1.621-1.567 2.962.437 2.063.455 4.214 1.197 6.221.944-.13.191-1.26 1.063-1.435.768 1.967.564 4.06.783 6.105.248 2.326.101 4.843 2.382 6.791zm32.047 109.616c2.58-.029 4.847-.861 7.182-1.241 2.408-.392 3.751-1.778 4.241-4.319-3.593.664-7.118 1.218-10.59 1.997-1.576.352-2.887 1.369-4.239 2.891 1.916.069 3.117-.817 4.453-1.198.242-.065.504-.16.64.188-.3.698-1.357.481-1.687 1.682zm-4.291 21.977c-4.532 1.547-10.382 1.614-12.505 2.461-.38.148-.532.545-.092.767.67.342.604.343.085.958-.719.856-1.925.409-2.85 1.319 4.306-.041 8.14-.773 11.983-1.54 2.136-.424 2.961-1.632 3.379-3.965zm56.379-93.724c-7.815.261-12.894 1.43-17.882 4.951 2.917-.258 5.496-.883 8.034-1.698.688-.221 1.682-.73 2.031-.374 1.341 1.354 2.681.196 3.997.288 2.347.169 3.171-1.254 3.82-3.167zm-43.664 71.38c-.925-.371-9.045 1.493-11.337 2.002-.939.206-1.863.598-2.48 1.532.981.336 1.794-.828 2.637.017-.464.748-1.689.433-2.144 1.62 10.999-.606 12.701-2.616 13.324-5.171zM27.27 133.918c-5.244 4.883-.45 9.342.943 14.251.232.817-.01 1.965 1.278 2.549-.137-3.27-1.593-6.289-.424-9.401.057-.155-1.754-7.241-1.798-7.399zm89.334 62.336c2.213.602 3.957 1.723 6.068.973 6.308-2.241 6.542-.202 7.354-4.837-4.343 1.592-9.297.472-13.422 3.864zm-37.48-116.4c1.316-.724.084-2.203 1.345-2.632.648 1.638.127 3.515 1.146 5.073.84-4.8-.617-9.313-1.411-14.103-2.276 1.79-2.592 2.055-2.416 3.322.368 2.726.565 5.487 1.336 8.34zM120.06 210.65c-.2-.06-.366-.16-.519-.144-3.258.367-6.442 1.299-9.753 1.294-.423-.001-.902.068-1.019.638-.226 1.122-1.407 1.522-1.909 2.462 1.911.109 10.025-1.184 11.479-1.86 1.004-.465 1.817-1.108 1.721-2.39zM91.583 74.571c.877-3.09-1.287-13.616-3.189-17.014-2.165 1.62-1.592 2.514-.23 8.67.119.547-.006 1.314.882 1.416.342-1.058-.665-2.254.49-3.428.84 3.368.796 6.705 2.047 10.355zm7.078-30.27c-3.594 2.955-4.006 5.943-1.445 9.926.596-1.241 1.19-2.417 1.998-3.467.34-.441.421-.927.314-1.495-.3-1.553-.549-3.11-.867-4.964zm-74.815 94.163c-3.326 2.005-1.211 3.683.923 13.679.078.373.123.924.727.888-.123-1.689-.178-3.374-.386-5.043-.126-1.022.82-1.759.513-2.812-.628-2.184-1.17-4.393-1.777-6.712zm-3.254 17.008c-.493-3.401-1.558-6.599-2.519-10.061-1.677 1.443-2.013 2.889-1.528 4.71.622 2.33 1.087 4.686 4.047 5.351zm65.27-94.433c-1.275.588-1.934 1.537-1.751 2.602.492 2.815.792 5.711 2.402 8.295.216-1.709-.2-3.494.859-5.018.114-.163-.016-.522-.081-.775-.4-1.636-.52-3.35-1.428-5.104zm29.319-6.892c1.092-3.22.812-4.545-.969-5.874-.846-.63-1.488-.223-2.135.274-.597.453-.71 1.066-.212 1.608 1.111 1.211 1.665 2.898 3.316 3.992zM99.475 201.524c3.857 2.593 6.886 2.351 9.334-.57-3.189-1.423-6.105 1.714-9.334.57zm11.46-3.835c-3.148-2.076-4.358-2.024-7.298.256 2.492 1.715 4.901 1.702 7.298-.256zm4.88-18.048c3.128 1.079 5.782.009 8.661-1.704-3.518-1.483-5.993.696-8.661 1.704zm-10.326 39.863c4.063 1.727 7.127 1.272 8.614-1.585-3.009.635-5.785 1.272-8.614 1.585zm18.036-52.705c2.691 1.549 4.531-.227 6.973-1.339-3.052-1.575-4.888.484-6.973 1.339zm-13.134 24.693c2.3 1.916 3.653 1.681 6.734-1.004-2.595-1.285-4.428.489-6.734 1.004zm-10.778 14.961c3.407 1.653 4.592 1.468 7.188-1.007-2.5-.575-4.761-.151-7.188 1.007zm-2.577 8.066c2.889 1.902 4.913.435 7.355-.672-2.762-1.661-4.75.134-7.355.672zm12.025-19.135c3.328 2.129 4.777 1.896 7.032-.772-2.318-.486-4.378.416-7.032.772zm44.359-67.376c-2.051-.364-4.126-.816-5.872.801 2.249 1.7 4.011.066 5.872-.801zm-22.043 24.906c1.666 1.585 2.344 1.919 5.865-.626-1.873.998-4.02-.948-5.865.626zm-11.233 28.38c1.874.875 3.362.701 4.58-.446.204-.191.349-.435.173-.669-.139-.177-.437-.395-.61-.357-1.401.319-2.839.574-4.143 1.472zm51.638-74.539c.384-.71.65-1.419.34-2.341-1.522-.032-2.996.098-4.66 1.112 2.873.061 2.873.061 4.32 1.229zm-65.706 100.853c1.896.386 3.44-.497 5.377-1.282-2.446-1.072-3.771.617-5.377 1.282zm39.266-63.387c-1.613-.321-2.815.481-3.984 1.374 1.54.201 2.877-.231 3.984-1.374zm-42.835 65.436c-1.646-.392-3.284-.511-5.186.632 2.106.697 3.621-.12 5.186-.632zm66.611-111.853c1.508.253 2.934.215 4.225-1.237-1.682.103-3.052.325-4.225 1.237zm2.772 1.299c1.54.413 2.549-.504 3.7-.782.483-.113.22-1.35-.398-.902-.964.696-2.453.28-3.302 1.684zm-64.807 113.156c-.984-.022-2.109-1.047-3.092.357 1.197.227 2.201.694 3.092-.357zm5.831-12.778c.006-.114.034-.206.006-.288-.011-.041-.123-.092-.168-.077-.891.326-2.09-.053-2.882 1.223 1.413.396 2.21-.316 3.044-.858zm70.684-86.212c-1.558-.367-1.839.366-1.89 1.646.886-.313 1.397-.781 1.89-1.646zM132.91 157.35c-1.17.075-2.387.159-3.27 1.119 1.289.284 2.278-.371 3.27-1.119zm-89.399-16.167c-.544 1.322-.338 2.37 1.341 3.17l-1.341-3.17zm7.719-28.408c-.585 1.412-.247 2.218.667 3.35.19-1.386-.005-2.225-.667-3.35zm65.785 76.982c1.49.544 2.269.23 2.824-.937-1.035-.115-1.813.17-2.824.937zm-56.237-77.719c0 1.176-.128 1.971.737 2.598.232-.912.144-1.624-.737-2.598zm58.254 73.859c1.265.352 1.913.135 2.655-.53-.989-.465-1.579.062-2.655.53zm-77.883-43.781c.225 1.235.299 2.042 1.163 2.717.085-1.067-.054-1.795-1.163-2.717zm104.289-.015c-1.112.121-1.934-.196-2.516.953 1.029.179 1.693.029 2.516-.953zm-57.702-73.8c-.726.624-.45 1.222.07 1.998.499-.776.185-1.375-.07-1.998z" fill="#fff"/><path fill-rule="evenodd" clip-rule="evenodd" d="M138.372 165.782c1.9.414 3.514-1.025 5.378-.83-1.672 1.144-4.893 1.86-6.41 1.422l1.032-.592zM32.291 145.796c-.06-.969-.069-1.946-.197-2.904-.1-.736-.111-1.402.421-1.982.478 1.715.481 3.472.482 5.231l-.706-.345zm132.03-34.57c1.212-.846 2.506-1.46 4.634-1.657-1.565 1.248-2.959 1.487-4.149 2.114l-.485-.457zM75.526 86.351c.132.543.03 1.046-.277 1.509-.423-.987-1.075-1.942-.475-3.088l-.07.014c.58.392.47 1.156.879 1.642l-.057-.077zm-21.19 34.606c.103.569-.52.995-.647.461-.141-.592-.36-1.186.023-1.771.21.463.423.928.636 1.393-.002.001-.012-.083-.012-.083zm-8.172-8.379c1.409 1.58 1.112 3.683 1.679 5.519.277.901.044 1.946 1.048 2.606.584.385.3 1.145.344 1.755.202 2.842.22 5.7.95 8.489.278 1.064.592 2.056 1.464 2.781-.432.538-1.112.4-2.194.481 4.851 5.731 9.276 11.236 14.82 15.727-4.156-2.547-7.549-5.89-10.427-9.775-1.56-2.104-1.541-2.117-3.728-3.247-.499.954.403 2.118-.586 3.189-.172-.978-.437-1.808-.43-2.636.01-.738-.141-1.43-.323-2.105-.183-.675-.563-1.303-.91-1.921-.584-1.057 1.075-.648.944-1.567-.242-1.678-.03-3.435-.409-5.066-.174-.741-2.602-13.621-2.242-14.23z" fill="#fff"/><path fill-rule="evenodd" clip-rule="evenodd" d="M43.824 119.588c.458.226.577.687.655 1.107.681 3.723 1.856 7.333 2.175 11.151.18 2.153 1.088 4.243 1.684 6.411-1.14.102-.678-1.213-1.44-1.328-.618 1.021.371 2.81 1.233 3.71 3.03 3.151 5.532 6.777 8.719 9.803 1.155 1.095 2.434 2.044 3.563 3.167-5.523-2.984-8.694-8.449-13.228-12.755-.476 1.886.407 3.595-.214 5.276-.91-3.241-.238-6.903-2.922-9.532.832-.584.787.415 1.459.318 1.165-4.736-1.144-7.016-1.867-16.099-.036-.449-.123-.886.258-1.242l-.075.013zm96.189-20.078c-.671 1.03-18.72-10.068-26.49-16.975-.132-.118-.312-.18-.473-.266 0 0-.01.007-.01.009 1.796.21 2.479 1.672 12.139 8.257 4.792 3.267 9.84 6.13 14.854 9.036l-.02-.06zm-31.266-9.203c1.113.374 21.678 15.265 22.268 15.855-.949-.616-18.174-11.32-22.19-15.856h-.078zm24.267-2.499c-1.859 1.064-22.191-15.211-21.767-17.5l-.071-.001c6.398 6.954 13.908 12.525 21.861 17.543l-.023-.042zM77.02 96.362c.301 3.02 1.795 5.444 3.84 7.626-1.48-.415-1.795-2.106-3.115-2.642-.665.477-.029 1.355-.912 2.362.152-2.775-1.003-5.05.26-7.351l-.074.005zm56.018-8.511l13.037 7.66c-4.515-2.288-9.314-4.113-13.052-7.691-.009-.012.015.031.015.031zM99.67 99.123c-6.801-7.13-7.672-7.795-7.922-9.48-.002-.001-.098.025-.1.025 1.693 1.294 2.804 3.125 4.269 4.638 1.097 1.135 1.924 2.535 3.289 3.412.553.356.496.873.454 1.4l.01.005zm56.219 15.626c-.389.773-1.29.761-1.883 1.229-.004.638.703.657.943 1.088-2.366-.158-4.447-1.12-6.513-2.288 2.525 1.174 4.993.771 7.453-.029zm-22.572 34.98c-2.735-1.758-5.434-1.304-8.249-3.532 2.695 1.3 6.09.929 8.238 3.544-.001.01.011-.012.011-.012zm-18.257-90.57c2.411.471 4.059 4.21 7.35 6.425-2.993-1.503-5.197-3.892-7.287-6.43-.02-.003-.063.005-.063.005zm-46.685 86.912c-2.297-1.307-4.445-2.787-6.147-5.077 2.489 1.357 3.991 3.602 6.147 5.077zM157.496 95.7c-2.742-.978-5.227-2.418-7.522-4.199 2.594 1.283 5.235 2.48 7.53 4.295l-.008-.096zm-77.809 15.224c-1.664-1.404-3.076-3.037-4.55-4.978 1.321.502 2.469.602 2.666 2.213.132 1.072 1.662 1.526 1.798 2.774l.086-.009zM39.802 154.15c2.228 1.466 4.369 3.012 5.296 5.69l.067-.003c-1.758-1.898-3.513-3.798-5.29-5.696-.02-.001-.073.009-.073.009zm45.729 46.885c-2.563-.657-4.749-2.043-6.873-3.548 2.421.929 4.723 2.093 6.873 3.548zM92.3 84.938c1.673.956 2.473 2.688 3.594 4.13-1.278-1.284-2.684-2.46-3.5-4.141a1.217 1.217 0 00-.094.011zm18.142-12.553c1.083 1.165 2.17 2.33 3.253 3.492-1.442-.814-2.687-1.813-3.202-3.482l-.051-.01zm-57.229 81.492c-1.014-.617-.15.219-3.294-3.049 1.84.535 2.084 2.311 3.294 3.049zm59.334-84.657c-.899-1.556-2.46-2.538-3.477-3.998l-.101.01c1.704.859 3.262 1.855 3.534 3.993l.044-.005zm20.247 71.214c-1.395.226-2.491-.615-3.721-1.072 1.353-.103 2.579.258 3.721 1.072zM84.579 94.337c1.83.156 2.552 1.629 3.77 3.158-1.89-.728-2.393-2.42-3.715-3.178-.02 0-.055.02-.055.02z" fill="#fff"/><path fill-rule="evenodd" clip-rule="evenodd" d="M79.6 110.933c1.31.63 2.093 1.807 2.889 2.972-1.028-.892-2.052-1.792-2.794-2.981l-.095.009zm15.883-28.437c1.027.573 1.678 1.478 2.35 2.752-1.276-.743-2.103-1.484-2.263-2.77l-.087.018zm44.549 17.075c1.302.512 2.397 1.333 3.43 2.247-1.315-.509-2.589-1.087-3.446-2.3l.016.053zm-7.701 35.413c1.089.463 1.841.433 2.391.909.235.423-.77.81-2.391-.909zm29.254-31.04c-.649 1.011-1.55.873-3.013.626 1.261-.748 2.07-1.04 3.025-.553l-.012-.073zM56.954 157.036c-.93-.42-1.53-.838-1.925-1.527l1.925 1.527zm-11.856 2.804c1.235.767 2.871 1.103 3.142 2.913l.057.006c-.819-1.206-2.165-1.849-3.117-2.923l-.082.004zm88.143-52.839l2.244 1.608a8.43 8.43 0 01-.104.189c-.737-.529-1.472-1.057-2.209-1.583.022-.069.047-.141.069-.214zm-44.348 95.783c-1.457-.024-2.357-1.134-3.487-1.788 1.44.052 2.33 1.178 3.487 1.788zm59.983-92.421c.739.228 1.479.453 2.491.764-1.127.445-1.803.092-2.491-.764zm1.275-3.485c1.212.223 2.135.177 2.765 1.115-.854-.204-1.627-.347-2.765-1.115zm4.226 11.744c-.614.98-1.547.86-2.475.733.76-.48 1.519-.97 2.489-.663l-.014-.07zm-44.514 59.423c-.932.372-1.683-.071-2.574-.56 1.109-.355 1.836.182 2.581.658l-.007-.098zm34.909-64.504c.705-.036 1.5-.116 2.075.584-.772.197-1.392-.191-2.075-.584zm3.698-9.34c.761.248 1.255.706 2.022 1.495-.866-.646-1.564-.813-2.022-1.495zm-.839-7.905l1.434 1.027c-.374-.191-.947-.487-1.524-.787.028-.081.062-.16.09-.24zm-71.316 30.996c.36.259.72.515 1.08.772l-.014.016-1.076-.771a.051.051 0 00.01-.017zm82.111-37.642c.728.282 1.518.463 2.065 1.193-.963-.047-1.398-.858-2.086-1.248-.005-.01.021.055.021.055zm-119.22 77.732c.75.298 1.314.839 2.198 1.672-1.2-.393-1.79-.872-2.122-1.684a9.444 9.444 0 01-.076.012zm4.874-2.343c.955.117 1.511.818 2.305 1.58-1.166-.194-1.765-.78-2.215-1.594-.01.003-.09.014-.09.014zm22.976-27.191c-.695.037-.998-.517-1.433-.894.746-.116 1.07.397 1.433.894zm45.447-68.623c1.047.485 2.33.727 2.317 2.282l.041.005c-.444-1.073-1.588-1.453-2.296-2.292a.78.78 0 00-.062.005z" fill="#fff"/><path fill-rule="evenodd" clip-rule="evenodd" d="M48.24 162.753c.909.307 1.66.839 2.24 1.624-.905-.274-1.543-.929-2.168-1.618l-.073-.006zm16.553-34.359c.954.225 1.826.589 2.426 1.572-1.136-.112-1.526-1.209-2.403-1.566-.016-.003-.023-.006-.023-.006zm-5.783 9.467l2.073 1.485c-.956-.13-1.638-.599-1.983-1.495l-.09.01zm26.58-20.521c.483.103.787.411 1.003.823-.332-.275-.833-.341-1.004-.823zm-11.2 19.853c-.344-.248-.686-.491-1.028-.736.358.222.72.443 1.08.663a3.768 3.768 0 00-.053.073zm5.309-13.369c.645.006.817.389 1.021.731-.304-.218-.607-.436-1.021-.731zm24.841-31.159c.146.734 1.051.812 1.308 1.508-.794-.217-1.256-.649-1.251-1.482a.57.57 0 01-.057-.026zm3.488-7.975c-.368-.295-.736-.59-1.277-1.026.822.102 1.058.551 1.277 1.026zm-17.77 22.13c.7.035 1.024.548 1.45 1.023-.642-.171-1.131-.451-1.45-1.023zm20.988-36.511c-.661-.218-1.173-.652-1.716-1.167.928-.064 1.175.69 1.635 1.169.01-.003.081-.002.081-.002zM86.064 101.82c.356.475.71.954 1.2 1.608-.764-.464-1.617-.611-1.14-1.623l-.06.015zm24.428-29.425c-1.145-.364-1.872-1.332-2.838-1.967-.008-.003-.017-.001-.017-.001 1.29.134 2.003 1.085 2.789 1.955l.066.013zm-26.949 48.74c.63.345.46.25.626.576-.569-.303-.397-.179-.626-.576zm-2.071-23.24c.832.475 2.161.54 1.699 2.072.006-.004.022-.022.022-.022-.122-1.013-1.166-1.302-1.642-2.052a1.792 1.792 0 01-.079.002zm14.183 6.779c-.376-.032-.243.128-.925-.512.486-.037.497.106.925.512z" fill="#fff"/><path fill-rule="evenodd" clip-rule="evenodd" d="M86.123 101.805c-1.35-.025-1.856-1.356-2.912-1.862-.017.002-.033.02-.04.025 1.298.08 2.051 1.007 2.873 1.853.02-.001.08-.016.08-.016zm-18.49 21.923c.753.08 1.26.561 1.799 1.117-.953.128-1.191-.71-1.721-1.125a2.588 2.588 0 00-.078.008zM99.66 99.12c.784.132 1.477.427 2.117 1.29-1.253-.11-1.139-1.062-2.116-1.29zm16.518-20.684c-.479-.016-1.001-.38-.912-.656.136-.41.715.258.912.656zM91.584 95.814c-.113-.63-1.027-.704-1.01-1.493.592.35 1.413.475.98 1.47l.03.023zm22.818 86.569c-.161.952-.714 1.234-1.805.986.517-.772 1.299-.568 1.818-.887 0-.014-.013-.099-.013-.099zM94.369 97.811c.026.634.78.817.97 1.47-.756-.306-1.41-.557-.927-1.471l-.043.001zm7.469-7.219l-1.307-1.743c.948.703 1.733.77 1.3 1.739l.007.004zm-31.77 42.799c.412.059.754.276.976.674-.486.04-.677-.379-.976-.674zm44.752-61.883c.686.227 1.264.618 1.85 1.137-.906.04-1.184-.791-1.79-1.131-.018 0-.06-.006-.06-.006zM73.463 123.92c-.425-.112-.803-.249-.929-.729.462.06.734.325.93.729zm2.707-4.378c.064.163.148.374.226.584-.405-.17-.917-.361-.713-.751.01-.02.273.091.486.167z" fill="#fff"/><path fill-rule="evenodd" clip-rule="evenodd" d="M101.83 90.588c1.043.497 1.882 1.26 2.695 2.074.014.004.061.026.072.03-.911-.693-1.832-1.395-2.757-2.095a.032.032 0 00-.01-.009zm-7.42 7.222c-1.25-.213-1.848-1.355-2.814-1.993a.15.15 0 01-.044-.026c1.037.511 1.913 1.257 2.798 2.02h.06zm34.803 45.901c-.825.353-1.185-.363-2.015-.728 1.156-.309 1.551.319 2.018.798l-.003-.07zm28.291-47.914c.864-.477 1.126.353 1.531.85l-1.54-.946.009.096zm14.935-8.265c-.041-.765.537-.841 1.047-.972.857-.223 1.714-.522 2.587-.613.65-.069 1.261-1.215 1.799-.333.233.385-.109 1.074.778 1.131.306.02.302.5.081.589-.919.37-1.826 1.596-2.858.224-.36-.476-.748-.238-1.162-.25-.773-.02-1.466.754-2.272.224zm-48.384-47.719c.592 1.79-.202 1.529-1.436 8.119-.307 1.632-1.66 1.124-1.234-.167.876-2.656 1.777-5.304 2.67-7.953zm-12.698-2.533c-.331-2.19 1.729-6.895 3.925-8.648-1.26 3.35-2.889 5.868-3.925 8.648zm8.107 9.804c-.64-1.805.774-5.986 2.874-8.81-.97 2.931-1.968 5.856-2.874 8.81zm1.077-11.164c-.815 3.07-1.376 6.225-3.009 9.026.245-3.26 1.624-6.145 3.009-9.026zm3.035 15.665c.392-2.955 1.394-5.706 2.493-8.653.242 1.76-1.283 7.401-2.493 8.653zm5.246 4.394c-.491-2.583.864-4.8 1.442-7.173.186.036.376.07.565.104-.43 2.373-.86 4.749-1.292 7.124l-.715-.055zM113.215 39.28c.458-3.316 2.36-5.403 3.158-8.292.339 1.822-1.018 5.316-3.158 8.291zm43.724 39.716c2.405-.527 4.813-1.056 7.219-1.582.046.187.09.376.13.565-2.305.908-4.639 1.72-7.204 1.604a38.66 38.66 0 01-.145-.587zm31.47 8.288c2.076-.718 4.192-.182 6.263-.425.61-.069.563.969.259.97-2.187.007-4.432.535-6.522-.545zm-72.472-45.471c.291-2.964 1.59-5.568 2.929-8.157-.477 2.897-1.69 5.532-2.929 8.157zm-6.552-8.387c.094-2.758 1.986-3.954 3.036-5.615.322-.509 1.202.31.714.774-1.339 1.29-1.888 3.176-3.75 4.841zm83.088 51.004c.426-.083.848-.182 1.279-.236 1.353-.17 1.624 1.26.177 1.35-1.419.089-2.899.624-4.184-.487.275-.807.958-.806 1.483-1.043.415.138.83.276 1.245.416zm-8.3 6.549l8.223 1.397c-2.234 1.299-6.33.008-8.223-1.397zM129.41 45.676c-.339 2.285-1.698 4.263-1.57 6.63.052 1.052-1.453.688-1.187-.169.694-2.248 1.154-4.598 2.757-6.46zm40.546 39.243c1.849-.536 3.693-1.08 5.546-1.594.368-.102.713.035.76.485.027.27-.101.54-.404.583-1.944.282-3.803 1.085-5.783 1.11a58.551 58.551 0 00-.119-.584zm-10.822-9.351c-2.178 1.337-3.638 1.574-6.272 1.014 1.041-.416 5.35-1.112 6.272-1.014zM187.4 89.446c2.317.73 6.572-.376 6.665 1.18-2.344.243-4.594.086-6.665-1.18zm-18.451-9.644c-2.049 1.512-4.422 1.414-7.075 1.622 1.463-.843 4.65-1.608 7.075-1.622zm-37.174-22.883c-.103-1.953.636-3.602 1.599-5.177-.191 1.84-.086 3.765-1.599 5.177zm42.402 1.724l-7.775 2.264c1.46-1.234 4.886-2.307 7.775-2.264z" fill="#fff"/><path fill-rule="evenodd" clip-rule="evenodd" d="M192.473 84.43c-5.089-1.717-.26-2.618.899-2.038.345.972-.363 1.466-.899 2.037zm-4.504 10.218c-2.338.618-4.274-.57-6.824-1.645 2.826-.258 4.601 1.587 6.824 1.645zm-22.468-11.841c2.554.003 4.715-.766 7.098-1.179-1.651 1.635-5.126 2.263-7.098 1.179zm-14.345-9.29c1.399-.306 2.783-.703 4.393-.407-1.789 1.148-2.831 1.277-4.393.407zm-15.809-18.95c-.419 1.286.377 2.96-1.246 4.23-.24-1.801.189-3.095 1.246-4.23zm1.848 3.223c.409.705-.312 1.12-.422 1.685-.181.885-1.417.036-1.017-.43.412-.478.393-1.479 1.439-1.255zm34.876 2.678l2.739-.535c-1.042 1.422-1.042 1.422-2.739.535zm-23.802 10.556c.896-.218 1.817-.757 2.612.21-1.299.443-1.298.442-2.612-.21zm-3.173-3.015c1.118-.563 1.88-.523 2.541.644-.987.165-1.721.005-2.541-.644zm5.365-15.137c-1.025.838-2.116.935-3.279.149 1.088-.118 2.156-.63 3.291-.063l-.012-.086zm-10.619 7.347c.102.821-.79 1.03-1.346.61-.473-.349.342-1.052 1.346-.61zm19.703-3.811c-.268.889-.717 1.48-1.801 1.127.312-.906 1.511-.271 1.797-1.121l.004-.006zm1.388 2.724c.335-.297.729-.396 1.151-.236.078.03.145.344.104.374-.339.246-.703.505-1.148.294-.083-.038-.073-.272-.107-.432zm18.316 29.663c-.635-.325.094-1.14.779-.688.465.31.219 1.195-.779.688zm-14.75 109.779c-.345 1.327-.777 1.34-10.022 6.78a136.18 136.18 0 00-.305-.507c3.446-2.066 6.895-4.132 10.34-6.201.001-.003-.013-.072-.013-.072zm15.54-22.605c-.183 1.136-6.797 4.458-7.798 4.948 2.339-2.039 4.928-3.689 7.817-4.873a.918.918 0 01-.019-.075zm-3.806 5.049c-.046 1.709-3.979 3.266-5.526 3.505 1.847-1.133 3.697-2.267 5.545-3.412-.001-.013-.019-.093-.019-.093zm28.406-52.209c-1.348 1.895-3.299 3.028-5.244 4.159 1.716-1.411 2.997-3.388 5.265-4.089-.002-.002-.021-.07-.021-.07zm-17.074 36.668c-1.147 1.887-3.237 2.269-5.085 3.04 1.466-1.373 3.22-2.273 5.102-2.963 0-.005-.017-.077-.017-.077zm10.236-19.712c-.511 1.02-1.675 1.048-2.44 1.678.549-.961 1.237-1.716 2.456-1.608l-.016-.07zm-36.206 51.511c-.674.915-1.784 1.091-2.752 1.495.758-.762 1.446-1.647 2.765-1.425l-.013-.07zm16.488-26.239c.289-1.116 1.063-.954 1.722-1.47-.299 1.03-1.042.991-1.722 1.47zm3.308 1.42c.377-.861 1.116-1.149 2.421-1.595-.865 1.14-1.464 1.646-2.438 1.523l.017.072z" fill="#fff"/><path fill-rule="evenodd" clip-rule="evenodd" d="M181.377 172.384c-.503.794-1.103 1.378-2.153.993l.019.078c.56-.674 1.151-1.275 2.149-.998l-.015-.073z" fill="#fff"/><path fill-rule="evenodd" clip-rule="evenodd" d="M179.223 173.377c-.205.996-1.069 1.17-2.218 1.656.724-1.024 1.403-1.401 2.239-1.577a3.139 3.139 0 01-.021-.079zm-14.749 18.463c.324-1.148 1.026-1.276 1.862-1.551-.305.981-1.055 1.062-1.862 1.551zm3.041-5.041c.121-1.052.971-.773 1.465-1.402-.095 1.238-.811 1.16-1.465 1.402zm-85.823 16.047c.625-.294.883.177 1.33.394-.822.56-.846-.393-1.33-.394zm67.887-54.457c.689-.772 1.553-.642 2.43-.478-.696.753-1.537.746-2.43.478zm-16.959 26.479c2.403-1.434 5.056-1.506 7.739-1.422-2.491.966-5.18.849-7.739 1.422z" fill="#fff"/></svg>