<svg width="394" height="360" fill="none" xmlns="http://www.w3.org/2000/svg"><path d="M291.026 102.356c-.078.138-.963-.192-1.969-.742-1.555-.845-2.012-.937-3.042-.607-.862.269-1.399.232-1.826-.147-6.786-5.986-47.496-27.126-56.891-31.826-6.359-3.19-3.366-3.096-6.396-5.202-.6-.419-1.269-1.018-1.527-1.36-.699-.947-9.236-5.64-11.393-6.257-2.404-.698-4.31-.88-5.342-.515-.451.162-1.055.125-1.416-.08-.724-.413-1.678.052-1.903.913-.168.641-1.115.541-2.569-.258-.461-.258-.957-.335-1.133-.194-.347.293-3.324-1.024-3.477-.752 0 0-16.327-5.613-33.346-9.019-2.932-.59-3.25-.575-3.546.102-.308.708-.332.702-.441-.065-.1-.725-.242-.832-1.247-.965-1.53-.191-1.094.376-2.298-.2-1.567-.763-8.391-1.363-9.124-1.163-.366.106-1.228.054-1.85-.1-.628-.16-1.728-.165-2.385-.009-1.461.334-.619-.064-2.483-.02-1.17.033-1.498-.08-1.675-.556-.791-2.059-3.712-1.597-5.683-1.863-.811-.116-1.511-.077-1.559.087-.048.166-.52.074-1.082-.204-1.859-.942-2.264-1.07-3.104-.991-.452.038-1.178-.138-1.655-.416-.545-.304-.859-.326-.849-.053.008.244-.151.3-.369.135-3.061-2.328-2.254-.287-5.553-.976-3.06-.645-2.24.448-4.308.37-1.558-.06-3.671.608-3.758 1.193-.048.292-.152.373-.254.185-.236-.436-1.395.034-1.381.566.008.241-.119.326-.277.184-.763-.704-7.808 5.12-7.923 5.864-.04.288-.148.383-.24.213-.224-.429-3.913 3.216-4.28 3.543-1.635 1.467-2.355 2.807-3.603 3.96-4.64 4.275-30.508 39.446-45.324 71.578-2.597 5.627-3.82 7.931-4.428 9.88-.457 1.455-2.925 7.355-3.234 7.712-.078.085-.176.417-.228.706-.125.758-2.066 5.58-2.684 6.672-.407.726-.39.852.08.645.517-.238.537-.218.156.124-.457.428-2.502 5.134-2.629 6.064-.501 3.71-2.142 2.966-1.814 9.552a12.74 12.74 0 01-.01 1.398c-.166 1.976 1.139 7.032 1.942 7.487.157.087.386.575.472 1.024.178.901 4.255 4.847 6.065 5.872.54.308 1.155.958 1.398 1.493.241.511.505.928.575.9.295-.101 3.2 2.7 3.231 3.108.015.332.078.365.213.121.191-.335 3.075 2.598 4.042 4.125.268.424 1.02 1.048 1.69 1.419 1.854 1.024 1.913 2.551 3.23 3.967.53.587 2.17 3.83 2.639 4.094 0 0 15.021 20.757 18.273 22.714 1.007.601 1.516 2.072 2.51 2.639.361.204 1.336 1.119 2.204 2.055 1.895 2.067 4.387 4.22 9.325 8.086 8.416 6.566 3.236 2.413 4.471 6.348.77 2.443.838 1.287 1.904 3.152 1.129 1.995 4.552 4.794 4.844 5.267.94 1.502 5.634 4.209 7.086 4.417.516.075.991.268 1.036.422.042.16.151.15.255-.031.097-.177.597-.208 1.073-.078 1.181.331 4.007-.096 4.741.613 5.847 5.619 46.687 27.962 50.187 29.683 4.153 2.046 8.677 4.374 9.995 4.873 3.451 1.278 3.899 1.565 3.812 2.423-.065.58.162 1.03.696 1.357.712.437 2.988 2.773 3.671 2.88.33.049.428.176.236.29-.471.266 1.096 1.128 1.532 1.509 1.039.906 4.311 3.015 4.559 2.938.156-.039.796.136 1.44.401 1.841.755 4.474 1.16 6.123.939 3.521-.467 4.765.255 6.388-1.385.409-.411 1.2-.299 4.063.566 29.512 8.919 83.017 13.808 85.601 11.934.634-.455 4.888-3.368 5.003-4.112.047-.297.172-.374.277-.176.238.427 1.419-.801 1.397-1.455-.011-.281.064-.341.179-.131.273.481 1.431-.475 4.825-3.981l7.929-8.197s3.213-3.352 5.912-6.535c.773-.905 4.052-5.557 4.155-5.638.173-.145 3.659-4.947 4.076-5.473 1.392-1.747 2.358-3.139 6.244-9.052 1.644-2.499 21.27-36.278 20.372-38.087-.131-.268-.057-.324.216-.173.324.183.55-.09.917-1.082.434-1.178 2.862-6.202 3.912-8.768.678-1.65 10.037-23.785 9.131-25.413-.119-.214-.028-.376.205-.391.563-.052 1.242-2.613 1.495-3.124.067-.148-.098-.249-.382-.243-.368.012-.322-.062.169-.265.569-.231.681-.47.722-1.482.028-.674-.111-1.209-.314-1.197-.456.012-.283-.984.229-1.413.433-.355-.281-2.499-.82-2.47-.157.002-.374-.404-.485-.907-.11-.503-.415-1.041-.676-1.196-1.062-.633-3.122-5.342-3.851-5.761-.284-.16-.549-.667-.561-1.076-.047-.984-1.702-2.168-2.229-3.144-.238-.427-.486-.724-.545-.618-.147.259-1.022-1.721-1.159-1.474-.051.088-.271-.219-.492-.683-.216-.46-.68-1.006-1.018-1.197-.335-.185-1.161-1.109-1.802-2.013-.647-.914-1.346-1.673-1.527-1.675-.416.015-3.914-5.207-4.328-5.44-.6-.336-8.59-10.37-9.307-10.159-.178.047-.323-.108-.337-.352-.038-.435-9.919-11.539-10.258-11.943-8.259-9.761-10.516-12.13-11.341-11.896-.4.105-.457.019-.252-.343.304-.527-2.875-4.14-3.883-4.403a1.026 1.026 0 01-.68-.694c-.071-.306-1.071-1.492-2.248-2.649-2.037-2.026-2.44-2.673-3.621-5.776-.288-.759-.636-1.359-.763-1.321-.132.029-.225-.39-.208-.941.019-.549-.265-1.28-.64-1.617-1.338-1.24-1.219-2.023-2.952-3.073-.801-.482-8.472-6.333-8.936-5.519zM136.794 46.963c1.551.074 3.283.13 3.839.12 1.996-.024 5.095.834 7.672.694.865-.047 1.733.029 1.98.167.302.169.473.047.537-.395.254-1.492.601 1.787.854.222.1-.586.15-.595.34-.075.181.503.934.782 3.883 1.42 4.203.91 4.571 1.412 4.583.243.005-.557.2-.789.736-.882.653-.11.657-.045.041.603-.837.888-.394 1.18 2.605 1.728 16.682 3.06 26.644 7.04 31.608 8.701 1.978.663 3.641 1.303 3.67 1.403.029.108-.232.768-.584 1.487-.365.75-.493 1.466-.305 1.702.184.231.176.53-.02.702-.192.169-.305.811-.241 1.445.072.719-.107 1.37-.481 1.767-1.035 1.098.345 2.248-.857 1.97-.333-.077-3.808-1.81-3.791-1.57.008.14-.472-.046-1.098-.416-.577-.353-15.772-6.668-16.098-6.09-.096.175-.405.177-.7.01-.989-.564 1.428-.316.092-.59-1.046-.213-1.216-.667-2.21-.39-.425.111-.649.05-.526-.165.229-.396-1.836-1.115-2.381-.835-.219.127-.373.04-.379-.211-.017-.487-4.471-1.806-5.046-1.495-.216.116-.738-.032-1.129-.316-.933-.67-6.07-2.427-6.749-2.313-.305.057-.459-.04-.429-.26.088-.53-7.458-1.878-7.588-2.283-.046-.126-.177-.078-.277.103-.111.195-.53.16-.956-.078-.809-.465-4.126-.841-4.765-.54-.224.11-.341.065-.254-.089.091-.168-.188-.149-.645.034-.448.189-.614.203-.38.042 1.261-.841-3.781-.637-5.294-1.203-1.447-.528-1.007.122-2.289-.497-.797-.373-.858-.566-.505-1.487 1.19-2.106-.658-2.566 3.537-2.383zm50.907 34.157c.007.177-.218.094-.503-.174-.286-.27-.811-.528-1.174-.568-.377-.036-.766-.161-.907-.287-.419-.373-8.674-3.234-9.197-3.433-2.365-.926-1.023.148-2.957-.799-.685-.33-1.868-.71-2.663-.846-.801-.138-1.474-.37-1.522-.524-.045-.156-.149-.159-.24.003-.263.467-7.292-2.592-7.558-2.129-.074.133-.307.123-.503-.015-.797-.585-8.188-2.48-8.77-2.314-.491.14-2.111-1.057-2.583-.899-.169.05-.885-.167-1.582-.487-.693-.313-1.751-.588-2.347-.602-1.646-.052-1.69-.7-3.397-.75-.627-.014-1.402-.192-1.771-.4-1.285-.73.515 1.373-.724.265-.886-.793-2.882-.657-3.982-1.055-2.202-.804-5.407.882-4.244-2.89.115-.202.536-1.974.412-2.2-.088-.161-.043-.537.104-.823.233-.448.883-5.067.847-5.353-.308-2.294.847-2.094 9.604-.046 26.651 6.238 54.736 16.465 53.799 19.63-.828 2.839-1.183 3.906-1.962 5.957-.48 1.252-.823 2.526-.767 2.862.145.871-.517.359-.463-.067.047-.424-4.965-2.488-4.95-2.056zm-8.57 13.917c-.452-.255-.953-.38-1.137-.275-.717.432-19.832-8.306-20.585-8.712-2.08-1.106-2.127-1.157-1.711-1.899.82-1.448.578-1.794-2.145-3.04-1.462-.674-16.904-5.882-21.157-6.82-4.037-.903-5.468-2.644-1.365-1.292 2.702.884 3.124.608 4.533 1.005.617.18 22.368 5.492 22.045 6.064.045-.077 11.187 3.467 5.767 2.826-1.226-.148-2.058.782-1.652 1.862.834 2.24 19.009 8.964 21.399 9.71 1.994.634 5.743 2.53 5.573 2.822-.324.58-1.09.949-1.479.72-.271-.152-.419-.052-.413.271.01.382-.05.357-.229-.092-.325-.804-6.538-2.643-7.444-3.15zm.928 5.376c-.984-.416-21.102-9.4-21.936-8.69-.556.474-1.119.104-.643-.169.435-.252.519-.214-1.744-.788-1.045-.266-2.372-.744-2.916-1.053-1.271-.713-.767.25-1.741-.501-.436-.345-1.286-.621-1.94-.651-.671-.02-1.207-.137-1.251-.26-.113-.35-9.052-3.344-8.908-2.755.051.191-.152.107-.458-.194-.296-.288-1.346-.62-2.312-.732-2.488-.287-6.797-1.322-8.718-1.677-1.404-.264-1.57-.413-1.241-1.127.239-.518.65-2.287.769-2.863.497-2.33.802-3.12 1.319-4.545 6.275 1.853 25.216 8.035 25.216 8.035.697-.111.571 1.104-.135 1.302-6.738 1.832 27.222 13.35 29.108 14.161 1.149.508 2.176.81 2.246.684.08-.14.455.09.855.498.399.42 1.009.742 1.375.737.358-.002.603.111.541.247-1.109 2.316-.845 3.006-2.02 2.714-1.049-.26-2.55-1.418-3.355-.94-.509.309-.56.29-.344-.12.209-.405-.061-.603-1.767-1.313zm-32.528 25.023c-.612-.325-.854-.311-.841.05.021 1.03.014-.611-1.28-1.026l-11.005-4.976c-.228-.109-18.172-7.747-18.445-7.676-.42.109-.704-.228-.498-.599.002-.003 3.621-8.675 4.951-11.692 13.689 5.122 24.759 7.819 44.517 17.222.835.397 13.281 5.884 13.538 6.777.072.249-3.683 8.839-4.903 11.222-1.129 2.196-1.377 2.443-2.043 2.014.004 0-23.994-11.318-23.991-11.316zm20.693 11.342c.453.253.437.309-.097.342-.788.059-.823.041-.599-.335.117-.214.478-.129.696-.007zm-5.988 19.186c-.832-.468-10.816-6.141-11.731-5.886 0 0 .926.043-12.672-7.66-10.019-5.674-29.237-16.96-29.335-17.224-.041-.117 6.157-11.5 6.097-11.395 11.947 4.509 9.992 4.078 14.908 6.042.903.372 9.534 4.421 10.391 3.977.349-.189.44-.129.466.281.013.327.436.674 1.155.952.617.245 2.702 1.214 4.633 2.167 2.8 1.376 3.554 1.636 3.755 1.288.207-.37.284-.337.499.202.192.485 20.18 10.556 20.644 10.795-1.496 3.905-8.064 15.173-8.81 16.461zm-1.043 2.681c-9.14 15.125-8.664 14.758-10.308 13.911-12.788-6.586-2.462-.877-14.758-8.273-15.925-9.577-28.865-19.799-34.68-25.377-1.428-1.377-1.362.178 4.994-10.276l.963-1.572c.358.205 53.399 31.465 53.789 31.587zm-11.309 17.361c.476.155-1.836 3.942-1.596 3.527-.228-.144-11.163-6.842-11.291-7.079 0 0-16.934-11.974-19.03-13.603-17.11-13.33-21.102-15.592-19.902-16.596.971-.809 1.32-2.829 1.959-1.818.872 1.391 14.248 12.035 15.477 13.055 3.859 3.19 33.916 22.351 34.383 22.514zm-25.292 33.038c-.178.319-4.012-2.184-4.248-2.755-.176-.447-4.576-3.475-4.831-3.023-.11.197-.241.002-.292-.424-.145-1.267-.922-.332-1.284-1.324-.113-.301-.361-.605-.518-.634-.977-.174-15.186-12.628-15.825-12.475-.412.094-.445.067-.144-.122.383-.226-.21-1.155-.834-1.327-.227-.058-8.947-9.087-10.028-9.724-.358-.208-.65-.518-.636-.676.049-.551-6.517-7.434-6.971-7.78-.668-.504-1.05-1.252-.468-.925.21.119.4.104.456-.036.053-.135.292-.556.516-.908.565-.902.263-.519 3.647 2.781 6.628 6.485 26.989 27.81 42.97 38.443.556.365.917.799.799.951-.606.777-.985.845-1.579.29-.332-.321-.654-.467-.73-.332zm-4.126 1.6l3.296 2.124c-3.944 5.139-3.343 5.265-6.256 3.314-1.214-.812-2.25-1.566-2.309-1.691-.135-.262-2.588-1.768-2.46-1.993.055-.099-.361-.459-.95-.819-.858-.524-1.034-.523-.953-.017.16.88-.517.414-.418-.233.099-.606-2.074-2.927-3.809-4.078-.663-.446-1.071-.857-.921-.945.139-.081-.131-.371-.585-.627-.461-.27-1.489-1.203-2.295-2.103-.974-1.089-1.604-1.574-1.918-1.484-.684.182-1.013-.057-.744-.541.416-.729-6.571-6.674-7.344-7.076-.847-.445-.978-.393-1.662.613-.414.612-.7 1.373-.65 1.707.069.461-.128.732-.786 1.074-1.182.622-.563 1.083-1.446.338-.518-.428-.725-.475-.714-.161.03.687-.313.426-.544-.432-.114-.393-.53-.895-.95-1.129-3.494-1.985-15.147-15.375-15.19-15.398-.392-.223-.698-.573-.707-.803-.013-.432-2.39-1.748-2.252-2 .222-.39 3.528-3.384 4.198-3.803.327-.206 1.049-.883 1.59-1.497 2.049-2.31 2.738-2.94 2.975-2.712 2.95 2.738 8.41 11.13 19.734 20.093 1.473 1.167 17.3 15.887 24.07 20.279zm-1.457-2.279c-.245.427-.444.241-.45-.262-.02-.543.677-.143.45.262zm-66.618-27.53c-2.121-1.834-2.357-2.021-5.368-4.443-1.483-1.188-2.006-1.785-1.745-2.003.836-.714 7.41 5.024 9.927 6.826 3.745 2.664 2.527 4.236-2.814-.38zm3.303 4.241c-.662 1.163-1.186.041-5.12-2.93-9.39-7.084-7.048-6.551-5.444-5.648.718.413 10.963 7.862 10.564 8.578zm1.003-3.821c-.876-.621-2.79-2.177-4.261-3.447-5.794-5.008-6.078-4.434-5.13-5.088.479-.328.821-.327 1.042-.003.203.299 5.739 4.482 6.199 4.604.34.092.58.299.5.446-.09.161-.04.303.126.347.367.094 3.37 2.346 3.773 2.836.213.256.152.625-.154.93-.456.463-.678.389-2.095-.625zM45.27 163.803c.089.049.019.152-.172.262-.407.223.973 4.583 1.544 4.905.266.154.25.426-.053.732-.357.366-.656.348-1.214-.073a37.277 37.277 0 00-.926-.681c-.107-.07-.14-.416-.072-.78.23-1.305-.029-3.678-.383-3.587-.438.101 1.094-.879 1.276-.778zm4.76-18.998c-.424.085.873-.398.763-.781-.05-.185.021-.251.183-.153.25.14.975 2.862 4.05 15.27.323 1.301.267 1.588-.453 2.299-.776.768-1.523.869-1.122.162.157-.284-.358-2.289-.443-2.603-1.563-5.676-2.932-12.262-2.754-13.221.113-.615.025-1.019-.225-.973zm5.412 3.746c.329.052.59.05.614.01.023-.043-.536-2.364-1.244-5.162l-1.285-5.079c1.31-2.357.911-1.634 2.009-3.616 1.32 4.472 2.542 9.348 3.088 11.776.235 1.05.61 1.912.837 1.911.242-.006.259.063.057.175-.493.267.858 5.797.5 6.011 0 0-2.674 3.683-3.963 5.024-.08-1.059-.063-1.65-.87-4.94-.395-1.626-1.348-5.218-2.11-8.009-1.155-4.168-1.297-5.166-.834-5.64 1.159-1.189 1.975 7.359 3.201 7.539zm24.51-25.414c.113.617.302.939.43.719.29-.469-4.194-18.078-4.331-18.687-.663-3.099-.675-3.729-.104-4.739.359-.634.757-1.108.872-1.044.832.474 3.255 15.771 4.09 15.992.185.05.207.148.045.236-.148.082.068 1.571.486 3.363l.75 3.222c-4.08 6.822-3.27 7.232-4.347 3.212-.842-3.153-1.242-5.002-1.662-7.737-.188-1.22-.532-2.135-.819-2.175-.29-.044-.355-.196-.155-.367.348-.297.059-1.819-.919-4.809-1.193-3.656-1.42-5.509-.803-6.595.464-.818.68-.962.957-.637.187.228.286.549.204.698-.22.391.992 3.951 1.374 4.038.191.042.175.154-.038.274-.364.198 2.252 10.459 2.736 10.733.147.081.255.784.242 1.535-.07 2.622.627.581.992 2.768zM99.23 85.001c.216-.406-2.174-11.9-2.794-11.875-.41.011 1.296-3.399 1.751-3.526.506-.14 3.587 14.371 2.4 16.975-.821 1.797-.313 3.193-.93.673-.642-2.65-1.405-2.234-.937.503.364 2.148.348 2.35-.445 4.34-.535 1.332-1.045 1.355-.927.036.04-.454-.151-.903-.423-.98-.27-.074-.325-.189-.12-.244.58-.162-.215-2.644-.891-2.786-.497-.105-.489-.136.068-.2.43-.049.576-.213.442-.493-.307-.648-1.352-7.29-1.367-8.781-.03-1.685-1.369-3.687-.182-4.952.576-.608.645-.496 1.462 2.424.832 2.955 1.812 7.525 1.856 8.62.016.524.787.728 1.037.266zm8.682-23.916c-.412-.234.463-1.376 1.218-1.593 1.018-.274 1.06.244.261 2.946-.97 3.281-1.041 3.323-1.172.618-.052-1.029-.183-1.902-.307-1.971zm-.726.38c-.019-.533.677-.144.452.256-.213.365-.446.328-.452-.256zm19.77.62c.293-.515-.143-1.65-.517-1.33-.538.46-7.951-2.008-8.65-2.189-3.38-.853-3.695-1.019-3.676-1.964.017-.935.276-1.111 1.114-.759.794.337 10.062 2.562 10.934 3.27.247.202.713.374 1.001.354.672-.045.882.56.516 1.511-.328.89-.01 1.251-.412 1.962-.167.3-.135.575.076.567.245-.012.369.05.31.155-.309.55-8.641-1.884-9.197-2.197-.297-.175-.617-.18-.705-.02-.091.161-.296.136-.46-.064-.875-1.025-3.664-.507-3.897-1.922-.058-.402-.062-.77.013-.893.272-.48 6.334 2.19 6.579 1.752.206-.363 2.318 1.284 2.295.471-.012-.284.071-.319.197-.093.335.61 4.237 1.822 4.479 1.389zm-5.166-9.917c1.323.743 7.886 1.486 7.379 3.018-.13.404-.582.5-1.481.325-1.104-.215-11.149-3.42-12.128-3.208-.446.1-1.054-1.308-.78-1.795.095-.166.232-.127.327.055.329.597 6.061 1.256 6.683 1.605zM128.196 57c.905.508.268 1.297-.906 1.115-.161-.026-9.046-2.623-9.669-2.908-.325-.14-.723-.215-.908-.16-.63.178-2.304-1.067-2.049-1.52.133-.238.543-.347.831-.265 7.457 1.956 11.859 3.256 12.701 3.738zm2.434 4.967c.576.333-.958.946-.495.125a.352.352 0 01.495-.125zm-3.996 3.489c-.619 1.085-.123 1.921-1.411 1.677 0 0-6.792-2.65-11.702-3.493-1.8-.303-1.767-.04-1.051-1.315.677-1.2 1.438-.78 2.908-.387.916.242 11.72 2.703 11.256 3.517zm-1.886 6.895c-.063.398-1.071 3.633-1.452 3.472-11.942-5.104-13.475-3.817-12.804-6.488.487-1.893.525-1.952 3.168-.807 4.05 1.762 11.088 3.823 11.088 3.823zm-4.029-1.657c-.305-.153-.458-.329-.301-.372.329-.087 1.169.805.301.372zm-9.333-4.419c-.061-.153.029-.653.193-1.074.485-.857 1.097-.643 2.161-.44 1.007.192 1.896.47 1.938.621.139.43.411-.611.66-.178.174.31 2.447 1.09 6.063 2.094.869.24 1.987.733 2.541 1.115.855.593.942.826.641 1.784-.414 1.327-.291 1.351-2.819.335-.647-.252-11.139-3.597-11.378-4.257zm-4.787-3.935c.927 4.166 1.016 6.958.19 6.494-.182-.101-.244-.266-.161-.413.181-.32-.715-4.238-.789-4.6-.147-.678-.089-1.583.114-1.945.383-.685.383-.685.646.464zm-.882 11.203c-.438.777-.637.194-.831-2.392-.075-.985-1.262-7.418-1.336-7.606-.177-.476-.107-.545.408-.402.767.209 2.763 8.633 1.759 10.4zm-1.461 4.128c-.56 1.313-.751 1.207-.854-.485-.039-.744-.286-1.386-.556-1.455-.271-.078-.337-.175-.15-.23.741-.2-2.066-10.879-.313-10.144.429.177 2.525 10.772 1.873 12.314zm-3.52-8.835c.717 3.273 1.224 6.828 2.186 10.788.133.557.06 1.257-.17 1.544-.215.277-.312.708-.197.914.174.307-.365.926-.666.752-.047-.027-.147-.738-.217-1.621-.053-.697-1.386-9.774-2.083-9.79-.243.001-.281-.061-.086-.127.184-.063.24-.723.113-1.436-.131-.706-.02-1.665.231-2.103.47-.789.47-.789.889 1.08zM96.14 91.197c.937 3.932.937 3.931.303 5.008l-.581.993c-.483-2.407-.696-3.565-1.601-8.702-.943-5.344-2.796-13.158-1.188-12.256.05.037 3.039 14.852 3.067 14.957zm-2.469-.638c.042.158.641 4.129 1.197 6.076.478 1.655.459 2.091-.189 3.29l-.736 1.376c-.109-.507-.612-3.344-1.057-3.597-.182-.101-.262-.35-.168-.51.097-.175-.012-1.02-.232-1.87-.201-.745-1.49-7.99-2.477-12.149-.357-1.52-.36-2.376.013-3.03.289-.516.673-.913.879-.92.695-.021 2.58 10.719 2.77 11.334zm-3.238.17c2.652 12.495 3.235 11.656 3.235 11.656-.178.093-.574.907-.882 1.78-.706 2.036-1.258 2.395-1.231.815.008-.655-.445-3.145-1.016-5.591-.575-2.44-1.197-4.39-1.402-4.388-.194.007-.174-.133.03-.299.228-.18.25-.753.052-1.325a32.11 32.11 0 01-.682-2.566c-1.448-6.577-1.48-6.836-.988-7.709.918-1.61.952-1.5 2.884 7.626zm-4.081-4.809c-.066.118.332 2.04.891 4.237.163.656 2.021 9.258 2.696 9.235.31-.011.326.063.032.225-.244.132-.288.622-.102 1.135.266.742.174 1.51.451 2.773.978 4.363.931 3.745-.852 6.302-.566-2.374-.94-3.889-1.41-6.511-.206-1.133-1.728-8.927-2.189-10.558-1.048-3.708-1.189-5.288-.569-6.383.32-.57.71-.947.882-.852.18.101.248.258.17.397zm2.171 23.811c.311 1.258-.316 3.302-.916 2.96-.111-.062-.645-1.906-1.177-4.046-.525-2.133-1.094-4.81-1.254-5.879-.153-1.086-.474-1.992-.713-2.039-.249-.052-.285-.206-.089-.371.188-.158.093-1.346-.204-2.634-1.42-6.115-1.594-7.241-1.21-7.916.219-.39.486-.642.604-.574.574.324 4.78 19.814 4.96 20.499zm-4.917-12.029c.33.096.352.258.06.494-.25.2-.31.725-.148 1.21 0 0 .42 4 1.967 9.299 1.09 3.709 1.221 5.434.537 6.648l-.615 1.087a217.65 217.65 0 01-1.101-5.022c-3.773-18.148-4.826-16.262-2.672-19.76.158.64 1.336 5.863 1.972 6.044zm-3.893-1.469c-.183.33 3.302 14.076 3.384 14.465 1.353 6.385 2.379 6.129.294 9.473-.363.577.543.591-.09.943-.413.229-.995-1.838-2.107-7.426-1.016-5.051 1.021 2.533-2.508-11.764-1.112-4.502-1.084-5.36.173-6.052.5-.27 1.077-.034.854.361zm-6.463 14.614c.976 3.357 3.615 14.2 3.615 14.2.43.553.287 3.457 1.092 3.59.37.06.274.427-.42 1.515-.802 1.262-.942 1.36-1.143.79-.126-.345-.442-.689-.687-.726-.26-.045-.28-.223-.056-.406.553-.462-3.33-16.014-4.06-16.278-.43-.159-.433-.215-.017-.258.408-.038.36-.734-.173-2.714-.599-2.216-.619-2.807-.12-3.515.599-.851.628-.793 1.969 3.802zm-1.91 4.075c2.084 8.413 2.66 10.149 3.724 14.747.733 3.132.662 3.493-.932 5.304-.04.041-.449-1.546-.913-3.531-.462-1.98-1.057-4.545-1.32-5.683a928.826 928.826 0 00-1.44-6.004c-1.991-8.2-2.04-8.507-1.562-9.356.917-1.605 1.078-1.02 2.442 4.523zm-1.04 8.697c.323 1.38.749 2.383 1.01 2.37.265-.014.27.072.025.21-.469.255.07 2.942.584 2.927.195-.009.229.089.092.235-.134.131.139 1.795.596 3.655.561 2.272.702 3.632.42 4.076-.994 1.575-.808 2.924-3.005-5.103-1.035-3.779-1.857-6.918-1.828-6.966.045-.085-.965-3.506-.995-3.594-1.435-4.834-1.704-4.805-.654-6.969 1.253-2.583.753-3.769 3.754 9.159zm-4.565-3.485a455.995 455.995 0 002.296 7.631c3.607 11.711 3.166 11.93 2.184 13.499-1.616 2.571-1.568 2.628-2.794-3.341-.241-1.172-.595-2.087-.788-2.039-.204.049-.235-.016-.077-.163.343-.316-.402-3.942-2.508-12.295-.579-2.28-.633-3.151-.237-3.903.277-.524.397-1.177.268-1.419-.183-.349-.097-.439.378-.364.458.064.819.749 1.278 2.394zm1.905 22.307c.324 1.899.009 3.015-1.109 3.924-.397.323-.61-.183-1.083-2.612-.932-4.778-3.616-14.516-3.977-17.985-.146-1.401-1.23-1.591-.72.606 1.41 6.17 3.851 16.334 4.503 20.629.086.568-1.126 2.716-1.436 2.543-.094-.053-.316-1.097-.486-2.314-.288-2.122-2.796-12.582-3.41-14.229-1.445-3.915-1.404-4.561.536-8.053.964-1.733 1.857-3.135 2.02-3.14.438-.02 4.215 15.06 5.162 20.631zm-5.238 5.462c-.095.164.055.538.331.821.271.289.385.721.25.957-.138.248-.107.526.068.624.442.249-1.298 2.351-1.578 2.786-.314.474-.602-.11-.93-1.892-.553-3.022-1.221-4.969-1.678-8.061-.18-1.178-.538-2.179-.796-2.225-.25-.046-.29-.178-.096-.292.213-.114.051-1.326-.345-2.716-1.029-3.541-1.182-5.289-.599-6.667.287-.676.602-1.178.703-1.119.44.248 4.93 17.331 4.67 17.784zm-12.929 1.418c.044.507.288.924.519.922.248-.002.305.069.126.166-.517.284 2.264 11.658 2.913 11.926.505.2.44.321-.674 1.33-1.223 1.102-1.223 1.102-1.44.18-.117-.506-.176-.995-.123-1.09 0 0-3.075-10.99-2.337-12.967.572-1.515.907-1.667 1.016-.467zm-1.168 8.451c1.833 7.031 1.966 7.913 1.33 8.666-.555.635-.605.55-1.167-1.926a299.513 299.513 0 00-1.352-5.618c-.566-2.196-.66-3.365-.349-4.209.416-1.156.451-1.081 1.538 3.087zm-2.35 1.224c.015.553 1.046.307.506.606-.645.353 1.108 7.693 1.825 7.666.412-.015-.27 1.374-.732 1.501-.498.139-2.678-8.713-2.367-9.612.28-.833.75-.935.769-.161zm3.296 11.934c.993-.857 8.208 5.961 9.358 6.216.884.199.117.669 1.053 1.193.662.382 1.326 2.003.863 2.13-.217.061-2.554-1.533-5.491-3.746-1.157-.867-4.536-3.594-5.538-4.276-.858-.599-.915-.947-.245-1.517zm17.411 14.474c-2.098-2.496-3.183-2.669-1.07-4.62 1.26-1.166 1.732-1.293 1.76-.482.01.245.147.405.339.402 1.28-.041 7.228 6.842 7.868 7.847.571.906 3.413 4.019 7.07 7 5.49 4.452 6.014 4.666 8.026 3.261 1.208-.838 1.36-1.034 1.123-1.502-.157-.297-.162-.47-.02-.388.138.076.214-.121.152-.434-.133-.791 1.537.497 5.37 4.148 12.852 12.216 21.182 18.243 21.182 18.243.016.436-1.784 2.46-2.93 3.291-.405.296-4.372 4.711-4.773 4.486-.185-.103-.465-.149-.621-.11-.36.096-7.789-5.817-8.104-6.05-7.715-5.632-24.884-22.782-35.372-35.092zm46.941 28.283c.406.23.06.833-.346.606-.403-.227-.063-.834.346-.606zm6.628-12.061c-4.553-3.686-12.308-8.843-28.387-25.156-3.473-3.51-6.128-6.137-6.338-6.259-.145-.083-.236.032-.228.276.01.529-.71.199-.385-.382.344-.613-1.45-1.769-1.888-2.304-.826-1.048-2.66-1.633-2-2.796.24-.422.586-.602.85-.453 0 0 10.861 11.871 23.243 22.505 1.069.921 2.023 1.872 2.152 2.143.122.263.691.781 1.248 1.144 1.423.928 7.339 6.729 8.936 6.103.567-.231.61-.39.309-1.185-.196-.503-.495-1.076-.648-1.256-.697-.813.303-.46 1.729.604 2.298 1.713 4.764 2.845 5.287 2.421.68-.568.546-2.183-.249-3.087-.415-.466-.831-.795-.964-.757-.136.039-.276-.2-.334-.55-.339-2.084-12.062-11.817-13.586-12.867-.998-.689-1.907-1.443-2.03-1.688-.121-.248-.633-.713-1.126-1.03-3.196-2.064-8.288-8.293-9.751-9.445-.484-.385-5.437-5.848-6.014-5.841-.185.009-.704-.56-1.161-1.239-.444-.679-1.142-1.43-1.52-1.645-.534-.299-.593-.568-.248-1.173.442-.773.476-.772 1.749.222 1.766 1.38 18.985 18.439 18.22 17.292.803 1.214 25.538 20.904 26.528 21.744 2.106 1.76 2.623.483-.864 5-1.237 1.61-1.334 1.861-3.131 3.856l-1.455 1.622c-1.641-1.065-3.201-1.978-7.944-5.819zm-36.638-39.465c.735-.699 7.973 7.655 8.57 8.467.146.202 3.91 4.766 4.212 4.946.356.2 1.057.878 1.519 1.476 1.744 2.257 6.248 6.201 6.525 5.713.487-.857 1.434-.268-.297-2.607-.503-.676-11.23-12.265-11.852-13.303-.527-.863-1.92-.029-1.106-.503.471-.285.459-.312-1.696-2.495-2.068-2.088-1.109-2.752 3.202 2.369 1.264 1.508 9.173 9.788 16.384 15.54 6.769 5.393 2.063 2.597 8.043 7.115 1.726 1.306 4.853 5.104 4.591 5.58-.195.347-3.205-1.846-4.728-3.438-1.522-1.578-2.486-1.621-2.034.647.383 1.979.27 2.158-.831 1.314a118.464 118.464 0 00-2.295-1.689c-7.433-5.262-29.221-28.021-27.22-26.02-2.612-2.604-1.704-2.44-.987-3.112zm48.442 31.293c-1.092-.818-2.466-1.741-3.112-2.084-.644-.337-1.131-.714-1.108-.848.024-.133-.725-.785-1.661-1.454-4.11-2.944-15.353-12.625-20.248-17.015-7.727-6.917-12.086-11.74-12.086-11.74-5.927-5.037-7.504-8.461 1.33-.235 15.363 14.287 40.611 32.194 42.058 33.389 1.006.83 1.041.955.49 1.756-1.153 1.656-1.084 1.674-5.663-1.769zm-.179-7.772c-14.727-10.707-41.09-32.064-40.612-31.788-.872-.497-.875-.557-.07-1.82.661-1.022.991-1.258 1.54-1.097.382.105.767.412.838.67.188.668 2.751 2.037 3.458 1.837.481-.131.548-.085.29.201-.353.405.46 1.219 3.364 3.34 12.967 9.451 21.279 17.306 23.478 13.43.442-.783.501-.783 1.28.023.457.468 1.447 1.28 2.242 1.846.457.321 6.383 5.417 15.03 11.309 2.572 1.753 1.739.95-1.655 6.93l-.461.82c-2.075-1.278-5.257-3.176-8.722-5.701zm11.514-3.592c-6.681-4.573-9.029-6.562-10.473-7.746-4.293-3.536-5.451-4.348-5.846-4.129-.278.165-.365.078-.305-.292.089-.588-2.345-3.013-2.99-2.994-.627.024-1.129 1.142-.897 1.994.472 1.686-2.429 1.048-4.108-.913 0 0-23.083-16.21-23.082-16.219-3.607-2.477-2.969-1.66.086-6.248 1.18-1.764 1.16-1.776 2.422-.547 3.053 2.964 36.468 28.145 46.643 34.114 2.334 1.372 2.42 1.678 1.078 3.699-.45.689-.485.683-2.528-.719zm-39.024-32.679c-.254.133-1.029-.578-.893-.823.091-.162 1.265.619.893.823zm-15.249-.733c-.355.562-.507.504-2.767-.985-1.303-.857-3.006-2-3.733-2.511-1.986-1.387-3.505-.905 4.723 4.25.91.569.293 1.048-.907 3l-2.932-1.915c-4.385-2.878-5.278-3.747-7.868-5.109-1.245-.664-1.192.394-.397.665.826.281 9.336 6.339 10.156 6.863.282.179.16.519-.47 1.278-1.339 1.644-1.697 1.911-2.15 1.658-.24-.137-.51-.077-.636.142-.163.288-.222.257-.245-.161-.047-.719-9.271-6.917-9.896-7.442-1.058-.887-1.498.11-.401.748 1.629.952 5.18 3.679 9.479 6.759l1.62 1.148c-.285.367-1.54 2.008-1.978 2.155-.669.219-3.822-1.614-8.333-4.839-9.508-6.797-3.65-.554 5.37 4.726 1.888 1.106 1.91 1.134 1.346 1.834-1.407 1.76-1.687 1.961-2.099 1.468-.616-.732-12.084-8.866-12.256-7.919-.048.3.385.808 1.064 1.227 1.235.775 4.652 3.046 7.641 5.083 1.035.708 2.15 1.629 2.514 2.078.58.736.565.881-.178 1.777-1.495 1.803-.966 1.365-4.036-.846-.762-.547-8.755-7.057-9.212-6.259-.13.238.38.672 3.766 3.198.17.126 7.46 5.947 7.519 6.149.025.1-.308.506-.756.897-1.04.917-1.409.738-6.764-3.314-4.068-3.08-5.26-3.749-4.648-2.627.348.648 3.823 3.077 4.367 3.051.27-.002.29.076.037.215-.264.147-.174.378.26.668 6.22 4.075 5.804 2.947 2.168 6.965-.605.67-4.15 4.069-4.892 3.531-.482-.347-10.625-8.186-11.078-7.79-.23.199 7.21 6.397 10.121 8.427.688.484.668.604-.233 1.565-.518.544-.74.564-1.17.101-.29-.316-.508-.718-.486-.9.025-.183-.061-.316-.218-.304-.15.005-.951-.541-1.774-1.206a109.927 109.927 0 00-3.056-2.333c-5.357-3.843-5-3.487-4.462-4.477 0 0 7.804-8.411 10.224-11.781.566-.788 2.01-2.535 3.244-3.917 10.726-12.024 24.913-32.902 39.706-66.218 1.38-3.134.695-3.363 2.25-6.794.582-1.27 1.227-3.038 1.427-3.906.449-1.903 1.759-4.968 2.06-4.81.312.157 8.999 3.185 9.335 3.292.996.34 2.298.885 2.911 1.23 1.039.593 1.074.714.708 2.307-7.794 33.198-34.976 71.474-33.985 69.908zm29.761-48.843c-.125.745-.932.257-.817-.457.126-.753.937-.257.817.457zm11.87 1.313c-7.697-3.034-9.643-3.055-9.185-4.504.128-.23 1.894-5.249 2.058-6.303.407-2.515 1.001-2.903 1.518-4.736.298-1.026 3.095.372 10.112 2.314 1.694.464 7.908 2.148 9.808 2.163.383.002 1.47.339 2.467.76 1 .416 1.848.645 1.926.504.4-.712 21.691 7.774 22.527 8.169 12.291 5.915 13.314 6.785 13.314 6.785-3.536 7.769-1.222 4.487-4.057 10.183-1.615 3.239-1.651 4.674-1.651 4.674-.085.151-1.975-.56-4.194-1.572-40.619-18.602-24.488-10.491-44.643-18.437zm6.03-14.797c2.398.65 3.436 1.526-.118.484-2.082-.61-1.975-1.053.118-.484zm22.958 2.034c-.315-.158-.46-.333-.311-.378.333-.087 1.17.805.311.378zm5.348-3.402c1.254-.627 3.579-1.494 2.713-2.542-.516-.627-2.764-1.865-2.757-1.51.007.296-4.128-1.77-4.648-1.659 0 0-8.352-2.682-8.691-2.808-2.371-.872-8.054-1.748-8.054-1.748-.112-.372-4.569-1.573-6.164-1.653-.776-.029-2.088-.356-2.948-.73-2.457-1.04-3.09-.268-5.215-1.167-.142-.062-.129-.34.026-.646 1.14-2.162-.256-3.154 2.227-2.934 1.559.13 1.608.408 4.045.555 5.407.322 32.225 8.03 30.343 8.056.635-.01 7.511 2.797 7.473 1.978-.023-.499.677-.113.434.317-.121.2.184.452.719.622 1.802.556 13.453 5.277 15.75 6.629 1.371.818 1.514 1.026 1.377 1.938-.136.842-1.232 3.897-1.574 4.383-.052.083-.069.54-.042.997.047.735-.068.897-.867 1.21-2.029.8-22.713-8.078-24.147-9.288zm-34.026-31.169c-.012-.541.676-.143.454.256-.207.368-.435.324-.454-.256zm9.182-.39c-.158-.09-.269-.318-.279-.563-.009-.666 1.166 1.06.279.562zm4.613 1.01c.098-.173.309-.22.489-.12.582.327-.959.949-.489.12zm1.285-1.115c.564-.462.696.043.157.337-.566.309-.676.091-.157-.337zm6.552 2.763c-.844.06-1.404-.29-.606-.346.838-.062 1.413.28.606.346zm1.225.297c2.096.204.741.82-.1.316-.623-.374-.618-.39.1-.316zm-38.398-14.17c.083-.146.243-.276.398-.209 1.05.445 12.696 3.235 13.734 3.825 1.154.65-.964.918-2.618.33-1.699-.607-2.544-.852-5.787-1.747-5.516-1.512-6.007-1.696-5.727-2.198zm.48 2.39c-.113-.395 14.362 3.069 13.952 3.793-.1.18-.273.259-.428.192-1.393-.618-9.806-2.74-11.281-3.09-2.244-.538-2.134-.494-2.243-.895zm8.892 3.86c1.524.35 4.575 1.457 4.703 1.484.752.148.205.39.178 1.422-.037 2.459-2.639 1.124-4.658.633-.251-.058-7.149-1.907-7.401-1.836-.514.132-2.581-.93-2.408-1.245.311-.538 11.055 2.625 11.65 2.901.871.426 1.214.426 1.468-.018.387-.68-.214-.967-4.403-2.08-.402-.108-6.488-2.021-6.477-1.612-.001.458-1.333-.786-1.561-.381-.213.376-.653-.246-.266-.93.419-.744 8.338 1.465 9.175 1.661zm-23.728-.605c-.268-.462.158-1.186.684-1.202.541-.018-.417 1.684-.684 1.203zm-11.258 5.808c.467-.823.72.816.15.486-.183-.1-.252-.306-.15-.486zM79.608 70.393c.54-.954.935 1.15.037.641-.173-.098-.189-.368-.037-.64zm-25.065 34.753c-.016-.543 1.077.074.6.341-.2.124-.399.174-.467.134-.074-.042-.127-.231-.133-.475zm-10.21 19.78a.353.353 0 01.49-.124c.405.228-.284.643-.52.506-.088-.048-.07-.202.03-.382zM29.18 161.875c-.01-.54.681-.141.453.257-.238.423-.438.245-.453-.257zm-.304 6.099c-.046-.152.098-.423.293-.589.554-.459-.206.91-.293.589zm5.168 6.92c-.713-.508-1.341-1.203-1.391-1.525-.07-.526-.783-1.203-1.053-2.042-.316-1.002-.032-6.979.367-7.677.145-.257.254-.746.266-1.145.006-.381.215-1.232.477-1.926.56-1.501-.08-1.31.477-2.463.703-1.456.236-1.962 1.097-3.494.328-.571.51-1.216.406-1.412-.114-.195.177-1.013.655-1.859.91-1.611 14.85-39.867 37.646-70.304 1.513-2.017 3.159-4.294 3.686-5.096 0 0 5.272-6.61 9.385-12.265.879-1.216 1.436-1.115 2.78-2.983 1.503-2.084 2.103-2.194 3.742-4.624.138-.207.349-.282.517-.185.332.186.06-1.325.278-.946.21.374.81-.002 1.765-1.093 2.32-2.662 9.726-8.356 9.726-8.356.035-.06-.144-.124-.422-.137-.333-.01 1.319-.395 2.29-1.044 1.131-.75 2.968-1.274 3.846-1.096.787.16 2.163 3.15 1.769 3.84-.137.244-.09.656.1.881.192.22.212.504.037.6-.381.207-.349 1.997-.518 2.46-.251.676.437.918-.062 1.346-.576.48-.326 2.633-.87 3.117-.193.173-.297.546-.219.813.096.355-.125.45-.779.36-4.379-.671-14.798 13.226-17.424 16.75-3.34 4.505-5.018 6.47-9.508 12.986-4.895 7.116-3.856 5.388-6.367 9.18-3.523 5.312-4.667 7.014-6.506 9.689-4.192 6.079-14.678 24.767-20.001 35.605-4.819 9.838-11.344 27.732-7.029 30.174 1.56.882-.63 1.326-1.887 2.524-.748.709-1.092.858-3.98 1.704-1.912.56-2.052.541-3.296-.357zm10.112 4.94c-2.762-2.44-3.096-3.458-.53-1.602.597.437 9.465 6.965 9.733 7.684.175.462.323.537.609.301.485-.399-.186.969-.616 1.087-.475.128-4.091-2.421-5.153-3.637-.486-.553-1.116-1.065-1.38-1.116-.254-.049-.508-.279-.521-.477-.024-.208-1.002-1.233-2.142-2.24zm-3.993-.903c.582-.095 1.443.552 7.169 5.431 5.221 4.459 5.205 3.634 4.376 4.515-.445.466-.705.399-2.155-.564-.893-.593-2.061-1.492-2.548-1.967-6.3-6.111-8.832-7.057-6.842-7.415zm4.53 9.028c-1.972-1.756-4.816-4.425-6.744-6.253-1.06-1.01-.362-1.323.964-.431 1.05.71 2.205 1.672 6.635 5.519 3.178 2.752 4.584 3.208 3.498 4.107-.48.41-.938.099-4.352-2.942zm45.977 49.326c-19.33-15.064-17.193-15.095-25.329-23.731-3.16-3.353-6.951-9.966-6.951-9.966s-4.981-8.423-6.74-9.557c-1.684-1.076-.178-.136 8.956-8.358 2.288-2.058 1.631-.857 9.528 7.776.585.623 2.928 3.782 3.376 4.126.123.087 10.558 10.671 13.447 12.805 3.02 2.228 14.626 13.266 19.606 17.13 1.971 1.518 1.971 1.519.374 2.816-.802.659-1.438 1.348-1.436 1.561-.003.228-.104.319-.268.226-.518-.291-10.626 9.431-11.175 8.149-.114-.27-1.65-1.624-3.388-2.977zm11.211 14.329c-.907-.639-5.33-4.172-6.297-4.493-.44-.151-.717-.367-.637-.506.077-.129-.293-.604-.837-1.056-1.295-1.091-1.123-1.687.808-2.832 10.316-6.078 26.01-20.308 27.213-23.146.281-.644.55-1.033.62-.881.249.479 1.436-.925 1.813-1.201 1.093-.767 1.844-2.985 3.201-3.14.89-.097 1.69-.896 1.105-1.1-.216-.072-.238-.321-.046-.534.208-.214 1.226-1.505 2.302-2.887 14.38-18.577 11.015-13.699 19.915-28.164.803-1.302 1.115-2.063.898-2.188-.179-.101-.064-.203.268-.226.511-.036 1.595-1.795 7.251-11.776 32.761-57.834 31.187-70.733 38.286-90.065.296-.78 3.764-15.414 4.161-16.103.489-.86-.098-.805.116-1.889.506-2.588 11.183 3.274 13.022 3.776.444.129.748.334.663.481-.186.328 3.282 2.211 3.536 2.345-5.153 45.637-36.714 111.183-65.554 147.196-.287.365-2.241 3.123-2.593 2.925-.163-.092-.242-.048-.195.11.38 1.349-16.584 16.749-16.584 16.749.065.035-15.482 13.996-15.661 13.897-.145-.084-.395.057-.53.299-.31.551-8.481 6.427-9.109 6.941-1.579 1.277-1.795 1.194-7.135-2.532zm182.794-147.056c.533.144-1.197 7.285-1.167 7.834.03.539.014 1.109-.046 1.213-.109.195-3.873-2.314-4.052-1.993-.082.145-.248.017-.367-.27-.123-.298-1.44-1.368-2.937-2.386-2.758-1.861-3.416-2.13-4.24-2.895-6.993-6.59-43.08-25.161-45.251-25.06-.406.01-6.182-3.162-6.261-3.445-.297-1.083 1.257-6.13 1.183-6.66-.032-.265.157-.341.464-.188.543.27 28.799 13.896 29.012 13.998 3.709 1.762 28.206 15.674 29.546 16.775 1.551 1.278 3.879 3.019 4.116 3.077zm.254 3.668a.35.35 0 01-.145-.484c.471-.829.73.812.145.484zm-2.764 8.79c.747-.131.78-.369-.754 4.797-2.693 9.09-.905 8.771-5.729 5.179-15.77-11.745-56.722-32.33-58.882-33.304.191-.83.559-2.677.973-3.409.19-.335.304-.757.257-.938-.127-.43.306-2.774.736-4.02 1.036-3.034-.18-4.737 2.036-4.189.887.215 13.751 5.452 16.02 6.468 16.631 7.438 26.91 15.06 37.649 22.88 4.014 2.908 7.263 5.733 7.154 6.222-.062.335.048.404.54.314zm-3.939 14.058c.418-.012.474.782.094 1.45-.165.293-1.479-.621-2.689-1.868-.818-.826-.173 1.243-.702-.053-.366-.896-20.476-12.615-21.327-12.16-.364.191-.474.165-.327-.09.279-.494-.633-.99-.864-.587-.229.404-1.214-.169-.787-.406.303-.161-3.714-2.347-5.224-2.834-1.311-.436-6.196-1.583-6.787-1.605-.548-.012-10.702-5.001-10.995-4.92-.189.051-13.429-7.601-13.479-7.794-.025-.087 1.044-4.314 1.152-4.317 2.02-.041 62.571 33.148 60.342 34.363-.293.157 1.023.842 1.593.821zm-3.553 3.74c.415.786-.754.111-.748-.748 0-.588-.134-.691-1.003-.765-.565-.053-.888-.16-.74-.243.174-.095-10.85-7.362-11.458-7.282-.342.047-.461-.057-.336-.281.102-.18.031-.341-.142-.337-.192.004-1.629-.696-3.211-1.555-3.987-2.179-3.588-1.412-5.813-2.257-1.711-.64-2.551-.579-2.916.205-1.013 2.175-.691.932-1.769.898-.75-.028-26.889-15.081-27.139-14.634-.06.103-.81-.226-1.684-.718-3.711-2.102-4.554-1.163-3.781-3.704.373-.653.187-1.223 1.039-1.205.114.009 21.023 11.382 23.494 12.062 5.895 1.633 8.235.883 29.388 13.613 3.833 2.312 7.346 4.577 7.787 5.03.935.954.935.954 1.657 1.367.294.168.499.723.445 1.218-.085.867-.119.878-.941.151-1.116-.989-2.495-1.516-2.129-.815zm1.913 2.609c.802-.145.682.576-.879 5.315-1.995 6.021-.576 5.331-8.561.377-30.296-18.822-45.947-26.175-55.593-31.514.093-.304 1.401-4.992 1.721-5.008 3.503-.114 32.272 18.638 35.066 17.537.28-.109.733-.506 1.034-.896.474-.623.768-.615 2.707.043 4.312 1.469 23.525 12.778 23.872 14.056.03.1.319.142.633.09zM212.054 103.9c-.12-.215-.127-.478-.027-.659.111-.195.261-.144.37.052.268.472-.077 1.076-.343.607zm24.301 9.162c-.412-.23-.067-.834.338-.606.402.226.062.832-.338.606zm35.976 37.673c.571.147.509.488-.628 3.199-3.038 7.268-3.478 8.768-4.333 11.048-.886 2.347-.502 2.688-1.712 1.746-.894-.702-2.666-1.15-3.147-1.721-.261-.313-2.853-2.067-5.765-3.899-13.41-8.455-50.942-27.818-52.222-28.45.353-.621 1.008-1.697 1.12-2.395.066-.432.26-.495.709-.238.333.186.774.26.951.163.18-.109 1.026.082 1.87.418 9.135 3.646 22.168 11.423 24.368 12.38.174.08 1.474.917 2.91 1.894 3.231 2.181 19.978 11.656 20.971 11.865.417.089 1.083-.115 1.485-.441.612-.493.698-.793.487-1.675-.24-.968-1.235-2.299-1.873-2.484-.163-.053-.151-.158.046-.258.434-.252 2.224.321 4.398 1.417 3.198 1.593 3.873 1.734 4.752.969 1.147-.997.961-1.909-.613-3.014-12.985-9.097-22.288-10.742-20.103-12.556 1.744-1.458-7.067-6.321-36.005-22.753 2.61-4.602 61.611 32.13 61.675 34.297.006.176.309.401.659.488zm-65.877-24.993c.278.257.478.151.683-.368.261-.644.418-.665 1.32-.15 1.6.909 3.124 1.318 3.108.837 0 0 26.784 16.419 28.191 16.714 1.978.413 1.051-2.742-.148-2.617-.098.009-.268-.234-.399-.564-.291-.73-4.48-4.051-5.58-4.421-1.129-.387-.075-.446-.991-.967 0 0-2.429-1.879-5.233-3.601-1.711-1.063-3.165-2.057-3.214-2.204-.124-.389-1.607-.194-1.41-.541.285-.501-12.347-7.746-12.991-7.832-1.077-.149-.588-.24-.452-1.171.336-2.218 20.991 10.414 22.934 11.6 10.948 6.703 11.93 7.42 11.401 8.362-1.171 2.07 4.09 3.628 13.327 8.472 3.173 1.653 3.767 1.869 4.202 1.517 1.107-.883-.559.384.666 1.081 1.605.91 6.01 4.78.58 1.868-1.288-.689-1.75-.79-1.941-.449-.344.606-.97.245-.42-.216.699-.582-2.897-.995-2.886-.629.004.203-.139.343-.355.35-.198.007-.454.322-.552.67-.17.594-.055.888.65 1.686.559.626.676 1.647.213 1.8-.509.164-3.791-1.681-26.088-14.649-20.699-12.046-22.597-11.471-24.858-11.692.082-.355.648-2.545.279-2.578-.375-.031-.548-.78-.036-.308zm23.688 10.228c-.117.207-.258.104-.414-.318-.266-.7-16.299-9.991-19.862-11.509-1.829-.778-1.975-.907-1.828-1.595.183-.851 1.05-1.078 1.614-.415a.643.643 0 00.785.158c.365-.19 2.013.745 7.874 4.471 22.942 14.552 18.043 13.083 17.389 12.459-.337-.326-.797-.487-1.036-.356-.249.138-.439.075-.449-.156-.014-.21-.895-.99-1.949-1.72-1.321-.918-1.998-1.234-2.124-1.019zm34.516 32.777c.934.468.912.766-.271 3.451-.365.832-.659 1.687-.652 1.906.007.228-.247.26-.58.074-.968-.553-2.311-.556-1.269-.678.508-.063.428-.196-.431-.646a16.112 16.112 0 01-2.04-1.327c-3.498-2.75-31.852-20.482-33.216-19.244-.368.336-.014 2.148.466 2.429.741.416-.837.334-.812 1.091.035 1.261-10.083-4.185-12.377-5.172-.319-.135-12.57-6.163-12.849-6.081-.6.178-.716-.567-.257-1.54.276-.571 2.176-4.497 1.55-4.472-.297.019-.274-.081.049-.256.787-.42 1.337-1.278 1.543-2.362.095-.544.312-1.016.464-1.017 0 0 15.2 7.882 17.532 8.933 18.039 8.211 41.506 24.074 43.15 24.911zm-15.405 2.427c-.173.307 1.287.553 1.102.881-.073.124.608.671 1.53 1.231 2.566 1.543 3.766 2.925 6.689 4.653 2.45 1.447 2.894 1.926 2.485 2.645-.323.577-.547.479-5.808-2.615-3.021-1.779-5.56-3.372-5.665-3.55-.269-.451-2.861-2.291-3.201-1.692-.164.295-.24.241-.26-.209-.04-.865-11.585-7.472-12.329-7.064-.826.448-.21-.503-.961-.676-1.098-.238-4.987-2.244-4.845-2.494.079-.14.516-.167.925-.05.959.264 4.112-.806 5.069-1.107.307.201 11.671 7.256 11.494 7.568-.183.325 3.928 2.215 3.775 2.479zm-22.753-9.77a.349.349 0 01.485-.127c.58.327-.952.951-.485.127zm17.628 4.991c-.115.728-.769.417-.352-.319a.655.655 0 00-.206-.874c-.64-.415-8.746-5.551-9.393-5.961-2.532.739-6.101 2.209-11.041-.559-2.496-1.402-4.956 1.565 8.618 7.513 7.1 3.116 33.196 18.589 26.956 18.112-.533-.031-.851-.188-.757-.356.1-.177-.109-.306-.531-.321-.77-.04-27.355-15.279-27.458-15.551-.224-.581-.254-.591-.243-.058.024 1.049-.1-.422-1.15-.79-1.196-.429-31.311-16.105-31.272-17.593.016-.897 1.485-3.33 1.933-4.117.757.57 2.32 1.883 3.267 1.9 1.665.035 13.091 6.217 19.372 9.124 3.755 1.739 5.166 1.574 5.713-.673.145-.598.292-1.063.342-1.073.637-.142 22.859 11.321 33.643 20.518 1.236 1.058 1.349 1.281.976 1.935l-.414.74c-2.529-1.555-7.02-4.227-10.308-6.773-.789-.623-7.527-5.821-7.695-4.824zm3.469 14.744c2.838 1.742 6.012 3.761 7.032 4.465 3.045 2.116 3.412 1.686 2.739 3.012-.332.655-7.009 15.44-7.732 15.308-.289-.049-61.487-33.869-61.682-33.977l-1.538-.888c.42-.658 2.958-4.31 2.62-4.975-.212-.405-.19-.437.148-.246.569.321 6.704-11.744 6.397-11.164 25.237 12.976 13.77 5.029 52.016 28.465zm-21.237 33.963c-1.298-.591-3.158-1.562-4.106-2.142-.947-.581-1.724-.896-1.714-.696.005.211-.428.01-.999-.458-2.118-1.753-19.344-10.061-19.344-10.061.434-.239-24.124-14.264-24.553-14.504.101-.172 9.568-15.705 9.763-15.76.198-.052 13.521 6.861 13.703 6.962 19.163 9.86 39.537 21.372 48.297 27.297 1.216.82 1.15 1.067-1.678 6.017-.378.665-5.076 9.222-5.815 9.425-.776.211-10.814-4.814-11.34-4.668-.658.178-1.247-.224-.467-.28.437-.029-.099-.376-1.747-1.132zm-10.989-4.483c-.18-.102-.241-.311-.142-.481.469-.831.72.804.142.481zm20.836 12.881c1.663.865 1.755.975 1.539 1.791-.127.474-4.502 6.884-4.664 7.284-.51 1.247-.51 1.247-1.996.85-1.945-.514-9.543-4.448-10.754-5.566-.523-.482-1.291-.927-1.733-.992-.435-.069-.799-.291-.81-.5-.012-.202-.247-.404-.505-.449-.814-.129-1.74-1.583-1.592-2.496.127-.842-.007-.999-1.685-1.917-1.006-.546-1.823-.84-1.819-.654-.002.184-.27.012-.573-.361-.309-.374-.662-.678-.766-.648-.523.155-10.905-5.532-11.574-5.54-.467-.008-.683-.093-.496-.207.194-.109-.211-.438-1.001-.799-6.892-3.167-18.849-9.776-25.18-13.932-3.285-2.154-3.471-2.241-3.68-1.634-.134.407.047.792.52 1.088.418.259 1.079.766 1.53 1.174 6.389 5.722 37.107 19.87 40.017 21.641 6.411 3.898-1.763 2.338 13.991 10.697 2.782 1.483 5.203 2.879 5.401 3.119.354.429.2.755-2.36 4.938-.554.917-.641.921-2.233.291-.912-.36-8.135-3.714-9.047-3.589-.517.078-.556.037-.154-.188.406-.22.232-.373-.949-.813-.801-.298-4.689-2.29-8.616-4.424-7.904-4.276-17.731-9.357-17.731-9.357-.724-.402-1.063-.411-1.227-.037-.766 1.763-1.57 1.174-.631.079 0 0 .539-.626.695-.805-.718-.386-4.917-2.784-5.717-2.679-.473.062-.521.027-.183-.168.676-.381-1.007-1.142-1.426-.9-.078.048-17.566-10.414-18.016-10.987-.828-1.03-.417-.4 3.72-6.657.036-.062 7.645-10.507 7.579-10.488 62.675 36.27 60.4 31.944 60.231 31.685.155.098.252.409.208.695-.06.402.367.763 1.687 1.455zm-33.906 20.432c-.48-.061-.921-.224-.953-.35-.075-.29-2.735-1.023-3.79-1.051-.386-.013-.776-.153-.867-.309-.256-.473-1.862.184-1.83.75.005.289-.074.338-.191.118-.108-.204-.479-.09-.795.245-.951.989-3.247.307-9.071-2.696-7.702-3.955-2.653-.836-11.999-6.215-14.287-8.225-12.785-6.931-19.254-10.508-1.217-.67-1.443-.698-1.559-.166-.125.567-.138.564-.175-.077-.038-.556-.345-.828-1.479-1.301-1.419-.586-1.428-.599-.797-1.37.358-.431.677-.78.731-.794 32.822 16.458 40.106 21.046 43.364 18.762 1.351-.956 2.879-.715 6.229.97.926.465 20.528 9.615 21.032 8.725.348-.61 1.058-.47.953.177-.043.334-.314.631-.557.642-.262.011-.779.456-1.158 1.003-.632.878-.833.93-1.992.504-2.77-1.015-4.33-1.699-7.31-3.201-5.33-2.687-7.186-3.461-7.643-3.211-.344.191-.388.158-.221-.142.163-.27-.044-.412-.668-.505zm-9.797 5.619c-.153.272-.293.294-.32.058-.095-.86-14.202-8.199-14.803-7.703-.173.143-.302.075-.318-.159-.019-.23-1.091-.931-2.515-1.645-.355-.178-27.682-15.377-27.776-15.696-.07-.269 2.084-2.648 2.101-1.884.014.605 2.693 2.156 21.13 12.232 8.054 4.397 24.054 13.78 24.639 9.894.4-2.734 19.95 6.631 21.759 7.738 2.361 1.434 2.241.544-2.501 5.608-3.472-.997-9.241-3.515-9.241-3.515-.765-.172-6.404-3.074-7.151-2.696-.321.16-.418.104-.437-.269-.035-.582-4.143-2.709-4.567-1.963zm13.086 7.853c-.371-.215-.308-.439.259-.456.537-.009.14.68-.259.456zm-30.139-20.767c.461-.124.482-.064.088.269-.669.579-.877-.053-.088-.269zm-7.64-4.266c-.307-.157-.454-.332-.306-.378.323-.089 1.171.809.306.378zm18.361 10.079c.156-.28 1.786-.234.706.159-.725.269-.927.224-.706-.159zm21.89-.461c-1.373-.736-3.126-1.615-3.878-1.938-6.506-2.838-6.828-4.102-10.267-2.962-4.666 1.548-6.971-.125-15.221-4.309-.339-.168-26.108-13.449-26.468-13.364-.278.076-1.02-.368-.918-.548.992-1.746 3.057-.549 17.951 7.352 7.384 3.919 10.845 5.664 11.248 5.668.156.002.839.287 1.52.635 1.731.879 2.352.97 2.939.415 2.198-2.055-7.233-7.84-5.658-6.876 6.442 1.478 33.462 16.126 40.661 18.611 3.768 1.302 3.682 1.244 3.207 2.082-.427.743-.523.744-1.94-.058-.814-.468-1.636-.764-1.802-.664-.628.364-10.73-3.707-11.374-4.044zm-25.166-15.853c-.312-.156-.456-.33-.309-.374.314-.082 1.184.811.309.374zm11.763 5.299c.572-.487.731-.333.404.237-.341.596-.968.242-.404-.237zm2.134.354c-5.014-2.588-19.114-8.758-19.114-8.758-2.945-1.623-4.486-1.999-4.928-1.205-.359.625-.085.92 2.62 2.897 2.902 2.121 7.669 6.36 7.492 6.674-.31.543-27.918-14.76-28.796-14.52-.562.157.06-1.005 1.445-2.694.063-.095 4.766-5.669 4.89-5.778.022-.015.373.228.793.538 2.184 1.604 23.239 15.029 25.128 14.724.615-.101.66-.07.259.145-1.596.86 29.637 15.715 34.683 17.734 3.931 1.58 4.266 1.763 4.005 2.218-.157.285-.52.383-.823.23 0 0-6.432-2.01-10.456-3.995-1.863-.928-3.912-1.818-4.578-2-1.678-.449-9.98-4.848-12.62-6.21zm2.077-2.203c-.31-.147-.459-.33-.307-.366.339-.094 1.171.806.307.366zm-12.227-7.676c-.372-.211-.312-.438.258-.454.545-.014.143.679-.258.454zm13.878 44.902c-.101.464-.147.468-.2.031-.043-.452-.484-.761-1.794-1.269a55.032 55.032 0 01-5.285-2.412c-.49-.255-.701-.218-.691.135.004.377-.054.341-.249-.16-.159-.399-.706-.84-1.358-1.091-.207-.081-9.531-4.621-9.656-4.59-.399.108-4.543-2.732-4.675-3.207-.108-.4.094-.452.849-.236 1.341.376 3.141.171 3.801-.445 1.551-1.439 2.345-.388-37.959-23.843-1.715-.991-1.085-.599.789-2.761l.578-.67c1.644.903 54.013 29.606 66.647 35.072-.218.303-1.837 2.633-2.166 2.807-.284.156-1.687 1.761-2.053 2.351-.13.214-.346.322-.479.248-.132-.075-.455.141-.71.475-.546.725-3.531.387-4.605-.518-.517-.426-.678-.405-.784.083zm-5.984 8.695c-.29.516-10.183-4.039-10.712-4.3-25.302-12.389-19.068-9.459-38.081-20.353-13.145-7.533-16.329-9.506-16.071-9.967.666-1.178 9.566-8.819 8.578-7.965 13.712 8.499 8.483 5.504 29.826 17.692l-1.293.39c-3.382 1.013-.757 4.5 6.374 8.444 25.956 14.393 28.931 12.216 26.454 14.219-2.792 2.254-2.415 3.327-3.968 2.291-.55-.375-1.039-.574-1.107-.451zm-19.341-7.36c-.402-.23-.063-.837.344-.608.408.233.067.841-.344.608zm2.126.803c.021.55-.971-.023-.849-.239.182-.328.836-.145.849.239zm6.576-4.703c.487 1.169-.02 1.272-.19.028-.1-.669-.077-.676.19-.028zm-14.512-9.063c.113-.192-.841-.785-1.037-.906-1.417-.796-1.531-1.347-.392-1.901 1.175-.566 1.721-1.634 1.149-2.245-.331-.346-27.408-16.583-27.739-16.77-3.009-1.701-2.207-1.214-.781-2.834.562-.641.684-.625 1.593.169 2.278 2.015 14.337 9.165 29.553 17.542 7.235 3.981 7.181 3.95 6.553 4.121-.617.174-2.209-.504-3.07-.623-.814-.116-1.115.036-1.388.693-.477 1.124.715 3.205 1.742 3.031.487-.083.551-.05.238.133-2.1 1.187 26.198 13.489 27.867 14.265-2.152 1.751-1.437 1.383-6.295-.073-1.053-.304-28.398-13.877-27.993-14.602zm11.149-2.785c-.207.368-.438.322-.452-.255-.015-.547.68-.15.452.255zm-2.755 39.439c-.369.096-.852-.017-1.034-.251-.193-.231-.555-.329-.79-.204-.817.429-4.119-1.769-4.836-1.398-.265.128-.442.028-.528-.301-.084-.309-.866-.807-1.987-1.284-1.02-.436-3.613-1.75-5.804-2.953-2.738-1.49-4.057-2.065-4.28-1.86-.231.208-.303.169-.247-.163.041-.256-.103-.448-.328-.436-1.036.041-9.816-5.874-10.564-5.834-.335.021-.717-.18-.903-.469-.354-.542-8.452-5.936-8.425-5.113.007.388-.045.359-.244-.139-.17-.426-1.674-1.48-4.448-3.12-2.295-1.356-4.107-2.527-3.984-2.598.368-.206-2.798-1.435-3.445-1.341-.482.069-.512.034-.142-.171.362-.2.046-.477-1.481-1.296-2.809-1.503-1.652-1.253-4.23-2.974-.453-.306-7.664-4.945-7.691-5.491-.007-.216 1.2-1.205 2.696-2.192 2.541-1.684 6.561-4.967 7.921-6.281 2.083-1.997 3.801-3.123 3.736-3.078 1.803 1.069 33.733 21.652 59.342 32.767 10.162 4.406 7.491 3.045 6.349 4.523-1.674 2.168-10.364 9.814-12.108 10.954-.495.323-.959.874-1.012 1.19-.199 1.254-.232-.849-1.533-.487zm28.665 11.187c.102-.18.311-.227.493-.126.58.331-.959.947-.493.126zm53.713 8.234c-.463-.055-3.104-.502-3.326-.112-.087.154-.362.079-.615-.171-.504-.491-5.881-1.013-7.06-.69-.378.098-.621.044-.527-.122.106-.191-.237-.299-.848-.265-.56.033-1.547-.082-2.177-.242-4.028-1.046-4.605-1.119-4.801-.591-.259.731-.966.219-.495-.045.948-.545-3.354-1.21-4.431-1.326-1.392-.14-3.954-.715-5.13-1.141-.926-.341-2.382-.223-2.169.17.105.196-.413.03-1.143-.365-1.589-.857-4.365-1.197-4.351-.542.014.251-.095.154-.241-.222-.196-.497-.44-.658-1.005-.665-1.118.004-16.942-4.383-17.792-4.143-1.443.401-.64-.808 1.82-2.73a189.536 189.536 0 013.918-2.969c1.397-.998 1.742-1.403 1.501-1.804-.092-.154-.033-.152.123-.006.265.25 3.131-2.169 5.314-4.483 1.745-1.844 3.684.408 7.632.909 1.371.171 1.477.204 3.865 1.125.849.323 1.534.43 1.54.234.001-.368 1.196-.533.47-.132-1.945 1.093 42.889 12.5 42.934 13.454.016.419-2.947 3.206-6.816 6.398-1.808 1.509-1.673 1.017-6.19.476zm-6.843-34.275c.804.195 15.772 4.787 16.179 4.075.105-.186.201-.108.221.183.018.398.522.612 2.297.996 2.062.444 3.011.674 5.504 1.331.453.116.793.013.793-.235-.006-.259.088-.262.229-.016.236.451 4.801 1.933 5.576 1.821.245-.037.994.145 1.689.402 1.306.492 3.861.709 3.861.709.115.066-.61 1.095-1.629 2.312-1.57 1.865-1.799 2.266-1.567 2.696.452.845-.026.395-.783-.731-.452-.678-.845-.996-1.069-.868-.373.203-1.788.005-2.657-.365-1.507-.64-4.367-1.385-4.359-1.135.011.162-.329.024-.744-.299-.42-.329-1.395-.667-2.183-.758-.784-.093-1.495-.307-1.581-.472-.089-.175-1.74-.772-3.693-1.335-3.708-1.071-14.197-5.039-14.803-3.967-.308.542-.159 1.342.294 1.596 1.374.781 1.628 2.172.394 1.125-.731-.608-1.64-.289-1.247.444.224.404.172.447-.257.203-.866-.492.397-1.138-.586-1.382-3.874-.95-9.787-4.073-19.064-7.355-2.62-.932-2.644-.954-1.959-1.981.193-.344.59-.992.268-1.225-.738-.529-.7-.626.157-.415 1.87.459 2.534-2.995 4.189-1.422.911.869 12.253 5.031 16.53 6.068zm13.444-15.216c.813.036 3.267.804 3.617 1.132 1.291 1.182 26.751 9.491 29.906 10.23l-.671 1.197c-.48.845-.812 1.117-1.127.939-.246-.138-.543-.101-.642.073-.11.195-.345.15-.555-.111-.199-.244-1.054-.572-1.882-.726-2.418-.439-11.414-3.659-14.276-4.84-1.715-.721-21.017-7.555-26.947-10.108-8.507-3.67-8.36-2.549-6.775-4.606.262-.469 1.007-1.251 1.488-.981.707.408 9.862 4.3 10.621 4.618.428.187 5.483 2.531 5.842 2.237.138-.117.366.055.475.351.148.377.459.572.926.595zm5.858-18.94c.601.295 5.099 2.867 5.078 2.256.002-.318.113-.26.406.206 1.072 1.706 24.278 10.069 24.656 9.407.331-.59.999-.139.527.122-1.079.607 6.409 2.371 7.546 2.516.445.055.408.29-.179 1.155-4.012 5.943-1.624 3.915-6.086 3.39-.558-.075-.984-.196-.936-.279 0 0-1.551-.192-19.223-6.448-4.876-1.723-5.296-1.816-5.95-1.271-1.277 1.041-.232 2.348-4.936.302-9.17-3.961-18.942-8.661-18.942-8.661-.317-.266-.208-.676.444-1.665.476-.848 4.191-5.486 4.039-6.356-.173-1.028.388.086.795-.632.161-.287.65-.158 1.638.424 1.196.711 4.206 2.212 11.123 5.534zm14.104 4.999c-.781.048-1.035-.089-1.05-.59-.01-.228.345-.199.83.073.664.37.713.485.22.517zm1.83.647c-.466.258-.596.186-.607-.343-.008-.539 1.083.075.607.343zm-7.103-3.385c.117.466.065.859-.115.832-.201-.033-.236.161-.076.449.3.572.012.476-.535-.181-.21-.247-.187-.798.058-1.225.42-.753.434-.753.668.125zm-2.991 11.49c.364-2.278 3.337-.681 9.565 1.584 8.695 3.155 4.073 1.296 10.973 3.637.119.04 7.597 2.434 7.618 2.555.012.084-.705 1.183-1.595 2.435-3.299 4.599-2.979 5.045-3.69 4.258-.678-.747-.525-1.644-.924-.944-.648 1.155-.535-1.397-1.008.031-.158.469-.335.559-.56.285-.491-.605-2.535-.751-3.233-.976-2.301-.785-5.802-1.121-13.583-4.517-5.863-2.56-7.412-3.243-10.283-4.359-3.138-1.217-4.736-1.886-5.539-2.322-.423-.232-.812-.185-.981.119-.223.393-.289.374-.315-.076-.027-.443-.412-.717-1.632-1.167-1.756-.645-10.854-4.045-13.679-5.51l.859-1.23c2.909-4.167 1.765-4.336 7.268-1.575 1.651.822 20.368 10.111 20.739 7.772zm-18.87 6.797l31.423 11.427c.571-.025 5.444 1.717 5.604 2.005.082.157.323.144.515-.03.7-.598.524.375-.225 1.266-.778.922-1.031.908-3.023-.071-.312-.15-.611-.195-.669-.095-.055.098-.823-.026-1.711-.277-2.541-.727-4.007-1.588-10.686-4.21-9.195-3.61-11.835-6.056-12.417-3.975-.219.808-1.337.537-6.728-1.625-19.888-7.97-19.658-5.655-17.657-8.29.057-.103 1.138-1.478 1.255-1.513.255-.075 4.938 1.692 14.319 5.388zm41.6 22.58c-5.082-1.571-5.082-1.571-5.19-1.951-.061-.227.913-1.162 1.628-1.554.413-.223 7.099 2.329 10.325 3.938l3.912 1.97c-1.307 1.648-.9 1.751-3.762.265-1.389-.719-4.474-1.911-6.913-2.668zm8.441 5.167c-1.781 1.12 1.348 2.111-6.417-.368-10.62-3.378-10.229-2.828-9.053-4.278.088-.159.897-1.039 1.098-1.093.674-.194 8.244 2.267 10.933 3.565 1.596.77 3.133 1.345 3.446 1.298.799-.118.796.376-.007.876zm-42.296-20.32c-.21.372-.437.328-.453-.255-.01-.542.68-.14.453.255zm-2.849-.245c2.215.939 4.404 1.014 4.888.162.442-.787 1.474-.002 2.378.378 5.401 2.206 14.683 6.687 22.756 9.507l-1.18 1.607c-1.381 1.893-1.557 2.036-2.135 1.706-.244-.137-.535-.115-.624.046-.096.17-.506.115-.927-.128-.421-.235-1.048-.435-1.412-.453-1.635-.072-2.657-.252-3.706-.641-.63-.226-1.416-.375-1.712-.317-.316.058-.643-.047-.747-.237-.097-.189-.844-.412-1.633-.488-1.363-.135-6.126-2.33-7.342-1.803-.605.258-1.169.106-.661-.177.327-.175-2.415-1.004-2.882-.869-.129.034-.79-.205-1.476-.541-.286-.134-17.754-5.846-18.038-5.899-.724-.137-1.355-.348-1.39-.467-.042-.125-1.067-.513-2.265-.861-2.108-.603-3.448-1.088-6.056-2.181-.673-.285-1.349-.494-1.451-.458-.113.038-.343-.109-.53-.338-.235-.294-.11-.682.454-1.4 0 0 1.446-1.816 2.41-3.347 1.386-2.177 20.866 6.171 23.281 7.199zm15.314 19.049c-.309.546-.528.519-.544-.065-.016-.509.877-.53.544.065zm-17.058-5.024c-.178-.107-.245-.313-.15-.489.475-.826.728.813.15.489zm-22.426-4.838c.043.583 13.809 5.798 16.209 6.14 1.141.159 1.468-.186 1.18-1.243-.269-.966.151-1.596.814-1.217 1.27.718 25.61 8.398 25.62 8.38.07-.126.258-.151.437-.047.418.233-.906 1.702-1.173 2.112-.202.3-.308.186-.382-.423-.061-.47-.203-.682-.322-.479-.129.194-.462.206-.756.033-1.165-.691-3.999-1.19-4.137-.734-.105.342-.209.33-.357-.057-.158-.39-.611-.609-1.618-.8-.759-.143-1.931-.508-2.539-.794-1.379-.665-1.674-.473-3.77-1.016-.929-.247-1.482-.219-1.473.062.022.277-.07.271-.227-.016-.252-.465-3.007-1.139-2.998-.735.009.136-.505-.044-1.144-.392-3.674-2.036-1.868 2.52-6.192.449-1.625-.775-9.29-3.145-10.729-4.138-.2-.131-.438-.127-.528.027-.089.159-.237.187-.36.065-.254-.241-4.463-2.042-5.452-2.332-1.118-.322-.46.614-1.395-.164-.419-.354-7.248-2.987-7.764-3.156-3.178-1.062-3.178-1.062-2.885-1.577.168-.299.709-.806.979-1.028.584-.48.929-.487 1.72-.043 1.439.817 6.198 2.288 7.513 2.982.494.249 1.059.3 1.292.111.222-.192.42-.176.437.03zm13.943 9.782c.593.225 1.076.234 1.063.019-.023-.527.665-.114.481.215-.177.314 3.03 1.474 4.3 1.553.611.042 1.099-.19 1.35-.63.951-1.684 7.181 1.349 8.889.659.381-.146.576-.128.472.053-.193.344 3.027 1.486 5.701 2.027 4.684.954 6.189 1.882 4.641 2.867-.807.518-3.79 4.002-4.43 4.715l-1.416-.318c-2.343-.525-2.59.026-5.243-.772-.984-.289-1.782-.395-1.776-.224.004.158-.306.04-.659-.257-.756-.63-1.901-.272-3.035-.763-.548-.225-1.144-.367-1.304-.292-.447.201-2.343-1.207-2.532-.735-.142.375-18.425-5.921-18.664-5.5-.089.161-.23.134-.349-.077-.28-.481-7.11-2.225-7.327-1.837-.133.227-.236.168-.341-.209-.115-.422-.429-.581-1.36-.7-.677-.077-1.242-.25-1.277-.377-.041-.133-.437-.246-.909-.254-.465-.013-1.397-.254-2.045-.517-.64-.271-1.307-.388-1.442-.26-.148.139-.37.09-.538-.109-.16-.189-1.328-.688-2.635-1.123-2.853-.938-4.126-1.556-3.318-1.597a.732.732 0 00.666-.609c.054-.337.212-.523.365-.436.51.292 3.082-2.653 3.51-3.063 2.056-1.969 1-1.655 7.941.787l21.221 7.764zm14.809 10.619c.578.33-.956.949-.493.122.103-.175.312-.225.493-.122zm-16.653-4.121c.462-.127.463.462-.004.712-.737.404-.34-.623.004-.712zm-5.282-1.51c-.366-.211-.329-.44.258-.456.541-.015.145.685-.258.456zm28.275 18.564c-.65.557-1.745.012-.181-.28.545-.098.58-.044.181.28zm14.25-.077c-.278.487-11.157-.496-13.08-1.177-.642-.227-4.012-.789-4.057-.779-.432.131-.79-.169-.601-.499.295-.525 7.635.33 7.961.514.244.137 2.553.416 8.547 1.019 1.09.111 1.507.427 1.23.922zm2.648.666c-.31-.155-.455-.33-.307-.376.335-.088 1.177.807.307.376zm-15.104-4c-.232-.129-1.139-.236-2.022-.227-1.957.012-1.912-.096-1.068-.968.538-.953 16.758 1.622 17.565 2.087 2.498 1.413-12.863.013-14.475-.892zm16.13-.336c-.388.672-.271-.132-.948-.017-.447.078-4.734-.504-13.371-1.795-2.16-.324-4.51-.524-2.953-1.375.551-.297 6.824.246 8.082.695.203.079 1.154.284 2.16.471 4.545.863 7.727.793 7.03 2.021zm-1.811-2.291c-1.074-.21-13.842-1.851-13.52-2.899.094-.303.21-.524.281-.525.79-.019 7.173.969 7.842 1.06.95.116 3.337 1.067 4.239.738.272-.104 2.738.997 3.045 1.109 2.488.937 1.553 1.196-1.887.517zm5.522-1.479c-.385.646-1.513.508-5.573-.681-1.57-.464-10.351-2.064-10.727-1.961-.448.129-1.136-.316-.964-.624.792-1.389 9.185.61 10.7 1.028.896.248 1.604.279 1.556.065-.05-.22.02-.205.165.032.393.652 5.213 1.524 4.843 2.141zm.696-1.479c-.246-.203-.71-.346-.986-.298-.288.041-1.062-.094-1.701-.309-7.83-2.572-15.481-1.9-12.685-3.709 1.337-.857 14.33 3.07 15.85 3.509 1.092.319.082 1.267-.478.807zm3.464-3.094c.028.069-.37.389-.907.724-1.384.864-8.988-1.374-14.652-2.73-2.077-.487-2.077-.487-1.62-1.03 0 0 .444-.539.559-.685.169-.218 4.983.49 7.76 1.146 2.951.697 8.8 2.395 8.86 2.575zm1.201-1.336c-.272.471-.968.368-3.863-.569-2.831-.916-9.486-2.55-11.017-2.708-1.701-.176-1.936-.324-1.321-.823.712-.572 1.874-2.596 2.549-2.157 0 0 8.148 2.194 13.289 4.359 2.252.954 1.083.623.363 1.898zm.902-2.521c-3.404-1.769-2.664-.935-5.172-1.906-7.928-3.024-10.091-1.889-8.42-3.676.021-.034.678-.711.734-.743 1.22-.558 13.968 5.948 14.234 4.546.198-1.044-12.381-5.35-13.034-5.029-.232.117-.143-.278.198-.885.654-1.147.654-1.147 3.783.016 1.751.639 6.631 1.785 9.576 3.063.772.334 1.502.559 1.66.519.573-.163.649 1.044.082 1.403-.31.197-1.034.991-1.624 1.779-1.007 1.342-1.111 1.385-2.017.913zm10.843-6.601c-.566.877-1.374 1.872-1.768 2.194-.47.371-.699.771-.64 1.098.15.838-.768.257-.774.901.003.2-.183.362-.426.375-.294.012-.394.217-.315.656.091.535.051.589-.243.324-.249-.216-.723.115-1.5 1.032-1.368 1.621-1.737 1.372.893-1.673.186-.332 1.859-2.119 1.848-2.568-.003-.243.109-.34.278-.244.16.09.774-.478 1.393-1.288 1.679-2.202 2.491-2.727 1.254-.807zm-1.481-3.337c-.147.228-.452.158-.82-.183-.319-.301-2.271-1.23-4.315-2.044-2.05-.819-4.177-1.748-4.718-2.052-.543-.305-1.037-.455-1.105-.33-.165.293-2.875-1.292-3.161-1.453l.801-.982c.722-1.268 1.022-.974 1.908-.642 2.374.883 7.786 2.677 10.957 4.113l2.324 1.06c-.335.448-1.58 2.034-1.871 2.513zm9.132-6.588c.183.662-1.499.806-1.099.096.205-.355 1.003-.437 1.099-.096zm1.994-1.424c-.308-.157-.452-.335-.305-.376.341-.091 1.171.803.305.376zm-1.59-4.537c-.709.473-2.811 3.461-3.403 4.143-.463.53-3.357 5.008-3.763 4.498-.338-.419-.801-.148-1.452-.431-.907-.398-8.32-3.06-10.28-3.803-.626-.23-1.237-.407-1.34-.378-.675.173-.652-.406.071-1.473 0 0 .791-1.177.817-1.22l3.855 1.289c2.11.702 5.067 1.934 6.544 2.728 2.63 1.404 3.652 1.591 3.117.558-.394-.743-7.379-3.801-11.88-5.208-.929-.286-.935-.322-.106-1.572l.842-1.28c3.754 1.192 8.963 2.935 12.468 4.728.865.449 1.311.498 1.492.178.198-.353-.134-.678-1.544-1.492-2.85-1.646-1.539-.68-3.23-1.327-8.664-3.327-8.816-2.612-7.863-3.816.415-.519 1.253-2.076 1.798-1.807.958.462 5.279 1.522 8.752 2.635 2.127.672 4.171 1.316 4.536 1.417.929.262 1.25 1.181.569 1.633zm4.578-7.416c-.374.239-1.205 1.42-1.836 2.615-.642 1.195-1.357 2.221-1.608 2.274-1.315.261-11.306-3.416-12.699-3.538-1.368-.119-1.96-.8-1.374-1.591.071-.127.975-1.251 1.086-1.381.303-.372 1.134-1.492 1.829-2.458 1.071-1.506 1.367-1.739 1.966-1.535 1.666.573 10.014 3.773 11.583 4.446 1.67.709 1.711.753 1.053 1.168zm.271-5.659c-.191.233.038.542.672.908 1.253.703 1.341 1.235.438 2.439-.724.962-.824.977-2.064.354-1.147-.579-8.615-3.611-8.811-3.582-.112.018-2.865-1.326-2.963-1.371l1.085-1.512c1.44-2.542 1.892-1.956 7.118.95 2.39 1.335 4.02 2.095 4.018 1.863 0-.53.884-.483.507-.049zm3.944-1.785c.322.23.252.546-.267 1.25-.371.506-.79.917-.892.881-.839-.277-11.428-5.751-12.239-6.181l.793-.99c.065-.115.843-.994.989-1.033.357-.102 10.178 5.031 11.616 6.073zm2.633.24a.346.346 0 01-.143-.477c.067-.111.198-.293.311-.231.233.136.236.941-.168.708zm-.568-4.159c.05.194-1.08 3.011-1.009 2.832-4.022-1.647-4.511-1.921-12.063-6.202l.905-1.181c.273-.486.977-1.139.497-1.437-.274-.168-.172-.257.303-.259.647-.013 11.251 5.823 11.367 6.247zm-20.464-.603c-4.983-1.845-4.258-.356-10.782-3.472-1.847-.882-6.639-2.615-6.637-2.397.008.132-.517-.066-1.177-.451-2.374-1.379-7.655-3.144-9.613-4.373-.498-.314-1.347-.652-1.95-.776-1.588-.342-15.742-7.598-18.184-8.352-3.239-.995-2.336-1.559.065-5.425 8.945-14.416 5.637-12.189 9.067-10.353 14.477 7.732 15.771 8.466 15.912 9.025.119.476.272.546.698.355.716-.339 13.075 6.818 13.064 6.278-.012-.231.091-.164.226.155.278.646 12.764 7.723 14.153 8.017.643.131.748.234.42.408-.517.284 1.269.137 1.686.086-2.93 4.547-3.52 5.555-6.948 11.275zm-45.571-33.161c-.264-.465.033-.981.431-.757.402.23-.161 1.23-.431.757zm59.393 23.294c.882.523 2.949 1.864 4.621 2.996 1.672 1.131 3.411 2.23 3.893 2.449.842.381.849.436.093 1.765-.466.822-.642 1.455-.449 1.564.225.125.13.271-.287.441-.514.207-1.503-.275-5.802-2.81-2.835-1.677-5.233-3.205-5.291-3.394-.132-.443 1.426-3.532 1.624-3.956l1.598.945zm3.304-2.98c1.412.941 2.778 1.893 3.024 2.114.249.219 1.44 1.078 2.638 1.911 2.143 1.489 2.184 1.541 1.817 2.462-.209.527-.611 1.017-.89 1.098-.489.149-4.601-2.31-8.762-5.237-2.172-1.523-2.188-1.172-.406-4.067l2.579 1.719zm3.386-2.254c.907.73 2.746 1.969 4.124 2.777l2.485 1.439c-1.809 2.686-.584 2.982-7.576-1.809a281.608 281.608 0 01-4.011-2.785c-.165-.126.005-.645.416-1.213.67-.923.798-.945 1.819-.361.608.341 1.846 1.22 2.743 1.952zm8.281.571a56.66 56.66 0 00-1.013 2.007c-.223.467-.503.708-.649.543-.141-.152-1.579-1.126-3.191-2.141-3.928-2.501-7.07-5.219-6.863-5.045 2.34-4.018.242-1.81 7.675 2.206 1.797.973 2.342 1.144 2.998.96 1.293-.374 1.708.214 1.043 1.47zm-20.728 1.355c-.568-.299-14.929-8.113-15.251-7.549 0 0-13.603-7.803-14.247-7.635-.118.041-19.092-10.731-18.982-10.667 2.4-4.608 3.112-5.963 7.477-15.936 33.851 20.008 22.445 13.178 39.685 25.115.264.178 7.396 4.743 7.473 5.028.205.737-5.778 10.984-6.155 11.644zm-18.084-30.685c-.275.49-.176-.371-.63-.783-.259-.228-4.575-2.985-8.143-5.19-.708-.444-2.103-.474-1.625-.757.247-.138.023-.425-.602-.792-6.027-3.502-10.325-6.109-10.375-6.302-.083-.28 2.252-6.746 2.447-6.784.072-.016 1.7 1.01 3.614 2.269 10.353 6.813 3.348 2.983 10.968 7.376 3.941 2.259 4.259 2.301 5.667.687.37-.424.921-.739 1.226-.692 1.714.263 25.316 19.463 24.608 20.717-.111.195.048.266.449.186 1.184-.212.942 1.165-.724 4.13-.848 1.525-1.656 2.844-1.783 2.943-.301.227-1.505-.491-3.481-2.06-.792-.634-6.497-4.611-6.751-4.891-.64-.679-.237.353-.972.238-.353-.063-.439-.278-.252-.611.223-.389.021-.676-.829-1.213l-12.298-8.494c-.173-.195-.4-.182-.514.023zm-13.112-30.663c1.402 1.189 3.988 2.879 11.042 7.229 9.82 6.061 22.027 15.072 31.704 23.393 4.413 3.812 2.367 1.644.015 8.408-.251.729-.384.812-.708.437a5.212 5.212 0 01-.58-.831c-.083-.149-5.304-4.587-5.494-4.731-1.08-.8-17.145-15.407-18.379-14.76-.361.19-.453.167-.308-.095.303-.539-1.944-1.784-2.706-1.494-.32.111-.704.619-.836 1.065-.659 2.332-3.238.386-5.441-.971-1.271-.78-2.933-1.96-4.679-3.217.191.337-1.236 1.374-.582.224.094-.166.3-.337.477-.301-2.963-2.142-6.14-4.497-8.007-5.5-.783-.433-.779-.509.284-2.861 3.35-7.456 1.639-8.148 4.198-5.995zm-4.362 3.473c.431-.251 1.332.191.459.249-.784.047-.898-.015-.459-.249zm17.031 2.65c-.109.196-.192.14-.212-.157-.058-.721-4.27-2.797-4.586-3.356-.242-.41-.808.235-1.073-.253-.307-.542-7.506-5.21-7.608-5.624-.301-1.164 3.388-9.696 2.704-10.871-.222-.38-.204-.499.064-.356.962.513.947-3.479 1.891-2.95.598.335 1.04-.13.655.275-.17.183-.153.429.039.565 1.521 1.056 41.515 30.961 43.564 34.317.24.401.677.801 1.002.93.328.131.436.363.241.558-.171.178-.212.264-.083.191.382-.237 1.707.603 1.726 1.089.023.756-2.459 6.282-3.034 7.135-.411.604-.608 1.154-.449 1.242.159.096.061.437-.237.785-.589.694-1.171.396-4.125-2.059-13.263-11.107-19.247-14.552-19.247-14.552.115-.206-10.893-7.509-11.232-6.909zm-13.379-12.685c-.042-.151.096-.421.298-.594.555-.45-.209.911-.298.594zm7.884-9.521c-.454.112-.022-.854.507-.228.369.437.961.696.746 1.079-.33.578-.69-.973-1.253-.851zm13.31-4.258c-.189.326-.235.291-.261-.201-.093-1.842-12.904-8.83-12.417-10.673.511-1.962 7.411 3.85 14.674 9.814 1.361 1.113 2.5 2.165 2.561 2.366.192.604-1.39.844-2.003.306-.325-.283-.976-.851-1.457-1.268-.64-.553-.928-.645-1.097-.344zm-11.577-7.202c2.776 1.892 8.277 6.001 11 8.218 3.405 2.785 4.142 3.134 5.096 2.443 1.742-1.262 5.308 3.661 5.818 1.22.103-.529-.151-.993-.863-1.568a91.53 91.53 0 01-2.862-2.477c-7.055-6.362-21.077-15.414-18.093-15.5.488-.017.721.055.531.161 0 0 18.837 12.207 38.335 33.188 6.592 7.089 8.029 7.401 7.454 9.977-.413 1.852-.651 2.05-2.009.645-.595-.619-1.623-1.673-2.326-2.399-4.27-4.389-13.047-11.881-15.097-14.301-.549-.647-1.334-1.272-1.744-1.383-.413-.116-.598-.244-.409-.297.411-.115-4.181-4.008-4.984-4.221-.346-.092-.833-.025-1.032.137-.517.424-.292 2.101.28 2.102.311.001.254.077-.154.208-1.679.531-8.322-5.632-11.671-8.021-8.187-5.827-9.832-6.753-9.414-8.637.179-.811.214-.801 2.144.505zm3.087 6.929c8.027 5.465 15.619 14.091 16.822 9.661.174-.644.275-.66.806-.115.997 1.019 5.602 4.424 6.365 5.643.293.465.661.839.799.805.339-.073 15.774 14.252 15.966 15.24.031.143.239.437.454.623.898.815.804 1.847-.417 4.63-1.506 3.42.324 3.816-6.366-2.154-1.211-1.076-16.149-14.739-17.675-15.375-.576-.242-.919-.491-.781-.567.559-.302-5.32-4.469-5.822-4.862-.049-.036-17.716-13.257-17.718-13.302-.006-.455.597-2.86.986-3.918.754-2.061-.311-.978 6.581 3.691zm8.842 14.788c-.247-.139-.431-.397-.441-.604-.002-.206.219-.145.502.133.595.575.558.828-.061.471zm-6.677-5.459c-.423-.238-.554-.393-.289-.365.611.087 1.312.949.289.365zm38.744 33.61c-.22.373-.437.324-.452-.255-.017-.54.679-.15.452.255zm-10.358 25.284c.444.248-1.247 1.524-.545.294.104-.188.364-.396.545-.294zm11.207 9.086c-.274.489-.612.895-.772.942-.311.088-3.579-1.91-6.627-4.052-4.236-2.97-3.803-2.431-2.288-5.114 2.652 1.877 6.831 4.775 8.029 5.884 1.164 1.07 2.361 1.102 1.658 2.34zm1.618-3.257c-.34 1.253-.622 1.532-1.086 1.06-.241-.246-1.259-1.02-2.292-1.732-6.372-4.429-7.124-5.084-6.981-6.027.285-1.783.55-1.887 2.002-.79 6.096 4.604 1.584 1.244 6.567 5.218 1.618 1.294 1.938 1.703 1.79 2.271zm2.153-5.133c-.976 1.399-.126 1.259-.85 2.538-.46.814-.568.841-1.251.272a200.353 200.353 0 00-3.502-2.784c-5.29-4.145-6-4.077-5.444-5.378.37-.844.445-.848 1.71-.131.728.407 2.572 1.721 4.058 2.892 3.176 2.486 4.324 3.203 4.543 2.816.204-.35-1.725-2.018-5.479-4.736-3.676-2.664-3.799-2.804-3.287-3.699.585-1.03.06-.625 7.113 4.675 3.182 2.391 3.182 2.391 2.389 3.535zm2.259-4.291c-.171-.309-.375-.091-.739.779l-.505 1.212c-1.49-1.107-2.874-2.139-5.138-3.806-1.236-.904-2.799-2.158-3.465-2.78-1.124-1.045-1.181-1.216-.753-2.324.869-2.285.063-1.298 6.42 3.323.588.432 3.164 2.943 3.834 3.045.727.112.653 1.123.346.551zm.601-1.834c-.462.82-.608.863-1.095.354-.317-.323-1.163-1.075-1.918-1.711a140.7 140.7 0 01-3.487-2.992c-2.692-2.387-3.595-2.355-3.387-3.568.383-2.382.147-1.442 8.569 5.32 1.756 1.408 1.864 1.633 1.318 2.597zm1.289-4.061c-.173.09-.327.531-.328.929-.017.832-.485 1.063-.976.476-.191-.231-.909-.923-1.568-1.52-.662-.587-1.623-1.334-2.103-1.625-.502-.312-.972-.749-1.083-1.014-.098-.247-.337-.5-.489-.539-.165-.038-1.094-.747-2.079-1.599-1.667-1.426-1.766-1.59-1.417-2.474.313-.821.577-.944 1.2-.562 1.007.616 9.953 7.32 8.843 7.928zm.994-2.358c-.252.986-.365.922-3.559-1.948-1.373-1.239-3.017-2.475-3.677-2.761-.667-.303-1.128-.644-1.05-.779.075-.136-.319-.495-.892-.828-1.725-.972-.435-3.036.201-2.68.354.199 9.502 7.639 9.298 8-.066.114-.197.548-.321.996zm1.194-3.232c-.336.592-.46.559-1.832-.459a74.07 74.07 0 01-2.956-2.342c-3.416-2.843-6.055-4.577-4.534-5.845.505-.414 1.493.234 4.266 2.793 1.827 1.68 5.887 4.376 5.056 5.853zm-5.503-7.527c-2.693-2.35-3.444-3.412-2.999-4.199.087-.154.312-.091.497.141.472.568 1.092-.168 1.127.414.011.227.928 1.2 2.023 2.145.63.548 5.783 5.178 5.812 6.009.042 1.238.359 1.46-6.46-4.51zm7.445 1.871c-.512 1.092-.33 1.193-4.174-2.373-1.927-1.787-5.445-4.91-5.445-4.91-.367-.354.6-2.767.973-2.319 1.721 2.032 7.626 7.793 8.501 8.283.448.252.484.595.145 1.319zm1.241-2.953c-.453 1.031-.502 1.037-1.183.371a28.703 28.703 0 00-1.407-1.259c-.378-.295-1.406-1.314-2.304-2.259-3.671-3.882-4.722-4.397-4.347-5.773.651-2.407.856-.161 8.94 7.161.641.572.688.864.301 1.759zm1.056-3.298c-.114 1.065-.562 1.435-.852.713-.097-.258-.531-.747-.988-1.133-.136-.104-7.818-7.669-7.747-7.82.702-1.524.493-2.22 1.643-1.244.485.411.953.949 1.075 1.23.121.277.258.42.313.322.063-.102.441.246.858.776 2.745 3.531 5.956 4.657 5.698 7.156zm-.717-6.277c1.795 2.036 2.089 2.653 1.655 3.418-.227.394-.432.675-.486.644-.048-.026-.724-.774-1.465-1.631-.113-.128-1.802-1.975-6.211-6.41-1.072-1.07-1.109-1.229-.59-2.379.732-1.607.549-.812 1.829.424 1.065 1.02 3.166 3.521 5.268 5.934zm.938-.702c-.891-1.071-2.895-3.371-4.434-5.088-2.44-2.72-2.779-3.241-2.565-4.012.222-.812.288-.829.922-.252.262.228 4.983 5.413 4.81 5.72-.086.152.08.42.374.596 1.745 1.074 4.667 7.588.893 3.036zm2.879-1.878c-.151 1.631-.863.55-1.964-.94-.761-1.024-2.424-3.058-3.687-4.503-2.879-3.279-3.546-4.28-3.235-4.829.318-.565.235-.629 2.167 1.595 6.383 7.357 6.791 7.887 6.719 8.677zm-3.552-10.203c.971 1.059 4.726 6.645 4.061 7.926-.166.329-.219.278-1.228-1.029-5.948-7.758-7.872-8.489-7.157-10.51.949-2.68 1.006-.022 4.324 3.613zm-9.688-9.226c2.199 2.465.466 1.895.189 4.604-1.818 5.943-.058 8.658-3.508 4.948-1.067-1.151-2.095-2.276-2.286-2.514-1.383-1.751-23.118-23.5-25.337-23.468-.182.008-.308-.192-.268-.409.043-.225-.613-.85-1.435-1.367-2.307-1.47-1.195-1.386-3.644-2.891-.604-.369-11.139-8.104-11.307-8.759-.025-.097-.375-.102-.754.015-.939.261-1.053-.298-.386-.481.348-.099.675-.952 1.108-2.866.037-.173 1.969-7.384 2.11-7.422.565-.141 33.448 27.037 45.518 40.61zm-50.715-32.213c-.172-.106-.192-.374-.035-.646.541-.944.933 1.152.035.646zm7.914-18.892c.623 1.13 7.619 7.125 8.54 8.138 3.828 4.191 6.219 5.954 17.648 19.839 8.994 10.937 8.794 11.374 13.878 16.939 2.558 2.794 2.609 3.594.065.944-12.207-12.686-17.977-18.03-17.977-18.03s-23.701-19.697-23.976-20.668c-.114-.431 1.028-4.028.674-4.153-.169-.06-.147-.395.039-.769.431-.849.749-2.891 1.109-2.24zm-3.387-4.189c-.437.913-.685 2.489-.435 2.63.169.095.118.323-.108.516-.619.508-.466 3.271-.695 4.017-.649 2.194-5.221 20.808-5.221 20.808-.209-.117-.44.533-.628 1.749-.163 1.065-.494 2.282-.75 2.725-.426.762-.714 3.372-1.458 4.689-.373.66-.548 1.306-.373 1.405.17.093.101.377-.132.595-.581.552-1.835 5.3-1.439 5.442.146.046-.202.923-.771 1.962-1.537 2.752-.514 1.647-2.268 5.959-.7 1.736-9.69 33.683-36.699 75.479-.381.622-10.137 15.245-10.89 15.636-.201.108-.309.526-.234.923.085.528.049.611-.134.291-.172-.314-.398-.205-.766.383-1.472 2.369-2.162 1.641-3.55 3.964-.409.689-.801 1.126-.877.995-.175-.311-1.909 1.402-2.526 2.488-.257.452-.749 1.008-1.05 1.2-.591.367-3.861 3.724-5.84 5.998-.189.215-9.674 9.303-9.445 9.431 0 0-14.513 11.103-15.077 11.731-.421.478-.888.794-1.038.707-.148-.086-.374.03-.508.269-.634 1.119-3.753 2.459-4.643 1.994-.616-.327-1.771.39-2.053-.232-.24-.505-3.822-1.835-3.686-1.368.044.157-.204.044-.555-.252-.347-.297-1.187-.681-1.85-.851-1.325-.344-6.341-3.135-6.462-3.6 15.741-12.182 43.396-38.557 51.608-54.868.191-.369.564-.629.839-.582.948.151 14.118-21.835 13.571-22.149-.257-.142-.201-.247.251-.435.4-.162.952-.998 1.678-2.539 6.529-13.847 29.662-59.615 33.923-81.966.068-.401 6.925-27.79 6.925-27.79.053-3.35 15.102 8.921 13.366 12.646zm-37.15-26.95c-.406-.237-.064-.843.345-.612.404.227.055.838-.345.612z" fill="#fff"/></svg>