<svg width="153" height="141" fill="none" xmlns="http://www.w3.org/2000/svg"><path fill-rule="evenodd" clip-rule="evenodd" d="M101.421 62.026c-1.654-1.21-1.615-1.588.013-2.655 8.951-5.866 10.732-7.814 11.313-6.549.226.496-.023 1.53-.949 2.176-11.125 7.752-9.803 6.883-10.377 7.028zm-1.18-18.012c-.15.848-.146 1.433-.36 1.92-4.86 11.036-4.746 10.714-5.76 10.373-.64-.217-1.036-1.085-.73-1.694 6.154-12.29 4.587-10.45 6.85-10.6zm-13.623-4.768c1.67-.508 2.003-.32 2.061 1.085.449 10.751.786 11.216-.501 11.207-1.892-.013-1.432-.304-1.56-12.292zM107 48.61c-1.562-1.057-1.586-1.154-.475-2.242 10.745-10.517 8.7-8.51 10.481-9.912.855 1.764.332 1.237-10.006 12.153zm1.116-24.705c2.49.904 1.877 1.044-.426 5.953-.84 1.783-2.418.647-1.91-.851.351-1.03 1.114-2.552 2.336-5.102zm-7.225 15.915c.122-1.423-.553-.295 2.539-5.61.764-1.316 2.188.029 1.618 1.107-3.031 5.729-2.176 5.475-4.157 4.503zm23.994 5.3c-2.037-1.73-1.342-1.685 2.794-4.66 1.617-1.16 1.708 1.227.908 1.844-1.238.95-2.483 1.89-3.702 2.815zm-37.72-24.76c.986-.198 1.757-.181 1.844.853.142 1.731.323 3.481-.147 5.294-2.128.074-1.713-.477-1.697-6.147zm32.614 26.18c1.386 2.315.927 1.871-1.686 3.903-1.361 1.06-1.742.894-2.117-1.086l3.803-2.817zM88.261 34.717c-.983-.714-1.277.103-1.265-4.741 0-.183.618-.567.845-.499 1.475.431.988 3.903.42 5.24zm14.996 15.65c1.509.666.406 1.962-.875 3.018-.188.155-.817-.027-1.09-.246-.755-.601 1.026-1.917 1.965-2.772z" fill="#fff"/><path d="M91.07 74.981c-.572 1.147-.054.761-1.61 2.121-9.063 7.913-9.101 15.84-8.82 16.427.059.126.005.83-.078.993-.097.188.502 4.175.803 5.322.219.847.668 2.785.94 3.97.092.406.394 1.202.677 1.784.493 1.026.498 1.058.242 1.129-.338.091-1.355-.559-1.704-.702-.214-.088-.41-.219-.447-.295-.038-.078-.103-.12-.15-.099-.046.024-.563-.109-1.154-.293-.592-.187-1.486-.349-2-.363-.51-.019-1.005-.057-1.102-.085-.412-.128-1.527-.044-2.7.208-.863.184-1.818.301-2.513.309-.299.006-.577.027-.618.046-.188.092-1.804.051-2.02-.048-.136-.06-.546-.154-.911-.205a8.096 8.096 0 01-1.371-.361c-.586-.223-.722-.23-.804-.049-.13.281-.005.527.256.502.141-.013.179.035.145.176-.037.138.088.24.431.358.259.088.505.213.538.269.086.167 1.954.744 3.185.989.6.117 1.18.239 1.28.268.101.03.694.157 1.311.283.617.123 1.21.247 1.308.273.095.027.2-.005.22-.066.025-.068.047-.061.057.015.014.113 1.373.983 2.8 1.794.295.169.557.34.575.374 0 0 3.273 1.539 5.358 2.752-1.015 1.686.8 3.325-.95 5.543-.234.3-.398.604-.364.679.139.286.382.401.615.288.345-.164 1.043-.233 1.105-.109.027.061.096-.009.149-.153.06-.16.142-.237.215-.192.065.04.271.027.471-.034.37-.112 1.52.004 1.925.193.115.052.248.054.283-.001.035-.052.134-.057.203-.008.102.061.083.082-.06.067-.162-.013-.156.001.043.096.27.127.534.07.315-.069-.085-.055-.078-.087.013-.074a.212.212 0 01.171.187c.032.359 1.457.486 2 .174.294-.168.376-.309.425-.727.066-.558.355-.633.49-.127.052.194.128.251.252.193.198-.097.29.009.208.239-.034.099.12.364.403.69.687.785.773.887.984 1.158.107.138.421.41.709.612.28.2.889.645 1.346.984.452.339.883.617.95.607.074-.007.117.042.109.121-.017.171 1.089.843 1.146.692.023-.066.069.006.097.157.032.197.28.47.81.895.85.68 1.436.965 1.57.762.047-.073.077-.061.069.027-.033.305 1.717.918 2.466.866.409-.028.472-.063.552-.308.087-.254.071-.282-.255-.359-.184-.044-.372-.142-.405-.207-.034-.069-.124-.088-.213-.047-.347.169-2.325-1.232-2.913-2.065a14.738 14.738 0 00-.715-.892c-.549-.622-.747-.879-1.013-1.309-.117-.188-.26-.36-.312-.378-.052-.02-.06-.17-.013-.328.06-.22.034-.311-.108-.377-.104-.046-.344-.316-.526-.594-.078-.119-1.044-1.498-1.032-1.64.013-.136-.275-.277-.354-.408-.079-.127-.98-.949-.93-1.088.115-.332 1.019.677 1.343.824.385.178.788.639 1.284.836.171.067.384.203.478.3.093.098.612.345 1.168.551.558.209 1.094.493 1.207.643.113.15.452.333.762.409 3.248.814 3.347 1.807 10.453 1.919.925.014 5.378-.727 5.487-1.321.027-.163.69-.477.555-.339-.977.97 4.17-2.012 4.132-2.092a444.594 444.594 0 011.854-1.371c.009-.007 2.177-2.147 2.177-2.147.126-.292.38-.315.264-.555-.196-.409.243.234.339-.208.003-.017.258-.468.258-.468.449.046.328-.591.46-.601.304-.025.436-.842.616-.895.474-.134.909-1.49.909-1.49.185.015.792-.904.762-.973-.029-.061.055-.198.191-.31.137-.11.225-.243.198-.3-.027-.051.027-.132.118-.176.089-.043.146-.118.124-.162-.021-.045.135-.341.344-.643 2.812-4.107-.872-.454-1.154-1.042-.018-.037.619-.954.828-1.03.434-.163.58-.688.979-.979.475-.343.482-.796.657-.894.597-.331 1.053-1.373 1.053-1.373.131.075.322-.378.281-.407-.002-.001.25-.359.25-.359.125.039 1.046-1.415 1.127-1.525.271-.382.209-.586.209-.586.476.05.73-2.476.869-2.488.322-.026.227-.956.322-.946.164.018.604-1.338.665-1.496.052-.136.627-1.763.755-1.825.451-.217.532-1.976-.314-.849-1.256 1.673-2.759 1.648-2.173 1.364.313-.148 1.202-2.887 1.202-2.887.319.177.27-.3.135-.385-.137-.087 1.03-2.125.451-2.495-.04-.026.176-.17.194-.419.02-.268.181-.498-.011-.627-.083-.055-.1-.09-.033-.072.189.06.557-2.017.368-2.083-.044-.017-.044-.195.003-.407.046-.212.062-.417.039-.467-.023-.05-.007-.324.037-.616a4.18 4.18 0 00.018-.996c-.033-.253-.031-.835.005-1.273.147-1.796-.825-3.217-.904-4.229-.032-.409-2.332-6.54-2.521-6.1.139-.324-.156-.725.02-1.002.813-1.264.141-.711.05-1.101-.084-.326-14.182-.882-14.62-.865-1.307.047-4.317.779-4.317.779-.28-.586 4.243-2.34-2.968-.941-3.647.709-9.754 2.913-12.71 5.232-.444.348-5.548 4.352-5.07 4.654-1.104-.697 1.341-4.053-.355-3.469-.266.087-.46.355-.904 1.241zm13.674-5.042c.245-.06.646-.282.646-.282.547.129 1.576-.625 1.133-.145 0 0-3.898 1.714-5.142 2.613-3.44 2.488-6.179 7.674-6.179 7.674-1.734.967-1.323 1.798-2.17-.169-.983-2.288-.321-1.162-.01-2.188.203-.664 2.586-2.696 3.111-3.14l1.206-1.031c1.327-.62 6.759-3.176 7.405-3.332zm.393.941c-.026.072-.398.364-.821.643-.846.557-1.032.692-1.464 1.053-1.679 1.404-2.472 2.547-2.92 3.115-2.405 3.032-.713 2.687-3.318 3.422 2.075-3.76 2.32-3.802 2.32-3.802-.354-.733 6.473-5.197 6.203-4.43zm4.92-2.244c-.225.107-.195-.18-.039-.252.061-.034.126-.01.157.058.038.075-.039.156-.118.194zM88.382 86.363c-.369-.042-1.762 6.88-1.641 7.135 0 0-.081 5.086-.08 5.09-.048 2.631 1.087 5.271 1.137 7.545.013.631.2 1.661.19 1.904-.006.164.174 1.385.112 1.447-.398.378-.822-2.726-1.447-2.496-.915.335.837 1.872.26 2.152-.33.159-.623-1.712-.823-1.813-.118-.059-.14-.184-.068-.394.088-.261.115-.285.183-.144.165.344.947-.041.6-.357-.075-.073-.127-.179-.11-.232.043-.12.004-.301-.201-.937-.28-.872-.442-1.662-.473-2.288a2.524 2.524 0 00-.107-.561 3.837 3.837 0 01-.108-.822c-.015-.443-.06-.557-.266-.691-.218-.138-.216-.153-.005-.096.197.049.232.014.202-.202-.021-.139-.101-.302-.175-.351-.085-.056-.078-.081.018-.069.101.012.115-.245.034-.71-.07-.403-.075-.829-.015-.952.061-.125.07-.203.022-.181-.05.025-.069-.122-.043-.327.026-.2-.001-.395-.059-.432-.063-.04-.075-.097-.025-.15.099-.108.19-2.965.205-3.119l.067-1.854c.014-.315.397-2.414.397-2.414-.094-.235.752-3.582 1.394-5.368.068-.189.38-1.319.582-1.415 0 0 .844-1.95 1.003-2.239.14-.245 1.375-2.849 1.5-2.596.129.273-2.59 7.9-2.26 7.937zm-.302-6.34L87.067 81.6c-.268.127-.57 1.444-.57 1.444-.361-.044-2.334 5.633-2.037 5.82l-.716 2.582c-.108.298-.223 2.005-.3 2.162-.076.164-.108 1.676.029 2.095.023.07-.02.121-.094.112-.077-.006-.144.23-.152.536-.01.427.04.6.221.776.24.225.173.429-.068.21-.152-.142.097.298.026.516-.11.358.48 3.836.536 4.204.475 3.218 4.649 12.799-1.328-1.183-.57-1.331-.747-1.95-.747-1.95 0-.002-.063-.998-.213-1.307-.069-.142-.086-.368-.032-.478.05-.116.073-.239.049-.276-.041-.06-.104-.927-.134-1.044-.09-.365-.102-.883-.02-1.002.047-.072.062-.182.032-.242-.028-.058-.096-.043-.144.029-.053.084-.08.073-.072-.026.008-.086.069-.16.129-.157.06.004.1-.218.091-.486-.372-8.37 6.616-14.837 6.527-13.911zm.853-.005c-4.825 9.082-3.85 15.795-4.152 17.298-.05.255.083.934.001 1.29-.028.13.004.624.077 1.121.13.886.233 1.965.27 2.752.018.455.278.91.355 1.527.04.306.197.885.353 1.301.33.86.387 1.171.24 1.243-.053.026-.184-.176-.283-.442-.133-.356-.25-.505-.433-.546-.136-.03-.176-.056-.087-.054.241.004.21-.399-.094-1.245-.83-2.305-1.087-5.782-1.248-7.172-.145-1.25.152-2.01.113-2.842-.02-.468.147-1.538.147-1.538-.003.002.145-1.587.145-1.587.53.038.134-1.664.303-1.646.189.019.872-2.485.962-2.66.171-.321-.082-.431.163-.831.104-.168 1.64-3.922 1.816-3.858.021.002.447-.903.374-.95l.21-.499c.474-.148.161-.36.243-.354.216.026.528-.848.745-.954.09-.045-.006.241-.22.646zM105.34 71.8s-6.376 6.456-6.412 6.472c1.403-2.388 3.321-4.999 6.769-6.849l-.357.377zm3.989 1.188c-.334.029-.055 3.293-.136 3.606l-.515 4.564c.259.537-1.462 5.7-2.373 5.895-1.274.268-1.451-.025-2.664.446-.833.324-2.579-4.592-2.523-4.87.16-.801-1.02-.227.545-2.882.097-.164.121-.342.056-.405 0 0 .812-.899.782-1.473 0 0 .253-.123.769-.818.138-.187 2.707-3.655 2.916-3.762.281-.143-.021-.342.229-.367.4-.035.836-.956 1.371-1.348.449-.326 1.686-1.707 2.25-1.98.202-.096.486-.713.592-.487.003-.003-1.299 3.881-1.299 3.881zm2.054-3.706c-.019.04-.847-.371-.261-.174.161.051.277.13.261.174zm-3.828 1.738c-.084.24-5.017 5.403-5.249 6.501 0 0-.234.275-.971 1.895-1.234 2.72-.885-.262-.557-1.086.142-.357.237-.739.215-.87-.022-.127.016-.262.083-.291.151-.072 1.347-1.6 1.534-1.69.085-.043.171-.163.203-.287.063-.26 3.047-3.087 4.064-3.856.35-.262.721-.437.678-.316zM95.134 88.324c.484 1.007 1.54 7.518 1.54 7.518.01.007-.202 2.308-.239 2.325-.02.012-.682 3.604-.538 3.699.124.082-1.09 1.784-.662 2.058l-.905 1.878c-.178.298.017.439-.087.429-.313-.036-.254.582-.35.854-.394-.008-1.04 1.497-.968 1.589 0 0-1.13 1.424-1.14 1.52-.031.301-1.79 2.53-2.099 2.423-.861-.308-.59-1.794-.771-2.173l-.096-1.175c.006-.231-.19-1.351-.179-1.373.184-.358-.428-1.174-.31-1.443.137-.318-.18-2.872-.458-3.689-.088-.256-.16-.592-.162-.738-.011-.445-.258-1.441-.378-1.518-.07-.044-.07-.103-.003-.133.058-.03.071-.145.023-.244-.051-.105-.09-.435-.092-.743-.006-1.142-.061-2.12-.13-2.264-.042-.088-.027-.176.036-.209.162-.078-.1-.357.062-.437.062-.028.064-.146.006-.267-.06-.12-.083-.436-.059-.721.034-.395 0-.522-.158-.595-.16-.072-.152-.105.02-.139.216-.047.46-2.49.534-2.718 0 0 .72-3.402.756-3.518.038-.127 2.15-7.27 2.172-7.523.477-5.82 4.913 8.283 4.635 7.327zm16.024-18.535c-.291.31.011-.413.118-.193.019.04-.09.164-.118.193zm3.849-1.34c.388-.051 4.955-.702 5.589-.514 0 0 5.414.5 5.419.472 0 0 2.543.18 2.599.204 0 0-8.246.947-11.313 2.376-1.421.662-1.561 1.01-1.561 1.01-3.907.642-5.315.76-5.236.746.537-1.328 1.094-3.85 4.503-4.295zm-4.535 2.297c.064-.03.13-.007.159.06.153.315-.488.1-.159-.06zm-.061.645c-.33.627.264-.5 0 0zm-.403 1.128c-.234.24-.023-.515.103-.252.033.07-.047.197-.103.252zM86.257 84.457c-.036.393-.648.197-.159-.038.09-.045.163-.025.159.038zm10.301-4.202l1.985-.677s-2.704 6.515-2.704 6.518c-2.773-6.343-1.757-3.748.72-5.841zm20.936-6.634c-8.955 4.207-7.704 3.913-7.704 3.913.007-.09-.057-.832-.009-.828.089.01.253-1.32.299-1.46.14-.43.084-.885.084-.885.074.01.14-.108.148-.26.01-.278.188-.468.27-.295-.001 0 .306-.88 6.912-.185zM88.907 85.237c-.144.41.178-.509 0 0zm10.31-4.894c.085.684 5.391 13.356 1.465 12.336-.641-.165-1.627-.072-2.562.244-.8.275-.482.104-.733-.584a1.78 1.78 0 01-.072-.518c.011-.234-.712-3.276-.862-3.425 0 0 .125-.162-.087-.767-.598-1.714 2.738-8.226 2.85-7.286zm20.393-9.746c1.23-.625 10.191-1.13 5.459-.56-4.327.52-9.312 3.623-8.865 2.342.056-.158 2.236-1.371 2.745-1.527.226-.072.525-.187.661-.255zm2.084.733c11.804-3.998-1.693 1.892-1.583 1.536.228-.75-.957-.67.239-1.082.161-.053.759-.256 1.344-.454zm-21.576 10.246c.029-.014.07.02.103.086.15.311-.422.067-.103-.087zm14.77-6.364c6.097-2.267-2.549 1.262-5.35 4.983.254-2.67 2.967-4.1 5.35-4.983zm8.296-3.05c9.878-4.155-.967 4.17-2.497 5.085-2.304 1.374-2.401 3.727-.965-2.46.186-.81 1.444-1.859 2.065-2.06.149-.05.775-.302 1.397-.565zm-7.615 4.322c-4.944 3.889-6.263 5.688-6.263 5.688-.023-.045.387-1.74.496-1.762 0 0 1.252-1.213 2.827-2.347 2.019-1.456 4.901-3.122 2.94-1.58zm2.819-1.075c-.904 4.202-2.328 5.965-2.328 5.965-.022.189-1.691 2.327-1.578 2.181-.722-.129-1.145-.209-2.098-.282-2.337-.172 6.179-8.67 6.004-7.864zm-30.84 14.526c-.163-.105.206-.275.241-.198.058.123-.127.272-.242.198zm42.098-19.319c-4.967 7.939-2.124 4.173-8.319 6.732-.008.004 8.045-6.83 8.334-6.985.171-.093.169-.04-.015.253zm-14.437 7.157c-.435.598-3.841 3.625-4.289 5.063-.149.479-2.703 1.28-.762-.667l1.918-2.276c-.049-.032.029-.081.167-.106.155-.03 3.574-2.854 2.966-2.014zm-29.9 14.734c.065-.033.14-.009.169.053.145.304-.38.048-.17-.053zm48.523-16.099c.064.075.884 2.888.906 4.131.007.472.035 1.108.057 1.4.023.303.013.643-.022.779-.032.133-.05.574-.039.99.015.416-.014.81-.059.88-.048.074-.048.198.001.297.088.182-.351 2.187-.344 2.457.02.712-.535.191-.35.1.014-.007.02-1.068.097-1.285.059-.163.065-.398.018-.497-.091-.187-.46-2.784-.467-3.284-.003-.152-.085-.408-.188-.59-.097-.177-.242-.781-.32-1.343-.073-.562-.238-1.307-.363-1.66-.201-.564-.151-.876-.313-1.209-.424-.848-.4-2.592-.428-2.648-.942-1.961-1.915.898-3.194.45 0 0 2.003-3.882 1.658-4.104-.149-.094.849-.407.695-.73-.09-.18.135-.303.371.328 2.261 4.405 2.284 5.538 2.284 5.538zM85.395 95.947c.2.187-.126.14-.189.009-.076-.157.024-.162.19-.01zm24.458-11.725c2.634.127 4.194.574 4.194.574.141-.067 2.103.503 2.592.301 6.41-2.662-2.467 2.864-3.008 3.243-1.153.802-2.199 2.066-2.199 2.066-.143.071-.409.89-.535.843-.123-.041-.073-1.396.061-1.599.096-.146.429-2.458.231-2.66-.001-.004-5.077.487-3.581-.005.273-.087.407-.254.593-.716.552-1.374.284-2.112 1.652-2.047zm13.71-6.61c11.989-3.056-1.971 2.65-.692 4.545-.152-.227-2.444.742-2.608.875-.444.354-.248.175-.744.306-9.38 2.507.585-4.847 4.044-5.727zm-12.371 6.518c-.213.106-.083-.466.063-.164a.122.122 0 01-.063.164zm-6.12 3.681c.698-.076 1.385-.393 1.385-.393.461.16-.41.361.091.261.001-.002.868.023.87.024-.042.407 1.168-.31 1.15-.127-.026.233.471-.018.553.15.027.06.466.006.61.033.243.05.203 1.235.178 1.179-.066-.023-.893 8.039-1.739 7.122 0 0-4.731-2.338-4.762-2.35-1.407-.492-.718-.204-.484-4.694l.034-.677c.612-.223 1.047-.41 2.114-.528zm22.301-9.208c-1.805 1.83-3.997 5.12-3.997 5.12-.785-1.626 5.578-6.73 3.997-5.12zM71.241 106.05c3.155-.141 3.186-.986 3.53.013.412 1.198.66 1.33-.198 1.084-.41-.122-.182.107-.672-.088a2.412 2.412 0 00-.684-.132c-.058-.12-1.105-.041-1.166-.168-.015-.025-2.324-.5-2.024-.642.018-.01.565-.039 1.214-.067zm55.693-19.293a9.185 9.185 0 00-.107 1.412c.015 1.042-.087 2.363-.301 3.842-.273 1.884-.019 1.084-.359 2.375-.058.225-.863 3.353-1.072 3.454-.04.019-.056-.128-.031-.32.024-.186.016-.455-.017-.567-.033-.122 0-.23.074-.248.074-.018.102-.097.064-.173.67-8.59-2.71-9.74-.445-13.547 5.978-10.032 3.413-3.053 2.194 3.772zm2.906-8.062c-.208.102-.098-1.317.215-.517.081.17-.134.478-.215.517zm2.828 5.438c1.834 5.4-1.651 11.47-1.39 10.622-.096.04-2.943 1.255-2.988 1.16-.02-.039.181-.327.441-.634.261-.308.45-.623.416-.69-.035-.072.026-.231.136-.366.355-.425.678-1.24.549-1.37-.073-.075-.061-.121.029-.114.175.019.487-.896.503-1.476.015-.428-.007-.486-.126-.308-.054.082-.086.075-.076-.02a.33.33 0 01.159-.234c.15-.072.275-.651.206-.941a.845.845 0 01.031-.379c.041-.12.033-.375-.016-.566-.049-.197-.05-.372 0-.398.072-.03.073-.32.007-.683a6.828 6.828 0 01-.036-.439c-.015-.21-.067-.401-.122-.436-.06-.036-.07-.093-.026-.14.122-.132-.071-1.977-.222-2.12-.078-.073-.079-.15-.01-.166.074-.017.11-.181.074-.355a2.65 2.65 0 01-.005-.702c.028-.207-.003-.419-.072-.464-.07-.043-.074-.105-.005-.139.654-.316-1.453-10.431 2.543 1.358zm-47.2 15.912c-.225.111-.197-.177-.04-.25.065-.032.127-.008.157.06.038.076-.04.154-.118.19zm12.582-6.15c.697-.058 5.355-.827 8.702 2.368 0 0-6.111-1.255-8.383-.276-.427.184-.654.696-.666-1.556 0-.19.031-.399.072-.474.112-.211.258-.242.275-.061zm-11.008 5.598c-.188-.019-.295-.245-.105-.222a.25.25 0 01.196.124c.034.07-.011.105-.091.098zm41.987-20.236c-.306 5.008-.227 5.063-.227 5.063-.05.202.194.357.109.398-.243.118.021 2.029-.109 2.093-.082.039-.013.39-.058.557-.047.175-.282 3.067-.284 3.25-.019 2.193-1.739 5.286-2.045 6.146-.202.561-.477.807-.06-.633.595-2.069.298-2.177.298-2.177.303.176.38-.722.384-1.061.01-1.07.372-3.048.372-3.048-.068-.14.056-.606.045-.62-.142-.224.161-3.067.141-3.059 0 0 .136-.842.132-1.492-.001-.447.028-.851.064-.896.048-.055-.015-.899.119-1.14.148-.27-.089-.499.037-.516.018-.003 1.138-3.806 1.082-2.864zm-52.832 26.091c.025-.069.382 1.058.41 1.136.079.214.537 1.726.659 1.533.197-.319.377.482-.499.022-.301-.158-1.084-2.062-1.236-1.988-.222.105.437 1.42.302 1.485-.415.2-.405-1.079-.559-1.534-.182-.543-.306-.557.35-.547.284.005.552-.044.573-.107zm1.274.355c-.152.29.849 3.085.723 3.145-.066.033-.067-.206-.29-.262-.254-.063-.387-.782-.407-.79-.294-.099-.532-2.061-.668-2.195-.117-.111-.065-.132.306-.126.4.012.432.034.336.228zm.958-.095c.272-.132.703.026.912.649.267.824.133.818.75 2.425.298.776.755 1.623.088 1.223-.434-.261-.413-.615-.967-2.498-.096-.327-.302-1.556-.599-1.532-.692.062.313 1.006.225 1.6-.024.179.612 1.859.465 1.928-.58.278-.79-1.148-.96-1.714-.263-.884-.262-1.293-.44-1.721-.124-.292.17-.565.15-.62-.026-.079.025-.04.115.078.085.123.209.208.261.182zm51.229-24.663c-.017.375.319.109.376.227.115.238-.846.605-.286.966.118.075-.163.358-.056.584.052.112.053.233.001.26-.164.08.027 2.205.023 2.393-.008.648.219.753.219.753-.212.102.02.535-.112.612-.348.203.305-.148.109.252 0 0 .018 1.063-.218 4.401-.056.828-.754 2.11-1.059 2.882-.971 2.46-1.468 1.333-.882 1.05.191-.092.716-2.331.716-2.331.38.044.024-.662.218-.65.334.027.382-2.34.399-2.657.008-.145.15-.804.113-.878-.091-.19.018-.844-.105-.928 0 0 .175-.367.186-.659.114-2.689-.005-3.534-.005-3.534.166-.8.428-4.283.363-2.743zm-11.841 5.923c-8.11 7.4-7.476 7.071-7.476 7.071-1.226-2.547 6.074-6.786 8.563-8.063l-1.087.992zm3.122-1.143c-2.333 5.594-7.289 10.203-6.795 9.728-.305.87-5.901 4.783-1.483-1.214.051-.067 3.215-3.338 3.175-3.406-.372-.67-2.222 1.23-2.403 1.746 0 0-.536.422-2.019 2.319-4.791 6.13.882-3.819 3.999-5.316l.782-.718s.756-.475 2.207-1.75c.631-.55.376-.594.376-.594.334-.043.851-.977.985-.691.33.708-4.207 4.142-3.928 4.718.196.409.718-.052.759-.276 0 0 2.901-2.576 3.022-3.067.048-.063 1.473-2.207 1.524-2.19.044.021-.043.332-.201.711zm1.211-.746c.03-.014.071.02.102.087.153.313-.433.073-.102-.087zM99.614 96.312c5.656-.74-1.793.767-1.735.662.15-.282.84-.542 1.735-.662zm22.115-10.342c-.224.833-2.724 13.697-6.706 12.525-2.834-.829-3.385-.294-1.778-1.488 6.135-4.564 9.396-14.419 8.484-11.037zm-41.03 20.245c.636.326 1.012 1.508 1.063 2.099.09 1.018 2.03 5.11.59.503-1.24-4.029.76-.603.353.049-.021.036 1.005 1.919.845 2.382-.032.089-1.405-.46-1.493-.492-.088-.029-1.177-3.849-1.216-3.956-.303-.857-.717-.486-.541-.163 1.891 3.44.54 3.445.54 3.445.342.027-.782-2.728-.883-3.104-.283-1.058-.283-1.033 0-1.023.143.008.484.127.742.26zm19.043-8.974c.005.002 1.936-.397 1.945-.384.015.033 1.73-.024 1.759-.012 7.551 1.365 1.945.267 2.226.856.055-.5-5.144.095-4.651.011-1.036-.05-3.285.829-3.285.829-.3-.623 1.587-1.403 2.006-1.3zm22.098-6.04c-2.389 6.737-4.086 7.545-4.086 7.545-.825.022-.521.014-1.343.033 1.647-1.43 3.313-4.201 3.313-4.201.75-.36 2.549-7.49 2.373-7.86-.128-.266.19-.734.276-.553.128.265-.533 5.035-.533 5.035zm-19.705 5.038c.089-.039.176-.06.188-.035.119.249-.64.254-.188.035zm1.295-.05c-.139.398.174-.497 0 0zm-.592.255c.069-.03.139-.007.169.058.147.302-.38.046-.169-.058zm20.639-7.862c.105.044.663 3.46.521 3.53-.085.04.18.282.09.425-.005.007.083 1.006.086 1.208.005.487.164 1.329.164 1.329-.091.045-.287 2.356-.294 2.455-.263 3.972-3.314 8.392-3.314 8.392.149.311-2.698 3.289-3.292 2.699-.017-.018.492-1.742.542-1.636-.255-.528.962-5.488 2.979-8.164.773-1.027-2.802-.142-2.273-.17.293-.523 2.285-2.69 1.676-2.777 1.012.37 1.973-5.694 2.197-6.524.555-2.085.319-2.934.682-1.821.083.179.23 1.05.236 1.054zm-26.64 11.975c-.344.166.08-.326-.073-.645-.2-.418.487.446.073.645zm3.869-2.201c.24-.03 4.103-.628 4.024-.401 15.731 2.085-.851 1.48-.326 2.577 0 0-1.809.025-5.196 2.058-1.731 1.04-4.293 3.323-3.563 2.492.164-.187.63-1.265.632-1.264 1.608-.776-.532-4.814 4.429-5.462zm-16.493 8.899c-.203.583-.676-.922-.326-.195.235.495.478-.243.326.195zm-.988.313c.328.177.987 3.455 1.066 3.817.126.609-.533-.062-.454-.659.02-.169-.948-2.987-1.013-3.034-.272-.198.066-.301.4-.124zm13.415-6.779c.068-.035.121-.034.136-.004.133.281-.448.154-.136.004zm-12.448 7.389c.502.48 1.4 6.071.374 2.429-.66-2.346-.728-2.765-.374-2.429zm23.125-10.215c.34.224-.667.183-.226-.028.062-.031.153-.018.226.028zM85.31 108.958c.205-.098.45 1.313.49 1.497.075.352.468 1.676.135 1.594-.495-.122-1.109-2.858-.625-3.091zm16.078-6.92c3.287-2.649 19.908-1.853 9.535-1.299-2.754.15-4.69.6-7.428 1.718-.566.234-1.312.531-1.677.671-.572.224-.634.272-.5.414.137.14.131.145-.071.023-.124-.076-.3-.089-.404-.034-.161.085-.148.105.108.15.166.033.238.083.171.117-.178.084-.426-.176-.744.023-.295.185-2.683 1.747-3.002 1.885-.795.348-1.536 1.377-3.095 2.655-1.128.929-.216.144-.3-.304-.038-.187-.005-.247.092-.18.11.067.248-.072.49-.497.823-1.437 1.862-1.69 2.302-2.29 1.23-1.68 4.004-2.632 4.523-3.052zm.994-.75c.098-.046.192-.034.224.028.15.311-.594.151-.224-.028zm26.616-12.534c.029-.015.07.02.102.085.153.314-.431.072-.102-.085zM86.98 109.339c.026-.244.36.194.557.737.54 1.123-.615-.207-.557-.737zm-.685 1.185c.153.101-.026.36-.128.143-.096-.199-.044-.256.128-.143zm.764 1.761c-.452-.109-1.28-2.291.015-.674.284.585.862.883-.014.674zm17.111-9.62c15.268-5.131-11.508 4.364-11.962 8.712-.025.234-.72.047-.378-.118.055-.026 2.947-2.477 2.911-2.556 0 0 .633-.575.885-.841 0 0 .46-.352 1.044-.908 2.368-2.253 6.911-4.016 7.5-4.289zm-7.675 4.041c.069-.035.122-.035.136-.005.135.279-.448.153-.136.005zm-.278.269c.069-.033.12-.033.135-.003.137.279-.447.152-.135.003zm-8.334 4.279c.032-.014.073.022.102.087.154.316-.422.068-.102-.087zm16.765-7.828c1.934-.941 11.128-2.465 11.128-2.465 8.028-3.86-11.013 12.308-17.988 11.676 0 0-2.29.447-3.612.473-.58.011-.904.231-.904.231.196-.238-1.838-.258-1.913-.22-.088.04-.182.048-.198.012-.047-.1.114-.513.19-.484-.002-.001 6.416-5.879 13.297-9.223zm-3.525 1.719c.014-.129.313-.329.354-.24.033.07-.371.406-.354.24zm-2.381 1.566c.28.182-.407-.271 0 0zm-5.199 2.719c-.016-.183.137-.384.199-.26.033.07-.165.623-.199.26zm3.543-1.786c.065-.033.128-.01.16.052.216.452-.49.107-.16-.052zm-12.299 6.66c.056.747.462-.28.223.402-.067.183.366 1.155.288 1.192-.338.163.767.671.343.802-.34.103.8 1.109-.122.934-.139-.027-.67-2.095-.745-2.298-.444-1.222-.237 1.674.26 2.157.174.169-.187.027-.103.242.122.321-.02-.155-.422.04-.607.289-.63.001-.521-.431.074-.298.074-.85.074-.85.017-.008-.195-1.886-.111-2.122.099-.281.42.205.303.263-.39.185.536.782.324-.231-.138-.658.043-.734.134-.542.04.08.069.348.075.442zm.615-.616c.194.065.464 1.476.548 1.714.042.119.294 1.27.386 1.283.177.022.07.799.231.9.24.159-.319.749-.456-.378-.105-.868-.348-.992-.513-1.759-.081-.37-.549-.505-.385-.59.126-.064.13-.245.012-.624-.17-.544-.134-.656.177-.546zm7.367-3.537c-.03.357-.488.117-.15-.046.089-.044.155-.023.15.046zm-6.135 4.921c0 .176.402 1.352.376 1.362-.07.035.291 1.576.294 1.695.001.346.022-.051-.34-.21 0 0-.076-.901-.354-1.631-.055-.152-.633-2.214-.734-2.17-.6.258.456-.873.674.226.014.029.088.508.084.728zm.756-.336c.231 1.11.235.649.436 1.756.019.102.349 1.284.286 1.316-.123.06.206.311.051.384-.29.139-.774-.716-.552-.823.11-.052-.406-.893-.292-.945.074-.038-.322-1.293-.297-1.423.051-.259-.292-1.014-.054-1.13.087-.042.186-.021.218.044.05.102.18.707.204.821zm.56-.981c.313-.038.28 1.153.384 1.532.152.546.36 1.966.561 2.441.11.254-.218.415-.26.33-.177-.366-.851-3.872-1.122-4.122-.11-.109-.106-.155.03-.155.097-.003.29-.016.407-.026zm3.084.132c.227.215-.203.538-.46.004-.07-.147.308-.147.46-.004zm-1.794 3.337c-.226-.077-.176-1.359-.436-1.258-.258.097.144-.086.015-.354-.105-.215.116-.367.387.649.106.221.29 1.055.034.963zm4.997-2.498c.68-.091 13.019 2.372 21.104-8.562 3.33-4.507-1.634 3.408-2.344 3.751-9.442 9.254-20.448 4.902-20.448 4.902-.133.145-.09-.266-.39-.418-.135-.065.151-.004.641.141.494.143 1.133.226 1.437.186zm23.154-12.356c-3.923 8.357-18.548 11.525-18.548 11.525s.095-.308-1.25-.277c-4.22.102-2.648-.171-2.06-.04.308.066 6.002-1.221 6.385-1.53.709.39 10.977-5.18 15.473-9.678zm12.238-5.65c.323-.084 2.068-.804 2.042-.727 0 0-.812.76-1.276 1.328-.166.201-4.65 6.069-4.398 6.04.205-.028.178.294-.006.18-.454-.289-.78.925-.923.913-2.586 3.192-5.453 4.368-4.391 3.011.224-.289.581-.843.581-.843.176-.024.993-1.475.873-1.553.405.172 2.027-3.611 1.942-3.788-.074-.15.206-.869.256-1.088.192-.854 1.057-.922 1.672-1.561.319-.33 1.114-.922 1.114-.922-.053-.104 1.582-.746 2.514-.99zm-35.018 18.905c.977.344.494.012 1.584.313 8.544 2.377 17.675-5.004 17.793-6.364 1.561-1.72 4.068-7.023 2.278-1.302-.782 2.519-.11 2.498-3.785 7.119-1.578 1.98-6.024 2.44-6.62 2.71-.126.057-.887.204-1.686.328-3.905.602-2.554.005-4.255-.032-.23-.003-.55-.16-.645-.112-.169.08-.481-.178-.551-.144-.298.144-2.493-.769-2.83-1.018-.003.001-3.507-1.846-3.507-1.846-1.105-.303.41-.435.667.1.001.002 1.142.107 1.557.248zm-.299-1.447c.196.052-.643.158-.792.064-.122-.08.545-.133.792-.064zm1.793-1.052c.293.197-.623.183-.205-.017a.212.212 0 01.205.017zm-5.14 3.243c.04 1.415-.53-.606-.214-.527.162.044.205.148.215.527zm-4.732 2.208c.16.104-.208.277-.277.135-.032-.07-.01-.133.05-.163.066-.031.154-.02.227.028zm9.944-4.424c.003-.002 3.996-.285 3.996-.285-.252 2.546 20.895-10.745 8.84-2.629-6.515 4.369-16.187 3.276-12.836 2.914zm-4.576 2.425c.093 1.165.148 1.798-.162 1.309-.435-.703.155-1.025-.088-1.528-.028-.062.007-.096.088-.084.083.008.149.134.162.303zm39.547-18.633c-6.284 10.561-9.499 10.309-8.365 9.5 1.477-1.059 1.491-1.283 1.491-1.283.241-.118 1.519-1.836 1.398-1.885-.058-.022-.022-.057.081-.067.188-.029 2.23-2.625 2.623-3.338.108-.199.251-.382.323-.417.067-.032.062-.106-.013-.151-.082-.055-.076-.084.021-.074.156.015.437-.335 1.038-1.293.167-.27.377-.526.465-.569.089-.042.168-.141.175-.22.005-.073.111-.188.222-.244a.471.471 0 00.228-.345c.008-.14.044-.19.084-.116.073.14.476-.163.406-.306-.026-.05.083-.161.239-.236.231-.112.149.095-.416 1.044zm1.506-1.133c-.315 7.05-10.786 12.442-7.74 10.316.52-.365 1.987-1.764 2.01-1.918.013-.079.047-.128.081-.12.034.006.235-.179.442-.402.239-.263.343-.484.284-.607-.069-.145-.05-.168.07-.095.127.076.275-.062.654-.606.272-.392.521-.693.564-.677.04.014.113-.143.156-.34.044-.208.184-.467.316-.586.316-.297 2.54-4.072 2.525-4.293-.005-.062.057-.146.135-.185.22-.107.284-.499.079-.486-.092.009-.03-.062.131-.146.284-.148.305-.14.293.145zm-27.78 13.882c.287.189-.417-.271 0 0zm-12.415 6.26c.495.354-.4 1.891.012 2.155.105.07-.234.733-.382-.835-.028-.302-.02-.873-.02-.873-.055.025-.058-.097-.003-.273.113-.381.113-.381.393-.174zm38.965-18.682c-.037.11-.475.18-.171.016.107-.06.189-.066.171-.016zm-37.907 19.723c.235.323-.242 2.249.14 2.219.674-.045-.833.374-.908-.518-.043-.498.169-2.548.54-2.027l.228.326zm9.204-3.865c.105-.011.214.027.241.076.107.224-.738-.027-.241-.076zm19.562-9.502c.067-.031.122-.032.135-.001.137.281-.449.153-.135.001zm-28.008 16.397c-.333-.04-.464-3.472.04-2.014.11.224.156 2.037-.04 2.014zm23.039-13.257c.051.501-.038-.406 0 0zm-19.795 10.681a.122.122 0 01.169.055c.145.301-.385.049-.17-.055zm-.406 4.982c1.582 1.336-.56.192-1.541-1.259-.187-.271-.745-.751-.755-1.028-.007-.15-.091-1.215.044-1.28.006-.002.231.434.496.957.385.76 1.119 2.072 1.756 2.61zm21.963-14.139a9.381 9.381 0 011.088-.207c-.196-.133 4.255-.179 4.439-.466 1.717.246-15.91 11.82-14.673 9.869.546.087 2.649-1.713 2.155-1.472.106-.051.058.243.243.155.661-.317.073-.414.662-.618.205-.071 1.775-1.743 1.913-1.914 1.054-1.299.762-1.175.762-1.175 1.264.128-.268-3.144 3.411-4.172zm-19.466 9.517c.894.042-.526.13-.285.376.156.16-.197-.077-.3.088-.142.225-.32-.055.232-.423.044-.029.2-.048.353-.041zm.414.509c.489.031.858.303.603.042-.228-.235.137-.176.153.035.017.189.492.376.702.274.08-.039.158-.011.194.063.032.067.08.079.102.026.022-.057.229-.069.483-.029 7.385 1.203 10.773-2.251 10.773-2.251-.001.196.823-.108.476-.265 4.401-2.52 3.746-2.318 3.746-2.318.514-.005 5.46-3.68 5.89-3.891.184-.089 1.619-1.105 1.621-1.106.16.041-.226.688-.308.681-.045-.006-6.741 5.646-6.695 5.744.285.581 3.081-1.819 2.9-1.934 1.367-.86 4.084-3.736 5.144-4.57 2.537-1.993-6.116 7.51-6.23 7.275 0 0-4.128 2.559-6.95 3.498-.974.326-3.981.667-4.076.746-.071.063-.351-.062-.583-.046-.216.017-2.031-.088-2.167.024-.068.056-.093.058-.056.009.161-.227-1.432-.429-1.869-.241-.125.051-.168.042-.103-.029.062-.068.063-.152 0-.191-.155-.102-.029-.138.531-.159 11.143-.39 20.53-8.955 5.259-.968-.397.211-1.271.249-2.2.351-.555.059-1.06.166-1.111.234-.047.068-.068.068-.046-.002.057-.188-1.883-.056-2.078-.049-.319.012-.637.083-.711.158-.07.076-.126.087-.118.024.004-.009-5.416-1.273-3.276-1.135zm25.166-11.057c-.039.373.036-.343 0 0zm-12.045 7.902c.068-.261.123-.314.191-.173.048.1-.297.577-.191.173zm-5.061 3.179c-.018.151-.742.227-.207-.031.123-.058.216-.045.207.031zm1.505-.76c-.183.198.239.2-.204.414l-.31.148c.559-.797.624-.681.514-.562zm-.594.762c-.096.277-.423-.368-.126-.266.148.052.179.12.126.266zm-10.934 5.303c-.19-.018-.3-.239-.107-.22a.246.246 0 01.196.123c.033.07-.01.105-.09.097zm.076.303c.159.105-.096.225-.167.078-.03-.065-.03-.122-.002-.133.03-.015.097.008.17.055zm13.181-5.444c-.042.116-.47.176-.172.014.108-.06.189-.066.172-.014zm2.427-1.115c.282.187-.381-.253 0 0zm2.76-1.326c-.043.439-.419.064-.098-.091.067-.033.108.003.098.091zm-9.332 4.624c.163.105-.061.21-.22.106-.16-.105.061-.211.22-.106zm16.219-7.26c.213.133-.366.604-.323.172.016-.186.175-.268.323-.172zm-22.398 11.768c-.07.206-.269.171-.247-.042.009-.085.082-.154.165-.148.093.008.124.076.082.19zm15.591-7.132c.067-.032.132-.01.163.056.151.317-.489.101-.163-.056zm-2.819 1.901c.03-.015.07.018.104.086.147.311-.436.074-.104-.086z" fill="#fff"/><path d="M115.46 120.557c-.03.016-.03.069.002.137.154.31.33-.296-.002-.137zM82.254 61.14c.198-1.354.19-1.812-.039-2.124-1.458-2.004-1.345 3.73-3.146 3.648.78.035-1.832-8.538-2.059-9.282-1.513-4.965-6.684-12.294-10.252-15.982-7.059-7.289-3.325-1.724-4.106-1.283 0 0-2.828-3.209-4.273-4.297-.48-.364-16.884-10.89-17.237-10.587-.412.37-.735-.788-.814 1.286-.02.453-.67.674-.769 1.15.134-.647-7.323 4.475-7.683 4.912-.889 1.085-3.114 1.924-4.37 4.074-.304.525-.763 1.185-1.001 1.446-.24.263-.589.776-.767 1.142-.182.365-.381.69-.447.726-.066.038-.209.284-.325.56-.115.277-.256.48-.319.464-.266-.075-1.492 2.567-1.231 2.65.089.031.042.057-.094.055-.32-.006-.319.383-.508.702-.177.296-.047.63-.113.628-.949-.04-1.24 3.191-1.463 3.181-.22-.012-.653.491-.152.543 0 0-1.161 3.803-.924 4.219.44.786-1.282-.375-1.381-3.264-.066-1.944-1.366.11-1.027.714.096.17-.54 2.468-.59 2.663-.056.227-.63 2.111-.43 2.22.116.063-.728 1.042-.385 1.326.149.123-1.561 3.184-.983 3.504 0 0-.232.182-.228.829.004.188-.103 2.564.07 2.62 0 0 .002.603-.001.603-.07 0-.212.666-.005.683 0 0-.309 1.541.106 2.388.12.249-.23.767.037 1.532.221.644-.029 1.355.333 1.883.176.252.173 1.794.122 1.822-.784.443-2.063-6.608-2.13.267-.003.507-.06.965-.12 1-.058.033-.053.163.014.281.068.122.064.257-.007.294-.075.042-.08.263-.013.496.065.234.053.455-.028.502-.09.053-.13 1.575.092 1.704 0 0-.58 1.879-.15 2.406.163.203-.335 1.231-.01 1.5.142.117-.499.742.045 1.044 0 0-.068.714-.078.735-.24.578.766.197.22.504-.321.18-.052.407-.14.837 0 0 .762 4.138.766 4.153 0 .002 1.02 3.02 1.014 3.02-.106.061 3.363 7.51 3.025 5.639-.044-.263.457.616.359.823-.345.759 4.109 5.122 5.167 5.837 8.136 5.496 9.033 4.449 13.354 6.098.412.159.942.22 1.187.139.247-.079 1.079.023 1.877.228.791.206 1.576.337 1.759.3.182-.036.53-.022.777.038.718.17 1.538-.034 2.117.07.483.091 2.304-.338 2.17.129-.052.197-1.723.415-1.912.496-.192.086-.63.018-.722.183-.1.17-2.284.967-2.468 1.039-.426.171-.912.288-1.066.257-.212-.038-.315.045-.42.343-.073.215-.199.379-.273.361-.076-.023-.372.06-.655.18-.64.277-1.069.411-2.182.681-.477.119-1.16.318-1.517.444-1.323.478-4.672.499-4.932.033-.067-.117-.184-.167-.278-.116-.087.048-.379.01-.621-.086-.43-.169-.47-.151-.574.205-.102.342-.06.431.381.786.809.652 3.276 1.343 3.48.971.06-.106.102-.095.099.024-.01.335.881.477 2.38.378.939-.06 1.434-.174 1.627-.372.15-.149.26-.195.234-.1-.054.215 1.728.329 1.846.123.052-.096.139-.118.218-.051.068.064.777.092 1.557.065a142.41 142.41 0 012.301-.05c.486-.002 1.057-.06 1.286-.132.454-.14.634-.187 2.033-.533.578-.144.96-.324 1-.462.088-.326.276-.373.425-.106.093.165.226.159.438-.018.554-.467.822-.154.455.531-.277.513-.295.736-.096 1.158.37.784 2.083 1.769 2.402 1.387a.294.294 0 01.343-.076c.114.057.096.099-.044.095-.359-.017-.105.256.302.327.303.05.319.039.124-.075-.173-.096-.177-.135-.014-.124.118 0 .225.084.223.17-.003.091.15.193.32.226.608.106 2.002.884 2.332 1.303.179.229.4.406.508.411.116.008.15.16.09.389-.053.205-.033.338.048.291.167-.093.904.539 1.164.997.174.311.543.374.925.161.098-.057.151-.532.123-1.058-.226-3.895 3.126-4.316 3.31-7.028 3.323.277 8.245 1.124 8.245 1.124.049-.025.479-.011.948.031 2.257.212 4.484.301 4.59.185.071-.078.102-.069.076.027-.027.085.067.205.195.249.134.049.904.379 1.7.726a50.42 50.42 0 001.706.717c.138.047.89.368 1.663.71 1.587.695 4.158 1.52 4.388 1.399.082-.037.46.017.824.121.48.138.702.121.769-.064.074-.187.154-.21.304-.084.277.235.612.054.688-.366.05-.27-.111-.37-.95-.581-.556-.144-1.382-.446-1.837-.676-.454-.23-.992-.449-1.195-.487-.323-.06-2.185-1.292-2.326-1.546-.03-.053-.329-.298-.663-.541-.78-.558-1.77-1.446-2.6-2.338-1.128-1.214-2.326-2.191-2.894-2.372-.13-.045-.72-.393-1.314-.776-.592-.389-1.733-.913-2.551-1.169-.815-.259-1.506-.519-1.539-.582-.036-.061-.142-.064-.247-.005-.102.056-.428.049-.74-.021-.509-.114-2.175-.182-2.485-.553-.235-.283-.203-.315 1.167-1.086.781-.436 1.752-1.099 2.18-1.485 1.243-1.126 3.285-2.965 4.204-3.751 1.246-1.062 5.078-5.1 5.12-5.39.034-.251.528-1.092.697-1.187.782-.442 7.01-9.45 3.01-25.58-.687-2.77-.403-1.923-.146-3.675zM70.762 44.612c.608.688 4.737 7.882 5.747 9.633l.55 2.12c.243.919 1.334 5.105 1.038 6.018-.46 1.408 1.181.657-1.742 2.47-2.517 1.556-1.392.94-2.592-1.526 0 0 1.003-8.039-.924-13.579-.696-2.002-3.755-7.027-3.755-7.027-.122-.894.448.774 1.169 1.062 0 0 .277.569.509.829zm-1.189.756c.299-1.082 4.497 9.375 3.518 9.926 0 0 .243.24-.383 6.14-2.367-2.894-.725-1.164-1.048-6.5-.059-.997-.051-2.92-.842-5.837-.204-.751-.307-1.051-.825-2.35-.258-.654-.449-1.279-.42-1.38zm-3.777-6.748c.09-.052.181-.028.224.058.12.205-.073.555-.244.255-.057-.105-.08-.258.02-.313zm14.22 26.76c.341-.188-.32 3.737-.356 4.125-.048.453-.637 3.329-.637 3.329.153.269-.388 1.795-.459 2.062-.687 2.53-2.377 6.99-2.67 7.182 0 0-1.227 2.68-1.46 3.047-.002 0-1.392 2.152-1.392 2.152-.103.186-2.261 3.494-2.234 3.695.014.098-.045.155-.148.15-.095-.005-.28.195-.41.441-.13.253-.271.404-.305.337-.037-.062-.09.033-.118.224-.03.185-.371.664-.77 1.064-.459.463-.648.765-.524.831.118.062.108.097-.033.093-.124-.003-.343.118-.477.258-.205.222-.193.289.07.39.284.101.274.12-.08.104-.343-.012-.481.082-.848.572-.243.327-.588.699-.773.845a3.461 3.461 0 00-.568.55c-.529.686-1.338 1.452-2.344 2.218-.736.557-.924.731-.97.901-.022.074-.165.153-.308.174-.642.084-.063 1.139.398.881.186-.106.2-.058.093.308-.086.294-.209.418-.39.392-.307-.044-2.12 1.843-2.367 1.402-.431-.773 2.77-1.128 1.998-2.232-.527-.754-3.462 2.426-3.612 1.682-.025-.118 1.146-1.359 1.268-1.55.184-.283 1.21-1.301 1.724-2.005 1.855-2.535 5.228-4.627 7.257-7.644l3.937-5.827c.338-.192 4.237-9.133 3.786-9.377.403.221 3.358-10.567 3.722-10.774zm1.635 3.836c.633-1.118 3.427 11.734-3.616 20.914-.222.295-.353.578-.281.622.069.044.08.175.02.28-.067.12-.107.11-.1-.028.001-.119-.064-.19-.141-.147-.082.045-.152.181-.155.3-.002.2-.425.778-.816 1.119-.127.11-.884 1.04-.978 1.077-.057.023-.127.179-.162.352-.028.167-.225.408-.416.515-.415.233-1.273 1.31-1.274 1.312 0 0-.691.56-2.39 1.618-17.831 11.102-5.523 3.557-2.439.288.353-.372 3.773-3.844 3.931-4.336.093-.303.724-.604.438-.564-.445.058-.36-.226.09-.291.345-.057.539-.212.865-.703.234-.353.344-.673.253-.727-.092-.048-.1-.141-.018-.202.487-.365 1.647-2.103 1.69-2.349.037-.238 1.258-2.262 1.371-2.685l1.233-3.49c.483.024 2.741-7.966 2.297-8.202 0 0 .7-1.73.498-2.087l.1-2.586zm-.962-.681c.079-.629.196-1.028.262-.906.163.292-.176 1.528.089 1.67.098.058-.424.051-.003.595l-.158.73c-.121-.005-.354 1.356-.328 1.371.25.067-.983 5.532-.998 5.805-.039.647-.413.572-.472 1.07-.036.271-1.244 3.646-1.015 3.774.205.113-1.588 1.727-.959 2.103 0 0-1.09 1.916-1.09 1.912 0 0-.658 1.345-1.053 1.857-.702.912-.966 2.007-2.12 3.309-1.282 1.447-4.324 5.18-7.087 7.133-1.015.716-1.37 1.149-1.093 1.335.103.069.037.066-.14-.007-.241-.099-.49-.023-.923.275-.322.223-.63.348-.67.278-.11-.198.201-.505 1.255-1.218.505-.347 1.142-.877 1.428-1.193.575-.639 1.23-.946 1.611-1.448a42.022 42.022 0 012.483-2.903c.476-.506.905-1.04.974-1.209.188-.466.878-1.131 1.023-1.459.847-1.941 7.261-8.771 8.984-22.874zM68.613 46.248l-.107-.709c2.441 4.823 2.546 9.297 2.247 13.112-.03-.047-2.14-12.403-2.14-12.403zm-3.859-7.234c.3-.171.133.751.287 1.02.421.755.729 3.298.98 4.023.296.865.061 2.254.484 2.61.265.227-.234.213-.03.597.151.286.317 6.248.326 6.568.032 1.195.223 1.535.223 1.535-.488.626-.281 2.286-.281 2.286-.123.02-.238.24-.257.503-.329 4.243-1.21 2.66-1.663 3.695-.156.36-6.023 4.543-6.71 3.519-1-1.495-1.433-1.303-2.663-2.613-.878-.942 1.26-8.15 1.976-8.553l3.029-5.575c.158-.418 3.057-3.893 2.701-4.19 0-.002 1.598-5.43 1.598-5.425zm-.992-.398c.017-.062.21-.06.433.01.82.24-.443.05-.433-.01zm2.959 4.996c.048-.17.329.32.516.894.544 1.677 1.686 7.24 1.551 7.583-.062.164-.06.369.004.485.14.25.285 2.926.399 3.126.052.086-.01.27-.136.397-.13.13-.323.638-.446 1.154-.28 1.193-2.242 4.846-1.49.789.448-2.417.4-2.913.4-2.913.61-1.426-.892-11.176-.798-11.515zm11.423 24.793c-.175.303-3.437 10.064-3.493 10.238-.051.16-1.928 4.582-1.928 4.582-.097.315-1.752 3.275-1.546 3.5.168.174.15.217-.087.172-.237-.042-.376.075-.65.548-.198.343-.475.682-.637.771-.162.09-.252.226-.205.307.121.219-.397.328-.275.544.046.086-.008.197-.124.264-.193.11-1.028 1.172-1.94 2.46-.245.349-.55.69-.691.77-.134.072-.21.213-.166.294.051.086.003.153-.11.148-.197-.008-1.265.924-1.628 1.42-.12.163-.466.486-.77.706-.96.705-3.338 3.347-3.436 3.815-.081.398-1.418.838-1.493 1.388-.005.035-1.114 1.147-1.29 1.415l-1.04 1.254c-.502.287-1.371 2.183-2.592 1.851-.433-.123-.66-4.039-.459-4.406.066-.117-.086-2.622-.086-2.622.153-.048.614-2.263.161-2.565.107-.383.662-1.038.278-1.245-.125-.07.208-.076.242-.554l.461-2.842c.702.027.675-2.86.88-2.855.237.007 2.333-4.583 2.317-4.613-.027-.05 1.554-2.821 1.57-2.822 0 0 6.349-6.537 7.692-7.294-1.073.863 15.108-11.596 11.045-4.629zm-14.507-29.35c.295-.163.065.894-.02.313-.008-.055-.033-.281.02-.313zm-3.317-4.25c3.51 3.2 2.144 6.497 1.7 8.425.078.077-1.423-1.17-5.339-4.988 0 0 .117-.504-.967-2.379-2.343-4.044-10.93-11.64-10.93-11.64.081.015 3.104 1.826 3.104 1.826-.017.036 6.509 3.752 6.509 3.752.868.288 5.524 4.64 5.923 5.003zm3.09 6.131c.087-.052.179-.026.229.058.245.442-.651.178-.229-.058zm-.213.836c.096-.774-.124.972 0 0zm-.356 1.229c.353-.197-.007.825-.081.367-.02-.106-.01-.314.081-.367zm17.367 32.677c.045-.074.144-.04.21.082.368.654-.481.391-.21-.082zm-8.34-12.908c1.148 4.33 4.351 2.195-3.807 7.184.002-.003 2.094-9.52 2.094-9.52l1.712 2.336zM61.092 44.372c.23-.13.28.226.072.548-.112.178-.13.366-.038.412 0 0-.425.471-.604 1.068-.06.195-.927 1.83-.819 1.89.057.033-.6.823-.665.93 0 0 1.184 1.323-5.628-10.526 8.032 4.439 7.682 5.678 7.682 5.678zM76.59 74.464c.202-.716-.16.578 0 0zm-7.802-13.698c.87-.976-.502 9.037-2.537 10.505-.72.518-.706.8-.706.8-.288.049-3.514 2.922-3.686 3.196a2.413 2.413 0 01-.49.53c-.829.58-.602 1.027-1.292.082-.81-1.098-1.852-1.983-2.71-2.304-5.251-1.952 10.785-12.102 11.421-12.809zm-15.38-27.17c.1.184.347.55.547.812.453.578 1.962 3.677 1.9 3.9-.508 1.805-3.697-5.654-8.187-9.665-4.905-4.39 4.842 3.271 5.74 4.952zm-2.94-.82c.505.687 1.023 1.39 1.163 1.578 1.03 1.414-.251.385-.585 1.414-.157.49-10.781-16.858-.577-2.992zm16.14 28.689c.09-.048.163-.055.186-.016.239.426-.603.25-.185.016zM55.104 42.557c2 2.885 3.94 6.652 2.116 9.875-.227-6.428-7.227-17.266-2.116-9.875zm-6.98-10.017c.497.79 1.007 1.57 1.134 1.744.545.72 1.139 2.9.709 3.966-3.27 8.143-1.52 5.402-3.039 2.023-1.008-2.247-6.701-20.255 1.196-7.733zm5.204 10.918c-1-3.298.945.868 2.079 4.115a39.247 39.247 0 011.345 4.894c.105.11-.772 2.355-.834 2.388 0 0-.069-3.082-2.59-11.397zm-2.342-3.448c.44-1.05 3.356 15.309.576 13.657-1.138-.673-1.679-.916-2.6-1.342.012.254-.183-3.487-.06-3.719 0 0-.217-3.122 2.084-8.596zm23.31 40.436c.102-.06.384.425.118.415-.19-.007-.28-.323-.118-.415zm-32.267-54.77c.026-.477.065-.538.184-.298.204.405 3.915 14.514 3.91 14.503-4.99-7.799-4.749-1.286-4.094-14.205zm10.686 19.526c-.025-1.432 1.614 4.471 1.764 4.628.138.137.186.255.105.252l.371 4.094c.658 3.741-1.6.812-1.39.153.632-1.983-.83-8.105-.85-9.127zm21.964 40.27c.082-.048.186-.016.234.073.158.28-.639.155-.234-.074zM39.673 24.46c.766-.528.922-.21.678-.076-.428.243.455 1.387.211 1.375-.565-.022-1.37 5.958-1.37 5.958-1.802-.504-.642-4.512-3.262-3.037-.074.041-1.428 2.037-2.578 2.661-.448.248-.64.642-1.312 1.121-.42.301-1.198 1.015-1.725 1.592-.532.575-1.175 1.145-1.424 1.269-.26.124-.556.349-.679.518-.402.562-2.875 3.21-3.127 3.349-.132.076-.31.347-.372.578-.085.305-.918 1.511-.907 1.53.137.25-.903.401-.317-.39.22-.301 1.31-2.918 1.554-3.055.133-.074.232-.215.237-.336.003-.113.284-.583.628-1.042.343-.464.67-.976.74-1.153.068-.181.327-.575.591-.898a41.08 41.08 0 001.172-1.54c1.01-1.392 4.164-3.928 4.296-3.962 0 .001.922-1.265 6.966-4.462zm32.419 64.91c.308-.041.417.043.207.16-.174.099-.58-.106-.207-.16zM53.675 56.744c1.6 1.009.715 1.633.253 3.625-.157.67-.137.966.103 1.28 1.305 1.74-4.054-2.83-4.06-2.828-.382.073-1.836 2.954-1.842 3.197-.008.334-1.023 1.908-1.195 1.858-.18-.047.165-1.185.06-1.377 0 0-.184-2.26-.855-4.08-.313-.858-5.993-14.139-.84-6.053.393.615 3.065 1.521 3.172 1.71 0 0 2.122.727 5.204 2.668zM43.383 38.409c3.22 3.734 8.684 19.944.047 9.685-.456-.541-.377-.184-.599-.936-.08-.28-1.909-3.189-2.262-3.053 2.95-1.134-8.343-18.641 2.813-5.695zm8.908 16.934c.404-.227.098.524-.06.236a.169.169 0 01.06-.236zm3.959 9.247c1.113.978 1.46 1.532 1.974 2.271l-.496.794c-3.288 5.27-2.28 5.487-4.262 4.931-.045-.01-7.25-1.105-7.25-1.105-1.684.368 3.759-9.415 3.665-9.442-.072.044.82-1.329 1.135-1.193.183.081.639.49.716.446.223-.127.589.55.745.266.126-.222.929 1.547 1.202 1.053.002 0 1.004.659 1.004.662.488.509-.34-.407.31-.224-.001 0 .526.902 1.256 1.54zM38.283 36.519c-.517-3.076 2.65 7.74.475 8.958 0 .001.12-5.457-.475-8.958zm41.842 75.489c.713.546 1.31 1.012 1.323 1.037.226.398-2.763-.892-2.8-.875-.17.096-1.293-.823-1.454-.733 0 0-.432-.283-.878-.391-.71-.168-.27-.246-.83-.432-1.167-.401-.782-.355.632-1.384 1.18-.859.547.123 4.007 2.778zM37.798 43.563c-.446 6.103-5.184 4.73-11.222 14.987-.104.056-.133.168-.064.247.071.08.022.227-.112.339-.127.1-.349.397-.467.63-.123.236-.259.389-.289.336-.156-.278 1.407-4.458 1.519-4.758.637-1.731.292-.624 1.473-2.973.928-1.843 1.856-3.42 2.698-4.588.328-.456.78-1.22.996-1.685 4.02-8.693 6.638-18.624 5.468-2.535zm-2.215-9.649c.989-.658-.01 1.035-.166.755-.061-.11-.06-.627.166-.755zm-3.715 5.15c.05.091-.005.158-.116.152-.114-.003-.318.213-.45.468-.124.254-.387.62-.561.79-.178.17-.268.384-.196.461.065.073.002.16-.143.181-.284.042-1.962 1.978-1.928 2.224.01.09-.045.144-.14.138-.091-.004-.302.172-.484.397-.185.228-.353.438-.388.47-.36.356-.589.686-.533.778.036.068-.102.266-.314.45-.207.178-.417.462-.466.63-.048.156-.174.377-.264.453-.307.274-.625 1.028-.511 1.228a.454.454 0 01-.005.391c-.065.116-.108.098-.104-.038.006-.295-.065-.245-.386.25-.44.671-.81 1.952-.599 2.07.107.062.085.124-.057.151-.249.046-.527 1.224-.464 1.986.02.24-.038.468-.133.523-.093.049-.128.554-.076 1.11.052.553.05 1.038-.002 1.066-.126.073-2.388-3.556-2.466-3.677-.375 1.168.48-8.464 6.83-13.126 13.854-10.188 3.465-.401 3.956.473zm36.92 54.58c.086-.053.176-.03.223.056.12.208-.075.556-.242.254-.06-.105-.085-.253.019-.31zm-9.4-16.61c.162-.192.302-.041.261.288-.013.117-.142.379-.293.593-1.796 2.54-1.647 1.782-1.984 1.235-1.798-2.906-9.712-6.32-9.712-6.32 6.319-.97 10.985 3.586 11.727 4.204zm8.01 14.865a.343.343 0 01.319.015c.234.126-.066.296-.293.168-.097-.056-.12-.13-.027-.183zM35.89 35.948c.681-1.11-1.059 4.082-1.043 4.1.13.119-.321.191-.366.614-.039.378-.778 1.284-.766 1.383.005.08-.283.561-.638 1.066-.519.733-1.03 1.794-1.03 1.794-.016-.024-1.922 3.434-2.26 3.576-.023.006-.251.632-.44.737 0 0-1.154 2.526-1.989 3.746-.266.386-.89 1.465-.405 1.506 0 0-.424-.113-1.386 2.7-.668 1.96-.783 1.465-.568.671.334-1.217.834-6.081 2.548-8.579.141-.209 2.163-3.67 2.248-3.905.081-.224.439-.567.375-.678-.097-.174 1.715-2.129 1.533-2.455-.065-.113.335-.095.438-.363 0 0 .134 0 3.75-5.913zm39.178 71.344c-.025.089.239.356.565.575.75.509.599.427-.037.897-.535.393-1.535 1.849-1.848 1.295-.1-.181 1.686-1.148 1.518-1.441-.115-.206-2.506 1.331-2.972 1.271-1.357-.172-.517-.936-.548-.42-.015.315 1.701-1.035 1.958-1.215.096-.066 1.392-1.06 1.364-.962zm-1.722-.605c.044-.296.1-.295.56.007.425.286.467.351.247.384-.258.045-2.08 2.077-2.493 1.957-.027-.007-.747.703-1.086.571-.294-.112-.486.158-.536.069-.093-.166 3.252-2.54 3.308-2.988zm-1.01-.866c.039.071.246.072.439.001.197-.062.285-.066.193.003-.067.047.05.587-.322.82-.54.345-.863.807-1.859 1.601-.64.507-2.008 1.955-2.443 1.181-.112-.195 1.937-1.593 2.05-1.816.373-.742 2.256-1.016 1.52-1.633-.317-.264-1.522.966-1.89 1.26-2.116 1.694-2.375 2.112-3.072 2.063-1.072-.074.117-.671 1.067-1.315 1.972-1.331 1.815-1.431 2.77-2.153.73-.538 1.342-.377 1.546-.012zm-38.493-68.46c1.143-1.794-1.315 2.355-1.76 3.393 0 0-.804.863-2.803 3.997-.218.34-.31.894-.31.894-.208-.003-.601.823-.853.967-.101.055-.46.914-.568 1.084-.23.374-2.05 3.092-1.65 3.326.23.138-.732.656-.268.907 0 0-1.177 2.95-1.034 3.205.438.785-1.015 1.667-.168-1.886.266-1.114.49-3.12 1.08-4.101 2.375-3.966 3.237-5.155 3.237-5.155.095-.607.558.306.322-.2-.088-.192.517-.498.359-.782 0 0 .34.06.843-.679.144-.216 2.044-2.471 1.92-2.692-.037-.07.06-.207.207-.293.3-.17.206-.712.4-.704.92.034.122-1.142.439-1.322.16-.087.33.479.607.041zm8.72 16.075l-.445-1.983c1.807 3.416 6.72 13.992 3.316 15.906 0 0 .457.874-2.87-13.923zm-2.63-3.764c.123-.553.268-.975.335-.962.072.02-.01 3.575-.006 3.684-.253.651.996 5.865.996 5.865-.132.285.094 1.22.64.912.771-.432-1.649-7.91-.715-8.45.378-.218.224 1.248.57 1.562 0 0-.325-.15-.046.97.633 2.592 1.114 3.728 1.114 3.728l.318 1.431c2.345 4.16.897 19.914.321 9.183-.176-3.321-.45-4.224-.45-4.224.203-.727-.387-4.343-1.34-3.878-.098.046.897 6.253.9 6.37.258 10.284-2.983 1.426-2.64.2.183.93-1.78-8.21.003-16.39zm-.964-1.784c.088-.052.16-.057.183-.018.248.441-.605.25-.183.018zm16.732 30.646c.92.844 1.494 1.684 1.443 2.123-.018.163-7.261-7.436-1.443-2.123zM38.845 49.326c1.645-4.551-2.461 9.188.872 19.209.876 2.626.673 1.583-3.19.279-5.435-1.823 1.913-18.368 2.318-19.488zm30.44 55.387c.398.054.878.189 1.047.293.33.212.348.185-.81 1.158-.411.346-3.864 2.577-3.454 2.817 0 0-1.526-1.076 3.336-3.474.456-.227.28-.975-.741-.244-.129.09-4.383 3.553-4.507 3.517-.126-.034-2.115-.498-2.08-.625.186-.651 2.838-1.971 2.84-2.028.055-1.06 5.03-3.358.438.223-5.273 4.079.16.98 1.069-.101.524-.629 1.885-1.668 2.863-1.536zm-14.46-25.229c.556.216 2.074 2.592 1.242 3.059 0 0-1.852-2.774-3.065-3.538.493.486-4.924-4.302-5.257-3.693.784-.443-6.432-3.637 3.197.793.042.008 1.94 1.431 1.982 1.406.022-.008 1.891 1.971 1.9 1.973zm-16.86-30.448c.237-.137.229.645-.126.845-.495.28-4.097 9.775-3.533 10.776 0 0-.308 4.458.427 7.38-.918-.673-.578-.422-1.495-1.1 0 0-1.282-2.258 1.344-11.778 0 0 3.025-5.924 3.382-6.123zM52.72 76.27c.033-.02.116.073.186.187.339.606-.516.001-.186-.187zm-1.241-.895c.196-.7-.156.562 0 0zm.231.69c.084-.05.183-.02.238.068.157.285-.644.158-.238-.068zM35.9 49.895c1.29-.973.352-.199-.67 2.6-.402 1.118-4.113 8.745-2.674 9.126-.756-.383-.217 3.648-.3 4.47.579.451-2.77-3.379-2.708-1.604.168 4.625-2.377 11.205-3.085 11.601.141-.08-.648 2.274-.681 2.28-1.14.199-2.007-5.425-1.592-5.66 0 0 .042-7.417 2.889-12.123.07-.117 1.677-2.89 1.608-3.013 0 0 .846-.827 1.236-1.375.164-.227 1.054-1.288 1.055-1.3.01-.233.502-.296.437-.41-.104-.192 3.23-3.619 3.384-3.585.01-.002.865-.872 1.1-1.008zm20.18 34.971c-.425.24-.335 1.132-.591.674-.312-.553 1.149-.988.592-.674zm-3.231-4.88c5.104 4.659-.514 7.538.692 9.688.004.002-.321 1.59-.284 1.932.17 1.518-.926-3.094-2.063-5.64-2.227-4.983-4.254-6.442-4.254-6.442 1.462-.827-17.794-13.264 1.669-3.176.091-.32 3.992 3.414 4.24 3.637zm12.158 23.163c.971-.546-.756.784-.525-.037.175-.617-.134.41.525.037zm.346 1.099c.52.064.822.448.355.457-.11.002-3.436 2.427-3.546 2.634-.384.74-1.66.977-1.036.388.377-.348 3.716-3.538 4.227-3.479zM55.38 85.844c.04-.022.1.019.15.113.235.416-.525.1-.15-.113zm8.399 18.328c.666-.1.258.322-2.346 2.455-4.044 3.31 1.398-2.308 2.346-2.455zM45.676 74.308c.118.005.23.063.278.146.332.589-.84-.161-.278-.146zm16.218 29.863c.364.646-2.496 3.26-3.154 3.007-.442-.171 1.051-1.359 1.414-1.699.193-.177 1.585-1.582 1.74-1.308zM49.163 83.613c.257.888 2.645 4.16 2.707 7.035.022 1.027.999 2.135.796 4.414-.063.672-.017.94.16.95.164.002.153.095-.038.277-.45.442-.04 2.051-.581.108-.754-2.68-.779-4.433-1.404-5.455-.252-.41-1.72-4.067-1.907-4.51-.204-.477-.689-.379-.824-.615-.05-.092.072-.091.285.003.326.15.358.139.242-.085-.074-.145-.284-.269-.485-.28-.324-.023-.329-.033-.062-.084.263-.055.233-.158-.239-.864-.302-.447-.91-1.374-1.367-2.086-2.216-3.434-4.053-5.474-7.052-7.823-11.304-8.834 8.143 3.416 9.769 9.015zm-.807-1.78c.085-.046.2.015.275.143.28.498-.691.09-.275-.144zM28.227 46.741c.09-.05.165-.055.185-.016.248.44-.604.251-.185.016zm30.26 56.933c.654-.458 1.378-.69 1.214-.393-.353.644-2.713 1.236-1.214.393zm1.053 1.489c.284.01.298.115.031.264-.286.165-.284-.271-.031-.264zm-1.742.615c2.745-.808.083 1.008-.518.774-1.157-.457-.267-.336.518-.774zm-12.28-23.656c.45.775 4.2 6.366 5.1 10.79.221 1.092.463 1.855.463 1.855.076.5.336 1.651.336 1.651-.102.062 1.233 5.125 1.274 5.199.255.456-.678.12-.521-.165 2.926-5.283-19.88-37.222-6.652-19.33zm5.343 10.534c.042-.022.1.019.15.114.236.415-.523.096-.15-.114zm.103.528c.04-.022.098.02.15.11.233.416-.526.098-.15-.11zm6.015 11.567c.086-.05.16-.059.185-.018.238.429-.608.254-.185.018zM44.374 82.606c5.146 9.23 7.763 20.965 7.763 20.965.109.027-.036.622-.17.698-.045.028-.145-.056-.213-.17-.055-.102-2.375-1.688-2.341-1.264 0 0-.191-.506-.84-.977-1.479-1.075-3.718-3.393-3.718-3.393-8.398-4.802-17.166-38.177-11.128-27.453 0 0 9.203 8.998 10.647 11.594zm2.42 4.183c.119-.067.3.395.212.552-.112.201-.305-.498-.212-.552zm1.669 4.209c.676.016-.46-.014 0 0zm3.716 6.742c.167-.093.182.257.019.45-.324.385-.11-.397-.02-.45zm-2.802-4.442c.085-.046.175-.02.222.068.25.441-.823.273-.221-.068zm9.313 16.899c.256-.146.401.085-.276.72-1.042.978.48 1.036.184.517-.086-.158.662-.453.551-.057-.092.333-1.817 2.292-1.805 2.314 0 0-.436.626-.588 1.022-.22.575-.473.884-.93.074-.303-.539-.839-.112-.447-.378.264-.178-.255-.303.074-.356.946-.153 3.472-3.268 2.002-2.237-.246.171-2.484 2.091-2.662 2.013-1.183-.532.904-.769.6-1.154-.377-.485 1.277-.185 1.023-.637-.058-.104 1.2-.862 1.27-1.122.27-.961-.084.523.572-.278.08-.101.324-.382.432-.441zm-.643-.744c.438.122.39.277-.231.76-.434.335-.574.543-.48.715.119.227-.519.009-.902.365-.794.737-1.167.685-1.974 1.585-1.047 1.167-1.213.056-.815.067.262.013.755-.952.974-.837.114.057 1.31-1.046 1.451-1.148.284-.203 1.706-1.586 1.977-1.507zm-5.542-9.834c.047-.082.14-.052.206.067.253.452-.456.362-.206-.067zm3.723 9.669c1.116-1.072 1.418 1.044.944.277-.082-.13-2.366 1.749-2.55 1.876-.891.608-1.69 1.568-1.69 1.568-.537-.108-.828.359-.552-.032.098-.133 1.724-1.592 1.673-1.687-.02-.033 1.366-1.044 1.504-1.246.17-.25.632-.734.671-.756zm-.38-.988c.09-.048.217.006.282.123.179.32-.808.903-.954 1.237-.076.165-1.517 1.274-1.462 1.375.088.151-1.163.693-1.079.84.166.296-1.057.882-1.277.494-.117-.205.452-.229.363-.393-.046-.087 1.263-1.164 1.365-1.264 1.103-1.095.742-.57 1.882-1.644.117-.111.743-.692.88-.768zm-.738-.787c.123.104.332.272.44.352.154.109.123.164-.09.199-.503.07-4.041 3.506-4.53 3.781-.115.061-.358-.38-.034-.58.603-.379 1.962-1.824 2.566-2.321.42-.346 1.323-1.72 1.648-1.431zm-3.597-2.291c.286-.04.713.258.518.37-.715.401-.946-.306-.518-.37zm.191 4.136c1.111-.937 1.24-.59.952-.429-.357.202-.047.727-.263.413-.215-.32-1.172 1.17-1.49 1.079-.362-.099.506-.898.801-1.063zm-4.48-5.719c.311.286 1.1.697 1.773.925.67.225 1.042.382.838.349-.462-.066-.738.433-.774.164 0 0-15.906-3.78-19.273-21.729-.534-.95.109-13.84.313-6.102.502 18.777 16.424 25.752 17.123 26.393zm-16.442-32.31c1.53 8.65 8.75 23.08 9.863 23.2.188.654 5.618 6.616 6.018 6.786.77.315 2.332 1.869-2.365-1.585-1.499-1.1-1.635-.677-1.635-.677S28.61 83.896 30.782 71.33zm-9.388-16.082c.862 1.014 2.206 3.035 2.065 3.11 0 0 .43 1.298.53 1.925.191 1.211 1.117 1.972.66 3.09-.118.29-.37 1.324-.572 1.436-.237.132-1.392 5.7-.798 5.824-.198-.006-.42 2.283-.24 2.45 0 0-.035.91-.01 1.415.13 2.377-2.187-1.224-2.59-6.885-.169-.099.422-1.732-.32-1.764-.301-.016-.078-.402.134-.208.263.233-.172-9.959-.201-10.318-.076-1.012-.395-2.515-.395-2.515.033-.106 1.438 2.088 1.737 2.44zm26.652 50.063c.715-.404 2.325.945.835.414 0 0-5.43-.682-5.432-.684-.578.016-3.784-.687-4.009-1.086-.052-.093-.611-.049-.737-.273-.07-.129-.557-.205-.82-.383-1.955-1.304-.9.44-4.844-3.331-.805-.77-1.55-1.541-1.649-1.704-.46-.777-5.13-4.816-5.35-8.307-.506-8.14.24-7.584 1.346-11.055 2.5-7.894 1.142.095 1.548 3.277-.94 1.632 3.557 17.215 15.112 21.283 1.472.523.663.517 2.042.901.582.167 1.956.95 1.958.948zm-.475-2.352c.333.119 1.047.707.846.7-.242-.011-1.11-.796-.846-.7zm-1.199-2.609c.103.003.2.058.247.143.315.557-.734-.152-.247-.143zm3.255 7.739c.31-.421.441-.507.659-.428.42.161-1.824 1.999-.659.428zm3.611 6.244c.12.004.23.061.278.147.047.081.02.17-.07.224-.191.107-.47-.38-.208-.371zm-7.76-12.877c3.509 3.061-8.309-3.354-12.228-13.456-7.229-18.729 6.199 13.054 7.928 9.972.001 0 4.299 3.479 4.3 3.484zm3.264 6.366c.149-.18.324-.27.422-.214.102.05.114.116.035.164-.674.378-.26 1.209-1.31 1.66-.736.309-.174-.363.853-1.61zm-30.036-52.39c.11-1.52.182-1.82.354-1.511.118.209.154.42.084.456-.193.108.025.77.218.668.104-.05.106.034.004.199-.092.154-.1.423-.017.571.082.15.112.365.06.452-.055.095-.045.27.023.387.065.118.1.575.077 1.013-.078 1.56-.038 2.179.15 2.285.119.065.103.103-.034.1-.12-.008-.184.073-.134.162.054.097.07.417.036.727-.12 1.119.139 5.674.33 5.856.106.091.121.161.037.139-.173-.04-.087 2.917.094 3.24 0 0-.163.264.673 2.633.643 1.813-3.197-.445-1.955-17.376zm-.81-2.473c.213-.331.243-.325.447.066.116.224.13.353.032.27-.222-.176-.46.319-.295.613.058.105.06.25.007.318-.192.238-.662 6.272-.537 6.858.056.239.008.644-.106.913-.106.258-.147.494-.092.51.06.015.105.553.101 1.212 0 .916.059 1.188.262 1.203.193.013.195.054.003.163-.164.093-.22.425-.157.913.057.415.138.784.18.804.047.02.046.1-.002.2-.095.193.46 2.94.759 3.762 1.766 4.817-5.823-9.573-.602-17.805zm20.471 37.699c.688.023-.473-.014 0 0zm9.105 16.911c.48-.012.48-.012.306.509-.077.242-.177.378-.22.305 0 0-.44.654-.712.974-1.406 1.658-1.267.64-1.093.643.676.026.879-2.422 1.719-2.431zM18.134 55.585c.019-.07.107 0 .18.152.216.426-.225.001-.18-.152zm27.834 52.136c.832-.296-.55 2.193-.992 2.722-.791.951-2.168-.716-1.439-.132.41.337 1.394-2.222 1.914-2.401.008-.004.509-.186.517-.189zm-8.213-11.574c.069-.036.222.009.332.104.524.45-.632.064-.332-.104zM23.304 69.906c.04-.025.099.018.15.107.235.421-.528.102-.15-.107zm20.44 38.524c1.723-1.252-1.14 2.53-1.55 2.311-.239-.13 1.25-2.146 1.55-2.311zM26.596 77.501c.364-.43-.454.527 0 0zm13.728 27.685a.17.17 0 01.236.071c.161.289-.637.155-.236-.071zm.807 4.468a41.171 41.171 0 011.317-.692c.104.181-.836 1.32-.96 1.484-.232.305-1.243.408-1.67.567-2.258.868-5.589.468-2.74.205 1.145-.103 3.015-1.009 4.053-1.564zM23.396 77.832c3.352 4.076-.973 6.569.563 7.424 0 0-.234-.373-.067 1.933.02.302.474 3.438.651 3.68.507.698-.236.342.262 1.224.139.246.319-.125.398.017-.37-.664.589 3.037 1.275 3.372-.143 3.187-10.946-23.866-8.807-22.785-.018.47 4.984 4.044 4.658 4.04 0 0 .643.583 1.067 1.095zm14.511 26.179c.18.114.34.258.37.326.332.853-.09 1.029-.074.663.014-.269-.573-.28-.27-.337.468-.089-1.069-1.312-.026-.652zm-.872.249c2.534 1.537-4.604-1.321-4.608-1.31-.041.076-.096.022-.114-.12-.025-.145-.329-.476-.682-.742-.215-.162-2.308-1.848-2.39-1.59-.031.098-.056.08-.056-.034-.003-.116-.49-.638-1.072-1.143-.97-.85-1.93-1.585-2.214-2.139-10.971-21.125-7.119-4 5.19 5.259.618.466.732.607.474.6-.101-.007-.167.089-.15.216.02.131-.039.108-.138-.049-.348-.559-2.312-1.59-2.309-1.206.004.085-.022.063-.056-.055-.065-.233-2.203-1.55-2.434-1.74-.25-.203-.665-.281-.697-.41-.046-.165-3.18-2.93-4.026-4.07-2.453-3.296-5.102-9.46-5.102-9.46-.316.177-2.594-17.43-1.297-13.165.54 1.783 1.342 7.189 2.209 9.244-.296-.014.97 4.918 1.753 4.486.129-.076-2.98-11.773-3.036-11.803-.098-.058-.022-1.094.192-1.014 0 .002.822 2.289.958 2.534.321.578 3.014 8.655 3.592 9.066 0 0-.581-.746 2.407 5.59-.516-.098.177.898.331.677 0 0 1.103 6.59 10.416 11.072.32.155.544.333.525.414-.017.078.047.102.136.052a.19.19 0 01.27.082c.156.281.843.447 1.01.246.186-.226.647-.004.201.081-.494.095.14.079.717.431zM17.29 71.828c.23-.417-.251.451 0 0zm7.307 18.13c.187-.106.209-.003.08.348-.2.54-.211-.272-.08-.347zm3.295 7.95c.05-.093.166-.032.258.13.403.716-.356.056-.258-.13zm-1.103-2.05c-.031-.222.135-.301.137 1.042l-.233-.413c-.333-.592.145-.26.096-.629zm.068 1.333c.057-.207.146-.26.355-.201.417.12-.464.59-.355.201zm8.163 14.475a.346.346 0 01.318.015c.235.133-.064.296-.293.166-.097-.053-.117-.128-.025-.181zm-.302.464c.118.003.212.031.236.071.023.036-.023.1-.11.15-.196.109-.39-.228-.127-.221zM24.1 95.537c.022-.074.108-.002.183.15.209.42-.23.012-.183-.15zm-1.866-3.184c.63.016-.469-.01 0 0zm-2.078-3.686c.06-.106.134-.114.183-.025.242.43-.482.557-.183.025zm6.909 12.62c.264.007.429.302.165.295-.262-.008-.433-.304-.165-.295zM14.444 80.234c.244.009.36.227.231.45-.295.524-.577-.468-.231-.45zm16.05 31.048c.043-.163.134-.216.245-.151.097.058.126.195.068.298-.142.259-.396.142-.313-.147zM18.256 90.805c.086-.051.178-.023.228.065.247.436-.65.173-.228-.065zm1.73 4.463c.091-.05.164-.057.187-.016.248.444-.6.25-.187.016z" fill="#fff"/><path d="M18.578 93.449c.022.043-.021.102-.111.153-.42.23-.14-.596.11-.153z" fill="#fff"/></svg>