<svg width="399" height="378" fill="none" xmlns="http://www.w3.org/2000/svg"><path fill-rule="evenodd" clip-rule="evenodd" d="M152.333 253.668a2.81 2.81 0 001.803 1.394 2.837 2.837 0 002.246-.391 3.803 3.803 0 00-.994-2.824 2.827 2.827 0 00-3.055 1.821zm12.894 16.954c1.806-1.451 3.683-2.783 1.715-5.134-1.495 1.479-2.884 3.001-1.715 5.134zm-5.394-26.232c-2.649 1.072-2.002 2.689-.465 3.695a3.77 3.77 0 002.217-2.016c-.506-.98-1.29-.726-1.752-1.679zm5.731 9.585c1.973-.188 2.583-1.539 1.346-3.472a3.993 3.993 0 00-2.217 2.016l.871 1.456zm-8.046-15.734c.577 3.02 4.647 1.822 3.942-.294-1.45.437-2.146-1.711-3.942.294zm25.693 29.187a3.813 3.813 0 002.83-.992l-1.507-2.519c-1.738.849-2.071 2.036-1.323 3.511zm-6.944-11.611c.753 1.259 1.471 2.46 2.523 1.939-.776-1.299 1.839-1.843 0-3.443l-2.523 1.504zm-3.222-9.052c.946-.564 1.367 1.481 2.424.611-.765-1.279 1.863-1.805.023-3.405a2.415 2.415 0 00-2.386 1.745 2.415 2.415 0 00-.061 1.049zm-2.942-10.419c-.927-1.103.267-1.655-.994-2.825-1.489.327-3.447.854-2.436 2.813 1.218-.646 1.935 1.089 3.43.012zm10.216 13.638c.445 1.684 1.498.896 2.019 2.214 1.419-.847 1.631-2.147.464-3.695a3.643 3.643 0 00-2.483 1.481zm-8.147-17.062a1.673 1.673 0 001.819 2.436 1.668 1.668 0 001.162-.907c.111-.229.169-.481.168-.737-.623-1.711-1.713-1.969-3.149-.792zm18.127 23.42c1.726-.869 2.071-2.036 1.346-3.472a3.787 3.787 0 00-2.818 1.012l1.472 2.46zm-5.7-19.855c-1.104.925-1.657-.267-2.829.992.389.65-.238 1.077.394 1.821 1.44.664 4.592-.415 2.435-2.813zm4.433 6.247a15.603 15.603 0 00-.031 3.436c1.818.491 2.189-.184 3.035-1.81-.852-1.067-1.807-1.859-3.004-1.626zm32.902 12.582a12.922 12.922 0 00-8.003 1.152 12.897 12.897 0 00-5.745 5.682c1.074 2.377-1.755 6.813 2.697 11.394 7.005 1.698 15.311-5.204 15.518-11.921-2.276-1.794-3.025-4.925-4.467-6.307zm-5.5 14.812c-7.959.553-6.952-9.925.622-9.288 2.61 3.917-.655 6.238-.622 9.288zm4.465-4.024c-1.277-2.896 1.034-4.888-1.408-8.077 3.11.415 3.278 6.375 1.416 8.18l-.008-.103zM188.28 162.342c1.937.02 4.042-1.423 5.952-1.493 10.915-.394 16.029 1.897 24.362-6.302 2.398-5.648 1.743-14.388-3.485-18.479-3.282-2.582-14.839-4.021-18.574-4.678-6.164-1.051-14.801-3.777-19.699-1.952a19.283 19.283 0 00-7.473 5.731 19.237 19.237 0 00-3.861 8.582c-1.731 10.429 13.95 18.541 22.778 18.591zm28.436-18.983c-3.632-.931-6.081-6.546-10.003-6.397 2.897-1.594 8.372 1.256 10.003 6.397zm-4.213-.158c.353.59-.659.954-1.223 1.397 1.177 1.968 2.959.745 4.09 2.367-5.79 9.993-38.079 13.144-39.29-2.606 7.6-15.103 26.656-9.218 36.388-1.217l.035.059zm-44.864.637c1.689-7.414 10.839-14.471 18.401-11.664-5.268 1.565-15.439 9.551-12.47 17.019 3.333 8.345 16.5 8.317 23.836 7.708 7.337-.61 15.384-2.311 19.553-7.546-2.364 10.22-12.771 8.602-22.056 9.038-4.135.196-8.252 1.583-12.12.391-6.457-1.943-13.295-6.49-15.144-14.946zm51.48 90.542l1.971-1.175a1.258 1.258 0 00-1.303-1.123 1.262 1.262 0 00-.668 2.298zm-1.643-7.216c1.498-.893 3.075-1.833 2.129-3.325-1.581.889-3.539 1.683-2.129 3.325zm14.472 13.958c1.966-.692.774-2.864-.481-3.13-1.966.691-.754 2.852.481 3.13zm-10.452-23.243l-1.177-1.968-1.971 1.175a1.676 1.676 0 00.389 2.077c.195.165.425.283.673.345a1.669 1.669 0 001.443-.304 1.674 1.674 0 00.643-1.325zm4.534 11.021c.683.874.099 1.462.664 2.273l2.543-1.516c-.673-1.841-1.938-1.273-3.207-.757zm-1.684-8.582a3.702 3.702 0 001.999 2.225c1.718-.704.969-2.046.011-3.424l-2.01 1.199zm11.074 10.512c.753 1.26 1.471 2.46 2.512 1.92-.353-.591.49-1.013 1.223-1.397-1.073-2.644-2.673-2.01-3.735-.523zm-2.905-17.465c-1.084.38-1.572-1.733-2.878-.34a10.68 10.68 0 00-.36 2.885c2.192.402 2.923-.568 3.238-2.545zm12.196 21.51c-.326-.767.321-1.34.099-2.115-1.096.36-1.929-.318-3.124.501-.44 1.677 1.53 2.558 3.025 1.614zm-6.66-14.532c.696.894.1 1.462.685 2.261l1.971-1.175c-.699-.811-1.398-2.023-2.656-1.086zm1.048-7.459a2.967 2.967 0 00-3.49-1.363c.372 1.113-.885 1.783.513 3.138 1.385-1.173 2.572-.038 2.977-1.775zm6.392 11.941c-3.577 2.96 3.006 4.669 0 0zm-10.196-52.817c-12.125 2.797-17.141 15.559-8.52 20.137 5.384 2.877 12.704-4.423 16.183-9.648-1.25-2.538-.619-4.97-3.319-5.55 2.75-.678-2.875-5.12-4.344-4.939zm-9.916 12.08a9.17 9.17 0 014.189-5.604 9.198 9.198 0 016.928-1.025c4.167 6.7-8.134 16.757-11.177 6.664l.06-.035zm16.439 33.343c.577.964.099 1.463.665 2.273 2.706-.572 1.386-3.896-.665-2.273zm-6.123-74.441c7.091-1.558 14.447-7.946 13.464-14.194-2.941.045-3.622 1.678-6.87 3.401-1.89-.074-6.172-4.329-4.738-6.759 5.179-.685 9.846.724 15.068-.067-.383-5.111 1.344-11.48 1.245-15.132-3.365-.664-6.134 1.548-9.204-2.736 2.909-1.173-.615-1.475.794-3.143 3.778-2.626 9.832-5.38 12.231-2.486a7.47 7.47 0 002.371-4.084c-9.261-5.424-17.892-10.69-27.63-4.885-14.134 8.693-12.848 32.169-5.844 45.266 3.207 1.025 5.969 3.676 9.113 4.819zm16.871-46.367c-2.128 2.523-6.245 1.854-8.082 4.818-.77-.929-1.825-.727-2.695-1.063-2.028 1.93-2.871 4.141-5.406 5.893 2.368.697 1.291 5.825 4.542 4.153.025 1.427-2.363 2.263-.158 4.206 1.9 1.03 4.47-.663 6.966-2.124.543 1.892 1.742 1.124 2.695 1.063.741 3.029-1.276 5.379.391 8.657-7.303 1.204-12.378-.843-19.011.361a9.757 9.757 0 00-2.129 5.382c2.723 2.407 4.623 3.571 4.225 7.065 4.03 2.937 5.908-2.641 10.308.021-2.463 3.124-3.495 3.099-7.775 5.33-24.516-10.319-10.014-61.094 16.129-43.762zm4.039 50.346c-1.484-.156-4.367.255-3.234 2.596 2.177.331 2.899-.607 3.234-2.596zm7.578-1.1c-.464.117-.85-.081-1.093-.71a3.832 3.832 0 00-2.237 2.028l.895 1.495c1.993-.2 1.924-1.254 2.435-2.813zm50.154 76.97c-6.233 18.506 26.977 10.053 18.585-2.19-3.722-5.417-12.436-2.864-18.585 2.19zm2.512 1.92c3.529-2.639 9.137-4.887 12.544-2.007.308 5.477-12.467 10.317-12.544 2.007zm-50.752-86.198c-.449-1.601-1.606-.405-2.182-1.369-1.301.776-1.233 1.963-1.617 3.02 1.877.322 2.904.698 3.799-1.651zM271.274 152c.592-.353 1.035.478 1.419 1.21 2.218-.762 1.336-2.238 1.346-3.472-1.113-.431-3.604.814-2.765 2.262zm6.614 7.616l1.507 2.519c2.914-.536 1.037-4.436-.788-3.642.129.484-.08.849-.719 1.123zm8.592 5.157c-.577-.964-1.242-.781-1.689-1.663a2.753 2.753 0 00-.795 3.144c1.551.357 1.258-.67 2.484-1.481zm-11.278-23.418c-.465.117-.851-.08-1.093-.71a3.309 3.309 0 01-2.278.664c.601 1.004-.991 1.472.172 2.567 1.548-.228 3.317-.802 3.199-2.521zm.612-2.42c-.705-1.716-1.776-1.985-3.148-.793 1.026 2.298 2.002 2.544 3.148.793zm9.969 16.669c.365.61-.363.644-1.005.599.683.874.087 1.443.664 2.274a1.88 1.88 0 001.61-.448 1.889 1.889 0 00.619-1.549c-.816.514-1.088-1.193-1.888-.876zm-4.71-5.415c.465-.117.839.061 1.113.698 2.183-.821 1.757-2.115.465-3.694a2.782 2.782 0 01-1.824.393c1.726 1.187-1.282 1.298.246 2.603zm1.106-10.938c-2.341-.472-2.532 2.204-1.858 3.778 2.045-.872 2.764-2.129 1.858-3.778zm53.038-4.229c1.063-.234 5.471.609 4.366-1.909-10.333-1.048-24.146 15.917-14.61 23.768a5.607 5.607 0 00.502 6.562c.608-6.583 3.558-16.405 11.15-20.343 4.084-2.115 6.775.419 10.968-1.2a8.484 8.484 0 00-7.598-2.331c-8.465 1.629-11.05 12.194-16.882 14.203-.583-7.369 3.95-13.515 12.104-18.75zm9.773 59.931c1.022 2.247 2.224 3.719 4.089 2.367-5.099-5.396 8.851-10.776 10.548-14.511-4.193-.17-12.934 6.99-14.637 12.144z" fill="#fff"/><path fill-rule="evenodd" clip-rule="evenodd" d="M274.294 189.152c1.965-4.002 1.83-9.101 2.763-12.593 7.627-.169 14.905-6.377 17.8-12.668 11.292-23.952-17.887-47.03-43.177-26.319-3.202 4.125-7.453 9.222-8.103 15.11 2.377 4.376 1.264 7.255 4.501 11.012-2.782 8.36-4.793 32.225 8.003 36.317 7.546 2.469 14.725-3.68 18.213-10.859zm7.197-55.657c17.504 8.253 14.584 39.094-4.769 41.207 1.446-15.465-17.279-28.89-27.748-14.292-8.508-18.876 17.57-34.022 32.517-26.915zm-18.445 64.392c-3.723 1.285-7.77-2.709-10.495-2.66-2.876-6.508-5.766-19.789-1.83-28.276 1.963 6.412-2.243 21.6 5.711 26.763 9.512 6.156 14.946-12.568 15.486-18.817-3.293-2.869-1.642-7.217-4.226-10.509-3.813-4.989-12.346-4.547-16.566.96-2.065-10.784 14.991-10.166 19.482-4.087 7.382 9.883 3.246 32.879-7.538 36.665l-.024-.039zm4.808-20.62c.614 5.854-1.471 14.439-9.228 14.392-5.167-4.929-3.634-11.396-5.229-16.746 4.651 1.472 8.79 4.905 14.457 2.354zm-13.006-12.804a15.93 15.93 0 0110.614.534c1.048 3.406 2.801 7.007 2.609 10.084-6.884 2.529-17.4-3.429-13.223-10.618zm49.989 5.785c-7.74 5.389-1.563 20.502 7.557 16.079 5.83-2.862 6.278-11.592 3.275-16.343-4.272-1.644-7.914-1.742-10.832.264zm-.197 7.673c-.231-2.532 4.079-3.82 5.387-5.881 5.141 2.515-2.332 15.326-5.387 5.881zm-134.368 47.217c-10.055 1.43-20.669 6.664-24.579 13.987a52.384 52.384 0 00-2.644 10.467 26.25 26.25 0 003.79 15.547c-10.049 10.023-17.885 28.711-11.38 41.732 7.975 16.017 35.904-9.178 42.062-20.298 1.795-3.259 1.478-7.902 2.851-11.284.795 1.955 2.138 1.742 3.331 2.126 14.776-7.261 20.601-23.095 17.429-32.871-3.76-11.561-18.067-21.266-30.86-19.406zm-5.917 72.729c5.372-8.543 18.3-24.26 8.393-35.146-3.201-3.565-8.188-2.38-13.332-1.636-9.326 6.762-22.179 23.902-21.01 37.168 1.169 13.266 17.622 6.527 25.071-.557-4.914 7.388-23.071 19.548-26.815 4.347-1.191-4.63-.188-11.448 1.145-16.462 3.143-11.645 12.475-24.924 26.94-28.369 19.849 5.2 14.613 31.095-.392 40.655zm9.15-26.013c-.214 2.237.135 4.698-1.628 6.444-6.481-2.117-14.065.136-19.076-7.796 4.862-7.251 15.851-12.574 20.607-1.313-.939.934-1.298-.561-2.13-.119a2.974 2.974 0 00-.611 2.421c.599 1.538 1.599 1.289 2.838.363zm-1.823 7.281c-1.221 9.538-11.309 20.972-25.117 24.532-10.817-8.742-2.004-22.486 4.806-30.951 5.612 6.746 12.682 7.657 20.311 6.419zm8.396-4.338c2.839-18.726-21.392-26.199-31.042-11.662-4.28-3.268-3.414-12.862-3.416-13.715 1.633-19.982 31.271-26.092 44.499-16.224 15.044 13.617 9.876 36.855-10.041 41.601z" fill="#fff"/><path fill-rule="evenodd" clip-rule="evenodd" d="M283.165 67.487c-5.731-.908-8.768-5.718-13.628-9.015a73.515 73.515 0 00-17.244-8.22 159.538 159.538 0 00-18.17-6.281c-2.57-.497-6.481.073-9.795-.327-12.695-1.51-26.407 1.14-41.648 8.384a24.202 24.202 0 00-1.036 24.645c-7.073 34.225-21.145 66.002-33.764 99.583a69.737 69.737 0 01-4.173 18.239c-6.51 21.662-14.397 42.142-21.139 63.329-1.566 4.938-4.489 9.617-6.28 14.716-5.422 15.3-11.343 29.723-16.477 44.745-2.66 8.741 2.093 19.549 13.288 18.775 11.21-3.613 23.538-5.757 34.888-10.521 3.992-1.686 7.081-4.569 11.117-6.628 8.739-4.436 18.596-7.403 27.91-11.861 11.552-5.499 21.808-8.783 34.791-15.242 17.189-8.593 38.089-12.59 57.536-21.968 7.441-3.609 14.953-6.966 21.218-9.233 8.031-2.892 15.495-8.117 23.673-12.058 8.585-4.157 15.379-5.137 21.926-6.932 2.585-.686 5.771-2.959 9.207-4.1 4.251-1.387 8.968-1.369 12.231-2.486 6.864-2.384 7.073-6.46 11.629-10.378-2.204-4.266 1.94-7.217 2.064-11.482.12-4.851-2.791-11.685-4.51-17.868-4.455-16.033-11.806-29.217-19.819-45.745-1.243-2.569-2.033-5.276-3.221-7.664-16.855-33.949-47.776-55.961-70.574-74.407zm-96.001-14.849c.116 8.287-2.563 20.217 7.206 25.82-3.954-7.281-11.153-21.197-.535-28.435-1.923 8.274-1.641 22.336 8.813 29.666.035-3.651-3.683-5.307-5.439-9.092-2.966-6.48-2.227-13.382-1.649-18.853 2.209-1.85 3.449-3.578 7.057-4.207-1.153 7.014-1.793 17.434 3.777 25.807 1.177 1.969 3.051 5.416 5.596 4.887-6.719-8.596-10.609-21.494-6.988-30.06 2.319-1.89 4.086-1.529 6.159-2.31-3.375 9.514 1.44 22.929 6.901 32.194-6.135 2.082-9.147 2.276-15.266 4.296-6.346-2.651-16.012-.973-19.983-9.311-2.814-6.092-3.158-14.937 4.351-20.402zm4.554 247.39c-1.011 1.35-5.505 2.107-8.682 3.814-1.695 1.011-3.093 2.832-4.76 3.532-2.266.951-5.556.323-7.578 1.101-3.325 1.235-5.828 4.115-8.793 5.909a122.936 122.936 0 01-52.577 17.651c-.679-.824-.139-1.306.206-.818 20.577-1.588 40.09-14.476 60.631-23.813 12.438-5.627 29.352-14.188 42.448-18.446-3.329 1.051-5.489 4.234-8.308 5.648-2.234 1.092-9.5 1.418-12.587 5.422zm15.266-4.297c1.86-2.256 7.267-6.628 10.744-5.017-4.606 3.253-7.345 2.965-10.744 5.017zm6.083-7.043c1.731-3.409 5.87-1.765 8.9-4.612-1.026 4.723-5.565 2.811-8.9 4.612zm30.521-8.612c-2.254.703-4.946-.042-7.066.795-4.33 1.701-6.99 4.541-10.605 2.879 5.308-5.835 19.426-7.043 26.896-11.23a16.062 16.062 0 01-9.225 7.556zm8.273-2.263c4.528-7.585 12.67-3.762 18.913-11.969 2.926 3.595 5.238-.988 8.475-2.998-3.525 9.844-17.241 9.265-27.353 15.026l-.035-.059zm29.142-12.034c-1.207-6.489 9.085-11.637 14.342-13.89.113 2.335-5.596 8.035-9.769 11.163-1.152 1.248-3.201 1.935-4.479 2.884l-.094-.157zm9.925-5.224c1.112-2.611 5.361-4.45 6.925-6.798.909 3.89-2.603 5.931-6.83 6.956l-.095-.158zm9.008-3.314c-.309-2.485 3.185-5.316-.315-7.368a30.292 30.292 0 009.02-3.295 19.418 19.418 0 01-8.611 10.82l-.094-.157zm17.853-7.974c-1.402.382-5.291 1.793-5.34 2.516-1.709-1.651 3.869-4.976 6.051-7.051 1.212 2.027-.975 3.064-.593 4.731l-.118-.196zm2.742-2.302c-1.411-1.509 1.582-1.825-.001-3.444a42.632 42.632 0 009.008-3.314c-1.073 2.989-4.773 4.18-8.89 6.955l-.117-.197zm11.018-4.513c-.824-1.378 4.141-4.925 5.066-3.021l-5.066 3.021zm8.102-4.83a16.997 16.997 0 019.893-5.232c-1.697 4.003-6.142 3.769-9.776 5.428l-.117-.196zm8.67-.391a8.032 8.032 0 013.461-3.425c1.683 2.948-1.666 2.222-3.343 3.622l-.118-.197zm-61.494 15.304c-9.901 4.728-18.807 10.225-29.01 14.626-9.131 3.869-19.102 6.289-28.808 10.314-20.587 8.589-40.937 18.559-61.083 27.526-8.639 3.843-16.354 9.99-24.885 13.475-3.697 1.51-8.931 2.281-13.443 3.903-9.717 3.47-15.287 6.631-23.643 5.179-7.168-4.564.054-21.951 2.795-29.753 3.49-9.903 8.012-18.125 10.955-26.394l9.802-27.202c7.268-20.352 12.074-40.036 19.602-58.968 3.119-18.973 13.031-38.392 19.19-57.334 5.294-16.185 12.013-31.778 14.851-48.581 15.173 10.257 34.795.053 52.113-2.288 10.748 3.843 16.073 12.79 26.731 18.316 7.709 3.947 13.488 4.666 19.96 16.159 1.683 2.814 2.026 6.428 4.631 8.906 3.934 3.715 10.948 2.79 14.633 4.972 21.031 12.45 13.913 36.183 28.476 55.614 4.429 5.929 8.463 8.65 11.647 15.002 5.152 10.09 2.916 23.25 12.341 31.006-20.944 11.927-44.461 15.215-66.679 25.817l-.176-.295zm67.073-18.63c-.164-.676.134-1.788.711-1.091a4.115 4.115 0 00.099-2.115c.764-.242 1.338.404 2.118.099.918 1.668-1.438 2.379-2.81 3.304l-.118-.197zm8.07-1.394c1.978-4.116 8.319-4.96 10.725-5.006-1.658 3.845-6.672 4.806-10.607 5.203l-.118-.197zm-11.815-92.005c6.049 10.784 11.36 24.09 16.992 36.458 5.632 12.367 10.551 26.895 11.334 38.442-2.938 7.518-11.079 14.427-19.001 10.66 2.873-4.809 9.786-6.261 14.447-7.945-4.221-3.571-12.624 2.186-16.848 7.374-6.256-1.876-5.911-8.676-9.063-15.153 1.156-1.197 1.605.404 2.571-.172-.875-6.74 9.3-13.02 15.495-15.405-2.916-2.506-10.029 2.188-12.807 4.966a15.831 15.831 0 00-4.664 8.253c-3.265-10.467-14.923-25.623 4.241-31.896-5.13-2.094-12.036 5.494-13.759 10.259-13.779-9.939-16.314-27.277-20.637-42.507a23.864 23.864 0 019.947-15.515c1.868-.632 2.977 1.803 5.035.416-4.511-7.99-16.948 6.58-15.499 11.91-2.982-2.841-2.392-4.314-5.644-8.275 1.014-6.665 6.408-14.099 13.977-14.5-4.517-5.45-16.395 7.104-15.189 12.473-13.67-4.345-3.388-20.06 7.009-19.263-5.358-5.83-15.369 6.493-17.295 12.393-.766-2.8-4.873-.993-4.396-2.879-2.12-4.93 3.328-9.86 5.68-12.276 1.971-1.175 6.424.682 6.159-2.311-7.501-1.989-15.798 7.79-13.957 14.489-11.161-2.61-10.065-16.426-21.074-23.745-2.839-1.885-7.292-1.954-11.422-4.163-9.38-5.087-15.797-16.399-25.094-17.904-5.908-.936-11.254 2.197-16.193 2.792-7.365-11.868-11.075-22.764-5.776-31.477a26.63 26.63 0 017.371-.283c-5.27 6.613-3.03 23.325 5.7 26.744 1.543-1.534-2.371-3.472-3.518-4.764-3.161-7.7-4.512-17.067.242-21.37 2.095-.34 3.822.712 5.755.681-.182 6.089-.734 15.629 3.295 22.678.836 1.397 2.063 5.55 4.829 4.676a33.201 33.201 0 01-5.358-26.173c4.21-.695 7.48 2.135 11.321 2.835-4.52 7.687-4.689 22.605 3.841 27.077 1.874-1.784-.515-3.99-2.354-3.936-3.643-8.64-3.765-16.443 1.442-22.805l1.177 1.968c4.237-1.858 10.273 1.885 14.446 5.778-10.313.328-11.615 16.883-4.903 22.786-2.06-7.155-5.198-20.182 8.225-22.017 29.066 20.208 63.354 44.004 83.92 80.626z" fill="#fff"/><path fill-rule="evenodd" clip-rule="evenodd" d="M165.872 205.175c-1.801-3.011-7.606-6.145-10.909-4.469-7.028 3.763-5.101 18.072 4.193 20.78 6.754-2.478 10.122-10.439 6.716-16.311zm-11.313.577a3.796 3.796 0 002.829-.992c3.682 1.462 5.547 7.665 1.79 9.879-3.708-.433-5.488-5.512-4.619-8.887zm31.034-8.917c-.014-2.929-3.994-6.99-.59-9.927 2.281 5.021 1.276 9.197 2.097 13.834 6.182 2.108 13.947-1.988 21.109-3.694 1.059-3.729-2.301-8.587-1.978-12.517 3.056 3.143-.071 5.381 4.225 7.065 5.403-5.677 10.267-14.13 3.071-22.362-9.572-11.086-43.935-4.428-50.81 8.935-3.072 5.997 2.542 20.884 10.976 22.824 3.906-1.741 9.419-2.092 11.9-4.158zm-10.973-26.35c4.662-2.219 18.67-5.177 24.755-4.48a33.898 33.898 0 0111.934 3.858c5.384 5.2 2.577 10.478.874 15.231-3.5.004-4.914-5.4-4.838-8.089-2.096-2.968-5.812.342-7.873-2.835-3.874 7.65 8.965 11.502 6.041 20.427a47.836 47.836 0 01-13.443 3.903c-1.632-.763-.408-2.427-2.202-1.357.253-4.049-2.737-9.048-1.485-12.811-2.312-1.585-4.945-1.964-6.947-4.775-5.11 3.527-4.72 8.874-1.54 11.196-2.601 1.284-2.803 3.674-.424 5.059-3.344 2.501-5.09 1.593-8.376.882-7.497-9.226-8.545-20.455 3.524-26.209zm71.578 31.333c-12.431.096-32.524.702-39.452 16.659-3.884 17.427 14.081 31.011 29.853 28.096 5.168-.972 10.316-5.643 16.355-7.081 10.954-9.762 8.968-33.113-6.756-37.674zm6.038 6.652c-1.223.862-5.237-1.87-7.174-3.946a18.198 18.198 0 017.174 3.946zm-15.844 35.476c-7.433 1.522-20.861-3.581-25.137-11.044-3.762-6.781-1.719-13.605 2.38-21.282 2.137.488 2.484-1.881 4.553-2.714.989 1.653-.262 2.826 1.42 4.653 1.971-1.175.459-2.943.698-4.555 3.253-1.939 6.267-3.202 8.766-2.556.592-.353-.119-1.183-.413-1.809 3.665.271 7.104 1.104 11.126.228.696.76.171 1.179-.405 1.603 4.401-1.049 8.945 4.358 13.951 13.041-.274 12.284-2.396 21.478-16.939 24.435zm30.334-7.806c-5.339 1.981-9.022 13.708-1.768 18.861 7.253 5.153 15.769-9.401 12.155-15.443a10.384 10.384 0 00-10.387-3.418zm.361 15.536a8.22 8.22 0 011.638-13.311 2.962 2.962 0 002.444.599c2.337 4.934.501 10.941-4.082 12.712zm7.295-5.016c.917-1.775-.716-4.192.681-5.746-.083 1.918 1.271 4.181-.681 5.746zm-61.946-142.558c-7.654-11.456-30.879 5.061-18.204 17.714 10.007 10.026 24.822-7.857 18.204-17.714zm-4.705.135c2.405 5.855 2.225 12.663-3.069 15.526-11.108 5.928-10.435-17.94 3.045-15.565l.024.039zm101.553 106.53a43.662 43.662 0 01-12.022-5.167c3.061-4.495 7.186-1.935 9.609 1.133 8.395-11.76-8.021-20.207-17.843-19.504-15.744 7.117-22.67 20.217-18.65 33.064 4.212 13.748 18.438 17.414 28.979 9.421-2.485-3.217-5.193-5.554-7.576-9.179 4.765-.171 7.181 4.182 10.917 4.437 3.233-2.061 1.035-5.423 1.815-7.249.779-1.826 4.565-2.829 4.771-6.956zm-7.246 9.659a32.922 32.922 0 01-12.74-4.044 9.714 9.714 0 00-3.105 3.204 9.679 9.679 0 00-1.341 4.252 2.727 2.727 0 011.419 1.21c2.745-2.117 6.232 4.294 8.485 3.858-31.459 11.067-27.298-40.858-.851-39.246 4.418 1.932 13.564 4.168 12.524 11.729-4.824-1.315-12.634-2.345-14.773 4.003 4.094 4.207 9.529 3.102 13.746 6.888a26.186 26.186 0 00-3.384 8.292l.02-.146zm55.869-11.923a18.331 18.331 0 00-5.471 8.067 3.283 3.283 0 001.69 1.662c2.054-1.438 1.647-4.132 3.746-6.345 4.049-4.229 9.542-4.567 12.853-8.33-3.231-.664-9.478 2.394-12.818 4.946z" fill="#fff"/></svg>