<svg width="133" height="122" fill="none" xmlns="http://www.w3.org/2000/svg"><path fill-rule="evenodd" clip-rule="evenodd" d="M52.548 62.715c2.408-1.334 2.78-1.17 3.546.903 3.867 10.505 6.15 15.246 4.651 15.821a1.918 1.918 0 01-2.457-1.16c-6.335-16.436-5.482-14.428-5.74-15.563zM64.727 97.51c-2.834-7.497-5.367-12.04-2.606-12.492a1.62 1.62 0 011.38.751c5.07 13.33 4.888 12.738 1.226 11.74zM44.672 83.69c-3.169-11.515-3.624-12.049-1.721-13.71 1.903-1.66 2.24 2.345 3.549 10.096.39 2.285.302 4.52-1.828 3.614zm2.161 18.079c-1.219-7.705-2.136-9.494.58-9.946 1.419-.243 1.504.873 1.929 8.99.094 1.281-.222 1.358-2.51.956zm40.533-59.564a13.42 13.42 0 01-2.662-.28c-15.606-5.466-15.156-5.349-14.795-6.765a1.819 1.819 0 012.237-1.183c17.457 7.09 14.776 5.143 15.22 8.228zm28.345 8.613c-.967 3.505-1.219 2.682-8.187.057-2.524-.962-1.136-3.237.963-2.706 1.447.372 3.606 1.255 7.224 2.649zm-22.536-8.176c1.953.016.342-.788 7.939 2.876 1.868.874.204 2.992-1.337 2.327-8.156-3.53-7.723-2.39-6.602-5.203zm-59.719 71.67c-4.258.379-1.311-13.266-4.007-27.11-.584-2.969 2.63-3.407 2.728-1.028.13 3.364 1.161 26.478 1.279 28.138zM31.008 80.01c-2.667 1.868-2.665-1.562-3.218-6.007-.235-1.834 2.914-2.36 3.096-.248.566 6.468.502 4.484.122 6.254zM58.85 46.666c1.477-2.398 1.995-2.388 3.632-.274 8.98 11.62 11.841 13.853 10.168 14.774a2.728 2.728 0 01-3.09-1.096C57.78 45.719 59.11 47.425 58.85 46.666zm25.636 30.276c2.145-2.977 2.156-2.02 6.672 3.322 1.757 2.093-1.494 2.467-2.43 1.442a946.071 946.071 0 01-4.242-4.764zm-2.494-6.832c-3.019 2.144-2.46 1.464-5.522-1.889-1.592-1.75-1.403-2.288 1.267-3.013 1.336 1.545 2.736 3.144 4.255 4.903zm.057-49.698c.873 2.231.648 2.706-1.264 2.943-14.656 1.759-15.235 2.305-15.385.51-.185-2.586.261-1.989 16.649-3.453zm25.883-1.273c.38 1.328.434 2.388-.963 2.615-2.382.537-4.839.66-7.264.366-.328-2.899.45-2.436 8.227-2.981zm-19.527 3.05c.868-1.42-.28-1.743 6.345-2.234.251-.028.843.778.806 1.078-.45 2.073-5.253 1.781-7.15 1.156zM77.801 52.855c1.268-2.253 1.397-2.292 3.013-.89 15.533 13.57 12.568 10.984 14.673 13.27-2.32 1.36-1.657.591-17.686-12.38zm-2.776-4.929c-.744 2.134-2.638.769-4.214-.869-.201-.27-.042-1.104.213-1.522.712-1.099 2.699 1.196 4 2.391z" fill="#fff"/></svg>